<svg width="222" height="24" viewBox="0 0 222 24" fill="none" xmlns="http://www.w3.org/2000/svg">
<path d="M21.735 1.125C21.7817 1.125 21.805 1.195 21.805 1.335C21.805 1.475 21.7817 1.545 21.735 1.545C20.965 1.545 20.09 1.95333 19.11 2.77C18.13 3.56333 17.255 4.59 16.485 5.85L12.495 12.325V20.165C12.495 20.8883 12.5533 21.4133 12.67 21.74C12.81 22.0667 13.055 22.2883 13.405 22.405C13.7783 22.5217 14.3617 22.58 15.155 22.58C15.225 22.58 15.26 22.65 15.26 22.79C15.26 22.93 15.225 23 15.155 23C14.385 23 13.79 22.9883 13.37 22.965L10.815 22.93L8.295 22.965C7.82833 22.9883 7.21 23 6.44 23C6.39333 23 6.37 22.93 6.37 22.79C6.37 22.65 6.39333 22.58 6.44 22.58C7.23333 22.58 7.805 22.5217 8.155 22.405C8.52833 22.2883 8.785 22.0667 8.925 21.74C9.065 21.39 9.135 20.865 9.135 20.165V12.955L3.815 4.835C3.02167 3.59833 2.33333 2.74667 1.75 2.28C1.19 1.79 0.641667 1.545 0.105 1.545C0.035 1.545 0 1.475 0 1.335C0 1.195 0.035 1.125 0.105 1.125L1.26 1.16C1.77333 1.20667 2.14667 1.23 2.38 1.23C3.17333 1.23 4.29333 1.20667 5.74 1.16L7.91 1.125C7.95667 1.125 7.98 1.195 7.98 1.335C7.98 1.475 7.95667 1.545 7.91 1.545C6.95333 1.545 6.475 1.87167 6.475 2.525C6.475 2.85167 6.615 3.225 6.895 3.645L11.97 11.45L15.54 5.605C16.1233 4.64833 16.415 3.80833 16.415 3.085C16.415 2.05833 15.7733 1.545 14.49 1.545C14.4433 1.545 14.42 1.475 14.42 1.335C14.42 1.195 14.4433 1.125 14.49 1.125L16.31 1.16C17.29 1.20667 18.1883 1.23 19.005 1.23C19.4017 1.23 19.88 1.20667 20.44 1.16L21.735 1.125ZM33.352 23.42C31.182 23.42 29.2453 22.9183 27.542 21.915C25.862 20.8883 24.5553 19.5117 23.622 17.785C22.712 16.035 22.257 14.1333 22.257 12.08C22.257 9.67667 22.8637 7.62333 24.077 5.92C25.2903 4.19333 26.842 2.89833 28.732 2.035C30.6453 1.17167 32.5937 0.739999 34.577 0.739999C36.7937 0.739999 38.742 1.265 40.422 2.315C42.102 3.34167 43.3853 4.70667 44.272 6.41C45.182 8.11333 45.637 9.92167 45.637 11.835C45.637 13.9583 45.077 15.9067 43.957 17.68C42.837 19.4533 41.332 20.8533 39.442 21.88C37.5753 22.9067 35.5453 23.42 33.352 23.42ZM34.542 22.58C35.942 22.58 37.1903 22.2067 38.287 21.46C39.407 20.69 40.282 19.57 40.912 18.1C41.5653 16.63 41.892 14.88 41.892 12.85C41.892 10.7033 41.5303 8.77833 40.807 7.075C40.107 5.37167 39.092 4.04167 37.762 3.085C36.4553 2.12833 34.9153 1.65 33.142 1.65C30.8787 1.65 29.117 2.46667 27.857 4.1C26.6203 5.71 26.002 7.95 26.002 10.82C26.002 13.0367 26.3637 15.0433 27.087 16.84C27.8337 18.6367 28.8487 20.0483 30.132 21.075C31.4387 22.0783 32.9087 22.58 34.542 22.58ZM67.3239 5.395C67.3239 4.18167 67.0439 3.23667 66.4839 2.56C65.9472 1.88333 65.1655 1.545 64.1389 1.545C64.0922 1.545 64.0689 1.475 64.0689 1.335C64.0689 1.195 64.0922 1.125 64.1389 1.125L65.7489 1.16C66.6355 1.20667 67.3355 1.23 67.8489 1.23C68.2689 1.23 68.8989 1.20667 69.7389 1.16L71.2789 1.125C71.3255 1.125 71.3489 1.195 71.3489 1.335C71.3489 1.475 71.3255 1.545 71.2789 1.545C70.3689 1.545 69.6572 1.88333 69.1439 2.56C68.6539 3.23667 68.4089 4.18167 68.4089 5.395V15.195C68.4089 16.875 68.0472 18.345 67.3239 19.605C66.6239 20.8417 65.6205 21.7983 64.3139 22.475C63.0305 23.1517 61.5372 23.49 59.8339 23.49C58.1305 23.49 56.6139 23.1633 55.2839 22.51C53.9539 21.8333 52.9155 20.8767 52.1689 19.64C51.4455 18.38 51.0839 16.91 51.0839 15.23V3.96C51.0839 3.26 51.0139 2.74667 50.8739 2.42C50.7339 2.09333 50.4772 1.87166 50.1039 1.755C49.7539 1.615 49.1939 1.545 48.4239 1.545C48.3539 1.545 48.3189 1.475 48.3189 1.335C48.3189 1.195 48.3539 1.125 48.4239 1.125L50.2439 1.16C51.2705 1.20667 52.0989 1.23 52.7289 1.23C53.4289 1.23 54.2922 1.20667 55.3189 1.16L57.0689 1.125C57.1389 1.125 57.1739 1.195 57.1739 1.335C57.1739 1.475 57.1389 1.545 57.0689 1.545C56.2989 1.545 55.7272 1.615 55.3539 1.755C55.0039 1.895 54.7589 2.14 54.6189 2.49C54.4789 2.81667 54.4089 3.33 54.4089 4.03V14.005C54.4089 16.7817 54.9805 18.8583 56.1239 20.235C57.2905 21.5883 58.9122 22.265 60.9889 22.265C62.9722 22.265 64.5239 21.6583 65.6439 20.445C66.7639 19.2083 67.3239 17.47 67.3239 15.23V5.395ZM96.9749 1.125C97.0216 1.125 97.0449 1.195 97.0449 1.335C97.0449 1.475 97.0216 1.545 96.9749 1.545C96.0416 1.545 95.3182 1.88333 94.8049 2.56C94.2916 3.21333 94.0349 4.15833 94.0349 5.395V23.49C94.0349 23.56 93.9766 23.6067 93.8599 23.63C93.7432 23.6533 93.6616 23.6417 93.6149 23.595L77.1999 4.52V18.765C77.1999 20.0017 77.4449 20.9467 77.9349 21.6C78.4249 22.2533 79.1365 22.58 80.0699 22.58C80.1166 22.58 80.1399 22.65 80.1399 22.79C80.1399 22.93 80.1166 23 80.0699 23C79.4399 23 78.9615 22.9883 78.6349 22.965L76.7799 22.93L74.7149 22.965C74.3415 22.9883 73.8049 23 73.1049 23C73.0349 23 72.9999 22.93 72.9999 22.79C72.9999 22.65 73.0349 22.58 73.1049 22.58C74.1082 22.58 74.8782 22.2533 75.4149 21.6C75.9749 20.9467 76.2549 20.0017 76.2549 18.765V3.435C75.6015 2.735 75.0065 2.245 74.4699 1.965C73.9565 1.685 73.4199 1.545 72.8599 1.545C72.8132 1.545 72.7899 1.475 72.7899 1.335C72.7899 1.195 72.8132 1.125 72.8599 1.125L74.2599 1.16C74.5632 1.18333 74.9949 1.195 75.5549 1.195L77.7949 1.16C78.0749 1.13667 78.4132 1.125 78.8099 1.125C78.9965 1.125 79.1365 1.17167 79.2299 1.265C79.3232 1.35833 79.4632 1.545 79.6499 1.825C80.0465 2.36167 80.3382 2.735 80.5249 2.945L93.0899 17.785V5.395C93.0899 4.15833 92.8449 3.21333 92.3549 2.56C91.8649 1.88333 91.1649 1.545 90.2549 1.545C90.2082 1.545 90.1849 1.475 90.1849 1.335C90.1849 1.195 90.2082 1.125 90.2549 1.125L91.6899 1.16C92.4366 1.20667 93.0549 1.23 93.5449 1.23C94.0116 1.23 94.6416 1.20667 95.4349 1.16L96.9749 1.125ZM111.795 23.42C109.228 23.42 106.988 22.93 105.075 21.95C103.185 20.97 101.738 19.64 100.735 17.96C99.7313 16.2567 99.2296 14.3667 99.2296 12.29C99.2296 10.05 99.8013 8.055 100.945 6.305C102.111 4.53167 103.698 3.16667 105.705 2.21C107.735 1.23 110.01 0.739999 112.53 0.739999C113.626 0.739999 114.723 0.833332 115.82 1.02C116.916 1.20667 117.803 1.46333 118.48 1.79C118.666 1.88333 118.783 1.97666 118.83 2.07C118.9 2.16333 118.946 2.33833 118.97 2.595L119.39 7.145C119.39 7.215 119.331 7.26167 119.215 7.285C119.098 7.30833 119.016 7.27333 118.97 7.18C118.27 5.43 117.22 4.065 115.82 3.085C114.42 2.105 112.775 1.615 110.885 1.615C108.318 1.615 106.346 2.455 104.97 4.135C103.593 5.79167 102.905 8.07833 102.905 10.995C102.905 13.2817 103.325 15.3233 104.165 17.12C105.005 18.9167 106.16 20.3167 107.63 21.32C109.123 22.3233 110.791 22.825 112.635 22.825C113.661 22.825 114.455 22.72 115.015 22.51C115.575 22.3 115.983 21.8917 116.24 21.285C116.52 20.6783 116.66 19.78 116.66 18.59C116.66 17.3767 116.59 16.5367 116.45 16.07C116.31 15.58 115.995 15.2533 115.505 15.09C115.038 14.9267 114.21 14.845 113.02 14.845C112.88 14.845 112.81 14.7517 112.81 14.565C112.81 14.495 112.821 14.4367 112.845 14.39C112.891 14.32 112.938 14.285 112.985 14.285C114.921 14.4017 116.473 14.46 117.64 14.46C118.806 14.46 120.02 14.425 121.28 14.355C121.326 14.355 121.361 14.39 121.385 14.46C121.431 14.5067 121.455 14.5533 121.455 14.6C121.455 14.7633 121.396 14.845 121.28 14.845C120.813 14.8217 120.486 14.9033 120.3 15.09C120.113 15.2533 119.985 15.6033 119.915 16.14C119.868 16.6767 119.845 17.61 119.845 18.94C119.845 19.99 119.88 20.7367 119.95 21.18C120.043 21.6233 120.09 21.9033 120.09 22.02C120.09 22.16 120.055 22.2533 119.985 22.3C119.938 22.3233 119.833 22.37 119.67 22.44C116.73 23.0933 114.105 23.42 111.795 23.42ZM128.343 4.835C128.343 5.69833 128.553 6.46833 128.973 7.145C129.416 7.79833 129.953 8.37 130.583 8.86C131.236 9.35 132.111 9.93333 133.208 10.61C134.398 11.3567 135.331 11.9983 136.008 12.535C136.708 13.0717 137.291 13.7367 137.758 14.53C138.248 15.3 138.493 16.21 138.493 17.26C138.493 18.45 138.178 19.5117 137.548 20.445C136.941 21.3783 136.066 22.1133 134.923 22.65C133.803 23.1633 132.519 23.42 131.073 23.42C130.093 23.42 129.078 23.2917 128.028 23.035C127.001 22.7783 126.219 22.4633 125.683 22.09C125.473 21.95 125.356 21.7283 125.333 21.425L125.123 16.105V16.07C125.123 15.9767 125.181 15.93 125.298 15.93C125.414 15.9067 125.484 15.9417 125.508 16.035C126.278 17.9717 127.153 19.5583 128.133 20.795C129.136 22.0317 130.408 22.65 131.948 22.65C132.951 22.65 133.791 22.3817 134.468 21.845C135.144 21.285 135.483 20.3633 135.483 19.08C135.483 18.0533 135.249 17.155 134.783 16.385C134.339 15.615 133.779 14.9733 133.103 14.46C132.449 13.9467 131.551 13.3167 130.408 12.57C129.288 11.8467 128.413 11.24 127.783 10.75C127.153 10.2367 126.616 9.61833 126.173 8.895C125.729 8.14833 125.508 7.285 125.508 6.305C125.508 5.09167 125.846 4.065 126.523 3.225C127.199 2.385 128.074 1.76667 129.148 1.37C130.244 0.949999 131.388 0.739999 132.578 0.739999C133.371 0.739999 134.164 0.821666 134.958 0.985C135.751 1.125 136.416 1.31167 136.953 1.545C137.163 1.615 137.303 1.70833 137.373 1.825C137.443 1.91833 137.478 2.04667 137.478 2.21L137.583 6.97C137.583 7.04 137.513 7.09833 137.373 7.145C137.256 7.16833 137.186 7.13333 137.163 7.04C136.696 5.61667 136.066 4.33333 135.273 3.19C134.503 2.02333 133.336 1.44 131.773 1.44C130.723 1.44 129.883 1.74333 129.253 2.35C128.646 2.95667 128.343 3.785 128.343 4.835ZM147.727 1.86C146.303 1.86 145.125 2.30333 144.192 3.19C143.282 4.05333 142.582 5.37167 142.092 7.145C142.092 7.19167 142.022 7.215 141.882 7.215C141.765 7.215 141.707 7.18 141.707 7.11C141.8 6.2 141.905 5.03333 142.022 3.61C142.138 2.16333 142.197 1.07833 142.197 0.354999C142.197 0.238333 142.255 0.18 142.372 0.18C142.512 0.18 142.582 0.238333 142.582 0.354999C142.582 0.868333 143.235 1.125 144.542 1.125C146.548 1.195 148.893 1.23 151.577 1.23C152.953 1.23 154.412 1.20667 155.952 1.16L158.332 1.125C159.218 1.125 159.86 1.06667 160.257 0.949998C160.677 0.833332 160.945 0.599998 161.062 0.249999C161.085 0.156665 161.155 0.109998 161.272 0.109998C161.388 0.109998 161.447 0.156665 161.447 0.249999C161.377 0.973333 161.307 2.07 161.237 3.54C161.167 5.01 161.132 6.2 161.132 7.11C161.132 7.18 161.062 7.215 160.922 7.215C160.805 7.215 160.735 7.18 160.712 7.11C160.478 5.31333 159.93 3.995 159.067 3.155C158.203 2.29167 157.037 1.86 155.567 1.86C154.913 1.86 154.423 1.91833 154.097 2.035C153.793 2.15167 153.583 2.36167 153.467 2.665C153.373 2.945 153.327 3.4 153.327 4.03V20.165C153.327 20.8883 153.397 21.4133 153.537 21.74C153.677 22.0667 153.957 22.2883 154.377 22.405C154.797 22.5217 155.462 22.58 156.372 22.58C156.442 22.58 156.477 22.65 156.477 22.79C156.477 22.93 156.442 23 156.372 23C155.555 23 154.913 22.9883 154.447 22.965L151.577 22.93L148.847 22.965C148.357 22.9883 147.68 23 146.817 23C146.77 23 146.747 22.93 146.747 22.79C146.747 22.65 146.77 22.58 146.817 22.58C147.727 22.58 148.392 22.5217 148.812 22.405C149.255 22.2883 149.547 22.0667 149.687 21.74C149.85 21.39 149.932 20.865 149.932 20.165V3.96C149.932 3.35333 149.873 2.91 149.757 2.63C149.64 2.35 149.43 2.15167 149.127 2.035C148.823 1.91833 148.357 1.86 147.727 1.86ZM179.844 17.54C179.844 17.4933 179.891 17.47 179.984 17.47C180.054 17.47 180.113 17.4933 180.159 17.54C180.229 17.5633 180.264 17.5867 180.264 17.61C180.031 19.3833 179.914 21.005 179.914 22.475C179.914 22.6617 179.879 22.8017 179.809 22.895C179.739 22.965 179.599 23 179.389 23H164.199C164.129 23 164.094 22.93 164.094 22.79C164.094 22.65 164.129 22.58 164.199 22.58C164.993 22.58 165.564 22.5217 165.914 22.405C166.288 22.2883 166.533 22.0667 166.649 21.74C166.789 21.39 166.859 20.865 166.859 20.165V3.96C166.859 3.26 166.789 2.74667 166.649 2.42C166.533 2.09333 166.288 1.87166 165.914 1.755C165.541 1.615 164.969 1.545 164.199 1.545C164.129 1.545 164.094 1.475 164.094 1.335C164.094 1.195 164.129 1.125 164.199 1.125H178.759C178.993 1.125 179.109 1.23 179.109 1.44L179.179 5.99C179.179 6.03667 179.109 6.07167 178.969 6.095C178.853 6.11833 178.783 6.095 178.759 6.025C178.199 3.365 176.578 2.035 173.894 2.035H172.494C171.654 2.035 171.059 2.18667 170.709 2.49C170.359 2.79333 170.184 3.30667 170.184 4.03V11.17H173.544C176.111 11.17 177.394 10.3067 177.394 8.58C177.394 8.51 177.453 8.475 177.569 8.475C177.709 8.475 177.779 8.51 177.779 8.58L177.744 11.625L177.779 13.27C177.826 14.0167 177.849 14.6233 177.849 15.09C177.849 15.1367 177.779 15.16 177.639 15.16C177.499 15.16 177.429 15.1367 177.429 15.09C177.429 13.0833 176.123 12.08 173.509 12.08H170.184V20.025C170.184 20.795 170.324 21.3317 170.604 21.635C170.908 21.9383 171.433 22.09 172.179 22.09H173.894C177.021 22.09 179.004 20.5733 179.844 17.54ZM206.335 22.58C206.405 22.58 206.44 22.65 206.44 22.79C206.44 22.93 206.405 23 206.335 23H200.7C200.163 23 199.16 22.0317 197.69 20.095C196.243 18.135 194.47 15.405 192.37 11.905C191.997 11.975 191.612 12.01 191.215 12.01C190.352 12.01 189.745 11.9983 189.395 11.975V20.165C189.395 20.8883 189.453 21.4133 189.57 21.74C189.71 22.0667 189.955 22.2883 190.305 22.405C190.678 22.5217 191.262 22.58 192.055 22.58C192.102 22.58 192.125 22.65 192.125 22.79C192.125 22.93 192.102 23 192.055 23C191.285 23 190.69 22.9883 190.27 22.965L187.68 22.93L185.16 22.965C184.717 22.9883 184.11 23 183.34 23C183.27 23 183.235 22.93 183.235 22.79C183.235 22.65 183.27 22.58 183.34 22.58C184.133 22.58 184.705 22.5217 185.055 22.405C185.428 22.2883 185.685 22.0667 185.825 21.74C185.965 21.39 186.035 20.865 186.035 20.165V3.96C186.035 3.26 185.965 2.74667 185.825 2.42C185.708 2.09333 185.463 1.87166 185.09 1.755C184.717 1.615 184.145 1.545 183.375 1.545C183.328 1.545 183.305 1.475 183.305 1.335C183.305 1.195 183.328 1.125 183.375 1.125L185.195 1.16C186.222 1.20667 187.05 1.23 187.68 1.23C188.38 1.23 189.115 1.195 189.885 1.125C190.165 1.10167 190.503 1.07833 190.9 1.055C191.297 1.03167 191.728 1.02 192.195 1.02C194.272 1.02 195.87 1.405 196.99 2.175C198.11 2.945 198.67 4.03 198.67 5.43C198.67 6.52667 198.343 7.565 197.69 8.545C197.037 9.525 196.185 10.3183 195.135 10.925C197.048 13.865 198.647 16.175 199.93 17.855C201.237 19.5117 202.392 20.7133 203.395 21.46C204.398 22.2067 205.378 22.58 206.335 22.58ZM189.395 10.995C189.955 11.0883 190.632 11.135 191.425 11.135C192.825 11.135 193.805 10.82 194.365 10.19C194.925 9.56 195.205 8.405 195.205 6.725C195.205 4.835 194.89 3.52833 194.26 2.805C193.63 2.05833 192.743 1.685 191.6 1.685C190.76 1.685 190.177 1.84833 189.85 2.175C189.547 2.50167 189.395 3.12 189.395 4.03V10.995ZM211.16 4.835C211.16 5.69833 211.37 6.46833 211.79 7.145C212.233 7.79833 212.77 8.37 213.4 8.86C214.053 9.35 214.928 9.93333 216.025 10.61C217.215 11.3567 218.148 11.9983 218.825 12.535C219.525 13.0717 220.108 13.7367 220.575 14.53C221.065 15.3 221.31 16.21 221.31 17.26C221.31 18.45 220.995 19.5117 220.365 20.445C219.758 21.3783 218.883 22.1133 217.74 22.65C216.62 23.1633 215.337 23.42 213.89 23.42C212.91 23.42 211.895 23.2917 210.845 23.035C209.818 22.7783 209.037 22.4633 208.5 22.09C208.29 21.95 208.173 21.7283 208.15 21.425L207.94 16.105V16.07C207.94 15.9767 207.998 15.93 208.115 15.93C208.232 15.9067 208.302 15.9417 208.325 16.035C209.095 17.9717 209.97 19.5583 210.95 20.795C211.953 22.0317 213.225 22.65 214.765 22.65C215.768 22.65 216.608 22.3817 217.285 21.845C217.962 21.285 218.3 20.3633 218.3 19.08C218.3 18.0533 218.067 17.155 217.6 16.385C217.157 15.615 216.597 14.9733 215.92 14.46C215.267 13.9467 214.368 13.3167 213.225 12.57C212.105 11.8467 211.23 11.24 210.6 10.75C209.97 10.2367 209.433 9.61833 208.99 8.895C208.547 8.14833 208.325 7.285 208.325 6.305C208.325 5.09167 208.663 4.065 209.34 3.225C210.017 2.385 210.892 1.76667 211.965 1.37C213.062 0.949999 214.205 0.739999 215.395 0.739999C216.188 0.739999 216.982 0.821666 217.775 0.985C218.568 1.125 219.233 1.31167 219.77 1.545C219.98 1.615 220.12 1.70833 220.19 1.825C220.26 1.91833 220.295 2.04667 220.295 2.21L220.4 6.97C220.4 7.04 220.33 7.09833 220.19 7.145C220.073 7.16833 220.003 7.13333 219.98 7.04C219.513 5.61667 218.883 4.33333 218.09 3.19C217.32 2.02333 216.153 1.44 214.59 1.44C213.54 1.44 212.7 1.74333 212.07 2.35C211.463 2.95667 211.16 3.785 211.16 4.835Z" fill="#141318"/>
</svg>
