<svg width="108" height="55" viewBox="0 0 108 55" fill="none" xmlns="http://www.w3.org/2000/svg">
<g clip-path="url(#clip0_1040_36905)">
<path d="M85.9415 4.38406C87.752 4.8936 89.3631 5.68565 90.7746 6.75014C92.1862 7.81967 93.3267 9.17676 94.1961 10.8214C95.0656 12.4711 95.5003 14.4285 95.5003 16.7038H98.886L99.8015 0.691158H97.3312L95.8481 5.00963C92.9278 3.2439 90.2274 1.97257 87.7316 1.18052C85.246 0.393506 82.5916 0 79.7685 0C79.7634 0 79.7532 0 79.748 0V3.63741C79.968 3.63236 80.1828 3.62227 80.4078 3.62227C82.2899 3.62227 84.1362 3.87956 85.9467 4.3891L85.9415 4.38406Z" fill="white"/>
<path d="M87.9517 31.8841V34.5276C90.4475 34.5276 92.2427 35.0018 93.3525 35.9553C94.4572 36.9088 95.0095 38.73 95.0095 41.419C95.0095 42.7206 94.6924 43.9617 94.0583 45.1422C93.4241 46.3277 92.483 47.372 91.2351 48.2751C89.9872 49.1781 88.4683 49.8996 86.6833 50.4343C84.8933 50.9691 83.1237 51.3828 80.8785 51.413C80.1676 51.4231 79.2164 51.4685 78.5464 51.413C70.2611 51.3727 63.2544 45.904 61.224 36.8786C60.0171 31.5057 59.2908 26.0218 57.8486 20.7146C57.0098 17.617 55.6545 14.8221 53.9105 12.3601C52.8416 10.8113 51.6244 9.3836 50.2537 8.07696C47.6198 5.56962 44.5103 3.59705 40.9354 2.15924C37.3604 0.721427 33.4991 0 29.3616 0C25.224 0 21.3627 0.721427 17.7878 2.15924C14.2128 3.59705 11.1084 5.56962 8.46939 8.07696C5.83549 10.5843 3.76417 13.5305 2.26055 16.9207C0.751811 20.3059 0 23.9736 0 27.9187C0 27.944 0 27.9641 0 27.9843H9.17517C9.1854 24.3267 9.65592 21.0223 10.5867 18.066C11.5278 15.0743 12.8677 12.5216 14.6117 10.4077C16.3506 8.29389 18.468 6.67446 20.9638 5.53431C23.4596 4.39919 26.2571 3.82911 29.3616 3.82911C32.466 3.82911 35.2635 4.39919 37.7593 5.53431C40.2552 6.67446 42.3725 8.29389 44.1114 10.4077C45.8503 12.5216 47.1902 15.0743 48.1364 18.066C48.7194 19.9174 49.1183 21.9102 49.3434 24.0341V24.1048C49.3587 24.2208 49.3689 24.3368 49.3792 24.4529C49.4866 25.6384 49.548 26.8593 49.548 28.1256C49.548 31.652 49.0774 34.8454 48.1364 37.6958C47.1953 40.5513 45.8452 42.9779 44.0756 44.9706C42.3111 46.9684 40.1938 48.4971 37.7235 49.5666C35.2533 50.6361 32.466 51.1658 29.3616 51.1658C29.3513 51.1658 29.3462 51.1658 29.336 51.1658V54.995C29.336 54.995 29.3513 54.995 29.3616 54.995C33.4531 54.995 37.2888 54.2887 40.8638 52.871C44.4387 51.4534 47.5431 49.5313 50.1821 47.0946C52.146 45.2784 53.8031 43.2201 55.1533 40.9246C55.5573 41.3887 55.9511 41.8731 55.9869 41.9386C60.5643 50.0459 69.719 54.6216 78.5464 54.7478C78.6027 54.7478 78.6538 54.7478 78.7049 54.7478C81.2468 54.7478 83.584 54.7124 85.727 54.1575C87.8699 53.6026 89.7622 52.8609 91.409 51.9276C92.7234 51.186 93.869 50.5958 94.8305 50.1518C95.792 49.7129 96.6768 49.3648 97.4798 49.1075C98.2776 48.8553 99.0448 48.6888 99.771 48.6181C100.502 48.5475 101.31 48.5122 102.205 48.5122V40.7127C102.205 39.507 102.287 38.5081 102.451 37.7211C102.615 36.934 102.921 36.2933 103.366 35.809C103.811 35.3197 104.415 34.9867 105.167 34.8C105.918 34.6134 106.86 34.5226 107.99 34.5226V31.879H87.9466L87.9517 31.8841Z" fill="white"/>
</g>
<defs>
<clipPath id="clip0_1040_36905">
<rect width="108" height="55" fill="white"/>
</clipPath>
</defs>
</svg>
