<?xml version="1.0" encoding="utf-8"?><svg viewBox="0 0 222 55" xmlns="http://www.w3.org/2000/svg" xmlns:xlink="http://www.w3.org/1999/xlink"><style>:root>svg{display:none}:root>svg:target{display:block}</style><svg fill="none" viewBox="0 0 22 22" id="bobbin" xmlns="http://www.w3.org/2000/svg"><path d="M2.2 0a.44.44 0 00-.44.44v1.32c0 .167.098.323.247.399L4.4 3.355v1.884l13.2-1.65v-.234l2.392-1.196a.45.45 0 00.248-.399V.44A.44.44 0 0019.8 0H2.2zm15.785 4.4L3.905 6.16a.444.444 0 00.11.88l14.08-1.76a.444.444 0 00-.11-.88zm.041 2.104a.386.386 0 00-.041.014l-14.08 1.76a.438.438 0 00-.397.252.437.437 0 00.058.468c.108.132.284.189.449.146l14.08-1.76a.442.442 0 00-.069-.88zm-.041 2.117l-14.08 1.76a.444.444 0 00.11.88l14.08-1.76a.444.444 0 00-.11-.88zm0 2.118l-14.08 1.76a.444.444 0 00.11.88l14.08-1.76a.444.444 0 00-.11-.88zm.027 2.103a.207.207 0 00-.027.014l-14.08 1.76a.437.437 0 00-.397.253.437.437 0 00.058.467c.108.133.284.19.449.146l14.08-1.76a.443.443 0 00-.083-.88zm-.027 2.118l-14.08 1.76a.444.444 0 00.11.88l14.08-1.76a.444.444 0 00-.11-.88zm-.385 1.801l-13.2 1.65v.234l-2.393 1.196a.452.452 0 00-.247.399v1.32c0 .244.197.44.44.44h17.6a.44.44 0 00.44-.44v-1.32a.452.452 0 00-.248-.399L17.6 18.645v-1.884z" fill="#000"/></svg><svg fill="none" viewBox="0 0 24 24" id="card" xmlns="http://www.w3.org/2000/svg"><g clip-path="url(#abclip0_371_3474)"><path d="M9.9 4.32c-.191 0-.37.028-.54.075-.133.036-.27.075-.39.135-.005.002-.01.012-.015.015-.13.068-.247.152-.36.24-.005.004-.01.012-.015.015-.11.09-.208.18-.3.285-.004.006-.011.01-.015.015a2.568 2.568 0 00-.255.36 2.243 2.243 0 00-.675-.15 1.764 1.764 0 00-.945.21c-.545.3-.93.756-1.335 1.095-.414.347-1.654 1.258-2.76 2.055C1.19 9.467.21 10.17.21 10.17a.479.479 0 00.026.876.476.476 0 00.514-.096s1.005-.7 2.115-1.5c1.11-.8 2.323-1.683 2.82-2.1.482-.405.853-.815 1.17-.99.26-.142.463-.183.84 0-.007.066-.015.132-.015.195v5.715l-.66.3a.48.48 0 10.39.87l4.44-2.04h.015c.632-.337 1.294-.647 1.8-.75.506-.103.76-.06.975.225.253.334.311.702.195 1.11-.116.41-.426.853-.96 1.23-1.12.792-2.85 1.38-2.85 1.38l-.09.03-.075.06c-.89.758-1.406 1.478-2.055 1.965-.649.488-1.451.81-3.105.81h-.03l-5.22.3a.482.482 0 00.06.96l5.19-.3h.03c1.226-.003 2.117-.206 2.82-.525.122.36.373.668.765.795a2.188 2.188 0 001.53-.06 2.44 2.44 0 00.525-.315c.152.35.424.675.84.825.437.158.872.193 1.26.09.388-.103.705-.322 1.005-.6.05-.047.085-.082.12-.12.101.07.218.117.345.15.623.163 1.35-.015 1.905-.57.488-.487.78-1.235.885-2.25h4.185a2.1 2.1 0 002.04-1.68c.028-.137.045-.275.045-.42V6.51c0-.073-.007-.138-.015-.21a2.063 2.063 0 00-.165-.615 2.052 2.052 0 00-.21-.375c-.002-.003.002-.01 0-.015a2.29 2.29 0 00-1.41-.93 1.961 1.961 0 00-.42-.045H9.9zm-1.26 2.4h14.4v1.92H8.64V6.72zm2.4 9.12h.33c-.028.338-.077.846-.135 1.17-.007.04-.01.08-.015.12a.457.457 0 00-.075.06c-.206.246-.444.45-.69.555-.245.105-.491.143-.84.03-.086-.028-.184-.167-.195-.39.619-.472 1.075-1.008 1.62-1.545zm1.305 0h1.8c-.034.223-.064.478-.09.735-.032.313-.06.688.015 1.065-.026.036-.037.043-.075.09-.079.1-.217.244-.165.195-.234.218-.435.342-.615.39-.18.05-.37.036-.675-.075-.163-.058-.247-.163-.315-.36a1.524 1.524 0 01-.045-.705c.083-.453.14-1.033.165-1.335zm2.775 0h1.635c-.097.808-.32 1.31-.585 1.575-.356.357-.658.402-.99.315-.11-.03-.12-.056-.165-.255-.045-.198-.045-.51-.015-.795.032-.307.079-.605.12-.84z" fill="#000"/></g><defs><clipPath id="abclip0_371_3474"><path fill="#fff" d="M0 0h24v24H0z"/></clipPath></defs></svg><svg fill="none" viewBox="0 0 22 22" id="cash-in-hand" xmlns="http://www.w3.org/2000/svg"><g clip-path="url(#acclip0_846_22256)"><path d="M15.056.936l-.247.357-3.919 5.679-3.396 1.004c-.45.135-.832.43-1.087.825L3.59 13.159l1.787 6.064 3.259-.715c.082-.017.165-.046.248-.069a4.31 4.31 0 002.02-1.416l.413-.591 1.87 1.306.358.247.261-.37 7.948-11.523.26-.358-.37-.247-6.216-4.304-.37-.247zm.234 1.223l5.5 3.809-3.094 4.482c.377-1.273-.225-2.813-1.554-3.726-.76-.522-1.646-.766-2.502-.687a2.95 2.95 0 00-1.348.454l2.998-4.332zm1.829 2.627a.717.717 0 00-.605.316.748.748 0 00.192 1.031.73.73 0 001.018-.192.731.731 0 00-.193-1.018.759.759 0 00-.412-.137zm-5.954 3.34c-.129.613-.046 1.285.234 1.912l.344-.302c.4-.327.912-.495 1.43-.495.582 0 1.132.214 1.553.618.688.659.872 1.65.523 2.489.579-.05 1.1-.253 1.526-.578l-3.451 4.992-1.499-1.032 2.42-3.396a1.377 1.377 0 00-.124-1.842 1.37 1.37 0 00-1.815-.069l-2.488 2.076-1.032-.619 2.379-3.753zm-8.484 5.088L0 14.04l2.214 7.494 2.695-.825-2.228-7.494z" fill="#000"/></g><defs><clipPath id="acclip0_846_22256"><path fill="#fff" d="M0 0h22v22H0z"/></clipPath></defs></svg><svg fill="none" viewBox="0 0 20 20" id="close" xmlns="http://www.w3.org/2000/svg"><path d="M3.088 2.512l-.575.575 6.912 6.912-6.912 6.913.575.575L10 10.574l6.913 6.913.575-.575-6.913-6.913 6.913-6.912-.575-.575L10 9.424 3.088 2.512z" fill="#EDEBEB"/></svg><svg fill="none" viewBox="0 0 24 24" id="close-black" xmlns="http://www.w3.org/2000/svg"><path d="M3.705 3.015l-.69.69L11.31 12l-8.295 8.295.69.69L12 12.69l8.295 8.295.69-.69L12.69 12l8.295-8.295-.69-.69L12 11.31 3.705 3.015z" fill="#000"/></svg><svg fill="none" viewBox="0 0 18 18" id="delivery" xmlns="http://www.w3.org/2000/svg"><path d="M0 2.88v1.44h6.48v.72H0v.72h5.4v.72H0v.72h4.32v.72H0v.72h3.24v.72H0v3.96c0 .596.485 1.08 1.08 1.08h1.474a2.16 2.16 0 002.126 1.8 2.16 2.16 0 002.126-1.8h4.354V3.928c0-.557-.49-1.046-1.046-1.046H0zM11.88 5.4v9h.394a2.16 2.16 0 002.126 1.8 2.16 2.16 0 002.126-1.8h.394c.555 0 1.08-.524 1.08-1.08V9.868c0-.706-.51-1.461-.574-1.552l-1.485-1.992c-.277-.346-.845-.922-1.541-.922h-2.52zm1.8.72h.72c.284 0 .647.251.967.653l1.474 1.97c.108.155.37.595.428.978H14.04c-.162 0-.36-.198-.36-.36V6.12zm-9 6.48c.8 0 1.44.64 1.44 1.44 0 .801-.64 1.44-1.44 1.44-.8 0-1.44-.639-1.44-1.44 0-.8.64-1.44 1.44-1.44zm9.72 0a1.44 1.44 0 010 2.88 1.441 1.441 0 010-2.88z" fill="#000"/></svg><svg fill="none" viewBox="0 0 22 22" id="diploma" xmlns="http://www.w3.org/2000/svg"><path d="M4.4 1.76a3.084 3.084 0 00-3.08 3.08v.88c0 .242.197.44.44.44H13.2a.44.44 0 00.44-.44V4.4c0-1.12.601-2.1 1.499-2.64H4.399zm12.32.44a2.2 2.2 0 00-2.2 2.2v1.32c0 .727-.593 1.32-1.32 1.32H3.96V19.8c0 .244.197.44.44.44H11v.921a.437.437 0 00.24.395.438.438 0 00.461-.038l1.499-1.127 1.499 1.128c.134.1.312.113.46.037a.437.437 0 00.24-.395v-.921h3.08c.245 0 .44-.196.44-.44V4.4a2.2 2.2 0 00-2.2-2.2zM7.04 8.36h8.8v.88h-8.8v-.88zm0 2.64h8.8v.88h-8.8V11zm6.16 2.282c.308 0 .53.176.619.44.044.045.04.055.082.055a.67.67 0 01.756.041c.22.176.253.437.165.702 0 .045.055.04.055.082.265.045.48.274.523.537a.65.65 0 01-.303.66v.123c.133.176.174.495.042.715a.665.665 0 01-.564.316c-.035 0-.064-.008-.096-.013 0 .044-.054.04-.097.082 0 .265-.12.49-.385.578-.087.044-.132.041-.22.041a.732.732 0 01-.495-.22h-.165a.701.701 0 01-.495.206.699.699 0 01-.22-.027.623.623 0 01-.385-.578c0-.044-.051-.04-.096-.082-.034.005-.062.013-.096.013a.665.665 0 01-.564-.316.611.611 0 01.041-.715V15.8a.65.65 0 01-.302-.66.657.657 0 01.522-.537c0-.044.055-.04.055-.082-.087-.265-.055-.524.165-.701a.67.67 0 01.757-.042c.044-.044.04-.055.082-.055a.663.663 0 01.619-.44zm-1.32 5.033c.065.04.134.067.206.096.015.007.026.022.041.027.158.054.329.07.495.07.196 0 .382-.038.564-.11.186.078.395.123.591.123.153 0 .323-.009.55-.11.066-.024.133-.05.193-.083v1.967l-1.059-.798a.438.438 0 00-.522 0l-1.06.798v-1.98z" fill="#000"/></svg><svg fill="none" viewBox="0 0 24 24" id="done" xmlns="http://www.w3.org/2000/svg"><path fill-rule="evenodd" clip-rule="evenodd" d="M22.594 3.5L8.062 18.188l-6.656-6.625L0 13l8.063 8L24 4.937 22.594 3.5z" fill="#26D797"/></svg><svg fill="none" viewBox="0 0 24 24" id="done-white" xmlns="http://www.w3.org/2000/svg"><path fill-rule="evenodd" clip-rule="evenodd" d="M22.594 3.5L8.062 18.188l-6.656-6.625L0 13l8.063 8L24 4.937 22.594 3.5z" fill="#EDEBEB"/></svg><svg fill="none" viewBox="0 0 23 22" id="edit" xmlns="http://www.w3.org/2000/svg"><path d="M19.475.879c-.548 0-1.095.215-1.513.632l-.357.358 3.025 3.025.358-.358a2.138 2.138 0 000-3.025A2.14 2.14 0 0019.474.88zm-2.544 1.774a.442.442 0 00-.261.137L2.397 17.076a.449.449 0 00-.123.193l-.88 3.3a.439.439 0 00.536.536l3.3-.88a.45.45 0 00.192-.124L19.71 5.83a.442.442 0 10-.619-.633L4.886 19.4 3.1 17.613 17.302 3.409a.44.44 0 00-.33-.756h-.04z" fill="#141318"/></svg><svg fill="none" viewBox="0 0 30 30" id="expand" xmlns="http://www.w3.org/2000/svg"><path d="M3.595 2.994A.6.6 0 003.517 3h-.516v.518a.6.6 0 000 .16V10.2a.6.6 0 101.2 0V5.05l7.975 7.975a.6.6 0 10.849-.848L5.049 4.2H10.2a.6.6 0 100-1.2H3.67a.6.6 0 00-.075-.006zm22.794 0a.598.598 0 00-.067.006h-6.521a.6.6 0 100 1.2h5.151l-7.976 7.976a.598.598 0 00.19.988.6.6 0 00.659-.14L25.8 5.05V10.2a.601.601 0 001.156.232A.601.601 0 0027 10.2V3.676a.602.602 0 000-.165v-.51h-.512a.6.6 0 00-.1-.007zm-13.8 13.8a.6.6 0 00-.413.182l-7.975 7.976V19.8a.6.6 0 10-1.2 0v6.509a.6.6 0 000 .199V27h.494c.065.011.132.011.197 0H10.2a.601.601 0 100-1.2H5.05l7.976-7.976a.6.6 0 00-.436-1.03zm4.806 0a.6.6 0 00-.419 1.03l7.976 7.976H19.8a.6.6 0 100 1.2h6.51a.6.6 0 00.198 0H27v-.494a.596.596 0 000-.197V19.8a.599.599 0 00-1.03-.426.6.6 0 00-.17.426v5.152l-7.975-7.976a.6.6 0 00-.43-.182z" fill="#141318"/></svg><svg fill="none" viewBox="0 0 22 23" id="facebook" xmlns="http://www.w3.org/2000/svg"><path d="M18.04 2.26H3.96a2.2 2.2 0 00-2.2 2.2v14.08a2.2 2.2 0 002.2 2.2h14.08a2.2 2.2 0 002.2-2.2V4.46a2.2 2.2 0 00-2.2-2.2zm-1.76 6.6h-.88c-.942 0-1.32.22-1.32.88v1.32h2.2l-.44 2.2h-1.76v6.6h-2.2v-6.6h-1.76v-2.2h1.76V9.74c0-1.76.88-3.08 2.64-3.08 1.276 0 1.76.44 1.76.44v1.76z" fill="#EDEBEB"/></svg><svg fill="none" viewBox="0 0 23 23" id="facebook-black" xmlns="http://www.w3.org/2000/svg"><path d="M18.54 2.26H4.46a2.2 2.2 0 00-2.2 2.2v14.08a2.2 2.2 0 002.2 2.2h14.08a2.2 2.2 0 002.2-2.2V4.46a2.2 2.2 0 00-2.2-2.2zm-1.76 6.6h-.88c-.942 0-1.32.22-1.32.88v1.32h2.2l-.44 2.2h-1.76v6.6h-2.2v-6.6h-1.76v-2.2h1.76V9.74c0-1.76.88-3.08 2.64-3.08 1.276 0 1.76.44 1.76.44v1.76z" fill="#141318"/></svg><svg fill="none" viewBox="0 0 20 20" id="forward" xmlns="http://www.w3.org/2000/svg"><path d="M5.996 18.403a.4.4 0 01-.278-.686L13.435 10 5.718 2.283a.397.397 0 01-.11-.389.396.396 0 01.286-.286c.14-.037.29.005.39.11l8 8a.4.4 0 010 .565l-8 8a.395.395 0 01-.288.12z" fill="#EDEBEB"/></svg><svg fill="none" viewBox="0 0 24 24" id="forward-black" xmlns="http://www.w3.org/2000/svg"><path d="M7.195 1.916a.48.48 0 00-.334.823L16.12 12l-9.26 9.261a.476.476 0 00-.131.467c.043.169.174.3.343.343a.476.476 0 00.467-.13l9.6-9.6a.48.48 0 000-.68l-9.6-9.6a.474.474 0 00-.345-.144z" fill="#000"/></svg><svg fill="none" viewBox="0 0 22 22" id="heart" xmlns="http://www.w3.org/2000/svg"><path d="M15.583 3.667C12.795 3.667 11 5.604 11 5.604S9.205 3.667 6.416 3.667c-3.037 0-5.5 2.365-5.5 5.283C.917 14.232 11 20.166 11 20.166s10.083-5.935 10.083-11.218c0-2.917-2.462-5.282-5.5-5.282z" fill="#EDEBEB"/></svg><svg fill="none" viewBox="0 0 22 22" id="heart-black" xmlns="http://www.w3.org/2000/svg"><path d="M6.6 3.08A5.727 5.727 0 00.88 8.8c0 6.495 7.346 9.7 9.845 11.784l.275.234.275-.234C13.774 18.5 21.12 15.295 21.12 8.8a5.727 5.727 0 00-5.72-5.72c-1.784 0-3.352.847-4.4 2.131-1.049-1.284-2.616-2.13-4.4-2.13zm0 .88c1.688 0 3.162.866 4.029 2.173l.37.55.372-.55A4.834 4.834 0 0120.24 8.8c0 5.675-6.339 8.613-9.24 10.904C8.099 17.413 1.76 14.475 1.76 8.8A4.834 4.834 0 016.6 3.96z" fill="#000"/></svg><svg fill="none" viewBox="0 0 16 16" id="heart-black-filled" xmlns="http://www.w3.org/2000/svg"><path d="M11.334 2.667C9.306 2.667 8 4.076 8 4.076S6.695 2.667 4.667 2.667c-2.209 0-4 1.72-4 3.842C.667 10.35 8 14.667 8 14.667s7.334-4.316 7.334-8.158c0-2.122-1.791-3.842-4-3.842z" fill="#141318"/></svg><svg fill="none" viewBox="0 0 24 24" id="hidden" xmlns="http://www.w3.org/2000/svg"><path d="M2.835 2.385a.562.562 0 00-.06.015.482.482 0 00-.24.825l18.24 18.24a.487.487 0 10.69-.69L17.4 16.71c3.156-1.702 5.383-4.235 5.52-4.395a.488.488 0 000-.63C22.712 11.443 17.764 5.76 12 5.76c-1.588 0-3.103.435-4.485 1.065l-4.29-4.29a.482.482 0 00-.39-.15zM12 6.72c.188 0 .37.017.555.03 2.65.281 4.725 2.528 4.725 5.25 0 1.28-.454 2.46-1.215 3.375L13.65 12.96c.167-.283.27-.607.27-.96 0-1.061-.859-1.92-1.92-1.92-.352 0-.677.103-.96.27L8.625 7.935A5.261 5.261 0 0112 6.72zM5.76 7.755c-2.713 1.665-4.554 3.784-4.68 3.93a.488.488 0 000 .63c.208.242 5.156 5.925 10.92 5.925.193 0 .38-.013.57-.03a10.696 10.696 0 003-.645l-.975-.975a5.222 5.222 0 01-2.595.69c-.187 0-.37-.017-.555-.03C8.795 16.97 6.72 14.723 6.72 12c0-.947.253-1.826.69-2.595l-1.65-1.65zm4.335 4.32a1.9 1.9 0 001.83 1.83l-1.83-1.83z" fill="#000"/></svg><svg fill="none" viewBox="0 0 22 23" id="instagram" xmlns="http://www.w3.org/2000/svg"><path d="M7.04 1.82a5.725 5.725 0 00-5.72 5.72v7.92a5.725 5.725 0 005.72 5.72h7.92a5.725 5.725 0 005.72-5.72V7.54a5.725 5.725 0 00-5.72-5.72H7.04zm9.24 3.52c.484 0 .88.396.88.88s-.396.88-.88.88a.883.883 0 01-.88-.88c0-.484.396-.88.88-.88zM11 6.66c2.67 0 4.84 2.17 4.84 4.84 0 2.671-2.17 4.84-4.84 4.84s-4.84-2.169-4.84-4.84c0-2.67 2.17-4.84 4.84-4.84zm0 .88a3.966 3.966 0 00-3.96 3.96A3.966 3.966 0 0011 15.46a3.966 3.966 0 003.96-3.96A3.966 3.966 0 0011 7.54z" fill="#EDEBEB"/></svg><svg fill="none" viewBox="0 0 23 23" id="instagram-black" xmlns="http://www.w3.org/2000/svg"><path d="M7.54 1.82a5.725 5.725 0 00-5.72 5.72v7.92a5.725 5.725 0 005.72 5.72h7.92a5.725 5.725 0 005.72-5.72V7.54a5.725 5.725 0 00-5.72-5.72H7.54zm9.24 3.52c.484 0 .88.396.88.88s-.396.88-.88.88a.883.883 0 01-.88-.88c0-.484.396-.88.88-.88zM11.5 6.66c2.67 0 4.84 2.17 4.84 4.84 0 2.671-2.17 4.84-4.84 4.84s-4.84-2.169-4.84-4.84c0-2.67 2.17-4.84 4.84-4.84zm0 .88a3.966 3.966 0 00-3.96 3.96 3.966 3.966 0 003.96 3.96 3.966 3.966 0 003.96-3.96 3.966 3.966 0 00-3.96-3.96z" fill="#141318"/></svg><svg fill="none" viewBox="0 0 24 24" id="logistics-delivery-packages" xmlns="http://www.w3.org/2000/svg"><path d="M14.4 7.2v-.96h8.64V2.88c0-.53-.43-.96-.96-.96H1.92c-.53 0-.96.43-.96.96v3.36H9.6v.96H1.92v13.92c0 .53.43.96.96.96h18.24c.53 0 .96-.43.96-.96V7.2H14.4zm-.96 2.88h-2.88v-7.2h2.88v7.2z" fill="#000"/></svg><svg fill="none" viewBox="0 0 108 55" id="logo-black" xmlns="http://www.w3.org/2000/svg"><g clip-path="url(#awclip0_1040_36908)" fill="#010101"><path d="M85.942 4.384c1.81.51 3.421 1.302 4.833 2.366 1.411 1.07 2.552 2.427 3.421 4.071.87 1.65 1.304 3.607 1.304 5.883h3.386L99.802.69h-2.47L95.847 5.01c-2.92-1.766-5.62-3.037-8.116-3.83C85.246.395 82.592 0 79.769 0h-.021v3.637c.22-.005.435-.015.66-.015 1.882 0 3.728.258 5.539.767l-.005-.005zM87.952 31.884v2.644c2.496 0 4.29.474 5.4 1.427 1.105.954 1.657 2.775 1.657 5.464a7.76 7.76 0 01-.95 3.723c-.635 1.186-1.576 2.23-2.824 3.133-1.248.903-2.767 1.625-4.552 2.16-1.79.534-3.56.948-5.805.978-.71.01-1.662.056-2.332 0-8.285-.04-15.292-5.509-17.322-14.534-1.207-5.373-1.933-10.857-3.375-16.164a26.29 26.29 0 00-3.938-8.355 27.408 27.408 0 00-3.657-4.283c-2.634-2.507-5.744-4.48-9.319-5.918C37.36.721 33.5 0 29.362 0c-4.138 0-8 .721-11.574 2.16-3.575 1.437-6.68 3.41-9.319 5.917-2.634 2.507-4.705 5.454-6.208 8.844C.75 20.306 0 23.974 0 27.919v.065h9.175c.01-3.657.48-6.962 1.412-9.918.94-2.992 2.28-5.544 4.025-7.658a17.557 17.557 0 016.352-4.874C23.46 4.4 26.257 3.83 29.362 3.83c3.104 0 5.902.57 8.397 1.705a17.556 17.556 0 016.352 4.874c1.74 2.114 3.08 4.666 4.025 7.658.583 1.851.982 3.844 1.207 5.968v.07c.016.117.026.233.036.349.108 1.185.169 2.406.169 3.673 0 3.526-.47 6.72-1.412 9.57-.94 2.855-2.29 5.282-4.06 7.275a17.795 17.795 0 01-6.352 4.596c-2.47 1.07-5.258 1.599-8.362 1.599h-.026v3.829h.026c4.091 0 7.927-.706 11.502-2.124 3.575-1.418 6.68-3.34 9.318-5.776a27.024 27.024 0 004.971-6.17c.404.464.798.948.834 1.014 4.577 8.107 13.732 12.683 22.56 12.809h.158c2.542 0 4.879-.036 7.022-.59 2.143-.555 4.035-1.297 5.682-2.23a48.41 48.41 0 013.421-1.776 24.335 24.335 0 012.65-1.044 11.274 11.274 0 012.291-.49c.731-.07 1.539-.106 2.434-.106v-7.8c0-1.205.082-2.204.246-2.99.164-.788.47-1.429.915-1.913.445-.49 1.049-.822 1.801-1.009.751-.187 1.693-.277 2.823-.277v-2.644H87.947l.005.005z"/></g><defs><clipPath id="awclip0_1040_36908"><path fill="#fff" d="M0 0h108v55H0z"/></clipPath></defs></svg><svg fill="none" viewBox="0 0 108 55" id="logo-white" xmlns="http://www.w3.org/2000/svg"><g clip-path="url(#axclip0_1040_36905)" fill="#fff"><path d="M85.942 4.384c1.81.51 3.421 1.302 4.833 2.366 1.411 1.07 2.552 2.427 3.421 4.071.87 1.65 1.304 3.607 1.304 5.883h3.386L99.802.69h-2.47L95.847 5.01c-2.92-1.766-5.62-3.037-8.116-3.83C85.246.395 82.592 0 79.769 0h-.021v3.637c.22-.005.435-.015.66-.015 1.882 0 3.728.258 5.539.767l-.005-.005zM87.952 31.884v2.644c2.496 0 4.29.474 5.4 1.427 1.105.954 1.657 2.775 1.657 5.464a7.76 7.76 0 01-.95 3.723c-.635 1.186-1.576 2.23-2.824 3.133-1.248.903-2.767 1.625-4.552 2.16-1.79.534-3.56.948-5.805.978-.71.01-1.662.056-2.332 0-8.285-.04-15.292-5.509-17.322-14.534-1.207-5.373-1.933-10.857-3.375-16.164a26.29 26.29 0 00-3.938-8.355 27.408 27.408 0 00-3.657-4.283c-2.634-2.507-5.744-4.48-9.319-5.918C37.36.721 33.5 0 29.362 0c-4.138 0-8 .721-11.574 2.16-3.575 1.437-6.68 3.41-9.319 5.917-2.634 2.507-4.705 5.454-6.208 8.844C.75 20.306 0 23.974 0 27.919v.065h9.175c.01-3.657.48-6.962 1.412-9.918.94-2.992 2.28-5.544 4.025-7.658a17.557 17.557 0 016.352-4.874C23.46 4.4 26.257 3.83 29.362 3.83c3.104 0 5.902.57 8.397 1.705a17.556 17.556 0 016.352 4.874c1.74 2.114 3.08 4.666 4.025 7.658.583 1.851.982 3.844 1.207 5.968v.07c.016.117.026.233.036.349.108 1.185.169 2.406.169 3.673 0 3.526-.47 6.72-1.412 9.57-.94 2.855-2.29 5.282-4.06 7.275a17.795 17.795 0 01-6.352 4.596c-2.47 1.07-5.258 1.599-8.362 1.599h-.026v3.829h.026c4.091 0 7.927-.706 11.502-2.124 3.575-1.418 6.68-3.34 9.318-5.776a27.024 27.024 0 004.971-6.17c.404.464.798.948.834 1.014 4.577 8.107 13.732 12.683 22.56 12.809h.158c2.542 0 4.879-.036 7.022-.59 2.143-.555 4.035-1.297 5.682-2.23a48.41 48.41 0 013.421-1.776 24.335 24.335 0 012.65-1.044 11.274 11.274 0 012.291-.49c.731-.07 1.539-.106 2.434-.106v-7.8c0-1.205.082-2.204.246-2.99.164-.788.47-1.429.915-1.913.445-.49 1.049-.822 1.801-1.009.751-.187 1.693-.277 2.823-.277v-2.644H87.947l.005.005z"/></g><defs><clipPath id="axclip0_1040_36905"><path fill="#fff" d="M0 0h108v55H0z"/></clipPath></defs></svg><svg viewBox="0 0 222 24" id="logo-youngsters" xmlns="http://www.w3.org/2000/svg"><path d="M21.735 1.125c.047 0 .07.07.07.21 0 .14-.023.21-.07.21-.77 0-1.645.408-2.625 1.225-.98.793-1.855 1.82-2.625 3.08l-3.99 6.475v7.84c0 .723.058 1.248.175 1.575.14.327.385.548.735.665.373.117.957.175 1.75.175.07 0 .105.07.105.21 0 .14-.035.21-.105.21-.77 0-1.365-.012-1.785-.035l-2.555-.035-2.52.035C7.828 22.988 7.21 23 6.44 23c-.047 0-.07-.07-.07-.21 0-.14.023-.21.07-.21.793 0 1.365-.058 1.715-.175.373-.117.63-.338.77-.665.14-.35.21-.875.21-1.575v-7.21l-5.32-8.12C3.022 3.598 2.333 2.747 1.75 2.28 1.19 1.79.642 1.545.105 1.545c-.07 0-.105-.07-.105-.21 0-.14.035-.21.105-.21l1.155.035c.513.047.887.07 1.12.07.793 0 1.913-.023 3.36-.07l2.17-.035c.047 0 .07.07.07.21 0 .14-.023.21-.07.21-.957 0-1.435.327-1.435.98 0 .327.14.7.42 1.12l5.075 7.805 3.57-5.845c.583-.957.875-1.797.875-2.52 0-1.027-.642-1.54-1.925-1.54-.047 0-.07-.07-.07-.21 0-.14.023-.21.07-.21l1.82.035c.98.047 1.878.07 2.695.07.397 0 .875-.023 1.435-.07l1.295-.035zM33.352 23.42c-2.17 0-4.107-.502-5.81-1.505a10.752 10.752 0 01-3.92-4.13c-.91-1.75-1.365-3.652-1.365-5.705 0-2.403.607-4.457 1.82-6.16 1.213-1.727 2.765-3.022 4.655-3.885C30.645 1.172 32.594.74 34.577.74c2.217 0 4.165.525 5.845 1.575 1.68 1.027 2.963 2.392 3.85 4.095a11.347 11.347 0 011.365 5.425c0 2.123-.56 4.072-1.68 5.845-1.12 1.773-2.625 3.173-4.515 4.2-1.867 1.027-3.897 1.54-6.09 1.54zm1.19-.84c1.4 0 2.648-.373 3.745-1.12 1.12-.77 1.995-1.89 2.625-3.36.653-1.47.98-3.22.98-5.25 0-2.147-.362-4.072-1.085-5.775-.7-1.703-1.715-3.033-3.045-3.99-1.307-.957-2.847-1.435-4.62-1.435-2.263 0-4.025.817-5.285 2.45-1.237 1.61-1.855 3.85-1.855 6.72 0 2.217.362 4.223 1.085 6.02.747 1.797 1.762 3.208 3.045 4.235 1.307 1.003 2.777 1.505 4.41 1.505zM67.324 5.395c0-1.213-.28-2.158-.84-2.835-.537-.677-1.319-1.015-2.345-1.015-.047 0-.07-.07-.07-.21 0-.14.023-.21.07-.21l1.61.035c.886.047 1.587.07 2.1.07.42 0 1.05-.023 1.89-.07l1.54-.035c.047 0 .07.07.07.21 0 .14-.023.21-.07.21-.91 0-1.622.338-2.135 1.015-.49.677-.735 1.622-.735 2.835v9.8c0 1.68-.362 3.15-1.085 4.41-.7 1.237-1.703 2.193-3.01 2.87-1.283.677-2.777 1.015-4.48 1.015-1.704 0-3.22-.327-4.55-.98-1.33-.677-2.368-1.633-3.115-2.87-.723-1.26-1.085-2.73-1.085-4.41V3.96c0-.7-.07-1.213-.21-1.54-.14-.327-.397-.548-.77-.665-.35-.14-.91-.21-1.68-.21-.07 0-.105-.07-.105-.21 0-.14.035-.21.105-.21l1.82.035c1.026.047 1.855.07 2.485.07.7 0 1.563-.023 2.59-.07l1.75-.035c.07 0 .105.07.105.21 0 .14-.035.21-.105.21-.77 0-1.342.07-1.715.21-.35.14-.595.385-.735.735-.14.327-.21.84-.21 1.54v9.975c0 2.777.572 4.853 1.715 6.23 1.166 1.353 2.788 2.03 4.865 2.03 1.983 0 3.535-.607 4.655-1.82 1.12-1.237 1.68-2.975 1.68-5.215V5.395zm29.65-4.27c.048 0 .07.07.07.21 0 .14-.022.21-.07.21-.932 0-1.656.338-2.17 1.015-.512.653-.77 1.598-.77 2.835V23.49c0 .07-.057.117-.174.14-.117.023-.198.012-.245-.035L77.2 4.52v14.245c0 1.237.245 2.182.735 2.835s1.201.98 2.135.98c.047 0 .07.07.07.21 0 .14-.023.21-.07.21-.63 0-1.108-.012-1.435-.035l-1.855-.035-2.065.035c-.374.023-.91.035-1.61.035-.07 0-.105-.07-.105-.21 0-.14.035-.21.105-.21 1.003 0 1.773-.327 2.31-.98.56-.653.84-1.598.84-2.835V3.435c-.653-.7-1.248-1.19-1.785-1.47a3.317 3.317 0 00-1.61-.42c-.047 0-.07-.07-.07-.21 0-.14.023-.21.07-.21l1.4.035c.303.023.735.035 1.295.035l2.24-.035c.28-.023.618-.035 1.015-.035.186 0 .326.047.42.14.093.093.233.28.42.56.396.537.688.91.875 1.12l12.565 14.84V5.395c0-1.237-.245-2.182-.735-2.835-.49-.677-1.19-1.015-2.1-1.015-.047 0-.07-.07-.07-.21 0-.14.023-.21.07-.21l1.435.035c.747.047 1.365.07 1.855.07.467 0 1.097-.023 1.89-.07l1.54-.035zm14.821 22.295c-2.567 0-4.807-.49-6.72-1.47-1.89-.98-3.337-2.31-4.34-3.99-1.004-1.703-1.505-3.593-1.505-5.67 0-2.24.571-4.235 1.715-5.985 1.166-1.773 2.753-3.138 4.76-4.095 2.03-.98 4.305-1.47 6.825-1.47 1.096 0 2.193.093 3.29.28 1.096.187 1.983.443 2.66.77.186.093.303.187.35.28.07.093.116.268.14.525l.42 4.55c0 .07-.059.117-.175.14-.117.023-.199-.012-.245-.105-.7-1.75-1.75-3.115-3.15-4.095-1.4-.98-3.045-1.47-4.935-1.47-2.567 0-4.539.84-5.915 2.52-1.377 1.657-2.065 3.943-2.065 6.86 0 2.287.42 4.328 1.26 6.125.84 1.797 1.995 3.197 3.465 4.2 1.493 1.003 3.161 1.505 5.005 1.505 1.026 0 1.82-.105 2.38-.315.56-.21.968-.618 1.225-1.225.28-.607.42-1.505.42-2.695 0-1.213-.07-2.053-.21-2.52-.14-.49-.455-.817-.945-.98-.467-.163-1.295-.245-2.485-.245-.14 0-.21-.093-.21-.28a.38.38 0 01.035-.175c.046-.07.093-.105.14-.105 1.936.117 3.488.175 4.655.175 1.166 0 2.38-.035 3.64-.105.046 0 .081.035.105.105.046.047.07.093.07.14 0 .163-.059.245-.175.245-.467-.023-.794.058-.98.245-.187.163-.315.513-.385 1.05-.047.537-.07 1.47-.07 2.8 0 1.05.035 1.797.105 2.24.093.443.14.723.14.84 0 .14-.035.233-.105.28-.047.023-.152.07-.315.14-2.94.653-5.565.98-7.875.98zm16.548-18.585c0 .863.21 1.633.63 2.31a7.48 7.48 0 001.61 1.715c.653.49 1.528 1.073 2.625 1.75 1.19.747 2.123 1.388 2.8 1.925a6.88 6.88 0 011.75 1.995c.49.77.735 1.68.735 2.73 0 1.19-.315 2.252-.945 3.185-.607.933-1.482 1.668-2.625 2.205-1.12.513-2.404.77-3.85.77-.98 0-1.995-.128-3.045-.385-1.027-.257-1.809-.572-2.345-.945-.21-.14-.327-.362-.35-.665l-.21-5.32v-.035c0-.093.058-.14.175-.14.116-.023.186.012.21.105.77 1.937 1.645 3.523 2.625 4.76 1.003 1.237 2.275 1.855 3.815 1.855 1.003 0 1.843-.268 2.52-.805.676-.56 1.015-1.482 1.015-2.765 0-1.027-.234-1.925-.7-2.695a6.397 6.397 0 00-1.68-1.925c-.654-.513-1.552-1.143-2.695-1.89-1.12-.723-1.995-1.33-2.625-1.82a7.262 7.262 0 01-1.61-1.855c-.444-.747-.665-1.61-.665-2.59 0-1.213.338-2.24 1.015-3.08.676-.84 1.551-1.458 2.625-1.855a9.507 9.507 0 013.43-.63c.793 0 1.586.082 2.38.245.793.14 1.458.327 1.995.56.21.07.35.163.42.28.07.093.105.222.105.385l.105 4.76c0 .07-.07.128-.21.175-.117.023-.187-.012-.21-.105a14.811 14.811 0 00-1.89-3.85c-.77-1.167-1.937-1.75-3.5-1.75-1.05 0-1.89.303-2.52.91-.607.607-.91 1.435-.91 2.485zm19.384-2.975c-1.424 0-2.602.443-3.535 1.33-.91.863-1.61 2.182-2.1 3.955 0 .047-.07.07-.21.07-.117 0-.175-.035-.175-.105.093-.91.198-2.077.315-3.5.116-1.447.175-2.532.175-3.255 0-.117.058-.175.175-.175.14 0 .21.058.21.175 0 .513.653.77 1.96.77 2.006.07 4.351.105 7.035.105 1.376 0 2.835-.023 4.375-.07l2.38-.035c.886 0 1.528-.058 1.925-.175.42-.117.688-.35.805-.7.023-.093.093-.14.21-.14.116 0 .175.047.175.14-.07.723-.14 1.82-.21 3.29-.07 1.47-.105 2.66-.105 3.57 0 .07-.07.105-.21.105-.117 0-.187-.035-.21-.105-.234-1.797-.782-3.115-1.645-3.955-.864-.863-2.03-1.295-3.5-1.295-.654 0-1.144.058-1.47.175a1.048 1.048 0 00-.63.63c-.094.28-.14.735-.14 1.365v16.135c0 .723.07 1.248.21 1.575.14.327.42.548.84.665.42.117 1.085.175 1.995.175.07 0 .105.07.105.21 0 .14-.035.21-.105.21-.817 0-1.459-.012-1.925-.035l-2.87-.035-2.73.035c-.49.023-1.167.035-2.03.035-.047 0-.07-.07-.07-.21 0-.14.023-.21.07-.21.91 0 1.575-.058 1.995-.175.443-.117.735-.338.875-.665.163-.35.245-.875.245-1.575V3.96c0-.607-.059-1.05-.175-1.33a1.061 1.061 0 00-.63-.595c-.304-.117-.77-.175-1.4-.175zm32.117 15.68c0-.047.047-.07.14-.07.07 0 .129.023.175.07.07.023.105.047.105.07-.233 1.773-.35 3.395-.35 4.865 0 .187-.035.327-.105.42-.07.07-.21.105-.42.105h-15.19c-.07 0-.105-.07-.105-.21 0-.14.035-.21.105-.21.794 0 1.365-.058 1.715-.175.374-.117.619-.338.735-.665.14-.35.21-.875.21-1.575V3.96c0-.7-.07-1.213-.21-1.54-.116-.327-.361-.548-.735-.665-.373-.14-.945-.21-1.715-.21-.07 0-.105-.07-.105-.21 0-.14.035-.21.105-.21h14.56c.234 0 .35.105.35.315l.07 4.55c0 .047-.07.082-.21.105-.116.023-.186 0-.21-.07-.56-2.66-2.181-3.99-4.865-3.99h-1.4c-.84 0-1.435.152-1.785.455-.35.303-.525.817-.525 1.54v7.14h3.36c2.567 0 3.85-.863 3.85-2.59 0-.07.059-.105.175-.105.14 0 .21.035.21.105l-.035 3.045.035 1.645c.047.747.07 1.353.07 1.82 0 .047-.07.07-.21.07-.14 0-.21-.023-.21-.07 0-2.007-1.306-3.01-3.92-3.01h-3.325v7.945c0 .77.14 1.307.42 1.61.304.303.829.455 1.575.455h1.715c3.127 0 5.11-1.517 5.95-4.55zm26.491 5.04c.07 0 .105.07.105.21 0 .14-.035.21-.105.21H200.7c-.537 0-1.54-.968-3.01-2.905-1.447-1.96-3.22-4.69-5.32-8.19a6.25 6.25 0 01-1.155.105c-.863 0-1.47-.012-1.82-.035v8.19c0 .723.058 1.248.175 1.575.14.327.385.548.735.665.373.117.957.175 1.75.175.047 0 .07.07.07.21 0 .14-.023.21-.07.21-.77 0-1.365-.012-1.785-.035l-2.59-.035-2.52.035c-.443.023-1.05.035-1.82.035-.07 0-.105-.07-.105-.21 0-.14.035-.21.105-.21.793 0 1.365-.058 1.715-.175.373-.117.63-.338.77-.665.14-.35.21-.875.21-1.575V3.96c0-.7-.07-1.213-.21-1.54-.117-.327-.362-.548-.735-.665-.373-.14-.945-.21-1.715-.21-.047 0-.07-.07-.07-.21 0-.14.023-.21.07-.21l1.82.035c1.027.047 1.855.07 2.485.07.7 0 1.435-.035 2.205-.105.28-.023.618-.047 1.015-.07.397-.023.828-.035 1.295-.035 2.077 0 3.675.385 4.795 1.155s1.68 1.855 1.68 3.255c0 1.097-.327 2.135-.98 3.115a7.576 7.576 0 01-2.555 2.38c1.913 2.94 3.512 5.25 4.795 6.93 1.307 1.657 2.462 2.858 3.465 3.605 1.003.747 1.983 1.12 2.94 1.12zm-16.94-11.585c.56.093 1.237.14 2.03.14 1.4 0 2.38-.315 2.94-.945.56-.63.84-1.785.84-3.465 0-1.89-.315-3.197-.945-3.92-.63-.747-1.517-1.12-2.66-1.12-.84 0-1.423.163-1.75.49-.303.327-.455.945-.455 1.855v6.965zm21.765-6.16c0 .863.21 1.633.63 2.31a7.48 7.48 0 001.61 1.715c.653.49 1.528 1.073 2.625 1.75 1.19.747 2.123 1.388 2.8 1.925a6.88 6.88 0 011.75 1.995c.49.77.735 1.68.735 2.73 0 1.19-.315 2.252-.945 3.185-.607.933-1.482 1.668-2.625 2.205-1.12.513-2.403.77-3.85.77-.98 0-1.995-.128-3.045-.385-1.027-.257-1.808-.572-2.345-.945-.21-.14-.327-.362-.35-.665l-.21-5.32v-.035c0-.093.058-.14.175-.14.117-.023.187.012.21.105.77 1.937 1.645 3.523 2.625 4.76 1.003 1.237 2.275 1.855 3.815 1.855 1.003 0 1.843-.268 2.52-.805.677-.56 1.015-1.482 1.015-2.765 0-1.027-.233-1.925-.7-2.695a6.37 6.37 0 00-1.68-1.925c-.653-.513-1.552-1.143-2.695-1.89-1.12-.723-1.995-1.33-2.625-1.82a7.262 7.262 0 01-1.61-1.855c-.443-.747-.665-1.61-.665-2.59 0-1.213.338-2.24 1.015-3.08.677-.84 1.552-1.458 2.625-1.855a9.51 9.51 0 013.43-.63c.793 0 1.587.082 2.38.245.793.14 1.458.327 1.995.56.21.07.35.163.42.28.07.093.105.222.105.385l.105 4.76c0 .07-.07.128-.21.175-.117.023-.187-.012-.21-.105a14.811 14.811 0 00-1.89-3.85c-.77-1.167-1.937-1.75-3.5-1.75-1.05 0-1.89.303-2.52.91-.607.607-.91 1.435-.91 2.485z"/></svg><svg fill="none" viewBox="0 0 22 22" id="male-user" xmlns="http://www.w3.org/2000/svg"><g clip-path="url(#azclip0_2246_30)"><path d="M11 .917C4.93.917 0 5.642 0 11.459c0 5.547 4.487 10.1 10.168 10.508l.033.003c.264.018.53.03.799.03s.534-.012.799-.03l.033-.003C17.513 21.558 22 17.007 22 11.46 22 5.642 17.07.917 11 .917zm0 .917c5.552 0 10.044 4.303 10.044 9.625 0 2.627-1.098 5.003-2.875 6.739-.76-.53-1.699-.847-2.54-1.13-.997-.335-1.94-.652-2.201-1.203-.041-.471-.038-.838-.034-1.26l.001-.18c.425-.387.959-1.204 1.142-1.96.315-.16.701-.547.817-1.474.058-.46-.079-.815-.27-1.054.258-.85.772-3.003-.128-4.392-.38-.587-.955-.957-1.71-1.104-.425-.503-1.225-.778-2.296-.778-1.626.03-2.818.507-3.542 1.42-.852 1.076-1.013 2.704-.48 4.839-.197.238-.34.6-.28 1.069.115.926.5 1.313.815 1.474.183.756.717 1.573 1.142 1.96v.175c.005.424.008.792-.033 1.265-.262.553-1.21.873-2.21 1.212-.837.283-1.77.6-2.53 1.123C2.056 16.464.958 14.087.958 11.46c0-5.322 4.49-9.625 10.043-9.625z" fill="#EDEBEB"/></g><defs><clipPath id="azclip0_2246_30"><path fill="#fff" d="M0 0h22v22H0z"/></clipPath></defs></svg><svg fill="none" viewBox="0 0 22 22" id="male-user-accent" xmlns="http://www.w3.org/2000/svg"><g clip-path="url(#baclip0_2660_1857)"><path d="M11 .918C4.93.918 0 5.643 0 11.46c0 5.547 4.487 10.1 10.168 10.508l.033.003c.264.018.53.03.799.03s.534-.012.799-.03l.033-.003C17.513 21.56 22 17.008 22 11.46 22 5.643 17.07.918 11 .918zm0 .917c5.552 0 10.044 4.303 10.044 9.625 0 2.627-1.098 5.003-2.875 6.739-.76-.53-1.699-.847-2.54-1.13-.997-.335-1.94-.652-2.201-1.203-.041-.471-.038-.839-.034-1.26l.001-.18c.425-.387.959-1.204 1.142-1.96.315-.16.701-.547.817-1.474.058-.46-.079-.815-.27-1.054.258-.85.772-3.003-.128-4.392-.38-.587-.955-.957-1.71-1.104-.425-.503-1.225-.778-2.296-.778-1.626.03-2.818.507-3.542 1.42-.852 1.076-1.013 2.704-.48 4.839-.197.238-.34.6-.28 1.069.115.926.5 1.313.815 1.474.183.756.717 1.573 1.142 1.96v.175c.005.424.008.792-.033 1.265-.262.553-1.21.873-2.21 1.212-.837.283-1.77.6-2.53 1.123C2.056 16.465.958 14.088.958 11.46c0-5.322 4.49-9.625 10.043-9.625z" fill="#A0061F"/></g><defs><clipPath id="baclip0_2660_1857"><path fill="#fff" d="M0 0h22v22H0z"/></clipPath></defs></svg><svg viewBox="0 0 22 22" id="male-user-black" xmlns="http://www.w3.org/2000/svg"><g clip-path="url(#bbclip0_622_74073)"><path d="M11 .884C5.416.884.88 5.42.88 11.004S5.416 21.124 11 21.124s10.12-4.536 10.12-10.12S16.584.884 11 .884zm0 .88a9.233 9.233 0 019.24 9.24 9.206 9.206 0 01-2.645 6.47c-.805-.591-1.787-.888-2.618-1.183-.468-.167-.889-.332-1.196-.516-.295-.176-.458-.357-.544-.565-.04-.505-.032-.911-.03-1.39.054-.054.122-.091.177-.156.128-.151.26-.335.384-.543.214-.355.37-.79.457-1.23.133-.068.276-.083.384-.221.2-.255.336-.614.396-1.115a1.254 1.254 0 00-.273-.979c.197-.644.441-1.67.359-2.73-.046-.583-.193-1.17-.546-1.66-.337-.466-.885-.8-1.586-.922-.445-.506-1.152-.744-1.997-.744h-.008c-1.893.035-3.114.819-3.637 2.014-.498 1.136-.39 2.551-.034 4.024a1.25 1.25 0 00-.288.997c.06.5.195.86.396 1.115.108.138.25.153.384.22.087.441.243.875.457 1.23.125.208.255.392.384.544.054.064.123.102.176.155.003.48.011.885-.03 1.39-.085.208-.248.39-.542.566-.307.185-.727.35-1.195.518-.83.298-1.81.597-2.618 1.183a9.206 9.206 0 01-2.647-6.472A9.233 9.233 0 0111 1.764zM10.966 4.4c.81.001 1.321.241 1.461.487l.108.188.214.029c.552.077.861.291 1.082.597.222.306.345.733.382 1.213.075.959-.2 2.092-.374 2.616l-.11.332.3.183c-.031-.019.14.083.102.404-.047.392-.147.591-.214.677-.067.085-.096.074-.089.074l-.363.03-.038.361c-.033.311-.208.735-.413 1.075-.102.17-.21.32-.302.428-.092.108-.19.175-.152.156l-.236.123v.266c0 .583-.024 1.06.038 1.738l.005.058.02.055c.174.466.535.795.942 1.039.406.243.872.419 1.353.59.793.282 1.619.56 2.248.97A9.202 9.202 0 0111 20.243 9.202 9.202 0 015.07 18.09c.633-.408 1.46-.686 2.252-.97.48-.171.945-.348 1.35-.592.406-.244.766-.573.939-1.038l.02-.055.006-.058c.06-.678.038-1.155.038-1.738v-.266l-.236-.124c.037.02-.06-.047-.152-.155a3.383 3.383 0 01-.302-.428c-.205-.34-.38-.764-.413-1.075l-.039-.361-.362-.03c.006 0-.022.011-.089-.074-.067-.086-.167-.285-.214-.677-.038-.321.135-.424.102-.404l.28-.17-.082-.317c-.379-1.457-.436-2.783-.046-3.673.389-.889 1.168-1.453 2.843-1.485z"/></g><defs><clipPath id="bbclip0_622_74073"><path fill="#fff" d="M0 0h22v22H0z"/></clipPath></defs></svg><svg fill="none" viewBox="0 0 33 32" id="male-user-black-filled" xmlns="http://www.w3.org/2000/svg"><g clip-path="url(#bcclip0_981_32394)"><path d="M16.75 1.332c-8.828 0-16 6.873-16 15.333 0 8.07 6.526 14.69 14.79 15.286l.048.003c.385.027.77.045 1.162.045.391 0 .777-.018 1.162-.045l.049-.003c8.263-.595 14.789-7.216 14.789-15.286 0-8.46-7.172-15.333-16-15.333zm0 1.333c8.076 0 14.609 6.26 14.609 14 0 3.822-1.597 7.278-4.181 9.802-1.105-.771-2.472-1.231-3.696-1.643-1.45-.486-2.82-.948-3.2-1.75-.06-.684-.055-1.22-.05-1.833l.002-.26c.617-.564 1.394-1.753 1.66-2.85.46-.236 1.02-.798 1.189-2.145.084-.669-.114-1.187-.393-1.534.376-1.237 1.123-4.367-.186-6.388-.554-.854-1.39-1.393-2.488-1.606-.617-.732-1.781-1.131-3.338-1.131-2.366.042-4.1.736-5.152 2.064-1.24 1.566-1.475 3.933-.699 7.039-.287.347-.494.872-.409 1.554.17 1.348.729 1.91 1.188 2.145.266 1.1 1.042 2.288 1.66 2.851l.002.254c.005.617.01 1.153-.05 1.84-.38.804-1.759 1.27-3.215 1.763-1.217.412-2.575.873-3.678 1.634-2.586-2.524-4.184-5.983-4.184-9.806 0-7.74 6.533-14 14.609-14z" fill="#141318"/></g><defs><clipPath id="bcclip0_981_32394"><path fill="#fff" transform="translate(.75)" d="M0 0h32v32H0z"/></clipPath></defs></svg><svg fill="none" viewBox="0 0 24 24" id="marker" xmlns="http://www.w3.org/2000/svg"><path d="M12 .48c-4.234 0-7.68 3.447-7.68 7.68 0 6.775 7.022 14.854 7.32 15.195a.476.476 0 00.36.165.494.494 0 00.36-.165c.298-.346 7.32-8.565 7.32-15.195 0-4.233-3.446-7.68-7.68-7.68zm0 5.28a2.88 2.88 0 11-.002 5.762A2.88 2.88 0 0112 5.76z" fill="#000"/></svg><svg fill="none" viewBox="0 0 22 22" id="menu" xmlns="http://www.w3.org/2000/svg"><path d="M0 3.96v.88h22v-.88H0zm0 6.6v.88h22v-.88H0zm0 6.6v.88h22v-.88H0z" fill="#EDEBEB"/></svg><svg fill="none" viewBox="0 0 22 22" id="menu-black" xmlns="http://www.w3.org/2000/svg"><path d="M0 3.96v.88h22v-.88H0zm0 6.6v.88h22v-.88H0zm0 6.6v.88h22v-.88H0z" fill="#000"/></svg><svg fill="none" viewBox="0 0 22 22" id="mobile-shop-payment" xmlns="http://www.w3.org/2000/svg"><g clip-path="url(#bgclip0_846_22246)"><path d="M6.6 1.32c-.728 0-1.32.593-1.32 1.32v1.237C5.12 4.286 4.4 6.2 4.4 7.26c0 .97.321 1.699.88 2.092V19.36c0 .728.592 1.32 1.32 1.32H11v-1.32H9.68a.44.44 0 110-.88H11v-1.32H6.16V9.67a2.386 2.386 0 001.76-.555c.417.348.952.565 1.54.565.604 0 1.118-.27 1.54-.636.422.367.935.636 1.54.636.588 0 1.123-.217 1.54-.566a2.386 2.386 0 001.76.555v3.971h.88V9.352c.559-.393.88-1.122.88-2.092 0-1.065-.73-2.996-.883-3.39 0-.005.003-.009.003-.014V2.64c0-.727-.592-1.32-1.32-1.32H6.6zM6.022 4.4H7.48v3.913a1.52 1.52 0 01-1.1.487c-.91 0-1.1-.837-1.1-1.54 0-.72.467-2.12.742-2.86zm2.338 0h2.2v3.894c-.282.302-.658.506-1.1.506-.438 0-.819-.19-1.1-.487V4.4zm3.08 0h2.2v3.894c-.282.302-.658.506-1.1.506-.442 0-.818-.204-1.1-.506V4.4zm3.08 0h1.457c.276.74.743 2.14.743 2.86 0 .703-.191 1.54-1.1 1.54-.418 0-.809-.18-1.1-.487V4.4zM13.2 14.52c-.728 0-1.32.593-1.32 1.32v.44H22v-.44c0-.727-.592-1.32-1.32-1.32H13.2zm-1.32 3.08v3.08c0 .728.592 1.32 1.32 1.32h7.48c.728 0 1.32-.592 1.32-1.32V17.6H11.88z" fill="#000"/></g><defs><clipPath id="bgclip0_846_22246"><path fill="#fff" d="M0 0h22v22H0z"/></clipPath></defs></svg><svg fill="none" viewBox="0 0 42 42" id="mobile-shopping" xmlns="http://www.w3.org/2000/svg"><path d="M12.6 2.52c-1.39 0-2.52 1.13-2.52 2.52v2.362c-.303.781-1.68 4.435-1.68 6.458 0 1.85.613 3.242 1.68 3.993v19.106c0 1.39 1.13 2.52 2.52 2.52h10.08l.19-2.52h-4.39a.84.84 0 110-1.68h4.518l.19-2.52H11.76v-14.3a4.558 4.558 0 003.36-1.06 4.567 4.567 0 002.94 1.08c1.154 0 2.135-.514 2.94-1.215.805.7 1.786 1.216 2.94 1.216a4.567 4.567 0 002.94-1.082 4.559 4.559 0 002.94 1.082c.143 0 .283-.009.42-.022v3.408a5.409 5.409 0 011.68-.714v-3.3c1.067-.75 1.68-2.142 1.68-3.992 0-2.035-1.393-5.72-1.685-6.471 0-.01.005-.017.005-.026V5.04c0-1.39-1.13-2.52-2.52-2.52H12.6zM11.497 8.4h2.783v7.47c-.558.585-1.303.93-2.1.93-1.736 0-2.1-1.599-2.1-2.94 0-1.378.89-4.05 1.417-5.46zm4.463 0h4.2v7.433c-.538.576-1.256.966-2.1.966-.836 0-1.563-.364-2.1-.93V8.4zm5.88 0h4.2v7.433c-.538.576-1.256.966-2.1.966-.844 0-1.562-.39-2.1-.966V8.4zm5.88 0h2.782c.527 1.41 1.418 4.082 1.418 5.46 0 1.341-.365 2.94-2.1 2.94-.798 0-1.544-.345-2.1-.93V8.4zm5.46 14.28a3.793 3.793 0 00-3.78 3.78v1.26h-4.138l-.902 11.76c0 1.389 1.13 2.52 2.52 2.52h12.6c1.39 0 2.52-1.13 2.518-2.584L41.1 27.72h-4.14v-1.26a3.793 3.793 0 00-3.78-3.78zm0 1.68c1.17 0 2.1.93 2.1 2.1v1.26h-4.2v-1.26c0-1.17.93-2.1 2.1-2.1z" fill="#000"/></svg><svg fill="none" viewBox="0 0 24 24" id="online-payment" xmlns="http://www.w3.org/2000/svg"><path d="M7.92 1.44c-.926 0-1.68.754-1.68 1.68v9.84H6a.72.72 0 000 1.44h12a.72.72 0 000-1.44h-.24V3.12c0-.926-.754-1.68-1.68-1.68H7.92zm.72.96h1.44v11.04H8.64V2.4zM2.4 5.28c-.793 0-1.44.647-1.44 1.44v11.04c0 .794.647 1.44 1.44 1.44h19.2c.793 0 1.44-.646 1.44-1.44V6.72c0-.793-.647-1.44-1.44-1.44h-3.36v.96h3.36c.264 0 .48.216.48.48V16.8H1.92V6.72a.48.48 0 01.48-.48h3.36v-.96H2.4zm6.555 14.88l-.24 1.44H7.635a.482.482 0 00.045.96h8.64a.483.483 0 00.422-.238.484.484 0 000-.483.483.483 0 00-.422-.239h-1.035l-.24-1.44h-6.09z" fill="#000"/></svg><svg fill="none" viewBox="0 0 22 22" id="online-payment-with-a-credit-card" xmlns="http://www.w3.org/2000/svg"><path d="M7.26 1.32c-.85 0-1.54.691-1.54 1.54v9.02H5.5a.66.66 0 000 1.32h11a.66.66 0 000-1.32h-.22V2.86c0-.849-.691-1.54-1.54-1.54H7.26zm.66.88h1.32v10.12H7.92V2.2zM2.2 4.84c-.727 0-1.32.593-1.32 1.32v10.12c0 .727.593 1.32 1.32 1.32h17.6c.727 0 1.32-.593 1.32-1.32V6.16c0-.727-.593-1.32-1.32-1.32h-3.08v.88h3.08a.44.44 0 01.44.44v9.24H1.76V6.16a.44.44 0 01.44-.44h3.08v-.88H2.2zm6.009 13.64l-.22 1.32h-.99a.441.441 0 00.04.88h7.92a.443.443 0 00.388-.218.444.444 0 000-.443.443.443 0 00-.387-.219h-.949l-.22-1.32H8.21z" fill="#000"/></svg><svg fill="none" viewBox="0 0 24 24" id="phone" xmlns="http://www.w3.org/2000/svg"><path d="M18.735 22.56h-.023c-3.607-.118-7.833-3.615-10.745-6.528C5.05 13.118 1.554 8.89 1.442 5.299 1.4 4.04 4.492 1.8 4.524 1.776c.803-.559 1.693-.36 2.06.146.247.343 2.59 3.895 2.845 4.298.265.418.225 1.04-.105 1.665-.182.347-.785 1.408-1.068 1.903.305.435 1.113 1.502 2.782 3.17 1.67 1.67 2.736 2.48 3.173 2.785.495-.283 1.556-.887 1.903-1.069.615-.326 1.233-.367 1.655-.109.432.265 3.973 2.62 4.3 2.847.273.193.45.523.485.907.034.388-.086.799-.335 1.157-.02.03-2.235 3.084-3.484 3.084z" fill="#000"/></svg><svg viewBox="0 0 24 24" id="plus-math" xmlns="http://www.w3.org/2000/svg"><path d="M11.52 4.32v7.2h-7.2v.96h7.2v7.2h.96v-7.2h7.2v-.96h-7.2v-7.2h-.96z"/></svg><svg fill="none" viewBox="0 0 22 22" id="puzzle-matching" xmlns="http://www.w3.org/2000/svg"><g clip-path="url(#bmclip0_891_47335)"><path d="M15.135 3.961a1.595 1.595 0 00-.985.356 1.428 1.428 0 00-.527 1.096c0 .308.105.545.206.747H11v4.04c.15-.045.325-.08.528-.08.532 0 1.034.238 1.35.63.287.365.384.81.278 1.263-.132.59-.655 1.051-1.329 1.17a1.653 1.653 0 01-.827-.04v3.137h2.833v.005c-.105.193-.21.435-.21.743 0 .418.193.819.527 1.096a1.59 1.59 0 001.017.356c.11 0 .224-.013.334-.035a1.482 1.482 0 001.18-1.144 1.224 1.224 0 00-.194-1.02h.597l.07.1.003.004c.486.667 1.168 1.223 1.988 1.422l.001.001 2.293.655a.44.44 0 10.242-.846l-2.319-.662-.008-.003c-.556-.135-1.093-.548-1.483-1.082l-2.338-3.382-.002-.004c-.193-.267-.168-.623.045-.831l.006-.007.007-.007a.465.465 0 01.67-.039l.005.004 2.404 2.036 1.132-.754v-2.501a.794.794 0 01.353.304l.005.007 1.045 1.442a.44.44 0 10.714-.515l-1.033-1.424a1.749 1.749 0 00-.796-.665l-.024-.01-.264-.07V6.82a.66.66 0 00-.66-.66H16.5c.207-.32.268-.673.185-1.016A1.492 1.492 0 0015.5 3.996a1.67 1.67 0 00-.366-.035zm-8.8.002c-.365.007-.71.13-.985.358a1.42 1.42 0 00-.527 1.092c0 .312.105.55.206.747H2.86c-.365 0-.66.3-.66.66v2.633l-.264.07-.025.011a1.752 1.752 0 00-.796.665L.083 11.623a.44.44 0 10.714.515l1.045-1.443.005-.007a.793.793 0 01.353-.303v2.5l1.132.755 2.405-2.036.004-.004a.466.466 0 01.67.039l.007.007.007.007c.213.208.237.564.044.831l-.002.004-2.338 3.382c-.39.534-.927.947-1.483 1.082l-.009.003-2.318.663a.44.44 0 10.242.845l2.293-.655c.821-.2 1.503-.756 1.99-1.423l.003-.004.066-.096h.12a1.5 1.5 0 00-.21.743c0 .422.193.819.527 1.096a1.59 1.59 0 001.017.356c.11 0 .224-.013.334-.035a1.506 1.506 0 001.184-1.14 1.284 1.284 0 00-.19-1.025h2.425v-3.55c0-.04.004-.084.017-.123a.63.63 0 01.383-.414.658.658 0 01.594.048.807.807 0 00.546.08c.33-.058.586-.265.643-.507a.589.589 0 00-.115-.515.838.838 0 00-.66-.299c-.163 0-.295.044-.44.106a.668.668 0 01-.572.035.661.661 0 01-.383-.44.443.443 0 01-.013-.11v-4.43H7.7c.207-.322.268-.674.185-1.013a1.515 1.515 0 00-1.18-1.152 1.768 1.768 0 00-.37-.033z" fill="#000"/></g><defs><clipPath id="bmclip0_891_47335"><path fill="#fff" d="M0 0h22v22H0z"/></clipPath></defs></svg><svg fill="none" viewBox="0 0 24 24" id="right" xmlns="http://www.w3.org/2000/svg"><path d="M18.257 6.714a.48.48 0 00-.353.817l3.83 3.989H.97a.478.478 0 00-.42.238.476.476 0 000 .484c.087.15.248.24.42.238h20.762l-3.828 3.988a.48.48 0 10.693.663L23.526 12l-4.928-5.132a.483.483 0 00-.34-.154z" fill="#000"/></svg><svg fill="none" viewBox="0 0 15 14" id="rub" xmlns="http://www.w3.org/2000/svg"><path d="M5.313 2.625V7h-.875v.875h.875v.875h-.875v.875h.875v1.75h.875v-1.75h2.187V8.75H6.187v-.875h2.625a2.632 2.632 0 002.626-2.625 2.632 2.632 0 00-2.626-2.625h-3.5zm.875.875h2.625c.97 0 1.75.78 1.75 1.75S9.783 7 8.813 7H6.187V3.5z" fill="#141318" fill-opacity=".6"/></svg><svg fill="none" viewBox="0 0 16 16" id="rub-accent" xmlns="http://www.w3.org/2000/svg"><path d="M5.5 3v5h-1v1h1v1h-1v1h1v2h1v-2H9v-1H6.5V9h3c1.65 0 3-1.35 3-3s-1.35-3-3-3h-4zm1 1h3c1.11 0 2 .89 2 2 0 1.11-.89 2-2 2h-3V4z" fill="#A0061F"/></svg><svg fill="none" viewBox="0 0 20 20" id="rub-black" xmlns="http://www.w3.org/2000/svg"><path d="M6.875 3.75V10h-1.25v1.25h1.25v1.25h-1.25v1.25h1.25v2.5h1.25v-2.5h3.125V12.5H8.125v-1.25h3.75a3.76 3.76 0 003.75-3.75 3.76 3.76 0 00-3.75-3.75h-5zM8.125 5h3.75c1.387 0 2.5 1.113 2.5 2.5s-1.113 2.5-2.5 2.5h-3.75V5z" fill="#141318"/></svg><svg fill="none" viewBox="0 0 22 22" id="search" xmlns="http://www.w3.org/2000/svg"><path d="M9.24 1.32A7.486 7.486 0 001.76 8.8a7.486 7.486 0 007.48 7.48 7.433 7.433 0 004.372-1.416l5.789 5.775 1.238-1.237-5.72-5.734a7.446 7.446 0 001.8-4.868 7.486 7.486 0 00-7.48-7.48zm0 .88c3.65 0 6.6 2.95 6.6 6.6 0 3.65-2.95 6.6-6.6 6.6-3.65 0-6.6-2.95-6.6-6.6 0-3.65 2.95-6.6 6.6-6.6z" fill="#F4F3F3"/></svg><svg fill="none" viewBox="0 0 22 22" id="search-black" xmlns="http://www.w3.org/2000/svg"><path d="M9.24 1.32A7.486 7.486 0 001.76 8.8a7.486 7.486 0 007.48 7.48 7.433 7.433 0 004.372-1.416l5.789 5.775 1.238-1.237-5.72-5.734a7.446 7.446 0 001.8-4.868 7.486 7.486 0 00-7.48-7.48zm0 .88c3.65 0 6.6 2.95 6.6 6.6 0 3.65-2.95 6.6-6.6 6.6-3.65 0-6.6-2.95-6.6-6.6 0-3.65 2.95-6.6 6.6-6.6z" fill="#000"/></svg><svg fill="none" viewBox="0 0 22 22" id="sewing-tape-measure" xmlns="http://www.w3.org/2000/svg"><g clip-path="url(#btclip0_891_47341)"><path d="M.495 0A.445.445 0 000 .44v5.143a.44.44 0 00.385.44l8.319 1.018 2.392-.207 9.323-.783c.7-.119 1.559-1.184 1.581-2.338-.25-.455-.672-.887-1.32-1.182v1.911a.44.44 0 11-.88 0v-2.2h-.014l-1.306-.151v2.09a.44.44 0 11-.88 0v-2.2l-1.32-.152V5.2a.44.44 0 11-.88 0V1.732l-1.32-.151v2.021a.44.44 0 11-.88 0V1.472l-1.32-.151v2.021a.44.44 0 11-.88 0V1.224L9.68 1.06v3.3a.44.44 0 01-.88 0V.963L7.48.812v1.966a.44.44 0 01-.88 0V.702L5.28.551v1.911a.44.44 0 01-.88 0V.454L3.08.304V3.52a.44.44 0 01-.88 0V.193L1.925.166A.623.623 0 001.76.152L.495.001zM22 5.213c0 .067-.005 1.184-1.32 1.595v1.994a.44.44 0 11-.88 0V6.958l-1.32.11v1.953a.44.44 0 11-.88 0V7.15l-1.32.11v3.3a.44.44 0 11-.88 0V7.343l-1.32.11v2.008a.44.44 0 11-.88 0V7.522l-1.32.124V9.68a.44.44 0 11-.88 0V7.714l-1.32.11v3.397a.44.44 0 11-.88 0V7.907l-1.32.11v2.104a.44.44 0 01-.88 0V8.086l-1.32.123v2.132a.44.44 0 01-.88 0V8.278l-1.32.11v3.493a.44.44 0 11-.88 0V8.484c-.69.17-1.774.593-2.2 1.76 0 1.073.789 2.281 1.897 2.393l10.272 1.141 7.273-.619c.012-.001.03-.012.042-.013a2.935 2.935 0 001.21-.358c.31-.173.553-.399.742-.646A2.569 2.569 0 0022 10.588V5.212zM0 11.867v5.294c0 1.012.65 2.229 2.502 2.598l19.003 2.242h.055a.442.442 0 00.44-.44v-5.418c0-.225-.162-.4-.385-.426l-.935-.11v2.035c0 .244-.196.44-.44.44a.439.439 0 01-.44-.44v-2.131l-1.32-.151v2.02c0 .245-.196.44-.44.44a.439.439 0 01-.44-.44v-2.117l-1.32-.137v3.272c0 .244-.196.44-.44.44a.439.439 0 01-.44-.44V15.03l-1.32-.152v1.925c0 .244-.196.44-.44.44a.439.439 0 01-.44-.44v-2.021l-1.32-.151v1.911a.44.44 0 11-.88 0v-2.007l-1.32-.138v3.162a.44.44 0 11-.88 0v-3.272l-1.32-.138v1.83a.44.44 0 11-.88 0v-1.926l-1.32-.151v1.76a.44.44 0 11-.88 0v-1.856l-1.32-.151v3.066a.44.44 0 11-.88 0v-3.163l-.44-.041C.022 13.17 0 11.941 0 11.867z" fill="#000"/></g><defs><clipPath id="btclip0_891_47341"><path fill="#fff" d="M0 0h22v22H0z"/></clipPath></defs></svg><svg fill="none" viewBox="0 0 24 24" id="shop" xmlns="http://www.w3.org/2000/svg"><path d="M3.36 1.92c-.794 0-1.44.646-1.44 1.44v1.863c-.08.333-.48 2.04-.48 3.177 0 .732.175 1.33.48 1.777V22.08h10a.478.478 0 00.156 0H22.08V10.177c.305-.447.48-1.046.48-1.777 0-1.137-.4-2.844-.48-3.177V3.36c0-.794-.646-1.44-1.44-1.44H3.36zm.48 1.44a.48.48 0 110 .96.48.48 0 010-.96zm1.44 0a.48.48 0 110 .96.48.48 0 010-.96zm1.44 0a.48.48 0 110 .96.48.48 0 010-.96zm-3.938 2.4H4.8v3.788a1.657 1.657 0 01-1.2.532c-.992 0-1.2-.914-1.2-1.68 0-.819.247-2.038.381-2.64zm2.978 0h2.4v3.788a1.657 1.657 0 01-1.2.532c-.456 0-.881-.197-1.2-.532V5.76zm3.36 0h2.4v3.788a1.657 1.657 0 01-1.2.532c-.456 0-.881-.197-1.2-.532V5.76zm3.36 0h2.4v3.788a1.655 1.655 0 01-1.2.532c-.456 0-.881-.197-1.2-.532V5.76zm3.36 0h2.4v3.788a1.655 1.655 0 01-1.2.532c-.456 0-.882-.197-1.2-.532V5.76zm3.36 0h2.018c.135.602.382 1.821.382 2.64 0 .42-.069.878-.288 1.212a.471.471 0 00-.153.186c-.179.17-.42.282-.76.282-.455 0-.881-.197-1.2-.532V5.76zM5.76 12.48h5.76v8.64H5.76v-8.64zm6.72 0h6.24v8.64h-6.24v-8.64zm-2.4 3.84a.48.48 0 100 .96.48.48 0 000-.96zm3.84 0a.48.48 0 100 .96.48.48 0 000-.96z" fill="#000"/></svg><svg fill="none" viewBox="0 0 22 22" id="shopping-bag" xmlns="http://www.w3.org/2000/svg"><path d="M11 .917c-2.057 0-3.729 1.762-3.729 3.929v.785H4.323L2.75 20.167h16.5L17.677 5.631h-2.202v2.357c0 .651-.502 1.179-1.12 1.179a1.07 1.07 0 01-.244-.025c-.5-.118-.874-.59-.874-1.154 0-.51.313-.942.746-1.104v1.104c0 .217.166.393.373.393a.383.383 0 00.373-.393V4.846c0-2.167-1.672-3.929-3.729-3.929zm0 .786c1.645 0 2.983 1.41 2.983 3.143v.785h-5.22v2.357c0 .651-.501 1.179-1.119 1.179a1.07 1.07 0 01-.245-.025c-.5-.118-.874-.59-.874-1.154 0-.51.314-.942.746-1.104v1.104c0 .217.168.393.373.393a.384.384 0 00.373-.393V4.846c0-1.733 1.339-3.143 2.983-3.143z" fill="#EDEBEB"/></svg><svg fill="none" viewBox="0 0 22 22" id="shopping-bag-black" xmlns="http://www.w3.org/2000/svg"><path d="M11 .44c-2.312 0-4.177 1.885-4.177 4.22v.845H3.522l-.04.37-1.67 14.77-.052.475h18.48l-.052-.474-1.67-14.772-.04-.37h-3.302v-.843c0-2.336-1.865-4.22-4.176-4.22zm0 .845c1.864 0 3.34 1.491 3.34 3.376v.844H7.66V4.66c0-1.885 1.476-3.376 3.34-3.376zM4.279 6.349h2.544v.963a.838.838 0 00-.417.725.84.84 0 00.835.844.84.84 0 00.835-.844.838.838 0 00-.417-.725v-.963h6.682v.963a.838.838 0 00-.418.725.84.84 0 00.835.844.84.84 0 00.836-.844.838.838 0 00-.418-.725v-.963h2.545l1.58 13.927H2.698L4.28 6.35z" fill="#000"/></svg><svg fill="none" viewBox="0 0 33 32" id="shopping-bag-black-filled" xmlns="http://www.w3.org/2000/svg"><path d="M16.5 1.332c-3.324 0-6.026 2.563-6.026 5.714V8.19H5.709L3.167 29.332h26.666L27.291 8.189h-3.56v3.429c0 .946-.81 1.714-1.807 1.714-.134 0-.271-.009-.396-.036-.807-.172-1.412-.86-1.412-1.678 0-.744.506-1.37 1.205-1.607v1.607c0 .314.268.571.603.571.334 0 .602-.257.602-.571V7.046c0-3.151-2.702-5.714-6.026-5.714zm0 1.143c2.658 0 4.821 2.051 4.821 4.571V8.19h-8.437v3.429c0 .946-.81 1.714-1.808 1.714-.134 0-.27-.009-.395-.036-.81-.172-1.413-.86-1.413-1.678 0-.744.506-1.37 1.206-1.607v1.607c0 .314.27.571.602.571.332 0 .603-.257.603-.571V7.046c0-2.52 2.163-4.571 4.821-4.571z" fill="#000"/></svg><svg fill="none" viewBox="0 0 24 24" id="show" xmlns="http://www.w3.org/2000/svg"><path d="M12 5.76C5.602 5.76.595 11.688.595 11.688a.48.48 0 10.73.624S6.206 6.72 12 6.72c5.794 0 10.675 5.592 10.675 5.592a.48.48 0 00.73-.624S18.398 5.76 12 5.76zm0 2.4a2.377 2.377 0 00-2.4 2.4c0 1.344 1.056 2.4 2.4 2.4 1.344 0 2.4-1.056 2.4-2.4 0-1.344-1.056-2.4-2.4-2.4zm-4.944.575c-3.072 1.584-5.136 4.033-5.184 4.033-.144.144-.336.288-.528.336C3.024 14.736 7.104 18.24 12 18.24c4.896 0 8.976-3.504 10.656-5.136a.913.913 0 01-.528-.336c-.048-.048-2.112-2.449-5.184-4.033.192.576.336 1.153.336 1.777a5.265 5.265 0 01-5.28 5.28 5.265 5.265 0 01-5.28-5.28c0-.624.096-1.249.336-1.777z" fill="#000"/></svg><svg fill="none" viewBox="0 0 22 22" id="slider" xmlns="http://www.w3.org/2000/svg"><path d="M11 3.08a1.761 1.761 0 000 3.52 1.761 1.761 0 000-3.52zM1.32 4.4a.44.44 0 000 .88H8.4a2.651 2.651 0 01-.04-.44c0-.15.015-.297.04-.44H1.32zm12.28 0c.024.143.04.29.04.44 0 .15-.016.297-.04.44h7.08a.44.44 0 100-.88H13.6zm3.56 4.84a1.761 1.761 0 000 3.52 1.761 1.761 0 000-3.52zM1.32 10.56a.44.44 0 000 .88h13.24a2.658 2.658 0 01-.04-.44c0-.15.015-.297.04-.44H1.32zm18.44 0c.024.143.04.29.04.44 0 .15-.016.297-.04.44h.92a.44.44 0 100-.88h-.92zM6.16 15.4a1.761 1.761 0 000 3.52 1.761 1.761 0 000-3.52zm-4.84 1.32a.44.44 0 100 .88h2.24a2.636 2.636 0 01-.04-.44c0-.151.015-.297.04-.44H1.32zm7.44 0c.024.143.04.289.04.44 0 .151-.016.297-.04.44h11.92c.244 0 .44-.196.44-.44a.439.439 0 00-.44-.44H8.76z" fill="#000"/></svg><svg fill="none" viewBox="0 0 18 19" id="subtract" xmlns="http://www.w3.org/2000/svg"><path d="M3.24 9.14v.72h11.52v-.72H3.24z" fill="#141318"/></svg><svg fill="none" viewBox="0 0 22 23" id="telegram" xmlns="http://www.w3.org/2000/svg"><path d="M20.3 3.383c-.33-.28-.848-.32-1.384-.105-.564.226-15.956 6.828-16.582 7.098-.114.04-1.11.41-1.007 1.238.092.745.892 1.054.99 1.09l3.912 1.34c.26.864 1.217 4.052 1.428 4.733.132.425.348.983.725 1.098.33.127.66.01.873-.157l2.392-2.218 3.862 3.011.092.055c.262.117.513.175.753.175.185 0 .363-.035.533-.105.578-.237.81-.789.834-.851L20.606 4.79c.176-.8-.069-1.208-.306-1.408zM9.68 14.58L8.36 18.1l-1.32-4.4 10.12-7.48-7.48 8.36z" fill="#EDEBEB"/></svg><svg fill="none" viewBox="0 0 23 23" id="telegram-black" xmlns="http://www.w3.org/2000/svg"><path d="M20.8 3.383c-.33-.28-.848-.32-1.384-.105-.564.226-15.956 6.828-16.582 7.098-.114.04-1.11.41-1.007 1.238.092.745.891 1.054.99 1.09l3.912 1.34c.26.864 1.217 4.052 1.428 4.733.132.425.347.983.725 1.098.33.127.66.01.873-.157l2.392-2.218 3.862 3.011.092.055c.262.117.513.175.753.175.185 0 .363-.035.533-.105.578-.237.81-.789.834-.851L21.106 4.79c.176-.8-.069-1.208-.306-1.408zM10.18 14.58L8.86 18.1l-1.32-4.4 10.12-7.48-7.48 8.36z" fill="#141318"/></svg><svg fill="none" viewBox="0 0 22 22" id="trash-can" xmlns="http://www.w3.org/2000/svg"><path d="M9.24.88c-.724 0-1.32.596-1.32 1.32v.88h-4.4a.44.44 0 100 .88h.44V19.8c0 .728.592 1.32 1.32 1.32h11.44c.728 0 1.32-.592 1.32-1.32V3.96h.44a.44.44 0 100-.88h-4.4V2.2c0-.724-.596-1.32-1.32-1.32H9.24zm0 .88h3.52c.244 0 .44.196.44.44v.88H8.8V2.2c0-.244.196-.44.44-.44zm-.88 4.4a.44.44 0 01.44.44v11a.44.44 0 11-.88 0v-11a.44.44 0 01.44-.44zm2.64 0a.44.44 0 01.44.44v11a.44.44 0 11-.88 0v-11a.44.44 0 01.44-.44zm2.64 0a.44.44 0 01.44.44v11a.44.44 0 11-.88 0v-11a.44.44 0 01.44-.44z" fill="#000"/></svg><svg fill="none" viewBox="0 0 19 19" id="triangle" xmlns="http://www.w3.org/2000/svg"><path d="M8.53 14.22l4.19-4.19a.75.75 0 000-1.06L8.53 4.78a.75.75 0 00-1.28.53v8.38a.75.75 0 001.28.53z" fill="#141318"/></svg><svg fill="none" viewBox="0 0 22 23" id="vk" xmlns="http://www.w3.org/2000/svg"><path d="M18.04 2.26H3.96a2.2 2.2 0 00-2.2 2.2v14.08a2.2 2.2 0 002.2 2.2h14.08a2.2 2.2 0 002.2-2.2V4.46a2.2 2.2 0 00-2.2-2.2zm-1.443 12.76l-1.641-.005s-.036.005-.093.005c-.132 0-.405-.035-.726-.255-.576-.4-1.126-1.395-1.562-1.395a.256.256 0 00-.083.013c-.379.119-.493.497-.493.96 0 .162-.115.237-.423.237h-.849c-.95 0-1.87-.022-2.904-1.153-1.522-1.668-2.948-4.633-2.948-4.633s-.079-.172.005-.273c.079-.092.264-.101.334-.101H7s.163.03.282.119a.541.541 0 01.154.21s.3.582.673 1.237c.63 1.083.968 1.443 1.21 1.443a.24.24 0 00.119-.03c.36-.198.255-1.8.255-1.8s.005-.58-.185-.836c-.145-.202-.422-.26-.545-.277-.097-.013.061-.242.273-.348.272-.132.726-.158 1.271-.158h.264c.515.009.528.061.73.11.608.145.401.713.401 2.072 0 .436-.08 1.047.233 1.254a.179.179 0 00.093.022c.202 0 .638-.26 1.333-1.434.387-.669.686-1.333.686-1.333s.066-.12.167-.18c.097-.058.097-.058.225-.058h.013c.14 0 1.54-.013 1.848-.013h.035c.295 0 .563.004.612.185.07.272-.216.76-.968 1.773-1.241 1.659-1.382 1.535-.352 2.495.985.915 1.188 1.36 1.223 1.416.41.678-.453.73-.453.73z" fill="#EDEBEB"/></svg><svg fill="none" viewBox="0 0 23 23" id="vk-black" xmlns="http://www.w3.org/2000/svg"><path d="M18.54 2.26H4.46a2.2 2.2 0 00-2.2 2.2v14.08a2.2 2.2 0 002.2 2.2h14.08a2.2 2.2 0 002.2-2.2V4.46a2.2 2.2 0 00-2.2-2.2zm-1.443 12.76l-1.641-.005s-.036.005-.093.005c-.132 0-.405-.035-.726-.255-.576-.4-1.126-1.395-1.562-1.395a.256.256 0 00-.083.013c-.379.119-.493.497-.493.96 0 .162-.115.237-.423.237h-.849c-.95 0-1.87-.022-2.904-1.153-1.522-1.668-2.948-4.633-2.948-4.633s-.079-.172.005-.273c.079-.092.264-.101.334-.101H7.5s.163.03.282.119a.541.541 0 01.154.21s.3.582.673 1.237c.63 1.083.968 1.443 1.21 1.443a.24.24 0 00.119-.03c.36-.198.255-1.8.255-1.8s.005-.58-.185-.836c-.145-.202-.422-.26-.545-.277-.097-.013.061-.242.273-.348.272-.132.726-.158 1.271-.158h.264c.515.009.528.061.73.11.608.145.401.713.401 2.072 0 .436-.08 1.047.233 1.254a.179.179 0 00.093.022c.202 0 .638-.26 1.333-1.434.387-.669.686-1.333.686-1.333s.066-.12.167-.18c.097-.058.097-.058.225-.058h.013c.14 0 1.54-.013 1.848-.013h.035c.295 0 .563.004.612.185.07.272-.216.76-.968 1.773-1.241 1.659-1.382 1.535-.352 2.495.985.915 1.188 1.36 1.223 1.416.41.678-.453.73-.453.73z" fill="#141318"/></svg><svg fill="none" viewBox="0 0 18 18" id="whatsapp" xmlns="http://www.w3.org/2000/svg"><g clip-path="url(#chclip0_846_17447)"><path d="M9 .72C4.434.72.72 4.436.72 9c0 1.426.368 2.828 1.067 4.065L.733 16.823a.36.36 0 00.433.447L5.09 16.3A8.285 8.285 0 009 17.28c4.566 0 8.28-3.715 8.28-8.28C17.28 4.435 13.565.72 9 .72zm4.165 11.202c-.177.49-1.026.938-1.435.998-.366.054-.83.077-1.339-.083a12.464 12.464 0 01-1.212-.442c-2.132-.91-3.524-3.03-3.631-3.17-.106-.14-.868-1.138-.868-2.17 0-1.033.549-1.541.744-1.752a.786.786 0 01.567-.262c.142 0 .283.002.408.007.13.007.306-.05.478.36.177.421.602 1.454.655 1.56.053.105.088.227.018.367-.07.14-.106.228-.212.35-.107.123-.224.274-.32.369-.106.104-.216.218-.093.428.124.21.55.897 1.183 1.454.812.715 1.497.937 1.71 1.042.212.105.336.087.46-.053.123-.14.531-.613.672-.823.142-.21.284-.175.479-.105.195.07 1.24.578 1.453.683.212.105.354.157.407.245.053.087.053.507-.124.997z" fill="#141318"/></g><defs><clipPath id="chclip0_846_17447"><path fill="#fff" d="M0 0h18v18H0z"/></clipPath></defs></svg><svg fill="none" viewBox="0 0 40 40" id="zoom-in" xmlns="http://www.w3.org/2000/svg"><path d="M16.8 2.4C9.297 2.4 3.2 8.497 3.2 16c0 7.503 6.097 13.6 13.6 13.6 2.969 0 5.713-.956 7.95-2.575l10.525 10.5 2.25-2.25-10.4-10.425A13.539 13.539 0 0030.4 16c0-7.503-6.097-13.6-13.6-13.6zm0 1.6c6.638 0 12 5.363 12 12 0 6.638-5.362 12-12 12-6.637 0-12-5.362-12-12 0-6.637 5.363-12 12-12zM16 9.6v5.6h-5.6v1.6H16v5.6h1.6v-5.6h5.6v-1.6h-5.6V9.6H16z" fill="#000"/></svg></svg>