<?xml version="1.0" encoding="utf-8"?><svg viewBox="0 0 222 55" xmlns="http://www.w3.org/2000/svg" xmlns:xlink="http://www.w3.org/1999/xlink"><style>:root>svg{display:none}:root>svg:target{display:block}</style><svg fill="none" viewBox="0 0 24 24" id="card" xmlns="http://www.w3.org/2000/svg"><g clip-path="url(#aaclip0_371_3474)"><path d="M9.9 4.32c-.191 0-.37.028-.54.075-.133.036-.27.075-.39.135-.005.002-.01.012-.015.015-.13.068-.247.152-.36.24-.005.004-.01.012-.015.015-.11.09-.208.18-.3.285-.004.006-.011.01-.015.015a2.568 2.568 0 00-.255.36 2.243 2.243 0 00-.675-.15 1.764 1.764 0 00-.945.21c-.545.3-.93.756-1.335 1.095-.414.347-1.654 1.258-2.76 2.055C1.19 9.467.21 10.17.21 10.17a.479.479 0 00.026.876.476.476 0 00.514-.096s1.005-.7 2.115-1.5c1.11-.8 2.323-1.683 2.82-2.1.482-.405.853-.815 1.17-.99.26-.142.463-.183.84 0-.007.066-.015.132-.015.195v5.715l-.66.3a.48.48 0 10.39.87l4.44-2.04h.015c.632-.337 1.294-.647 1.8-.75.506-.103.76-.06.975.225.253.334.311.702.195 1.11-.116.41-.426.853-.96 1.23-1.12.792-2.85 1.38-2.85 1.38l-.09.03-.075.06c-.89.758-1.406 1.478-2.055 1.965-.649.488-1.451.81-3.105.81h-.03l-5.22.3a.482.482 0 00.06.96l5.19-.3h.03c1.226-.003 2.117-.206 2.82-.525.122.36.373.668.765.795a2.188 2.188 0 001.53-.06 2.44 2.44 0 00.525-.315c.152.35.424.675.84.825.437.158.872.193 1.26.09.388-.103.705-.322 1.005-.6.05-.047.085-.082.12-.12.101.07.218.117.345.15.623.163 1.35-.015 1.905-.57.488-.487.78-1.235.885-2.25h4.185a2.1 2.1 0 002.04-1.68c.028-.137.045-.275.045-.42V6.51c0-.073-.007-.138-.015-.21a2.063 2.063 0 00-.165-.615 2.052 2.052 0 00-.21-.375c-.002-.003.002-.01 0-.015a2.29 2.29 0 00-1.41-.93 1.961 1.961 0 00-.42-.045H9.9zm-1.26 2.4h14.4v1.92H8.64V6.72zm2.4 9.12h.33c-.028.338-.077.846-.135 1.17-.007.04-.01.08-.015.12a.457.457 0 00-.075.06c-.206.246-.444.45-.69.555-.245.105-.491.143-.84.03-.086-.028-.184-.167-.195-.39.619-.472 1.075-1.008 1.62-1.545zm1.305 0h1.8c-.034.223-.064.478-.09.735-.032.313-.06.688.015 1.065-.026.036-.037.043-.075.09-.079.1-.217.244-.165.195-.234.218-.435.342-.615.39-.18.05-.37.036-.675-.075-.163-.058-.247-.163-.315-.36a1.524 1.524 0 01-.045-.705c.083-.453.14-1.033.165-1.335zm2.775 0h1.635c-.097.808-.32 1.31-.585 1.575-.356.357-.658.402-.99.315-.11-.03-.12-.056-.165-.255-.045-.198-.045-.51-.015-.795.032-.307.079-.605.12-.84z" fill="#000"/></g><defs><clipPath id="aaclip0_371_3474"><path fill="#fff" d="M0 0h24v24H0z"/></clipPath></defs></svg><svg fill="none" viewBox="0 0 24 24" id="close" xmlns="http://www.w3.org/2000/svg"><path d="M3.705 3.015l-.69.69L11.31 12l-8.295 8.295.69.69L12 12.69l8.295 8.295.69-.69L12.69 12l8.295-8.295-.69-.69L12 11.31 3.705 3.015z" fill="#000"/></svg><svg fill="none" viewBox="0 0 24 24" id="done" xmlns="http://www.w3.org/2000/svg"><path fill-rule="evenodd" clip-rule="evenodd" d="M22.594 3.5L8.062 18.188l-6.656-6.625L0 13l8.063 8L24 4.937 22.594 3.5z" fill="#26D797"/></svg><svg fill="none" viewBox="0 0 24 24" id="forward" xmlns="http://www.w3.org/2000/svg"><path d="M7.195 1.916a.48.48 0 00-.334.823L16.12 12l-9.26 9.261a.476.476 0 00-.131.467c.043.169.174.3.343.343a.476.476 0 00.467-.13l9.6-9.6a.48.48 0 000-.68l-9.6-9.6a.474.474 0 00-.345-.144z" fill="#000"/></svg><svg fill="none" viewBox="0 0 22 22" id="heart" xmlns="http://www.w3.org/2000/svg"><path d="M15.583 3.667C12.795 3.667 11 5.604 11 5.604S9.205 3.667 6.416 3.667c-3.037 0-5.5 2.365-5.5 5.283C.917 14.232 11 20.166 11 20.166s10.083-5.935 10.083-11.218c0-2.917-2.462-5.282-5.5-5.282z" fill="#EDEBEB"/></svg><svg fill="none" viewBox="0 0 22 22" id="heart-black" xmlns="http://www.w3.org/2000/svg"><path d="M6.6 3.08A5.727 5.727 0 00.88 8.8c0 6.495 7.346 9.7 9.845 11.784l.275.234.275-.234C13.774 18.5 21.12 15.295 21.12 8.8a5.727 5.727 0 00-5.72-5.72c-1.784 0-3.352.847-4.4 2.131-1.049-1.284-2.616-2.13-4.4-2.13zm0 .88c1.688 0 3.162.866 4.029 2.173l.37.55.372-.55A4.834 4.834 0 0120.24 8.8c0 5.675-6.339 8.613-9.24 10.904C8.099 17.413 1.76 14.475 1.76 8.8A4.834 4.834 0 016.6 3.96z" fill="#000"/></svg><svg fill="none" viewBox="0 0 24 24" id="hidden" xmlns="http://www.w3.org/2000/svg"><path d="M2.835 2.385a.562.562 0 00-.06.015.482.482 0 00-.24.825l18.24 18.24a.487.487 0 10.69-.69L17.4 16.71c3.156-1.702 5.383-4.235 5.52-4.395a.488.488 0 000-.63C22.712 11.443 17.764 5.76 12 5.76c-1.588 0-3.103.435-4.485 1.065l-4.29-4.29a.482.482 0 00-.39-.15zM12 6.72c.188 0 .37.017.555.03 2.65.281 4.725 2.528 4.725 5.25 0 1.28-.454 2.46-1.215 3.375L13.65 12.96c.167-.283.27-.607.27-.96 0-1.061-.859-1.92-1.92-1.92-.352 0-.677.103-.96.27L8.625 7.935A5.261 5.261 0 0112 6.72zM5.76 7.755c-2.713 1.665-4.554 3.784-4.68 3.93a.488.488 0 000 .63c.208.242 5.156 5.925 10.92 5.925.193 0 .38-.013.57-.03a10.696 10.696 0 003-.645l-.975-.975a5.222 5.222 0 01-2.595.69c-.187 0-.37-.017-.555-.03C8.795 16.97 6.72 14.723 6.72 12c0-.947.253-1.826.69-2.595l-1.65-1.65zm4.335 4.32a1.9 1.9 0 001.83 1.83l-1.83-1.83z" fill="#000"/></svg><svg fill="none" viewBox="0 0 24 24" id="logistics-delivery-packages" xmlns="http://www.w3.org/2000/svg"><path d="M14.4 7.2v-.96h8.64V2.88c0-.53-.43-.96-.96-.96H1.92c-.53 0-.96.43-.96.96v3.36H9.6v.96H1.92v13.92c0 .53.43.96.96.96h18.24c.53 0 .96-.43.96-.96V7.2H14.4zm-.96 2.88h-2.88v-7.2h2.88v7.2z" fill="#000"/></svg><svg fill="none" viewBox="0 0 108 55" id="logo-black" xmlns="http://www.w3.org/2000/svg"><g clip-path="url(#aiclip0_1040_36908)" fill="#010101"><path d="M85.942 4.384c1.81.51 3.421 1.302 4.833 2.366 1.411 1.07 2.552 2.427 3.421 4.071.87 1.65 1.304 3.607 1.304 5.883h3.386L99.802.69h-2.47L95.847 5.01c-2.92-1.766-5.62-3.037-8.116-3.83C85.246.395 82.592 0 79.769 0h-.021v3.637c.22-.005.435-.015.66-.015 1.882 0 3.728.258 5.539.767l-.005-.005zM87.952 31.884v2.644c2.496 0 4.29.474 5.4 1.427 1.105.954 1.657 2.775 1.657 5.464a7.76 7.76 0 01-.95 3.723c-.635 1.186-1.576 2.23-2.824 3.133-1.248.903-2.767 1.625-4.552 2.16-1.79.534-3.56.948-5.805.978-.71.01-1.662.056-2.332 0-8.285-.04-15.292-5.509-17.322-14.534-1.207-5.373-1.933-10.857-3.375-16.164a26.29 26.29 0 00-3.938-8.355 27.408 27.408 0 00-3.657-4.283c-2.634-2.507-5.744-4.48-9.319-5.918C37.36.721 33.5 0 29.362 0c-4.138 0-8 .721-11.574 2.16-3.575 1.437-6.68 3.41-9.319 5.917-2.634 2.507-4.705 5.454-6.208 8.844C.75 20.306 0 23.974 0 27.919v.065h9.175c.01-3.657.48-6.962 1.412-9.918.94-2.992 2.28-5.544 4.025-7.658a17.557 17.557 0 016.352-4.874C23.46 4.4 26.257 3.83 29.362 3.83c3.104 0 5.902.57 8.397 1.705a17.556 17.556 0 016.352 4.874c1.74 2.114 3.08 4.666 4.025 7.658.583 1.851.982 3.844 1.207 5.968v.07c.016.117.026.233.036.349.108 1.185.169 2.406.169 3.673 0 3.526-.47 6.72-1.412 9.57-.94 2.855-2.29 5.282-4.06 7.275a17.795 17.795 0 01-6.352 4.596c-2.47 1.07-5.258 1.599-8.362 1.599h-.026v3.829h.026c4.091 0 7.927-.706 11.502-2.124 3.575-1.418 6.68-3.34 9.318-5.776a27.024 27.024 0 004.971-6.17c.404.464.798.948.834 1.014 4.577 8.107 13.732 12.683 22.56 12.809h.158c2.542 0 4.879-.036 7.022-.59 2.143-.555 4.035-1.297 5.682-2.23a48.41 48.41 0 013.421-1.776 24.335 24.335 0 012.65-1.044 11.274 11.274 0 012.291-.49c.731-.07 1.539-.106 2.434-.106v-7.8c0-1.205.082-2.204.246-2.99.164-.788.47-1.429.915-1.913.445-.49 1.049-.822 1.801-1.009.751-.187 1.693-.277 2.823-.277v-2.644H87.947l.005.005z"/></g><defs><clipPath id="aiclip0_1040_36908"><path fill="#fff" d="M0 0h108v55H0z"/></clipPath></defs></svg><svg fill="none" viewBox="0 0 108 55" id="logo-white" xmlns="http://www.w3.org/2000/svg"><g clip-path="url(#ajclip0_1040_36905)" fill="#fff"><path d="M85.942 4.384c1.81.51 3.421 1.302 4.833 2.366 1.411 1.07 2.552 2.427 3.421 4.071.87 1.65 1.304 3.607 1.304 5.883h3.386L99.802.69h-2.47L95.847 5.01c-2.92-1.766-5.62-3.037-8.116-3.83C85.246.395 82.592 0 79.769 0h-.021v3.637c.22-.005.435-.015.66-.015 1.882 0 3.728.258 5.539.767l-.005-.005zM87.952 31.884v2.644c2.496 0 4.29.474 5.4 1.427 1.105.954 1.657 2.775 1.657 5.464a7.76 7.76 0 01-.95 3.723c-.635 1.186-1.576 2.23-2.824 3.133-1.248.903-2.767 1.625-4.552 2.16-1.79.534-3.56.948-5.805.978-.71.01-1.662.056-2.332 0-8.285-.04-15.292-5.509-17.322-14.534-1.207-5.373-1.933-10.857-3.375-16.164a26.29 26.29 0 00-3.938-8.355 27.408 27.408 0 00-3.657-4.283c-2.634-2.507-5.744-4.48-9.319-5.918C37.36.721 33.5 0 29.362 0c-4.138 0-8 .721-11.574 2.16-3.575 1.437-6.68 3.41-9.319 5.917-2.634 2.507-4.705 5.454-6.208 8.844C.75 20.306 0 23.974 0 27.919v.065h9.175c.01-3.657.48-6.962 1.412-9.918.94-2.992 2.28-5.544 4.025-7.658a17.557 17.557 0 016.352-4.874C23.46 4.4 26.257 3.83 29.362 3.83c3.104 0 5.902.57 8.397 1.705a17.556 17.556 0 016.352 4.874c1.74 2.114 3.08 4.666 4.025 7.658.583 1.851.982 3.844 1.207 5.968v.07c.016.117.026.233.036.349.108 1.185.169 2.406.169 3.673 0 3.526-.47 6.72-1.412 9.57-.94 2.855-2.29 5.282-4.06 7.275a17.795 17.795 0 01-6.352 4.596c-2.47 1.07-5.258 1.599-8.362 1.599h-.026v3.829h.026c4.091 0 7.927-.706 11.502-2.124 3.575-1.418 6.68-3.34 9.318-5.776a27.024 27.024 0 004.971-6.17c.404.464.798.948.834 1.014 4.577 8.107 13.732 12.683 22.56 12.809h.158c2.542 0 4.879-.036 7.022-.59 2.143-.555 4.035-1.297 5.682-2.23a48.41 48.41 0 013.421-1.776 24.335 24.335 0 012.65-1.044 11.274 11.274 0 012.291-.49c.731-.07 1.539-.106 2.434-.106v-7.8c0-1.205.082-2.204.246-2.99.164-.788.47-1.429.915-1.913.445-.49 1.049-.822 1.801-1.009.751-.187 1.693-.277 2.823-.277v-2.644H87.947l.005.005z"/></g><defs><clipPath id="ajclip0_1040_36905"><path fill="#fff" d="M0 0h108v55H0z"/></clipPath></defs></svg><svg fill="none" viewBox="0 0 222 24" id="logo-youngsters-black" xmlns="http://www.w3.org/2000/svg"><path d="M21.735 1.125c.047 0 .07.07.07.21 0 .14-.023.21-.07.21-.77 0-1.645.408-2.625 1.225-.98.793-1.855 1.82-2.625 3.08l-3.99 6.475v7.84c0 .723.058 1.248.175 1.575.14.327.385.548.735.665.373.117.957.175 1.75.175.07 0 .105.07.105.21 0 .14-.035.21-.105.21-.77 0-1.365-.012-1.785-.035l-2.555-.035-2.52.035C7.828 22.988 7.21 23 6.44 23c-.047 0-.07-.07-.07-.21 0-.14.023-.21.07-.21.793 0 1.365-.058 1.715-.175.373-.117.63-.338.77-.665.14-.35.21-.875.21-1.575v-7.21l-5.32-8.12C3.022 3.598 2.333 2.747 1.75 2.28 1.19 1.79.642 1.545.105 1.545c-.07 0-.105-.07-.105-.21 0-.14.035-.21.105-.21l1.155.035c.513.047.887.07 1.12.07.793 0 1.913-.023 3.36-.07l2.17-.035c.047 0 .07.07.07.21 0 .14-.023.21-.07.21-.957 0-1.435.327-1.435.98 0 .327.14.7.42 1.12l5.075 7.805 3.57-5.845c.583-.957.875-1.797.875-2.52 0-1.027-.642-1.54-1.925-1.54-.047 0-.07-.07-.07-.21 0-.14.023-.21.07-.21l1.82.035c.98.047 1.878.07 2.695.07.397 0 .875-.023 1.435-.07l1.295-.035zM33.352 23.42c-2.17 0-4.107-.502-5.81-1.505a10.752 10.752 0 01-3.92-4.13c-.91-1.75-1.365-3.652-1.365-5.705 0-2.403.607-4.457 1.82-6.16 1.213-1.727 2.765-3.022 4.655-3.885C30.645 1.172 32.594.74 34.577.74c2.217 0 4.165.525 5.845 1.575 1.68 1.027 2.963 2.392 3.85 4.095a11.347 11.347 0 011.365 5.425c0 2.123-.56 4.072-1.68 5.845-1.12 1.773-2.625 3.173-4.515 4.2-1.867 1.027-3.897 1.54-6.09 1.54zm1.19-.84c1.4 0 2.648-.373 3.745-1.12 1.12-.77 1.995-1.89 2.625-3.36.653-1.47.98-3.22.98-5.25 0-2.147-.362-4.072-1.085-5.775-.7-1.703-1.715-3.033-3.045-3.99-1.307-.957-2.847-1.435-4.62-1.435-2.263 0-4.025.817-5.285 2.45-1.237 1.61-1.855 3.85-1.855 6.72 0 2.217.362 4.223 1.085 6.02.747 1.797 1.762 3.208 3.045 4.235 1.307 1.003 2.777 1.505 4.41 1.505zM67.324 5.395c0-1.213-.28-2.158-.84-2.835-.537-.677-1.319-1.015-2.345-1.015-.047 0-.07-.07-.07-.21 0-.14.023-.21.07-.21l1.61.035c.886.047 1.587.07 2.1.07.42 0 1.05-.023 1.89-.07l1.54-.035c.047 0 .07.07.07.21 0 .14-.023.21-.07.21-.91 0-1.622.338-2.135 1.015-.49.677-.735 1.622-.735 2.835v9.8c0 1.68-.362 3.15-1.085 4.41-.7 1.237-1.703 2.193-3.01 2.87-1.283.677-2.777 1.015-4.48 1.015-1.704 0-3.22-.327-4.55-.98-1.33-.677-2.368-1.633-3.115-2.87-.723-1.26-1.085-2.73-1.085-4.41V3.96c0-.7-.07-1.213-.21-1.54-.14-.327-.397-.548-.77-.665-.35-.14-.91-.21-1.68-.21-.07 0-.105-.07-.105-.21 0-.14.035-.21.105-.21l1.82.035c1.026.047 1.855.07 2.485.07.7 0 1.563-.023 2.59-.07l1.75-.035c.07 0 .105.07.105.21 0 .14-.035.21-.105.21-.77 0-1.342.07-1.715.21-.35.14-.595.385-.735.735-.14.327-.21.84-.21 1.54v9.975c0 2.777.572 4.853 1.715 6.23 1.166 1.353 2.788 2.03 4.865 2.03 1.983 0 3.535-.607 4.655-1.82 1.12-1.237 1.68-2.975 1.68-5.215V5.395zm29.65-4.27c.048 0 .07.07.07.21 0 .14-.022.21-.07.21-.932 0-1.656.338-2.17 1.015-.512.653-.77 1.598-.77 2.835V23.49c0 .07-.057.117-.174.14-.117.023-.198.012-.245-.035L77.2 4.52v14.245c0 1.237.245 2.182.735 2.835s1.201.98 2.135.98c.047 0 .07.07.07.21 0 .14-.023.21-.07.21-.63 0-1.108-.012-1.435-.035l-1.855-.035-2.065.035c-.374.023-.91.035-1.61.035-.07 0-.105-.07-.105-.21 0-.14.035-.21.105-.21 1.003 0 1.773-.327 2.31-.98.56-.653.84-1.598.84-2.835V3.435c-.653-.7-1.248-1.19-1.785-1.47a3.317 3.317 0 00-1.61-.42c-.047 0-.07-.07-.07-.21 0-.14.023-.21.07-.21l1.4.035c.303.023.735.035 1.295.035l2.24-.035c.28-.023.618-.035 1.015-.035.186 0 .326.047.42.14.093.093.233.28.42.56.396.537.688.91.875 1.12l12.565 14.84V5.395c0-1.237-.245-2.182-.735-2.835-.49-.677-1.19-1.015-2.1-1.015-.047 0-.07-.07-.07-.21 0-.14.023-.21.07-.21l1.435.035c.747.047 1.365.07 1.855.07.467 0 1.097-.023 1.89-.07l1.54-.035zm14.821 22.295c-2.567 0-4.807-.49-6.72-1.47-1.89-.98-3.337-2.31-4.34-3.99-1.004-1.703-1.505-3.593-1.505-5.67 0-2.24.571-4.235 1.715-5.985 1.166-1.773 2.753-3.138 4.76-4.095 2.03-.98 4.305-1.47 6.825-1.47 1.096 0 2.193.093 3.29.28 1.096.187 1.983.443 2.66.77.186.093.303.187.35.28.07.093.116.268.14.525l.42 4.55c0 .07-.059.117-.175.14-.117.023-.199-.012-.245-.105-.7-1.75-1.75-3.115-3.15-4.095-1.4-.98-3.045-1.47-4.935-1.47-2.567 0-4.539.84-5.915 2.52-1.377 1.657-2.065 3.943-2.065 6.86 0 2.287.42 4.328 1.26 6.125.84 1.797 1.995 3.197 3.465 4.2 1.493 1.003 3.161 1.505 5.005 1.505 1.026 0 1.82-.105 2.38-.315.56-.21.968-.618 1.225-1.225.28-.607.42-1.505.42-2.695 0-1.213-.07-2.053-.21-2.52-.14-.49-.455-.817-.945-.98-.467-.163-1.295-.245-2.485-.245-.14 0-.21-.093-.21-.28a.38.38 0 01.035-.175c.046-.07.093-.105.14-.105 1.936.117 3.488.175 4.655.175 1.166 0 2.38-.035 3.64-.105.046 0 .081.035.105.105.046.047.07.093.07.14 0 .163-.059.245-.175.245-.467-.023-.794.058-.98.245-.187.163-.315.513-.385 1.05-.047.537-.07 1.47-.07 2.8 0 1.05.035 1.797.105 2.24.093.443.14.723.14.84 0 .14-.035.233-.105.28-.047.023-.152.07-.315.14-2.94.653-5.565.98-7.875.98zm16.548-18.585c0 .863.21 1.633.63 2.31a7.48 7.48 0 001.61 1.715c.653.49 1.528 1.073 2.625 1.75 1.19.747 2.123 1.388 2.8 1.925a6.88 6.88 0 011.75 1.995c.49.77.735 1.68.735 2.73 0 1.19-.315 2.252-.945 3.185-.607.933-1.482 1.668-2.625 2.205-1.12.513-2.404.77-3.85.77-.98 0-1.995-.128-3.045-.385-1.027-.257-1.809-.572-2.345-.945-.21-.14-.327-.362-.35-.665l-.21-5.32v-.035c0-.093.058-.14.175-.14.116-.023.186.012.21.105.77 1.937 1.645 3.523 2.625 4.76 1.003 1.237 2.275 1.855 3.815 1.855 1.003 0 1.843-.268 2.52-.805.676-.56 1.015-1.482 1.015-2.765 0-1.027-.234-1.925-.7-2.695a6.397 6.397 0 00-1.68-1.925c-.654-.513-1.552-1.143-2.695-1.89-1.12-.723-1.995-1.33-2.625-1.82a7.262 7.262 0 01-1.61-1.855c-.444-.747-.665-1.61-.665-2.59 0-1.213.338-2.24 1.015-3.08.676-.84 1.551-1.458 2.625-1.855a9.507 9.507 0 013.43-.63c.793 0 1.586.082 2.38.245.793.14 1.458.327 1.995.56.21.07.35.163.42.28.07.093.105.222.105.385l.105 4.76c0 .07-.07.128-.21.175-.117.023-.187-.012-.21-.105a14.811 14.811 0 00-1.89-3.85c-.77-1.167-1.937-1.75-3.5-1.75-1.05 0-1.89.303-2.52.91-.607.607-.91 1.435-.91 2.485zm19.384-2.975c-1.424 0-2.602.443-3.535 1.33-.91.863-1.61 2.182-2.1 3.955 0 .047-.07.07-.21.07-.117 0-.175-.035-.175-.105.093-.91.198-2.077.315-3.5.116-1.447.175-2.532.175-3.255 0-.117.058-.175.175-.175.14 0 .21.058.21.175 0 .513.653.77 1.96.77 2.006.07 4.351.105 7.035.105 1.376 0 2.835-.023 4.375-.07l2.38-.035c.886 0 1.528-.058 1.925-.175.42-.117.688-.35.805-.7.023-.093.093-.14.21-.14.116 0 .175.047.175.14-.07.723-.14 1.82-.21 3.29-.07 1.47-.105 2.66-.105 3.57 0 .07-.07.105-.21.105-.117 0-.187-.035-.21-.105-.234-1.797-.782-3.115-1.645-3.955-.864-.863-2.03-1.295-3.5-1.295-.654 0-1.144.058-1.47.175a1.048 1.048 0 00-.63.63c-.094.28-.14.735-.14 1.365v16.135c0 .723.07 1.248.21 1.575.14.327.42.548.84.665.42.117 1.085.175 1.995.175.07 0 .105.07.105.21 0 .14-.035.21-.105.21-.817 0-1.459-.012-1.925-.035l-2.87-.035-2.73.035c-.49.023-1.167.035-2.03.035-.047 0-.07-.07-.07-.21 0-.14.023-.21.07-.21.91 0 1.575-.058 1.995-.175.443-.117.735-.338.875-.665.163-.35.245-.875.245-1.575V3.96c0-.607-.059-1.05-.175-1.33a1.061 1.061 0 00-.63-.595c-.304-.117-.77-.175-1.4-.175zm32.117 15.68c0-.047.047-.07.14-.07.07 0 .129.023.175.07.07.023.105.047.105.07-.233 1.773-.35 3.395-.35 4.865 0 .187-.035.327-.105.42-.07.07-.21.105-.42.105h-15.19c-.07 0-.105-.07-.105-.21 0-.14.035-.21.105-.21.794 0 1.365-.058 1.715-.175.374-.117.619-.338.735-.665.14-.35.21-.875.21-1.575V3.96c0-.7-.07-1.213-.21-1.54-.116-.327-.361-.548-.735-.665-.373-.14-.945-.21-1.715-.21-.07 0-.105-.07-.105-.21 0-.14.035-.21.105-.21h14.56c.234 0 .35.105.35.315l.07 4.55c0 .047-.07.082-.21.105-.116.023-.186 0-.21-.07-.56-2.66-2.181-3.99-4.865-3.99h-1.4c-.84 0-1.435.152-1.785.455-.35.303-.525.817-.525 1.54v7.14h3.36c2.567 0 3.85-.863 3.85-2.59 0-.07.059-.105.175-.105.14 0 .21.035.21.105l-.035 3.045.035 1.645c.047.747.07 1.353.07 1.82 0 .047-.07.07-.21.07-.14 0-.21-.023-.21-.07 0-2.007-1.306-3.01-3.92-3.01h-3.325v7.945c0 .77.14 1.307.42 1.61.304.303.829.455 1.575.455h1.715c3.127 0 5.11-1.517 5.95-4.55zm26.491 5.04c.07 0 .105.07.105.21 0 .14-.035.21-.105.21H200.7c-.537 0-1.54-.968-3.01-2.905-1.447-1.96-3.22-4.69-5.32-8.19a6.25 6.25 0 01-1.155.105c-.863 0-1.47-.012-1.82-.035v8.19c0 .723.058 1.248.175 1.575.14.327.385.548.735.665.373.117.957.175 1.75.175.047 0 .07.07.07.21 0 .14-.023.21-.07.21-.77 0-1.365-.012-1.785-.035l-2.59-.035-2.52.035c-.443.023-1.05.035-1.82.035-.07 0-.105-.07-.105-.21 0-.14.035-.21.105-.21.793 0 1.365-.058 1.715-.175.373-.117.63-.338.77-.665.14-.35.21-.875.21-1.575V3.96c0-.7-.07-1.213-.21-1.54-.117-.327-.362-.548-.735-.665-.373-.14-.945-.21-1.715-.21-.047 0-.07-.07-.07-.21 0-.14.023-.21.07-.21l1.82.035c1.027.047 1.855.07 2.485.07.7 0 1.435-.035 2.205-.105.28-.023.618-.047 1.015-.07.397-.023.828-.035 1.295-.035 2.077 0 3.675.385 4.795 1.155s1.68 1.855 1.68 3.255c0 1.097-.327 2.135-.98 3.115a7.576 7.576 0 01-2.555 2.38c1.913 2.94 3.512 5.25 4.795 6.93 1.307 1.657 2.462 2.858 3.465 3.605 1.003.747 1.983 1.12 2.94 1.12zm-16.94-11.585c.56.093 1.237.14 2.03.14 1.4 0 2.38-.315 2.94-.945.56-.63.84-1.785.84-3.465 0-1.89-.315-3.197-.945-3.92-.63-.747-1.517-1.12-2.66-1.12-.84 0-1.423.163-1.75.49-.303.327-.455.945-.455 1.855v6.965zm21.765-6.16c0 .863.21 1.633.63 2.31a7.48 7.48 0 001.61 1.715c.653.49 1.528 1.073 2.625 1.75 1.19.747 2.123 1.388 2.8 1.925a6.88 6.88 0 011.75 1.995c.49.77.735 1.68.735 2.73 0 1.19-.315 2.252-.945 3.185-.607.933-1.482 1.668-2.625 2.205-1.12.513-2.403.77-3.85.77-.98 0-1.995-.128-3.045-.385-1.027-.257-1.808-.572-2.345-.945-.21-.14-.327-.362-.35-.665l-.21-5.32v-.035c0-.093.058-.14.175-.14.117-.023.187.012.21.105.77 1.937 1.645 3.523 2.625 4.76 1.003 1.237 2.275 1.855 3.815 1.855 1.003 0 1.843-.268 2.52-.805.677-.56 1.015-1.482 1.015-2.765 0-1.027-.233-1.925-.7-2.695a6.37 6.37 0 00-1.68-1.925c-.653-.513-1.552-1.143-2.695-1.89-1.12-.723-1.995-1.33-2.625-1.82a7.262 7.262 0 01-1.61-1.855c-.443-.747-.665-1.61-.665-2.59 0-1.213.338-2.24 1.015-3.08.677-.84 1.552-1.458 2.625-1.855a9.51 9.51 0 013.43-.63c.793 0 1.587.082 2.38.245.793.14 1.458.327 1.995.56.21.07.35.163.42.28.07.093.105.222.105.385l.105 4.76c0 .07-.07.128-.21.175-.117.023-.187-.012-.21-.105a14.811 14.811 0 00-1.89-3.85c-.77-1.167-1.937-1.75-3.5-1.75-1.05 0-1.89.303-2.52.91-.607.607-.91 1.435-.91 2.485z" fill="#141318"/></svg><svg viewBox="0 0 222 24" id="logo-youngsters-white" xmlns="http://www.w3.org/2000/svg"><path d="M21.735 1.125c.047 0 .07.07.07.21 0 .14-.023.21-.07.21-.77 0-1.645.408-2.625 1.225-.98.793-1.855 1.82-2.625 3.08l-3.99 6.475v7.84c0 .723.058 1.248.175 1.575.14.327.385.548.735.665.373.117.957.175 1.75.175.07 0 .105.07.105.21 0 .14-.035.21-.105.21-.77 0-1.365-.012-1.785-.035l-2.555-.035-2.52.035C7.828 22.988 7.21 23 6.44 23c-.047 0-.07-.07-.07-.21 0-.14.023-.21.07-.21.793 0 1.365-.058 1.715-.175.373-.117.63-.338.77-.665.14-.35.21-.875.21-1.575v-7.21l-5.32-8.12C3.022 3.598 2.333 2.747 1.75 2.28 1.19 1.79.642 1.545.105 1.545c-.07 0-.105-.07-.105-.21 0-.14.035-.21.105-.21l1.155.035c.513.047.887.07 1.12.07.793 0 1.913-.023 3.36-.07l2.17-.035c.047 0 .07.07.07.21 0 .14-.023.21-.07.21-.957 0-1.435.327-1.435.98 0 .327.14.7.42 1.12l5.075 7.805 3.57-5.845c.583-.957.875-1.797.875-2.52 0-1.027-.642-1.54-1.925-1.54-.047 0-.07-.07-.07-.21 0-.14.023-.21.07-.21l1.82.035c.98.047 1.878.07 2.695.07.397 0 .875-.023 1.435-.07l1.295-.035zM33.352 23.42c-2.17 0-4.107-.502-5.81-1.505a10.752 10.752 0 01-3.92-4.13c-.91-1.75-1.365-3.652-1.365-5.705 0-2.403.607-4.457 1.82-6.16 1.213-1.727 2.765-3.022 4.655-3.885C30.645 1.172 32.594.74 34.577.74c2.217 0 4.165.525 5.845 1.575 1.68 1.027 2.963 2.392 3.85 4.095a11.347 11.347 0 011.365 5.425c0 2.123-.56 4.072-1.68 5.845-1.12 1.773-2.625 3.173-4.515 4.2-1.867 1.027-3.897 1.54-6.09 1.54zm1.19-.84c1.4 0 2.648-.373 3.745-1.12 1.12-.77 1.995-1.89 2.625-3.36.653-1.47.98-3.22.98-5.25 0-2.147-.362-4.072-1.085-5.775-.7-1.703-1.715-3.033-3.045-3.99-1.307-.957-2.847-1.435-4.62-1.435-2.263 0-4.025.817-5.285 2.45-1.237 1.61-1.855 3.85-1.855 6.72 0 2.217.362 4.223 1.085 6.02.747 1.797 1.762 3.208 3.045 4.235 1.307 1.003 2.777 1.505 4.41 1.505zM67.324 5.395c0-1.213-.28-2.158-.84-2.835-.537-.677-1.319-1.015-2.345-1.015-.047 0-.07-.07-.07-.21 0-.14.023-.21.07-.21l1.61.035c.886.047 1.587.07 2.1.07.42 0 1.05-.023 1.89-.07l1.54-.035c.047 0 .07.07.07.21 0 .14-.023.21-.07.21-.91 0-1.622.338-2.135 1.015-.49.677-.735 1.622-.735 2.835v9.8c0 1.68-.362 3.15-1.085 4.41-.7 1.237-1.703 2.193-3.01 2.87-1.283.677-2.777 1.015-4.48 1.015-1.704 0-3.22-.327-4.55-.98-1.33-.677-2.368-1.633-3.115-2.87-.723-1.26-1.085-2.73-1.085-4.41V3.96c0-.7-.07-1.213-.21-1.54-.14-.327-.397-.548-.77-.665-.35-.14-.91-.21-1.68-.21-.07 0-.105-.07-.105-.21 0-.14.035-.21.105-.21l1.82.035c1.026.047 1.855.07 2.485.07.7 0 1.563-.023 2.59-.07l1.75-.035c.07 0 .105.07.105.21 0 .14-.035.21-.105.21-.77 0-1.342.07-1.715.21-.35.14-.595.385-.735.735-.14.327-.21.84-.21 1.54v9.975c0 2.777.572 4.853 1.715 6.23 1.166 1.353 2.788 2.03 4.865 2.03 1.983 0 3.535-.607 4.655-1.82 1.12-1.237 1.68-2.975 1.68-5.215V5.395zm29.65-4.27c.048 0 .07.07.07.21 0 .14-.022.21-.07.21-.932 0-1.656.338-2.17 1.015-.512.653-.77 1.598-.77 2.835V23.49c0 .07-.057.117-.174.14-.117.023-.198.012-.245-.035L77.2 4.52v14.245c0 1.237.245 2.182.735 2.835s1.201.98 2.135.98c.047 0 .07.07.07.21 0 .14-.023.21-.07.21-.63 0-1.108-.012-1.435-.035l-1.855-.035-2.065.035c-.374.023-.91.035-1.61.035-.07 0-.105-.07-.105-.21 0-.14.035-.21.105-.21 1.003 0 1.773-.327 2.31-.98.56-.653.84-1.598.84-2.835V3.435c-.653-.7-1.248-1.19-1.785-1.47a3.317 3.317 0 00-1.61-.42c-.047 0-.07-.07-.07-.21 0-.14.023-.21.07-.21l1.4.035c.303.023.735.035 1.295.035l2.24-.035c.28-.023.618-.035 1.015-.035.186 0 .326.047.42.14.093.093.233.28.42.56.396.537.688.91.875 1.12l12.565 14.84V5.395c0-1.237-.245-2.182-.735-2.835-.49-.677-1.19-1.015-2.1-1.015-.047 0-.07-.07-.07-.21 0-.14.023-.21.07-.21l1.435.035c.747.047 1.365.07 1.855.07.467 0 1.097-.023 1.89-.07l1.54-.035zm14.821 22.295c-2.567 0-4.807-.49-6.72-1.47-1.89-.98-3.337-2.31-4.34-3.99-1.004-1.703-1.505-3.593-1.505-5.67 0-2.24.571-4.235 1.715-5.985 1.166-1.773 2.753-3.138 4.76-4.095 2.03-.98 4.305-1.47 6.825-1.47 1.096 0 2.193.093 3.29.28 1.096.187 1.983.443 2.66.77.186.093.303.187.35.28.07.093.116.268.14.525l.42 4.55c0 .07-.059.117-.175.14-.117.023-.199-.012-.245-.105-.7-1.75-1.75-3.115-3.15-4.095-1.4-.98-3.045-1.47-4.935-1.47-2.567 0-4.539.84-5.915 2.52-1.377 1.657-2.065 3.943-2.065 6.86 0 2.287.42 4.328 1.26 6.125.84 1.797 1.995 3.197 3.465 4.2 1.493 1.003 3.161 1.505 5.005 1.505 1.026 0 1.82-.105 2.38-.315.56-.21.968-.618 1.225-1.225.28-.607.42-1.505.42-2.695 0-1.213-.07-2.053-.21-2.52-.14-.49-.455-.817-.945-.98-.467-.163-1.295-.245-2.485-.245-.14 0-.21-.093-.21-.28a.38.38 0 01.035-.175c.046-.07.093-.105.14-.105 1.936.117 3.488.175 4.655.175 1.166 0 2.38-.035 3.64-.105.046 0 .081.035.105.105.046.047.07.093.07.14 0 .163-.059.245-.175.245-.467-.023-.794.058-.98.245-.187.163-.315.513-.385 1.05-.047.537-.07 1.47-.07 2.8 0 1.05.035 1.797.105 2.24.093.443.14.723.14.84 0 .14-.035.233-.105.28-.047.023-.152.07-.315.14-2.94.653-5.565.98-7.875.98zm16.548-18.585c0 .863.21 1.633.63 2.31a7.48 7.48 0 001.61 1.715c.653.49 1.528 1.073 2.625 1.75 1.19.747 2.123 1.388 2.8 1.925a6.88 6.88 0 011.75 1.995c.49.77.735 1.68.735 2.73 0 1.19-.315 2.252-.945 3.185-.607.933-1.482 1.668-2.625 2.205-1.12.513-2.404.77-3.85.77-.98 0-1.995-.128-3.045-.385-1.027-.257-1.809-.572-2.345-.945-.21-.14-.327-.362-.35-.665l-.21-5.32v-.035c0-.093.058-.14.175-.14.116-.023.186.012.21.105.77 1.937 1.645 3.523 2.625 4.76 1.003 1.237 2.275 1.855 3.815 1.855 1.003 0 1.843-.268 2.52-.805.676-.56 1.015-1.482 1.015-2.765 0-1.027-.234-1.925-.7-2.695a6.397 6.397 0 00-1.68-1.925c-.654-.513-1.552-1.143-2.695-1.89-1.12-.723-1.995-1.33-2.625-1.82a7.262 7.262 0 01-1.61-1.855c-.444-.747-.665-1.61-.665-2.59 0-1.213.338-2.24 1.015-3.08.676-.84 1.551-1.458 2.625-1.855a9.507 9.507 0 013.43-.63c.793 0 1.586.082 2.38.245.793.14 1.458.327 1.995.56.21.07.35.163.42.28.07.093.105.222.105.385l.105 4.76c0 .07-.07.128-.21.175-.117.023-.187-.012-.21-.105a14.811 14.811 0 00-1.89-3.85c-.77-1.167-1.937-1.75-3.5-1.75-1.05 0-1.89.303-2.52.91-.607.607-.91 1.435-.91 2.485zm19.384-2.975c-1.424 0-2.602.443-3.535 1.33-.91.863-1.61 2.182-2.1 3.955 0 .047-.07.07-.21.07-.117 0-.175-.035-.175-.105.093-.91.198-2.077.315-3.5.116-1.447.175-2.532.175-3.255 0-.117.058-.175.175-.175.14 0 .21.058.21.175 0 .513.653.77 1.96.77 2.006.07 4.351.105 7.035.105 1.376 0 2.835-.023 4.375-.07l2.38-.035c.886 0 1.528-.058 1.925-.175.42-.117.688-.35.805-.7.023-.093.093-.14.21-.14.116 0 .175.047.175.14-.07.723-.14 1.82-.21 3.29-.07 1.47-.105 2.66-.105 3.57 0 .07-.07.105-.21.105-.117 0-.187-.035-.21-.105-.234-1.797-.782-3.115-1.645-3.955-.864-.863-2.03-1.295-3.5-1.295-.654 0-1.144.058-1.47.175a1.048 1.048 0 00-.63.63c-.094.28-.14.735-.14 1.365v16.135c0 .723.07 1.248.21 1.575.14.327.42.548.84.665.42.117 1.085.175 1.995.175.07 0 .105.07.105.21 0 .14-.035.21-.105.21-.817 0-1.459-.012-1.925-.035l-2.87-.035-2.73.035c-.49.023-1.167.035-2.03.035-.047 0-.07-.07-.07-.21 0-.14.023-.21.07-.21.91 0 1.575-.058 1.995-.175.443-.117.735-.338.875-.665.163-.35.245-.875.245-1.575V3.96c0-.607-.059-1.05-.175-1.33a1.061 1.061 0 00-.63-.595c-.304-.117-.77-.175-1.4-.175zm32.117 15.68c0-.047.047-.07.14-.07.07 0 .129.023.175.07.07.023.105.047.105.07-.233 1.773-.35 3.395-.35 4.865 0 .187-.035.327-.105.42-.07.07-.21.105-.42.105h-15.19c-.07 0-.105-.07-.105-.21 0-.14.035-.21.105-.21.794 0 1.365-.058 1.715-.175.374-.117.619-.338.735-.665.14-.35.21-.875.21-1.575V3.96c0-.7-.07-1.213-.21-1.54-.116-.327-.361-.548-.735-.665-.373-.14-.945-.21-1.715-.21-.07 0-.105-.07-.105-.21 0-.14.035-.21.105-.21h14.56c.234 0 .35.105.35.315l.07 4.55c0 .047-.07.082-.21.105-.116.023-.186 0-.21-.07-.56-2.66-2.181-3.99-4.865-3.99h-1.4c-.84 0-1.435.152-1.785.455-.35.303-.525.817-.525 1.54v7.14h3.36c2.567 0 3.85-.863 3.85-2.59 0-.07.059-.105.175-.105.14 0 .21.035.21.105l-.035 3.045.035 1.645c.047.747.07 1.353.07 1.82 0 .047-.07.07-.21.07-.14 0-.21-.023-.21-.07 0-2.007-1.306-3.01-3.92-3.01h-3.325v7.945c0 .77.14 1.307.42 1.61.304.303.829.455 1.575.455h1.715c3.127 0 5.11-1.517 5.95-4.55zm26.491 5.04c.07 0 .105.07.105.21 0 .14-.035.21-.105.21H200.7c-.537 0-1.54-.968-3.01-2.905-1.447-1.96-3.22-4.69-5.32-8.19a6.25 6.25 0 01-1.155.105c-.863 0-1.47-.012-1.82-.035v8.19c0 .723.058 1.248.175 1.575.14.327.385.548.735.665.373.117.957.175 1.75.175.047 0 .07.07.07.21 0 .14-.023.21-.07.21-.77 0-1.365-.012-1.785-.035l-2.59-.035-2.52.035c-.443.023-1.05.035-1.82.035-.07 0-.105-.07-.105-.21 0-.14.035-.21.105-.21.793 0 1.365-.058 1.715-.175.373-.117.63-.338.77-.665.14-.35.21-.875.21-1.575V3.96c0-.7-.07-1.213-.21-1.54-.117-.327-.362-.548-.735-.665-.373-.14-.945-.21-1.715-.21-.047 0-.07-.07-.07-.21 0-.14.023-.21.07-.21l1.82.035c1.027.047 1.855.07 2.485.07.7 0 1.435-.035 2.205-.105.28-.023.618-.047 1.015-.07.397-.023.828-.035 1.295-.035 2.077 0 3.675.385 4.795 1.155s1.68 1.855 1.68 3.255c0 1.097-.327 2.135-.98 3.115a7.576 7.576 0 01-2.555 2.38c1.913 2.94 3.512 5.25 4.795 6.93 1.307 1.657 2.462 2.858 3.465 3.605 1.003.747 1.983 1.12 2.94 1.12zm-16.94-11.585c.56.093 1.237.14 2.03.14 1.4 0 2.38-.315 2.94-.945.56-.63.84-1.785.84-3.465 0-1.89-.315-3.197-.945-3.92-.63-.747-1.517-1.12-2.66-1.12-.84 0-1.423.163-1.75.49-.303.327-.455.945-.455 1.855v6.965zm21.765-6.16c0 .863.21 1.633.63 2.31a7.48 7.48 0 001.61 1.715c.653.49 1.528 1.073 2.625 1.75 1.19.747 2.123 1.388 2.8 1.925a6.88 6.88 0 011.75 1.995c.49.77.735 1.68.735 2.73 0 1.19-.315 2.252-.945 3.185-.607.933-1.482 1.668-2.625 2.205-1.12.513-2.403.77-3.85.77-.98 0-1.995-.128-3.045-.385-1.027-.257-1.808-.572-2.345-.945-.21-.14-.327-.362-.35-.665l-.21-5.32v-.035c0-.093.058-.14.175-.14.117-.023.187.012.21.105.77 1.937 1.645 3.523 2.625 4.76 1.003 1.237 2.275 1.855 3.815 1.855 1.003 0 1.843-.268 2.52-.805.677-.56 1.015-1.482 1.015-2.765 0-1.027-.233-1.925-.7-2.695a6.37 6.37 0 00-1.68-1.925c-.653-.513-1.552-1.143-2.695-1.89-1.12-.723-1.995-1.33-2.625-1.82a7.262 7.262 0 01-1.61-1.855c-.443-.747-.665-1.61-.665-2.59 0-1.213.338-2.24 1.015-3.08.677-.84 1.552-1.458 2.625-1.855a9.51 9.51 0 013.43-.63c.793 0 1.587.082 2.38.245.793.14 1.458.327 1.995.56.21.07.35.163.42.28.07.093.105.222.105.385l.105 4.76c0 .07-.07.128-.21.175-.117.023-.187-.012-.21-.105a14.811 14.811 0 00-1.89-3.85c-.77-1.167-1.937-1.75-3.5-1.75-1.05 0-1.89.303-2.52.91-.607.607-.91 1.435-.91 2.485z"/></svg><svg fill="none" viewBox="0 0 22 22" id="male-user" xmlns="http://www.w3.org/2000/svg"><g clip-path="url(#amclip0_2246_30)"><path d="M11 .917C4.93.917 0 5.642 0 11.459c0 5.547 4.487 10.1 10.168 10.508l.033.003c.264.018.53.03.799.03s.534-.012.799-.03l.033-.003C17.513 21.558 22 17.007 22 11.46 22 5.642 17.07.917 11 .917zm0 .917c5.552 0 10.044 4.303 10.044 9.625 0 2.627-1.098 5.003-2.875 6.739-.76-.53-1.699-.847-2.54-1.13-.997-.335-1.94-.652-2.201-1.203-.041-.471-.038-.838-.034-1.26l.001-.18c.425-.387.959-1.204 1.142-1.96.315-.16.701-.547.817-1.474.058-.46-.079-.815-.27-1.054.258-.85.772-3.003-.128-4.392-.38-.587-.955-.957-1.71-1.104-.425-.503-1.225-.778-2.296-.778-1.626.03-2.818.507-3.542 1.42-.852 1.076-1.013 2.704-.48 4.839-.197.238-.34.6-.28 1.069.115.926.5 1.313.815 1.474.183.756.717 1.573 1.142 1.96v.175c.005.424.008.792-.033 1.265-.262.553-1.21.873-2.21 1.212-.837.283-1.77.6-2.53 1.123C2.056 16.464.958 14.087.958 11.46c0-5.322 4.49-9.625 10.043-9.625z" fill="#EDEBEB"/></g><defs><clipPath id="amclip0_2246_30"><path fill="#fff" d="M0 0h22v22H0z"/></clipPath></defs></svg><svg viewBox="0 0 22 22" id="male-user-black" xmlns="http://www.w3.org/2000/svg"><g clip-path="url(#anclip0_622_74073)"><path d="M11 .884C5.416.884.88 5.42.88 11.004S5.416 21.124 11 21.124s10.12-4.536 10.12-10.12S16.584.884 11 .884zm0 .88a9.233 9.233 0 019.24 9.24 9.206 9.206 0 01-2.645 6.47c-.805-.591-1.787-.888-2.618-1.183-.468-.167-.889-.332-1.196-.516-.295-.176-.458-.357-.544-.565-.04-.505-.032-.911-.03-1.39.054-.054.122-.091.177-.156.128-.151.26-.335.384-.543.214-.355.37-.79.457-1.23.133-.068.276-.083.384-.221.2-.255.336-.614.396-1.115a1.254 1.254 0 00-.273-.979c.197-.644.441-1.67.359-2.73-.046-.583-.193-1.17-.546-1.66-.337-.466-.885-.8-1.586-.922-.445-.506-1.152-.744-1.997-.744h-.008c-1.893.035-3.114.819-3.637 2.014-.498 1.136-.39 2.551-.034 4.024a1.25 1.25 0 00-.288.997c.06.5.195.86.396 1.115.108.138.25.153.384.22.087.441.243.875.457 1.23.125.208.255.392.384.544.054.064.123.102.176.155.003.48.011.885-.03 1.39-.085.208-.248.39-.542.566-.307.185-.727.35-1.195.518-.83.298-1.81.597-2.618 1.183a9.206 9.206 0 01-2.647-6.472A9.233 9.233 0 0111 1.764zM10.966 4.4c.81.001 1.321.241 1.461.487l.108.188.214.029c.552.077.861.291 1.082.597.222.306.345.733.382 1.213.075.959-.2 2.092-.374 2.616l-.11.332.3.183c-.031-.019.14.083.102.404-.047.392-.147.591-.214.677-.067.085-.096.074-.089.074l-.363.03-.038.361c-.033.311-.208.735-.413 1.075-.102.17-.21.32-.302.428-.092.108-.19.175-.152.156l-.236.123v.266c0 .583-.024 1.06.038 1.738l.005.058.02.055c.174.466.535.795.942 1.039.406.243.872.419 1.353.59.793.282 1.619.56 2.248.97A9.202 9.202 0 0111 20.243 9.202 9.202 0 015.07 18.09c.633-.408 1.46-.686 2.252-.97.48-.171.945-.348 1.35-.592.406-.244.766-.573.939-1.038l.02-.055.006-.058c.06-.678.038-1.155.038-1.738v-.266l-.236-.124c.037.02-.06-.047-.152-.155a3.383 3.383 0 01-.302-.428c-.205-.34-.38-.764-.413-1.075l-.039-.361-.362-.03c.006 0-.022.011-.089-.074-.067-.086-.167-.285-.214-.677-.038-.321.135-.424.102-.404l.28-.17-.082-.317c-.379-1.457-.436-2.783-.046-3.673.389-.889 1.168-1.453 2.843-1.485z"/></g><defs><clipPath id="anclip0_622_74073"><path fill="#fff" d="M0 0h22v22H0z"/></clipPath></defs></svg><svg fill="none" viewBox="0 0 24 24" id="marker" xmlns="http://www.w3.org/2000/svg"><path d="M12 .48c-4.234 0-7.68 3.447-7.68 7.68 0 6.775 7.022 14.854 7.32 15.195a.476.476 0 00.36.165.494.494 0 00.36-.165c.298-.346 7.32-8.565 7.32-15.195 0-4.233-3.446-7.68-7.68-7.68zm0 5.28a2.88 2.88 0 11-.002 5.762A2.88 2.88 0 0112 5.76z" fill="#000"/></svg><svg fill="none" viewBox="0 0 22 22" id="menu" xmlns="http://www.w3.org/2000/svg"><path d="M0 3.96v.88h22v-.88H0zm0 6.6v.88h22v-.88H0zm0 6.6v.88h22v-.88H0z" fill="#000"/></svg><svg fill="none" viewBox="0 0 42 42" id="mobile-shopping" xmlns="http://www.w3.org/2000/svg"><path d="M12.6 2.52c-1.39 0-2.52 1.13-2.52 2.52v2.362c-.303.781-1.68 4.435-1.68 6.458 0 1.85.613 3.242 1.68 3.993v19.106c0 1.39 1.13 2.52 2.52 2.52h10.08l.19-2.52h-4.39a.84.84 0 110-1.68h4.518l.19-2.52H11.76v-14.3a4.558 4.558 0 003.36-1.06 4.567 4.567 0 002.94 1.08c1.154 0 2.135-.514 2.94-1.215.805.7 1.786 1.216 2.94 1.216a4.567 4.567 0 002.94-1.082 4.559 4.559 0 002.94 1.082c.143 0 .283-.009.42-.022v3.408a5.409 5.409 0 011.68-.714v-3.3c1.067-.75 1.68-2.142 1.68-3.992 0-2.035-1.393-5.72-1.685-6.471 0-.01.005-.017.005-.026V5.04c0-1.39-1.13-2.52-2.52-2.52H12.6zM11.497 8.4h2.783v7.47c-.558.585-1.303.93-2.1.93-1.736 0-2.1-1.599-2.1-2.94 0-1.378.89-4.05 1.417-5.46zm4.463 0h4.2v7.433c-.538.576-1.256.966-2.1.966-.836 0-1.563-.364-2.1-.93V8.4zm5.88 0h4.2v7.433c-.538.576-1.256.966-2.1.966-.844 0-1.562-.39-2.1-.966V8.4zm5.88 0h2.782c.527 1.41 1.418 4.082 1.418 5.46 0 1.341-.365 2.94-2.1 2.94-.798 0-1.544-.345-2.1-.93V8.4zm5.46 14.28a3.793 3.793 0 00-3.78 3.78v1.26h-4.138l-.902 11.76c0 1.389 1.13 2.52 2.52 2.52h12.6c1.39 0 2.52-1.13 2.518-2.584L41.1 27.72h-4.14v-1.26a3.793 3.793 0 00-3.78-3.78zm0 1.68c1.17 0 2.1.93 2.1 2.1v1.26h-4.2v-1.26c0-1.17.93-2.1 2.1-2.1z" fill="#000"/></svg><svg fill="none" viewBox="0 0 24 24" id="online-payment" xmlns="http://www.w3.org/2000/svg"><path d="M7.92 1.44c-.926 0-1.68.754-1.68 1.68v9.84H6a.72.72 0 000 1.44h12a.72.72 0 000-1.44h-.24V3.12c0-.926-.754-1.68-1.68-1.68H7.92zm.72.96h1.44v11.04H8.64V2.4zM2.4 5.28c-.793 0-1.44.647-1.44 1.44v11.04c0 .794.647 1.44 1.44 1.44h19.2c.793 0 1.44-.646 1.44-1.44V6.72c0-.793-.647-1.44-1.44-1.44h-3.36v.96h3.36c.264 0 .48.216.48.48V16.8H1.92V6.72a.48.48 0 01.48-.48h3.36v-.96H2.4zm6.555 14.88l-.24 1.44H7.635a.482.482 0 00.045.96h8.64a.483.483 0 00.422-.238.484.484 0 000-.483.483.483 0 00-.422-.239h-1.035l-.24-1.44h-6.09z" fill="#000"/></svg><svg fill="none" viewBox="0 0 24 24" id="phone" xmlns="http://www.w3.org/2000/svg"><path d="M18.735 22.56h-.023c-3.607-.118-7.833-3.615-10.745-6.528C5.05 13.118 1.554 8.89 1.442 5.299 1.4 4.04 4.492 1.8 4.524 1.776c.803-.559 1.693-.36 2.06.146.247.343 2.59 3.895 2.845 4.298.265.418.225 1.04-.105 1.665-.182.347-.785 1.408-1.068 1.903.305.435 1.113 1.502 2.782 3.17 1.67 1.67 2.736 2.48 3.173 2.785.495-.283 1.556-.887 1.903-1.069.615-.326 1.233-.367 1.655-.109.432.265 3.973 2.62 4.3 2.847.273.193.45.523.485.907.034.388-.086.799-.335 1.157-.02.03-2.235 3.084-3.484 3.084z" fill="#000"/></svg><svg viewBox="0 0 24 24" id="plus-math" xmlns="http://www.w3.org/2000/svg"><path d="M11.52 4.32v7.2h-7.2v.96h7.2v7.2h.96v-7.2h7.2v-.96h-7.2v-7.2h-.96z"/></svg><svg fill="none" viewBox="0 0 24 24" id="right" xmlns="http://www.w3.org/2000/svg"><path d="M18.257 6.714a.48.48 0 00-.353.817l3.83 3.989H.97a.478.478 0 00-.42.238.476.476 0 000 .484c.087.15.248.24.42.238h20.762l-3.828 3.988a.48.48 0 10.693.663L23.526 12l-4.928-5.132a.483.483 0 00-.34-.154z" fill="#000"/></svg><svg fill="none" viewBox="0 0 22 22" id="search" xmlns="http://www.w3.org/2000/svg"><path d="M9.24 1.32A7.486 7.486 0 001.76 8.8a7.486 7.486 0 007.48 7.48 7.433 7.433 0 004.372-1.416l5.789 5.775 1.238-1.237-5.72-5.734a7.446 7.446 0 001.8-4.868 7.486 7.486 0 00-7.48-7.48zm0 .88c3.65 0 6.6 2.95 6.6 6.6 0 3.65-2.95 6.6-6.6 6.6-3.65 0-6.6-2.95-6.6-6.6 0-3.65 2.95-6.6 6.6-6.6z" fill="#F4F3F3"/></svg><svg fill="none" viewBox="0 0 22 22" id="search-black" xmlns="http://www.w3.org/2000/svg"><path d="M9.24 1.32A7.486 7.486 0 001.76 8.8a7.486 7.486 0 007.48 7.48 7.433 7.433 0 004.372-1.416l5.789 5.775 1.238-1.237-5.72-5.734a7.446 7.446 0 001.8-4.868 7.486 7.486 0 00-7.48-7.48zm0 .88c3.65 0 6.6 2.95 6.6 6.6 0 3.65-2.95 6.6-6.6 6.6-3.65 0-6.6-2.95-6.6-6.6 0-3.65 2.95-6.6 6.6-6.6z" fill="#000"/></svg><svg fill="none" viewBox="0 0 24 24" id="shop" xmlns="http://www.w3.org/2000/svg"><path d="M3.36 1.92c-.794 0-1.44.646-1.44 1.44v1.863c-.08.333-.48 2.04-.48 3.177 0 .732.175 1.33.48 1.777V22.08h10a.478.478 0 00.156 0H22.08V10.177c.305-.447.48-1.046.48-1.777 0-1.137-.4-2.844-.48-3.177V3.36c0-.794-.646-1.44-1.44-1.44H3.36zm.48 1.44a.48.48 0 110 .96.48.48 0 010-.96zm1.44 0a.48.48 0 110 .96.48.48 0 010-.96zm1.44 0a.48.48 0 110 .96.48.48 0 010-.96zm-3.938 2.4H4.8v3.788a1.657 1.657 0 01-1.2.532c-.992 0-1.2-.914-1.2-1.68 0-.819.247-2.038.381-2.64zm2.978 0h2.4v3.788a1.657 1.657 0 01-1.2.532c-.456 0-.881-.197-1.2-.532V5.76zm3.36 0h2.4v3.788a1.657 1.657 0 01-1.2.532c-.456 0-.881-.197-1.2-.532V5.76zm3.36 0h2.4v3.788a1.655 1.655 0 01-1.2.532c-.456 0-.881-.197-1.2-.532V5.76zm3.36 0h2.4v3.788a1.655 1.655 0 01-1.2.532c-.456 0-.882-.197-1.2-.532V5.76zm3.36 0h2.018c.135.602.382 1.821.382 2.64 0 .42-.069.878-.288 1.212a.471.471 0 00-.153.186c-.179.17-.42.282-.76.282-.455 0-.881-.197-1.2-.532V5.76zM5.76 12.48h5.76v8.64H5.76v-8.64zm6.72 0h6.24v8.64h-6.24v-8.64zm-2.4 3.84a.48.48 0 100 .96.48.48 0 000-.96zm3.84 0a.48.48 0 100 .96.48.48 0 000-.96z" fill="#000"/></svg><svg fill="none" viewBox="0 0 22 22" id="shopping-bag" xmlns="http://www.w3.org/2000/svg"><path d="M11 .917c-2.057 0-3.729 1.762-3.729 3.929v.785H4.323L2.75 20.167h16.5L17.677 5.631h-2.202v2.357c0 .651-.502 1.179-1.12 1.179a1.07 1.07 0 01-.244-.025c-.5-.118-.874-.59-.874-1.154 0-.51.313-.942.746-1.104v1.104c0 .217.166.393.373.393a.383.383 0 00.373-.393V4.846c0-2.167-1.672-3.929-3.729-3.929zm0 .786c1.645 0 2.983 1.41 2.983 3.143v.785h-5.22v2.357c0 .651-.501 1.179-1.119 1.179a1.07 1.07 0 01-.245-.025c-.5-.118-.874-.59-.874-1.154 0-.51.314-.942.746-1.104v1.104c0 .217.168.393.373.393a.384.384 0 00.373-.393V4.846c0-1.733 1.339-3.143 2.983-3.143z" fill="#EDEBEB"/></svg><svg fill="none" viewBox="0 0 22 22" id="shopping-bag-black" xmlns="http://www.w3.org/2000/svg"><path d="M11 .44c-2.312 0-4.177 1.885-4.177 4.22v.845H3.522l-.04.37-1.67 14.77-.052.475h18.48l-.052-.474-1.67-14.772-.04-.37h-3.302v-.843c0-2.336-1.865-4.22-4.176-4.22zm0 .845c1.864 0 3.34 1.491 3.34 3.376v.844H7.66V4.66c0-1.885 1.476-3.376 3.34-3.376zM4.279 6.349h2.544v.963a.838.838 0 00-.417.725.84.84 0 00.835.844.84.84 0 00.835-.844.838.838 0 00-.417-.725v-.963h6.682v.963a.838.838 0 00-.418.725.84.84 0 00.835.844.84.84 0 00.836-.844.838.838 0 00-.418-.725v-.963h2.545l1.58 13.927H2.698L4.28 6.35z" fill="#000"/></svg><svg fill="none" viewBox="0 0 24 24" id="show" xmlns="http://www.w3.org/2000/svg"><path d="M12 5.76C5.602 5.76.595 11.688.595 11.688a.48.48 0 10.73.624S6.206 6.72 12 6.72c5.794 0 10.675 5.592 10.675 5.592a.48.48 0 00.73-.624S18.398 5.76 12 5.76zm0 2.4a2.377 2.377 0 00-2.4 2.4c0 1.344 1.056 2.4 2.4 2.4 1.344 0 2.4-1.056 2.4-2.4 0-1.344-1.056-2.4-2.4-2.4zm-4.944.575c-3.072 1.584-5.136 4.033-5.184 4.033-.144.144-.336.288-.528.336C3.024 14.736 7.104 18.24 12 18.24c4.896 0 8.976-3.504 10.656-5.136a.913.913 0 01-.528-.336c-.048-.048-2.112-2.449-5.184-4.033.192.576.336 1.153.336 1.777a5.265 5.265 0 01-5.28 5.28 5.265 5.265 0 01-5.28-5.28c0-.624.096-1.249.336-1.777z" fill="#000"/></svg><svg fill="none" viewBox="0 0 22 22" id="slider" xmlns="http://www.w3.org/2000/svg"><path d="M11 3.08a1.761 1.761 0 000 3.52 1.761 1.761 0 000-3.52zM1.32 4.4a.44.44 0 000 .88H8.4a2.651 2.651 0 01-.04-.44c0-.15.015-.297.04-.44H1.32zm12.28 0c.024.143.04.29.04.44 0 .15-.016.297-.04.44h7.08a.44.44 0 100-.88H13.6zm3.56 4.84a1.761 1.761 0 000 3.52 1.761 1.761 0 000-3.52zM1.32 10.56a.44.44 0 000 .88h13.24a2.658 2.658 0 01-.04-.44c0-.15.015-.297.04-.44H1.32zm18.44 0c.024.143.04.29.04.44 0 .15-.016.297-.04.44h.92a.44.44 0 100-.88h-.92zM6.16 15.4a1.761 1.761 0 000 3.52 1.761 1.761 0 000-3.52zm-4.84 1.32a.44.44 0 100 .88h2.24a2.636 2.636 0 01-.04-.44c0-.151.015-.297.04-.44H1.32zm7.44 0c.024.143.04.289.04.44 0 .151-.016.297-.04.44h11.92c.244 0 .44-.196.44-.44a.439.439 0 00-.44-.44H8.76z" fill="#000"/></svg><svg fill="none" viewBox="0 0 22 22" id="trash-can" xmlns="http://www.w3.org/2000/svg"><path d="M9.24.88c-.724 0-1.32.596-1.32 1.32v.88h-4.4a.44.44 0 100 .88h.44V19.8c0 .728.592 1.32 1.32 1.32h11.44c.728 0 1.32-.592 1.32-1.32V3.96h.44a.44.44 0 100-.88h-4.4V2.2c0-.724-.596-1.32-1.32-1.32H9.24zm0 .88h3.52c.244 0 .44.196.44.44v.88H8.8V2.2c0-.244.196-.44.44-.44zm-.88 4.4a.44.44 0 01.44.44v11a.44.44 0 11-.88 0v-11a.44.44 0 01.44-.44zm2.64 0a.44.44 0 01.44.44v11a.44.44 0 11-.88 0v-11a.44.44 0 01.44-.44zm2.64 0a.44.44 0 01.44.44v11a.44.44 0 11-.88 0v-11a.44.44 0 01.44-.44z" fill="#000"/></svg><svg fill="none" viewBox="0 0 22 22" id="triangle" xmlns="http://www.w3.org/2000/svg"><path d="M1.76 7.48L11 17.16l9.24-9.68H1.76z" fill="#000"/></svg><svg fill="none" viewBox="0 0 40 40" id="zoom-in" xmlns="http://www.w3.org/2000/svg"><path d="M16.8 2.4C9.297 2.4 3.2 8.497 3.2 16c0 7.503 6.097 13.6 13.6 13.6 2.969 0 5.713-.956 7.95-2.575l10.525 10.5 2.25-2.25-10.4-10.425A13.539 13.539 0 0030.4 16c0-7.503-6.097-13.6-13.6-13.6zm0 1.6c6.638 0 12 5.363 12 12 0 6.638-5.362 12-12 12-6.637 0-12-5.362-12-12 0-6.637 5.363-12 12-12zM16 9.6v5.6h-5.6v1.6H16v5.6h1.6v-5.6h5.6v-1.6h-5.6V9.6H16z" fill="#000"/></svg></svg>