<?xml version="1.0" standalone="no"?>
<!DOCTYPE svg PUBLIC "-//W3C//DTD SVG 1.1//EN" "http://www.w3.org/Graphics/SVG/1.1/DTD/svg11.dtd" >
<svg xmlns="http://www.w3.org/2000/svg" xmlns:xlink="http://www.w3.org/1999/xlink" version="1.1">
<metadata>
Created by FontForge 20201107 at Mon Feb 26 20:04:42 2024
 By 
Copyright (c) 1993, 1994, 2002 Adobe Systems Incorporated.  All Rights Reserved. (c) 1981, 2002 Heidelberger Druckmaschinen AG. All rights reserved.
</metadata>
<defs>
<font id="BaskervilleCyrLTStd-Upright" horiz-adv-x="1138" >
  <font-face 
    font-family="Baskerville Cyr LT Std"
    font-weight="400"
    font-stretch="normal"
    units-per-em="2048"
    panose-1="2 2 6 2 6 5 6 2 3 4"
    ascent="1450"
    descent="-598"
    x-height="895"
    cap-height="1378"
    bbox="-301 -573 2175 1812"
    underline-thickness="102"
    underline-position="-204"
    unicode-range="U+0020-F6D8"
  />
<missing-glyph horiz-adv-x="1024" 
d="M0 0v1434h1024v-1434h-1024zM512 809l348 522h-696zM573 717l349 -522v1044zM164 102h696l-348 523zM102 1239v-1044l349 522z" />
    <glyph glyph-name=".notdef" horiz-adv-x="1024" 
d="M0 0v1434h1024v-1434h-1024zM512 809l348 522h-696zM573 717l349 -522v1044zM164 102h696l-348 523zM102 1239v-1044l349 522z" />
    <glyph glyph-name=".null" horiz-adv-x="0" 
 />
    <glyph glyph-name="nonmarkingreturn" horiz-adv-x="682" 
 />
    <glyph glyph-name="space" unicode=" " horiz-adv-x="569" 
 />
    <glyph glyph-name="exclam" unicode="!" horiz-adv-x="681" 
d="M317 309v127q0 173 -13.5 320t-30.5 225.5t-30.5 155.5t-13.5 127q0 76 31.5 110.5t79.5 34.5t79.5 -34.5t31.5 -110.5q0 -50 -14 -127t-30.5 -155.5t-30.5 -225.5t-14 -320v-127h-45zM223 86q0 47 35 82t82 35t82 -35t35 -82t-35 -82t-82 -35t-82 35t-35 82z" />
    <glyph glyph-name="quotedbl" unicode="&#x22;" horiz-adv-x="909" 
d="M596 956l-27 222q-6 58 -6 137q0 94 80 94t80 -94q0 -79 -6 -137l-27 -222q-4 -45 -47 -45t-47 45zM219 956l-26 222q-7 136 -7 137q0 94 80 94t80 -94q0 -79 -6 -137l-27 -222q-4 -45 -47 -45t-47 45z" />
    <glyph glyph-name="numbersign" unicode="#" 
d="M678 549l67 274h-284l-68 -274h285zM160 0l100 438h-240v111h263l67 274h-239v111h262l100 438h111l-101 -438h285l100 438h111l-100 -438h239v-111h-262l-68 -274h240v-111h-262l-100 -438h-111l100 438h-284l-101 -438h-110z" />
    <glyph glyph-name="dollar" unicode="$" 
d="M590 584v-570q113 5 195.5 77.5t82.5 195.5q0 99 -53 157t-225 140zM516 872v486h-18q-104 0 -170 -58.5t-66 -152.5q0 -82 50 -139t204 -136zM516 20v603q-107 49 -174.5 90t-119 91.5t-73.5 109.5t-22 137q0 162 105.5 260t263.5 98h20v152h74v-164q58 -13 101 -36.5
t61.5 -44t33.5 -35.5t25 -15q6 0 11 6.5t9 19t6.5 23.5t6.5 28t6 25q6 21 27 21q18 0 18 -25v-317q0 -31 -23 -31q-16 0 -22 18q-30 115 -98 199.5t-162 112.5v-512q125 -58 200.5 -102.5t130.5 -98t77 -114t22 -142.5q0 -194 -119 -304t-311 -110v-182h-74v188
q-77 11 -137.5 39.5t-88 56t-48 49t-27.5 21.5q-6 0 -11 -3.5t-9.5 -11.5t-7.5 -15t-6 -19t-5 -19.5t-4.5 -20.5t-3.5 -17q-6 -29 -27 -29q-22 0 -22 29v393q0 12 6.5 19.5t15.5 7.5q22 0 27 -25q28 -171 121.5 -279t226.5 -125z" />
    <glyph glyph-name="percent" unicode="%" horiz-adv-x="2048" 
d="M213 1063q0 149 97 247.5t239 98.5q130 0 224.5 -92t94.5 -238q0 -151 -97 -249.5t-239 -98.5q-130 0 -224.5 92.5t-94.5 239.5zM365 1047q0 -131 48 -198t117 -67q82 0 134.5 76.5t52.5 235.5q0 131 -48.5 197.5t-119.5 66.5q-80 0 -132 -76t-52 -235zM1180 295
q0 149 97 247.5t239 98.5q130 0 224.5 -92t94.5 -238q0 -151 -97 -249.5t-239 -98.5q-130 0 -224.5 92.5t-94.5 239.5zM1331 279q0 -131 48.5 -198t117.5 -67q82 0 134 76.5t52 235.5q0 131 -48 197.5t-119 66.5q-81 0 -133 -76t-52 -235zM578 -61l761 1495h97l-762 -1495
h-96z" />
    <glyph glyph-name="ampersand" unicode="&#x26;" horiz-adv-x="1593" 
d="M119 229q0 76 27.5 135t102 128.5t216.5 164.5q-146 217 -146 375q0 92 30 166t78.5 119t106 68.5t117.5 23.5q122 0 201.5 -72t79.5 -192q0 -52 -10 -93.5t-38.5 -93.5t-87.5 -111t-151 -128q171 -216 299 -352q12 15 25 32t22.5 30.5t23.5 35.5t20.5 33t22 38t20 35
t22 40t20.5 38q61 111 107.5 146.5t118.5 35.5q69 0 110 -38t41 -109q0 -47 -29 -79t-77 -32q-34 0 -62.5 22t-28.5 56q0 15 2.5 26.5t2.5 18.5q0 18 -10.5 28.5t-26.5 10.5q-27 0 -56 -38t-54.5 -91.5t-73.5 -135t-101 -146.5q231 -250 348 -250q35 0 63 14t43 30t32 30
t32 14q7 0 13 -6.5t6 -18.5q0 -14 -21 -41.5t-56 -57.5t-94 -52.5t-124 -22.5q-186 0 -369 205q-199 -205 -424 -205q-143 0 -228 75.5t-85 190.5zM299 322q0 -102 66.5 -182.5t166.5 -80.5q147 0 285 148q-68 71 -174 204t-151 199q-193 -122 -193 -288zM442 1169
q0 -175 166 -403q102 76 145.5 161t43.5 187q0 119 -51 184.5t-125 65.5q-69 0 -124 -51t-55 -144z" />
    <glyph glyph-name="quotesingle" unicode="'" horiz-adv-x="454" 
d="M295 1178l-21 -222q-4 -45 -47 -45t-47 45l-20 222q-13 119 -13 135q0 96 80 96t80 -96q0 -25 -12 -135z" />
    <glyph glyph-name="parenleft" unicode="(" horiz-adv-x="681" 
d="M612 -397l-43 -37q-426 446 -426 921q0 476 426 922l43 -37q-168 -203 -234.5 -408.5t-66.5 -476.5t66 -476t235 -408z" />
    <glyph glyph-name="parenright" unicode=")" horiz-adv-x="681" 
d="M70 1372l43 37q426 -446 426 -922q0 -475 -426 -921l-43 37q169 203 235 408t66 476t-66.5 476.5t-234.5 408.5z" />
    <glyph glyph-name="asterisk" unicode="*" horiz-adv-x="1024" 
d="M496 823v99l-15 12q-21 -21 -57 -41q-78 -48 -117 -105q-50 -77 -112 -77q-36 0 -58 24.5t-22 59.5q0 36 32 60t99 28q73 6 107.5 18t107.5 57v19l-47 29q-65 39 -160 51q-73 9 -105 30.5t-32 59.5q0 34 26.5 59t57.5 25q32 0 55 -16.5t47 -55.5q25 -39 60 -72.5
t116 -80.5l17 10v94q0 38 -33 108t-33 105q0 38 25 62t57 24t57 -24t25 -62q0 -35 -33 -105t-33 -108v-94l17 -10q81 47 116 80.5t60 72.5q24 39 47 55.5t55 16.5q31 0 57.5 -25t26.5 -59q0 -38 -32 -59.5t-105 -30.5q-95 -12 -160 -51l-47 -29v-19q73 -45 107.5 -57
t107.5 -18q67 -4 99 -28t32 -60q0 -35 -22 -59.5t-58 -24.5q-62 0 -112 77q-39 57 -117 105q-36 20 -57 41l-15 -12v-99q0 -37 33 -108t33 -105q0 -38 -25 -62t-57 -24t-57 24t-25 62q0 34 33 105t33 108z" />
    <glyph glyph-name="plus" unicode="+" horiz-adv-x="1228" 
d="M553 0v457h-457v123h457v456h123v-456h457v-123h-457v-457h-123z" />
    <glyph glyph-name="comma" unicode="," horiz-adv-x="569" 
d="M160 -328l-23 37q121 72 165.5 131t47.5 160h-4q-16 -16 -29 -20q-22 -11 -43 -11q-40 0 -73 35.5t-33 81.5q0 47 35 82t82 35q57 0 102 -44t45 -132q0 -47 -10 -86t-37 -85t-83.5 -92.5t-141.5 -91.5z" />
    <glyph glyph-name="hyphen" unicode="-" horiz-adv-x="681" 
d="M88 387v135h506v-135h-506z" />
    <glyph glyph-name="period" unicode="." horiz-adv-x="569" 
d="M168 86q0 47 35 82t82 35t81.5 -35t34.5 -82t-34.5 -82t-81.5 -35t-82 35t-35 82z" />
    <glyph glyph-name="slash" unicode="/" horiz-adv-x="569" 
d="M-12 -37l471 1446h123l-471 -1446h-123z" />
    <glyph glyph-name="zero" unicode="0" 
d="M98 707q0 149 41.5 282.5t108 224t148 143t161.5 52.5q85 0 158.5 -35.5t124.5 -95.5t91 -135.5t63 -160.5t34.5 -165t11.5 -153q0 -148 -41.5 -281.5t-107.5 -223.5t-147.5 -143t-161.5 -53q-85 0 -158.5 35.5t-125 96t-91 136t-63 160t-35 164t-11.5 152.5zM295 635
q0 -141 14.5 -252.5t45 -197t82 -131.5t122.5 -46q73 0 119.5 27t82 104t51 221t15.5 373q0 177 -17.5 301t-52.5 195.5t-80.5 103t-107.5 31.5q-51 0 -89 -16t-74.5 -62.5t-59.5 -125.5t-37 -211t-14 -314z" />
    <glyph glyph-name="one" unicode="1" 
d="M504 156v942q0 78 -10.5 115t-30 48t-60.5 11h-86q-30 0 -30 20q0 19 11.5 25t47.5 6q76 0 155 21.5t127.5 43t49.5 21.5q14 0 14 -25q0 -46 -4 -149t-4 -158v-921q0 -68 29.5 -91.5t103.5 -25.5q47 -1 59.5 -5.5t12.5 -17.5t-9 -17.5t-30 -4.5q-43 0 -128 3t-128 3
t-128 -3t-128 -3q-21 0 -30 4.5t-9 17.5t12.5 17.5t59.5 5.5q73 2 103 25.5t30 91.5z" />
    <glyph glyph-name="two" unicode="2" 
d="M743 586l-122 -94q-148 -114 -235.5 -203t-100.5 -123q113 0 332.5 3t324.5 3q25 0 25 -16q0 -4 -9 -60l-32 -172q-7 -47 -29 -47q-15 0 -21 6.5t-6 26.5v67q0 15 -64.5 19t-279.5 4q-212 0 -420 -6q15 48 75 136t122 153l297 309q102 105 147.5 221t45.5 225
q0 152 -77.5 239t-195.5 87q-120 0 -193 -71t-73 -175q0 -92 53.5 -156.5t132.5 -64.5q19 0 49 10q30 13 33 13q17 0 17 -19q0 -28 -60.5 -64t-128.5 -36q-103 0 -167 73.5t-64 174.5q0 156 117 258t309 102q94 0 174.5 -24.5t143.5 -73t98.5 -127t35.5 -178.5
q0 -224 -254 -420z" />
    <glyph glyph-name="three" unicode="3" 
d="M778 389q0 178 -52 261t-161 83q-48 0 -80.5 -20.5t-64.5 -67.5q-50 -74 -84 -74q-19 0 -31 12t-12 31t16.5 36.5t69.5 49.5q82 49 135.5 88.5t100 90t68.5 110.5t22 133q0 120 -53.5 178t-151.5 58t-155.5 -59t-57.5 -146q0 -66 36.5 -109t94.5 -43q25 0 45.5 5.5
t31.5 11.5t13 6q8 0 8 -8t-9.5 -23t-28 -32t-52 -29t-74.5 -12q-81 0 -134.5 50t-53.5 136q0 116 116 209.5t279 93.5q151 0 246.5 -71.5t95.5 -186.5q0 -116 -77 -207.5t-246 -161.5v-10q20 6 59 6q148 0 247 -90t99 -242q0 -135 -74 -246.5t-198 -174t-269 -62.5
q-154 0 -245 58.5t-91 138.5q0 38 27 65t72 27q40 0 63 -25t35 -80q17 -77 56 -108t112 -31q145 0 226 94t81 287z" />
    <glyph glyph-name="four" unicode="4" 
d="M635 154v292h-549q-35 0 -35 37q0 28 41 80l656 811q25 35 47 35q20 0 20 -29v-868h213q41 0 41 -35q0 -12 -9.5 -21.5t-31.5 -9.5h-213v-292q0 -67 29.5 -90t103.5 -25q47 -1 59.5 -5.5t12.5 -17.5t-9 -17.5t-30 -4.5q-43 0 -128 3t-128 3t-128 -3t-128 -3
q-21 0 -30 4.5t-9 17.5t12.5 17.5t59.5 5.5q73 2 103 25.5t30 89.5zM631 1145l-498 -625v-8h502v633h-4z" />
    <glyph glyph-name="five" unicode="5" 
d="M299 1165l-16 -436l4 -4q119 152 313 152q103 0 192.5 -43.5t147 -130.5t57.5 -199q0 -113 -39.5 -211.5t-111 -172t-178 -115.5t-234.5 -42q-150 0 -239 59.5t-89 153.5q0 34 25 56t62 22q75 0 102 -127q12 -55 62 -87t122 -32q47 0 91 15.5t85 51.5t71.5 89.5
t48.5 135.5t18 183q0 154 -64.5 241t-175.5 87q-78 0 -147.5 -37.5t-96.5 -99.5q0 -22 2 -56.5t2 -46.5q0 -22 -10.5 -33.5t-26.5 -11.5q-22 0 -34.5 15.5t-12.5 40.5l33 784q3 43 23 43q11 0 33 -16.5t48.5 -36.5t84.5 -36.5t133 -16.5q73 0 129 20t80 43.5t41.5 43.5
t23.5 20q16 0 16 -19q0 -38 -23 -83.5t-66.5 -89.5t-119 -73.5t-167.5 -29.5q-121 0 -199 30z" />
    <glyph glyph-name="six" unicode="6" 
d="M1040 459q0 -135 -56 -248t-159 -180.5t-233 -67.5q-229 0 -361.5 165.5t-132.5 444.5q0 213 45 376t124 262t181 148.5t222 49.5q136 0 203 -51t67 -111q0 -35 -26.5 -61.5t-61.5 -26.5q-34 0 -59.5 20.5t-43.5 49.5t-37.5 58.5t-53 50t-78.5 20.5q-135 0 -202.5 -148.5
t-74.5 -484.5h4q59 69 143 116.5t183 47.5q58 0 114 -14t109.5 -47t94 -81t65 -122.5t24.5 -165.5zM844 424q0 216 -59.5 311.5t-186.5 95.5q-87 0 -164 -55q-139 -99 -139 -231q0 -289 67 -413t211 -124q130 0 200.5 102t70.5 314z" />
    <glyph glyph-name="seven" unicode="7" 
d="M375 1372h569q9 0 26.5 2t26.5 2q17 0 17 -22q0 -16 -10 -39l-127 -279q-232 -507 -279 -905q-20 -168 -121 -168q-100 0 -100 96q0 34 22 109.5t68 167.5l428 864q-35 0 -132 2t-157 2q-208 0 -303 -12q-25 -3 -51 -27t-39 -61l-43 -121q-7 -22 -27 -22q-8 0 -13 5.5
t-5 10.5q0 27 4 43l98 471q11 49 33 49q21 0 21 -29q0 -2 -5.5 -36.5t-5.5 -47.5q0 -33 22 -44t83 -11z" />
    <glyph glyph-name="eight" unicode="8" 
d="M160 1049q0 81 32.5 150t88 114t128.5 70.5t154 25.5q102 0 189 -36.5t143.5 -110t56.5 -170.5q0 -93 -48 -169.5t-167 -154.5q137 -75 210 -167t73 -228q0 -178 -131.5 -294t-337.5 -116q-186 0 -309 95.5t-123 246.5q0 115 70 210t223 187q-131 57 -191.5 139.5
t-60.5 207.5zM885 287q0 104 -63 175.5t-230 155.5l-131 66q-197 -131 -197 -360q0 -142 84 -229t225 -87q132 0 222 75.5t90 203.5zM518 864l176 -78q135 121 135 281q0 133 -74.5 215t-199.5 82q-111 0 -191.5 -65t-80.5 -164q0 -87 57 -151.5t178 -119.5z" />
    <glyph glyph-name="nine" unicode="9" 
d="M98 913q0 135 56 248t159.5 180.5t233.5 67.5q229 0 361 -165.5t132 -444.5q0 -213 -44.5 -376t-124 -262t-181 -148.5t-221.5 -49.5q-136 0 -203 51t-67 111q0 35 26.5 61.5t61.5 26.5q34 0 59.5 -20.5t43.5 -49.5t37.5 -58.5t53 -50t78.5 -20.5q135 0 202.5 148.5
t74.5 484.5h-5q-59 -69 -142.5 -116.5t-182.5 -47.5q-58 0 -114 14t-110 47t-94.5 81t-65 122.5t-24.5 165.5zM295 948q0 -216 59.5 -311.5t186.5 -95.5q87 0 164 55q139 99 139 231q0 289 -67.5 413t-211.5 124q-270 0 -270 -416z" />
    <glyph glyph-name="colon" unicode=":" horiz-adv-x="569" 
d="M168 803q0 47 35 82t82 35t81.5 -35t34.5 -82t-34.5 -82t-81.5 -35t-82 35t-35 82zM168 86q0 47 35 82t82 35t81.5 -35t34.5 -82t-34.5 -82t-81.5 -35t-82 35t-35 82z" />
    <glyph glyph-name="semicolon" unicode=";" horiz-adv-x="569" 
d="M160 -328l-23 37q121 72 165.5 131t47.5 160h-4q-16 -16 -29 -20q-22 -11 -43 -11q-40 0 -73 35.5t-33 81.5q0 47 35 82t82 35q57 0 102 -44t45 -132q0 -47 -10 -86t-37 -85t-83.5 -92.5t-141.5 -91.5zM168 803q0 47 35 82t82 35t81.5 -35t34.5 -82t-34.5 -82t-81.5 -35
t-82 35t-35 82z" />
    <glyph glyph-name="less" unicode="&#x3c;" horiz-adv-x="1228" 
d="M96 457v123l1037 467v-123l-883 -406l883 -405v-123z" />
    <glyph glyph-name="equal" unicode="=" horiz-adv-x="1228" 
d="M96 662v122h1037v-122h-1037zM96 252v123h1037v-123h-1037z" />
    <glyph glyph-name="greater" unicode="&#x3e;" horiz-adv-x="1228" 
d="M96 924v123l1037 -467v-123l-1037 -467v123l883 405z" />
    <glyph glyph-name="question" unicode="?" horiz-adv-x="909" 
d="M309 324v407h135q128 0 199.5 61t71.5 175q0 117 -71 207t-165 90q-49 0 -114.5 -11.5t-96.5 -11.5q-98 0 -98 88q0 39 33 59.5t92 20.5q91 0 178.5 -40.5t154 -109t107.5 -165t41 -201.5q0 -155 -101.5 -246.5t-320.5 -91.5v-231h-45zM215 86q0 47 35 82t82 35t82 -35
t35 -82t-35 -82t-82 -35t-82 35t-35 82z" />
    <glyph glyph-name="at" unicode="@" horiz-adv-x="1638" 
d="M1047 831q0 67 -26.5 103.5t-76.5 36.5q-39 0 -87.5 -33.5t-92 -87.5t-73 -132t-29.5 -157q0 -93 32 -136.5t88 -43.5q45 0 91 31t85 86.5t64 143t25 189.5zM1305 147l28 -63q-101 -54 -226 -87.5t-220 -33.5q-133 0 -250 31.5t-201.5 85.5t-151 123.5t-107 148
t-61 155.5t-20.5 150q0 163 61.5 305t166 239t244.5 152.5t294 55.5q188 0 344 -80t246 -221.5t90 -314.5q0 -64 -15.5 -132t-48 -133t-77.5 -116t-108.5 -82t-135.5 -31q-48 0 -85 13.5t-58 35.5t-32.5 44.5t-14.5 45.5h-4q-37 -57 -103.5 -98t-150.5 -41q-95 0 -145 67
t-50 187q0 79 30 166t82.5 162t132 123.5t169.5 48.5q117 0 155 -103h4l23 78h135l-119 -463q-26 -106 -26 -133q0 -67 80 -67q81 0 147 67t99.5 163.5t33.5 195.5q0 72 -26.5 148.5t-79 147t-123.5 126t-168.5 89t-204.5 33.5q-94 0 -182 -29t-162.5 -88.5t-130.5 -142
t-87.5 -196t-31.5 -244.5q0 -112 46.5 -219.5t126 -191.5t196 -135.5t246.5 -51.5q226 0 426 110z" />
    <glyph glyph-name="A" unicode="A" horiz-adv-x="1593" 
d="M965 559l-230 598h-4l-242 -598h476zM344 334l428 1075h74l452 -1167q41 -103 80 -151.5t101 -51.5q29 -2 43 -4.5t18 -5.5t4 -9q0 -18 -7.5 -22t-37.5 -4q-42 0 -125 3t-125 3t-125 -3t-125 -3q-33 0 -43 4t-10 22q0 19 70 19q48 0 71 23.5t23 58.5q0 58 -63 225
l-60 156h-520l-115 -312q-10 -30 -10 -61q0 -45 30.5 -64t86.5 -26q34 -4 43.5 -7.5t9.5 -11.5q0 -18 -7 -22t-34 -4q-31 0 -96 3t-96 3t-96 -3t-97 -3q-22 0 -29.5 5.5t-7.5 20.5t43 19q37 4 64 16t58 42.5t62.5 88.5t67.5 148z" />
    <glyph glyph-name="B" unicode="B" horiz-adv-x="1478" 
d="M322 254v864q0 117 -32 165t-108 50q-59 1 -73.5 5.5t-14.5 17.5t11.5 17.5t44.5 4.5q34 0 130.5 -3t147.5 -3q47 0 134 3t128 3q238 0 371 -77.5t133 -237.5q0 -259 -340 -322v-4q481 -41 481 -387q0 -100 -46.5 -171.5t-131 -110.5t-185.5 -56.5t-227 -17.5
q-51 0 -156 3t-161 3q-51 0 -147.5 -3t-130.5 -3q-33 0 -44.5 4.5t-11.5 17.5t14.5 17.5t73.5 5.5q76 2 108 50t32 165zM535 674v-453q0 -87 52.5 -134.5t157.5 -47.5q170 0 253 81t83 253q0 188 -107.5 260t-342.5 72q-62 0 -79 -6.5t-17 -24.5zM535 1290v-504
q0 -20 12 -28t39 -8q195 0 291 66.5t96 223.5q0 293 -314 293q-124 0 -124 -43z" />
    <glyph glyph-name="C" unicode="C" horiz-adv-x="1478" 
d="M1350 424v-369q0 -32 -25 -32q-27 0 -27 43q0 34 -36 34q-22 0 -57 -21.5t-74 -47t-120 -47t-184 -21.5q-179 0 -321 53.5t-232 147t-137 217t-47 268.5q0 150 40.5 276t111 214t166 150t204 91t226.5 29q91 0 165.5 -16.5t112 -36.5t68.5 -36.5t45 -16.5q16 0 24 11.5
t10 25t8.5 25t18.5 11.5q10 0 16.5 -8t6.5 -20q0 -50 8 -158.5t8 -165.5q0 -49 -20 -49q-13 0 -21.5 14.5t-15.5 54.5q-6 34 -23.5 73.5t-53 84t-82.5 80t-118 59t-153 23.5q-75 0 -143.5 -22t-134.5 -75.5t-114 -133.5t-77 -205.5t-29 -282.5q0 -138 32 -250t83 -182.5
t118.5 -118t133 -67t131.5 -19.5q83 0 152 23t115.5 59t84 89t59.5 104.5t39 113.5q14 52 21 65t16 13q14 0 17.5 -11t3.5 -40z" />
    <glyph glyph-name="D" unicode="D" horiz-adv-x="1593" 
d="M311 254v864q0 117 -30 165t-99 50q-47 1 -59 5.5t-12 17.5t9 17.5t30 4.5q31 0 125 -3t143 -3q51 0 154.5 3t154.5 3q163 0 301.5 -45.5t241.5 -131.5t161 -220t58 -301q0 -150 -39.5 -272t-121 -216t-218.5 -146t-319 -52q-25 0 -176.5 3t-196.5 3q-49 0 -143 -3
t-125 -3q-21 0 -30 4.5t-9 17.5t12 17.5t59 5.5q69 2 99 50t30 165zM1235 645q0 123 -18 223.5t-47.5 170t-73 122.5t-89 84t-100.5 50t-102.5 25.5t-99.5 6.5h-97q-53 0 -68.5 -12.5t-15.5 -50.5v-949q0 -63 2 -92t14.5 -71t38.5 -60t76 -32.5t125 -14.5q85 0 153 18.5
t115 49.5t81.5 78t54.5 96t32 113t15.5 120t3.5 125z" />
    <glyph glyph-name="E" unicode="E" horiz-adv-x="1366" 
d="M307 254v864q0 117 -30 165t-99 50q-47 1 -59.5 5.5t-12.5 17.5t9 17.5t30 4.5q81 0 244 -3t244 -3q82 0 243 3t238 3q33 0 33 -24v-232q0 -39 -23 -39q-25 0 -28 29q-12 127 -78.5 171t-245.5 44q-175 0 -213.5 -5t-38.5 -30v-555q60 0 111.5 9t102.5 30.5t82.5 64
t35.5 103.5q3 42 9.5 55t21.5 13q26 0 26 -25q0 -43 -3 -128t-3 -128t3 -128t3 -128q0 -24 -22 -24q-12 0 -19.5 13t-15.5 56q-19 92 -86 129t-176 37h-70v-377q0 -50 3.5 -83t14 -66t31.5 -52t55 -34.5t84.5 -22t120.5 -6.5q96 0 166 16t112.5 47t65.5 69.5t33 90.5
q6 32 13.5 44t21.5 12q19 0 19 -25q0 -19 -6.5 -98.5t-6.5 -110.5v-70q0 -26 -33 -26q-89 0 -267 3t-267 3t-267.5 -3t-267.5 -3q-21 0 -30 4.5t-9 17.5t12.5 17.5t59.5 5.5q69 2 99 50t30 165z" />
    <glyph glyph-name="F" unicode="F" horiz-adv-x="1251" 
d="M322 254v864q0 117 -30 165t-99 50q-47 1 -59.5 5.5t-12.5 17.5t9 17.5t30 4.5q30 0 127 -3t153 -3q114 0 344 3t344 3q22 0 31 -6.5t10 -23.5q1 -13 8.5 -66t13 -102.5t5.5 -71.5q0 -17 -6.5 -22t-18.5 -5q-21 0 -26 31q-4 27 -31 78.5t-59 73.5q-89 63 -289 63h-150
q-58 0 -69.5 -27t-11.5 -135v-444q185 0 254.5 37.5t76.5 148.5q3 42 9.5 55t21.5 13q27 0 27 -25q0 -45 -3 -124.5t-3 -110.5q0 -43 3 -128t3 -128q0 -25 -23 -25q-11 0 -19 13.5t-16 56.5q-19 93 -72 129.5t-141 36.5h-118v-416q0 -118 32.5 -165.5t114.5 -49.5
q47 -1 59.5 -5.5t12.5 -17.5t-9 -17.5t-30 -4.5q-42 0 -141 3t-146 3q-49 0 -143 -3t-125 -3q-21 0 -30 4.5t-9 17.5t12.5 17.5t59.5 5.5q69 2 99 50t30 165z" />
    <glyph glyph-name="G" unicode="G" horiz-adv-x="1593" 
d="M90 653q0 156 52 295t145 241t228 161t294 59q94 0 178 -18t124 -34.5t93 -43.5q17 -10 31 -10q22 0 29 20q0 1 2.5 8t3.5 10t3.5 9.5t4.5 9.5t5.5 7t7 5.5t7.5 1.5q19 0 19 -37q0 -27 -3.5 -143t-4.5 -160q-2 -36 -5 -46.5t-16 -10.5q-14 0 -20 12t-21 62
q-8 27 -13.5 43t-17 45t-22.5 47.5t-29.5 44.5t-38.5 43t-48.5 35.5t-61 29.5t-75 18t-91.5 7q-506 0 -506 -696q0 -128 21 -233t57.5 -175t82 -121t99.5 -78.5t103.5 -40t99.5 -12.5q56 0 105 7.5t100 29t87.5 55.5t59.5 91t23 131q0 42 -1.5 65.5t-8 51.5t-19.5 42.5
t-37.5 25.5t-60.5 13q-43 3 -53.5 7t-10.5 18q0 24 29 24q44 0 133 -3t133 -3q39 0 117 3t117 3q16 0 23 -3.5t7 -14.5q0 -16 -8.5 -20.5t-30.5 -6.5q-30 -3 -51 -15t-32 -27.5t-17 -42.5t-7 -48.5t-1 -56.5q0 -60 8 -191q-48 0 -101.5 -16t-90 -33.5t-101.5 -52.5
q-145 -78 -330 -78q-116 0 -220.5 28t-191.5 85t-151 138t-99.5 193.5t-35.5 245.5z" />
    <glyph glyph-name="H" unicode="H" horiz-adv-x="1820" 
d="M1286 254v424h-751v-424q0 -117 30 -165t99 -50q47 -1 59 -5.5t12 -17.5t-9 -17.5t-30 -4.5q-31 0 -125 3t-143 3t-143 -3t-125 -3q-21 0 -30 4.5t-9 17.5t12.5 17.5t59.5 5.5q69 2 99 50t30 165v864q0 117 -30 165t-99 50q-47 1 -59.5 5.5t-12.5 17.5t9 17.5t30 4.5
q31 0 125 -3t143 -3t143 3t125 3q21 0 30 -4.5t9 -17.5t-12 -17.5t-59 -5.5q-69 -2 -99 -50t-30 -165v-375h751v375q0 117 -30 165t-99 50q-47 1 -59.5 5.5t-12.5 17.5t9 17.5t30 4.5q31 0 125.5 -3t143.5 -3t143 3t125 3q21 0 30 -4.5t9 -17.5t-12.5 -17.5t-59.5 -5.5
q-69 -2 -99 -50t-30 -165v-864q0 -117 30 -165t99 -50q47 -1 59.5 -5.5t12.5 -17.5t-9 -17.5t-30 -4.5q-31 0 -125 3t-143 3t-143.5 -3t-125.5 -3q-21 0 -30 4.5t-9 17.5t12.5 17.5t59.5 5.5q69 2 99 50t30 165z" />
    <glyph glyph-name="I" unicode="I" horiz-adv-x="909" 
d="M348 254v864q0 117 -30 165t-99 50q-47 1 -59.5 5.5t-12.5 17.5t9 17.5t30 4.5q31 0 125.5 -3t143.5 -3t143 3t125 3q21 0 30 -4.5t9 -17.5t-12.5 -17.5t-59.5 -5.5q-69 -2 -99 -50t-30 -165v-864q0 -117 30 -165t99 -50q47 -1 59.5 -5.5t12.5 -17.5t-9 -17.5t-30 -4.5
q-31 0 -125 3t-143 3t-143.5 -3t-125.5 -3q-21 0 -30 4.5t-9 17.5t12.5 17.5t59.5 5.5q69 2 99 50t30 165z" />
    <glyph glyph-name="J" unicode="J" horiz-adv-x="909" 
d="M389 -287v1405q0 117 -30 165t-99 50q-47 1 -59.5 5.5t-12.5 17.5t9 17.5t30 4.5q31 0 125.5 -3t143.5 -3t143 3t125 3q21 0 30 -4.5t9 -17.5t-12.5 -17.5t-59.5 -5.5q-69 -2 -99 -50t-30 -165v-1263q0 -104 -27.5 -181.5t-71.5 -124t-109 -74.5t-130 -38t-145 -10
q-126 0 -207.5 42t-81.5 109q0 40 23.5 62t64.5 22q39 0 63 -27t44 -94q12 -40 35.5 -54.5t74.5 -14.5q42 0 76 5.5t68.5 21t57.5 41.5t37.5 70t14.5 103z" />
    <glyph glyph-name="K" unicode="K" horiz-adv-x="1593" 
d="M332 254v864q0 117 -30 165t-99 50q-47 1 -59.5 5.5t-12.5 17.5t9 17.5t30 4.5q31 0 125 -3t143 -3t143.5 3t125.5 3q21 0 29.5 -4.5t8.5 -17.5t-12 -17.5t-59 -5.5q-69 -2 -99 -50t-30 -165v-526q149 161 268.5 300t155.5 187q90 127 90 176q0 75 -82 78q-48 1 -62 7
t-14 20q0 18 29 18q37 0 109.5 -3t109.5 -3q31 0 95 3t95 3q25 0 25 -22q0 -13 -12 -18.5t-47 -8.5q-49 -4 -85.5 -35t-76.5 -86l-328 -415q64 -75 174 -212.5t205 -249t186 -200.5q31 -31 45.5 -44.5t40.5 -30.5t45 -17q33 -1 42.5 -6t9.5 -17q0 -13 -9 -17.5t-30 -4.5
q-43 0 -136.5 3t-150.5 3q-45 0 -134 -3t-134 -3q-21 0 -30 4.5t-9 17.5t12 17.5t59 5.5q95 5 95 61q0 11 -4.5 24t-11 24.5t-16.5 26t-16.5 22.5t-17 20.5t-12.5 15.5l-340 414l-133 -133v-260q0 -117 30 -165t99 -50q47 -1 59 -5.5t12 -17.5t-8.5 -17.5t-29.5 -4.5
q-31 0 -125.5 3t-143.5 3t-143 -3t-125 -3q-21 0 -30 4.5t-9 17.5t12.5 17.5t59.5 5.5q69 2 99 50t30 165z" />
    <glyph glyph-name="L" unicode="L" horiz-adv-x="1366" 
d="M303 254v864q0 117 -30 165t-99 50q-47 1 -59.5 5.5t-12.5 17.5t9 17.5t30 4.5q31 0 125.5 -3t143.5 -3t143 3t125 3q21 0 30 -4.5t9 -17.5t-12.5 -17.5t-59.5 -5.5q-69 -2 -99 -50t-30 -165v-846q0 -127 67 -177t251 -50q97 0 170 15t116 37.5t73 59.5t43 70t24 80
q8 47 24 47q25 0 25 -30q0 -192 -6 -287q-2 -25 -8 -34t-23 -9q-26 0 -66 4q-12 0 -34 1t-33 1h-721q-22 0 -68 -1t-69 -1q-94 -4 -140 -4q-31 0 -42 4.5t-11 17.5q0 12 18 16.5t68 6.5q69 2 99 50t30 165z" />
    <glyph glyph-name="M" unicode="M" horiz-adv-x="1933" 
d="M307 254v864q0 117 -30 165t-99 50q-47 1 -59.5 5.5t-12.5 17.5t9 17.5t30 4.5q25 0 76 -3t76 -3t76 3t76 3h34q28 0 37 -20l451 -1049l446 1039q12 30 35 30q28 0 84 -3t84 -3t84 3t84 3q21 0 30 -4.5t9 -17.5t-12.5 -17.5t-59.5 -5.5q-69 -2 -99 -50t-30 -165v-864
q0 -117 30 -165t99 -50q47 -1 59.5 -5.5t12.5 -17.5t-9 -17.5t-30 -4.5q-31 0 -125 3t-143 3t-143.5 -3t-125.5 -3q-21 0 -30 4.5t-9 17.5t12.5 17.5t59.5 5.5q69 2 99 50t30 165v924h-4l-496 -1151q-10 -27 -22 -27q-16 0 -27 25l-491 1173h-4v-944q0 -117 30 -165t99 -50
q47 -1 59 -5.5t12 -17.5t-9 -17.5t-30 -4.5q-32 0 -96 3t-96 3t-96.5 -3t-96.5 -3q-21 0 -30 4.5t-9 17.5t12.5 17.5t59.5 5.5q69 2 99 50t30 165z" />
    <glyph glyph-name="N" unicode="N" horiz-adv-x="1705" 
d="M322 254v924q0 45 -39.5 91t-114.5 60q-57 11 -64 17q-6 5 -6 14q0 18 29 18q5 0 65.5 -3t102.5 -3q1 0 172 6l874 -1093h5v833q0 78 -15 120.5t-41 59t-76 25.5q-46 9 -57.5 15t-11.5 18q0 13 9 17.5t30 4.5q32 0 96 -3t96 -3t97 3t96 3q21 0 30 -4.5t9 -17.5
q0 -12 -12 -18t-58 -15q-50 -9 -76 -25.5t-40.5 -59t-14.5 -120.5v-1155h-68l-952 1194h-4v-903q0 -78 14.5 -120.5t40.5 -59t76 -25.5q46 -9 58 -15t12 -18q0 -13 -9 -17.5t-30 -4.5q-31 0 -96 3t-97 3t-96 -3t-96 -3q-21 0 -30 4.5t-9 17.5q0 12 11.5 18t57.5 15
q50 9 76 25.5t41 59t15 120.5z" />
    <glyph glyph-name="O" unicode="O" horiz-adv-x="1705" 
d="M90 686q0 209 97.5 374.5t271.5 257t393 91.5t393 -91.5t271.5 -257t97.5 -374.5t-97.5 -374.5t-271.5 -257t-393 -91.5t-393 91.5t-271.5 257t-97.5 374.5zM344 686q0 -127 31.5 -245.5t91.5 -216.5t160 -157t225 -59t225 59t160 157t91.5 216.5t31.5 245.5t-31.5 245.5
t-91.5 216.5t-160 157t-225 59t-225 -59t-160 -157t-91.5 -216.5t-31.5 -245.5z" />
    <glyph glyph-name="P" unicode="P" horiz-adv-x="1251" 
d="M307 254v864q0 117 -30 165t-99 50q-47 1 -59.5 5.5t-12.5 17.5t9 17.5t30 4.5q31 0 125.5 -3t143.5 -3q46 0 137.5 3t136.5 3q135 0 237 -30.5t159.5 -82t85.5 -113t28 -130.5q0 -189 -139.5 -287t-405.5 -98h-133v-383q0 -117 30 -165t99 -50q47 -1 59.5 -5.5
t12.5 -17.5t-9 -17.5t-30 -4.5q-31 0 -125 3t-143 3t-143.5 -3t-125.5 -3q-21 0 -30 4.5t-9 17.5t12.5 17.5t59.5 5.5q69 2 99 50t30 165zM520 1276v-582q74 -6 121 -6q170 0 247 76.5t77 249.5q0 319 -338 319q-67 0 -87 -11.5t-20 -45.5z" />
    <glyph glyph-name="Q" unicode="Q" horiz-adv-x="1705" 
d="M90 686q0 209 97.5 374.5t271.5 257t393 91.5t393 -91.5t271.5 -257t97.5 -374.5t-97.5 -374.5t-271.5 -257t-393 -91.5h-2l-184 -90v-6q46 6 88 6q94 0 198.5 -28.5t180.5 -62.5t167 -62.5t162 -28.5q78 0 125 41q8 6 24 28t31 39t23 17q17 0 22 -9.5t5 -35.5
q0 -131 -95 -215t-221 -84q-63 0 -121 19.5t-103 51t-88 69.5t-85.5 76t-86.5 69.5t-99 51t-115 19.5q-82 0 -150 -47q-10 -7 -28.5 -20t-28 -19.5t-22.5 -14.5t-22 -11t-17 -3q-15 0 -26 12.5t-11 32.5q0 19 17.5 31.5t64.5 34.5l284 139v6q-191 23 -338.5 120t-229 252
t-81.5 345zM344 686q0 -127 31.5 -245.5t91.5 -216.5t160 -157t225 -59t225 59t160 157t91.5 216.5t31.5 245.5t-31.5 245.5t-91.5 216.5t-160 157t-225 59t-225 -59t-160 -157t-91.5 -216.5t-31.5 -245.5z" />
    <glyph glyph-name="R" unicode="R" horiz-adv-x="1478" 
d="M307 254v864q0 117 -30 165t-99 50q-47 1 -59.5 5.5t-12.5 17.5t9 17.5t30 4.5q31 0 125.5 -3t143.5 -3q60 0 179 3t179 3q207 0 327 -92t120 -262q-4 -73 -26 -129t-53.5 -92t-83 -64t-102 -43.5t-123.5 -31.5q71 -77 219 -250t230 -260q33 -35 78.5 -70t73.5 -43
q42 -12 48 -20q3 -4 3 -11q0 -10 -7 -13t-28 -3q-12 0 -74 4q-16 0 -47 1t-45 1h-152q-63 82 -193.5 242.5t-193.5 242.5q-9 12 -26.5 34.5t-24 31t-20 24t-20.5 21.5t-19 15t-22 12t-23.5 5.5t-28.5 2.5q-39 0 -39 -35v-342q0 -117 30 -165t99 -50q47 -1 59.5 -5.5
t12.5 -17.5t-9 -17.5t-30 -4.5q-31 0 -125 3t-143 3t-143.5 -3t-125.5 -3q-21 0 -30 4.5t-9 17.5t12.5 17.5t59.5 5.5q69 2 99 50t30 165zM645 1333q-125 0 -125 -43v-608h94q200 0 285.5 72.5t85.5 263.5q0 315 -340 315z" />
    <glyph glyph-name="S" unicode="S" 
d="M90 55v326q0 35 29 35q25 0 31 -39q5 -32 18.5 -72t44 -93.5t71.5 -95.5t108 -72t147 -30q150 0 231.5 80.5t81.5 194.5q0 59 -20 106.5t-55 80.5t-81 62t-98.5 50t-107 45.5t-107 48t-98.5 57.5t-81 74t-55 98t-20 129q0 94 38.5 167.5t101 116t133.5 64t145 21.5
q72 0 128 -14.5t82 -31.5t54 -31.5t51 -14.5q14 0 21.5 19t13.5 38t16 19q25 0 25 -35q0 -23 3 -149t3 -146q0 -41 -22 -41q-20 0 -41 74q-35 123 -127 192.5t-201 69.5t-182.5 -63t-73.5 -158q0 -74 41.5 -130t108 -92.5t146.5 -69.5t160 -72t146.5 -88t108 -128.5
t41.5 -183.5q0 -99 -40 -177.5t-110 -129t-162 -77t-198 -26.5q-76 0 -143 19t-103.5 41.5t-69 41.5t-47.5 19q-11 0 -18.5 -10.5t-11 -23.5t-11 -23.5t-18.5 -10.5q-13 0 -20 11.5t-7 27.5z" />
    <glyph glyph-name="T" unicode="T" horiz-adv-x="1593" 
d="M690 254v1028q0 13 -6.5 19.5t-38 11.5t-93 6.5t-177.5 1.5q-60 0 -101.5 -6.5t-79.5 -24.5t-58.5 -54.5t-24.5 -92.5q-3 -45 -10 -58.5t-21 -13.5q-17 0 -17 27v250q0 15 7.5 22.5t27.5 7.5h1397q20 0 27.5 -7.5t7.5 -22.5v-250q0 -27 -17 -27q-14 0 -20.5 13t-9.5 59
q-4 56 -24.5 92.5t-58.5 54.5t-79.5 24.5t-101.5 6.5q-116 0 -177.5 -1.5t-93.5 -6.5t-38.5 -11.5t-6.5 -19.5v-1028q0 -117 30 -165t99 -50q47 -1 59.5 -5.5t12.5 -17.5t-9 -17.5t-30 -4.5q-31 0 -125 3t-143 3t-143.5 -3t-125.5 -3q-21 0 -30 4.5t-9 17.5t12.5 17.5
t59.5 5.5q69 2 99 50t30 165z" />
    <glyph glyph-name="U" unicode="U" horiz-adv-x="1705" 
d="M1409 1112v-610q0 -99 -16.5 -178t-56.5 -148t-104 -115t-162.5 -72t-227.5 -26q-247 0 -389 111t-142 334v708q0 118 -30.5 166.5t-100.5 50.5q-47 1 -59 5.5t-12 17.5t8.5 17.5t29.5 4.5q31 0 125.5 -3t143.5 -3t143 3t125 3q21 0 30 -4.5t9 -17.5t-12.5 -17.5
t-59.5 -5.5q-70 -2 -102.5 -51t-32.5 -166v-696q0 -381 402 -381q85 0 152.5 17.5t112.5 45.5t77.5 72t50.5 86.5t28 101t12.5 103.5t2.5 104v543q0 28 -0.5 43t-2.5 41.5t-7 41.5t-14 34.5t-22 29.5t-34 18t-47 9q-47 2 -65.5 7t-18.5 18q0 24 35 24q19 0 84.5 -3t121.5 -3
t118 3t81 3q31 0 31 -24q0 -14 -13.5 -19t-58.5 -6q-36 -1 -61.5 -15.5t-39 -34t-21.5 -51t-9.5 -56t-1.5 -60.5z" />
    <glyph glyph-name="V" unicode="V" horiz-adv-x="1593" 
d="M559 469l-240 614q-57 142 -79.5 179t-67.5 55q-16 6 -49.5 11t-34.5 5q-18 3 -18 23q0 14 5 18t17 4q49 0 147.5 -3t147.5 -3q62 0 120 1.5t92.5 3t39.5 1.5q33 0 33 -24q0 -17 -12.5 -22t-41.5 -8q-7 -1 -10 -1q-104 -7 -104 -70q0 -14 1.5 -28.5t6 -35t9 -37t15.5 -48
t19 -54t26 -69.5t31 -80.5l39 -100.5t45 -116l181 -463q190 467 268 672q76 202 90 267q10 43 10 75q0 53 -35 73t-106 27q-23 2 -23 25q0 18 27 18q28 0 107.5 -3t115.5 -3q30 0 88 3t86 3q33 0 33 -22q0 -21 -61 -31q-37 -7 -63 -22t-46.5 -46t-31.5 -54.5t-31 -74.5
q-192 -492 -474 -1165h-67z" />
    <glyph glyph-name="W" unicode="W" horiz-adv-x="2048" 
d="M633 -37l-395 1204q-30 91 -57 120.5t-75 31.5q-38 1 -52.5 8.5t-14.5 24.5q0 15 9.5 20.5t31.5 5.5q18 0 121 -3t147 -3q51 0 140.5 3t103.5 3q20 0 27.5 -0.5t15.5 -6t8 -17.5q0 -19 -12.5 -23t-46.5 -4q-54 0 -90.5 -22t-36.5 -72q0 -60 55 -236l223 -743h4l291 946
q11 37 26.5 100t18.5 72h66l344 -1108h4l127 410q129 400 129 508t-62 133q-11 4 -26 7.5t-37.5 7t-30.5 5.5q-18 2 -18 25q0 18 20 18q9 0 88.5 -3t128.5 -3q28 0 83 3t81 3q37 0 37 -22q0 -13 -14 -19.5t-60 -17.5q-21 -5 -38.5 -19.5t-27.5 -27t-23 -43t-17 -42.5
t-17 -50l-145 -473l-129 -404l-102 -297h-68q-23 69 -167.5 542.5t-158.5 514.5h-4q-173 -576 -336 -1057h-69z" />
    <glyph glyph-name="X" unicode="X" horiz-adv-x="1593" 
d="M713 643l-482 614q-57 73 -112 76q-24 1 -31.5 6t-7.5 17q0 13 9 17.5t30 4.5q42 0 126 -3t126 -3t126 3t126 3q23 0 32 -4.5t9 -17.5t-12.5 -17.5t-59.5 -5.5q-86 -3 -86 -39q0 -46 49 -108l303 -387l191 254q92 123 92 188q0 39 -22 64.5t-52 27.5q-47 1 -59.5 5.5
t-12.5 17.5t9 17.5t30 4.5q32 0 96 -3t95 -3t95 3t95 3q21 0 30 -4.5t9 -17.5q0 -12 -9 -17t-40 -6q-69 -2 -145 -100l-369 -475l506 -635q65 -81 129 -84q27 -1 35 -6t8 -17q0 -13 -9 -17.5t-30 -4.5q-45 0 -134 3t-134 3t-134.5 -3t-134.5 -3q-21 0 -30 4.5t-9 17.5
t12.5 17.5t59.5 5.5q94 5 94 61q0 34 -78 133l-292 367l-252 -334q-68 -91 -68 -149q0 -36 27 -56t63 -22q47 -1 59.5 -5.5t12.5 -17.5t-9 -17.5t-30 -4.5q-35 0 -104.5 3t-104.5 3t-104.5 -3t-104.5 -3q-21 0 -30 4.5t-9 17.5q0 12 7 16.5t28 4.5q104 4 213 141z" />
    <glyph glyph-name="Y" unicode="Y" horiz-adv-x="1478" 
d="M625 254v268l-353 639q-52 97 -87 134.5t-97 37.5q-12 0 -18 1t-12.5 6t-6.5 16q0 16 8.5 19t40.5 3q41 0 121.5 -3t120.5 -3t120 3t120 3q32 0 41.5 -3.5t9.5 -18.5q0 -23 -43 -23t-81 -16.5t-38 -54.5q0 -37 43 -117q40 -78 91 -173t87 -159.5t72.5 -131t40.5 -73.5
l69 113q80 130 109.5 179t81 139t71 138t19.5 76q0 15 -1.5 24.5t-8 23.5t-23 22t-43.5 10q-44 3 -57.5 7t-13.5 16q0 22 24 22q20 0 86.5 -3t100.5 -3q29 0 87.5 3t86.5 3q34 0 34 -20q0 -22 -53 -27q-69 -10 -145 -135l-195 -328l-196 -313v-301q0 -117 30 -165t99 -50
q47 -1 59 -5.5t12 -17.5t-9 -17.5t-30 -4.5q-31 0 -125 3t-143 3t-143 -3t-125 -3q-21 0 -30 4.5t-9 17.5t12.5 17.5t59.5 5.5q69 2 99 50t30 165z" />
    <glyph glyph-name="Z" unicode="Z" horiz-adv-x="1251" 
d="M1147 1378l-811 -1321v-6h416q138 0 210 34t115 132q15 34 35 117q1 3 3 11t3 11t4 7.5t6.5 6t8.5 1.5q22 0 22 -29q0 -2 -10 -103t-10 -192q0 -53 -58 -53h-1020l816 1327h-220q-103 0 -165.5 -2t-115 -14t-78.5 -24.5t-51 -45.5t-37.5 -64t-33.5 -94q-5 -16 -22 -16
q-23 0 -23 22q0 11 9.5 89t9.5 163q0 13 1 20.5t8.5 15t20.5 7.5h967z" />
    <glyph glyph-name="bracketleft" unicode="[" horiz-adv-x="681" 
d="M168 -397v1769h444v-65h-309v-1639h309v-65h-444z" />
    <glyph glyph-name="backslash" unicode="\" horiz-adv-x="569" 
d="M459 -37l-471 1446h123l471 -1446h-123z" />
    <glyph glyph-name="bracketright" unicode="]" horiz-adv-x="681" 
d="M379 -332v1639h-309v65h444v-1769h-444v65h309z" />
    <glyph glyph-name="asciicircum" unicode="^" horiz-adv-x="1228" 
d="M918 625l-304 602l-303 -602h-123l371 747h111l370 -747h-122z" />
    <glyph glyph-name="underscore" unicode="_" horiz-adv-x="1024" 
d="M1024 -256h-1024v102h1024v-102z" />
    <glyph glyph-name="grave" unicode="`" horiz-adv-x="569" 
d="M358 1098l-315 198q-61 38 -61 84q0 30 19.5 50t49.5 20q39 0 88 -49l301 -303h-82z" />
    <glyph glyph-name="a" unicode="a" horiz-adv-x="1024" 
d="M76 160q0 72 39.5 123.5t136 103t285.5 121.5q80 29 97 49t17 70q0 145 -38.5 193t-166.5 48q-105 0 -142 -28.5t-42 -91.5q-6 -84 -76 -84q-35 0 -58.5 17t-23.5 52q0 80 94.5 133.5t254.5 53.5q198 0 280 -67.5t82 -199.5q0 -50 -5 -219t-5 -262q0 -62 20.5 -91.5
t69.5 -29.5q21 0 44.5 19.5t27.5 19.5q16 0 16 -20q0 -31 -49.5 -66t-114.5 -35q-146 0 -184 140q-161 -140 -330 -140q-229 0 -229 191zM639 211l12 295q-228 -88 -311.5 -151.5t-83.5 -161.5q0 -55 37 -102.5t102 -47.5q88 0 217 100q24 19 27 68z" />
    <glyph glyph-name="b" unicode="b" 
d="M170 27v1198q0 87 -19.5 111t-95.5 24q-23 0 -31 5.5t-8 18.5q0 18 19 21q62 6 135 17.5t118 19.5t48 8q14 0 14 -27v-606h4q65 51 127.5 77t161.5 26q127 0 226 -62t151.5 -166t52.5 -229q0 -113 -33 -203t-82 -143t-113 -88t-119.5 -47.5t-107.5 -12.5
q-61 0 -106.5 8.5t-84 29.5t-62.5 40t-66 57l-70 -77q-24 -27 -30 -27q-29 0 -29 27zM350 672v-469q0 -51 22.5 -88.5t59 -57t72.5 -28.5t71 -9q38 0 74.5 8.5t79.5 37t74.5 74t52.5 127t21 188.5q0 58 -7 110t-26.5 108t-51 95.5t-85.5 65.5t-125 26q-99 0 -165.5 -51
t-66.5 -137z" />
    <glyph glyph-name="c" unicode="c" horiz-adv-x="909" 
d="M59 432q0 213 150 350.5t375 137.5q35 0 75 -6t84 -19.5t72.5 -41.5t28.5 -65q0 -28 -19 -48.5t-51 -20.5q-24 0 -36 11t-33 46q-34 63 -61.5 84t-92.5 21q-32 0 -65 -8.5t-74.5 -38.5t-73 -78t-53 -136t-21.5 -204q0 -102 26.5 -179.5t62 -117t82 -63.5t77 -30t55.5 -6
q27 0 57.5 4t78.5 27t69 64q1 3 4 8.5t4.5 8.5t4.5 7.5t4.5 7t4.5 5.5t6 4.5t7 2.5t8 1q17 0 28 -11t11 -26q0 -21 -20.5 -46t-59.5 -50t-108.5 -41.5t-155.5 -16.5q-67 0 -129 14t-121.5 48.5t-103.5 86t-70.5 132.5t-26.5 182z" />
    <glyph glyph-name="d" unicode="d" horiz-adv-x="1251" 
d="M569 868q-50 0 -97 -24t-88 -72t-66 -131.5t-25 -191.5q0 -52 4.5 -99t15.5 -97.5t32 -91t50.5 -73t74 -50.5t99.5 -18q53 0 94 11.5t69.5 30.5t48.5 53t32 69.5t18.5 89.5t8.5 104t2 122q0 70 -5.5 120t-22.5 100t-46 80t-79 49t-120 19zM1022 1423v-1169
q0 -63 9 -100.5t30 -53.5t39.5 -20t54.5 -6h6q19 0 19 -13q0 -19 -19 -24l-260 -68q-27 76 -41 164q-21 -27 -34 -42t-43.5 -42t-61 -41.5t-79.5 -26.5t-105 -12q-90 0 -171 32.5t-143 92.5t-98.5 152t-36.5 203q0 194 128.5 332.5t328.5 138.5q68 0 120 -11t87 -33.5
t50 -36.5t36 -38h4v424q0 87 -19.5 111t-95.5 24q-23 0 -31 5.5t-8 18.5q0 18 19 21q62 6 135 17.5t118 19.5t48 8q14 0 14 -27z" />
    <glyph glyph-name="e" unicode="e" horiz-adv-x="1024" 
d="M291 610h436q24 0 32.5 11t8.5 53q0 34 -11 66t-34.5 62t-67.5 48t-102 18q-109 0 -175 -69t-87 -189zM922 559h-641q-9 -40 -9 -98q0 -108 31.5 -192t83 -131.5t110 -71t119.5 -23.5t111 20.5t75 45t47 45t34 20.5q8 0 15 -6t7 -16q0 -19 -22.5 -48.5t-63 -60.5
t-109 -52.5t-147.5 -21.5q-70 0 -137 15.5t-131.5 51t-112.5 88t-77 133t-29 179.5q0 134 69 246.5t178 175t230 62.5q165 0 280 -92t115 -234q0 -35 -26 -35z" />
    <glyph glyph-name="f" unicode="f" horiz-adv-x="796" 
d="M438 801v-551q0 -50 2.5 -83t12.5 -56.5t20.5 -36t35.5 -20.5t47.5 -10.5t66.5 -4.5q24 -1 33.5 -7t9.5 -20q0 -18 -19 -18q-46 0 -148 3t-137 3q-36 0 -129 -3t-122 -3q-19 0 -19 18q0 13 9.5 18.5t33.5 8.5q44 5 63 9.5t35.5 20.5t20.5 42t4 77v613h-137q-29 0 -29 28
q0 29 29 29h137q0 106 1.5 158t12.5 119t33 114q13 27 34 54.5t61 64t104 59.5t141 23q60 0 116 -14t99 -50.5t43 -89.5q0 -27 -18 -44t-45 -17q-64 0 -84 57q-12 30 -19 44.5t-21 31.5t-33.5 24t-47.5 7q-62 0 -104 -31t-61 -86.5t-25.5 -106.5t-6.5 -116v-201h224
q28 0 28 -29q0 -28 -28 -28h-224z" />
    <glyph glyph-name="g" unicode="g" 
d="M166 109q0 34 13 62.5t29.5 45.5t45 33t46.5 23t46 16q-23 9 -34 13.5t-38 19t-42.5 28t-37.5 38t-34.5 51.5t-21.5 65.5t-9 83.5q0 66 25.5 122t67 94t93.5 65t104.5 39t100.5 12q81 0 158 -30t115 -65q58 34 80 46.5t58.5 25t69.5 12.5q60 0 87.5 -28t27.5 -62
q0 -63 -61 -63q-29 0 -72 43q-19 19 -30.5 25.5t-34.5 6.5q-53 0 -93 -40q24 -35 36 -56t25 -64.5t13 -92.5q0 -22 -2 -41.5t-10.5 -53t-23.5 -61t-45 -59t-71 -53.5t-104.5 -38.5t-142.5 -19.5q-131 -7 -171 -20q-61 -20 -61 -72q0 -15 5.5 -25t17 -16.5t28.5 -10.5
t42 -6.5t55.5 -3.5t70.5 -2h5q70 -2 117.5 -4.5t107 -10t98 -20.5t79.5 -35.5t64.5 -54.5t38.5 -78.5t15 -105.5q0 -95 -41.5 -167t-109.5 -112.5t-145.5 -60.5t-160.5 -20q-210 0 -333.5 79.5t-123.5 206.5q0 66 41 121t113 55q19 0 42 -9t23 -19t-15 -23.5t-33 -27
t-33 -43t-15 -68.5q0 -19 3 -38.5t21.5 -56.5t50.5 -63.5t99.5 -47.5t159.5 -21q158 0 237.5 69t79.5 172q0 54 -20.5 92t-43 58t-77 32t-82 14.5t-99.5 5.5q-10 1 -15 1q-63 3 -105 6.5t-88 11.5t-75 21.5t-53.5 33.5t-36 50t-11.5 70zM303 590q0 -43 6 -82t21.5 -79
t39.5 -69t63.5 -47t90.5 -18q55 0 95.5 25.5t62.5 69.5t32.5 93t10.5 105q0 143 -63 214.5t-144 71.5q-108 0 -161.5 -82t-53.5 -202z" />
    <glyph glyph-name="h" unicode="h" horiz-adv-x="1251" 
d="M238 164v1061q0 87 -19.5 111t-95.5 24q-23 0 -31 5.5t-8 18.5q0 18 18 21q62 6 135 17.5t118 19.5t48 8q15 0 15 -27v-669l4 12q56 73 140 113.5t159 40.5q77 0 134.5 -14t103 -47t69 -91t23.5 -141v-463q0 -78 17 -102t60 -29q41 -4 53.5 -9t12.5 -14q0 -16 -33 -16
q-17 0 -94.5 3t-116.5 3q-38 0 -115.5 -3t-99.5 -3q-18 0 -18 18q0 15 43 21q65 9 87.5 38t22.5 93v459q0 119 -49.5 175t-150.5 56q-102 0 -177 -79.5t-75 -192.5v-418q0 -77 17.5 -101.5t60.5 -29.5q41 -4 53 -9t12 -14q0 -16 -33 -16q-17 0 -94.5 3t-116.5 3
q-38 0 -115.5 -3t-99.5 -3q-18 0 -18 18q0 15 43 21q65 9 88 38t23 93z" />
    <glyph glyph-name="i" unicode="i" horiz-adv-x="569" 
d="M211 164v559q0 51 -15 71.5t-63 20.5h-37q-39 0 -39 19q0 17 19 20q17 3 90.5 19.5t140 31.5t70.5 15q14 0 14 -21v-735q0 -77 17.5 -101.5t60.5 -29.5q41 -4 53.5 -9t12.5 -14q0 -16 -33 -16q-17 0 -94.5 3t-116.5 3q-38 0 -115.5 -3t-99.5 -3q-19 0 -19 18q0 15 43 21
q65 9 88 38t23 93zM170 1262q0 46 32.5 78t78.5 32t78 -32t32 -78t-32 -78.5t-78 -32.5t-78.5 32.5t-32.5 78.5z" />
    <glyph glyph-name="j" unicode="j" horiz-adv-x="569" 
d="M242 -201v924q0 51 -15 71.5t-63 20.5h-37q-39 0 -39 19q0 17 18 20q17 3 91 19.5t140.5 31.5t70.5 15q14 0 14 -21v-1096q0 -91 -33.5 -164.5t-89.5 -118.5t-124 -69t-140 -24q-130 0 -210.5 41.5t-80.5 95.5q0 63 66 63q52 0 77 -57q43 -98 148 -98q103 0 155 76.5
t52 250.5zM201 1262q0 46 32 78t78 32t78.5 -32t32.5 -78t-32.5 -78.5t-78.5 -32.5t-78 32.5t-32 78.5z" />
    <glyph glyph-name="k" unicode="k" 
d="M238 164v1061q0 73 -20 97t-95 24q-39 0 -39 18q0 17 18 20q17 3 90.5 19.5t140 31.5t70.5 15q15 0 15 -20v-981q4 0 77.5 72.5t148.5 160.5t75 119q0 11 -4.5 19t-9.5 12.5t-17 8.5t-16.5 5t-18.5 4q-3 0 -10.5 1.5l-10 2t-8 1.5t-8 3t-5.5 4.5t-4 6t-1 8.5q0 18 35 18
q36 0 90 -3t62 -3q33 0 89 3t58 3q29 0 29 -21q0 -14 -11 -18.5t-35 -5.5h-8q-56 -4 -102 -59q-90 -111 -244 -269l441 -438q29 -29 59 -37q26 -7 37.5 -14t11.5 -21q0 -18 -22 -18q-3 0 -40 3t-69 3q-30 0 -67.5 -3t-45.5 -3q-13 0 -33.5 17.5t-68.5 66.5l-285 295
q-34 37 -69 37v-246q0 -77 17.5 -101.5t60.5 -29.5q41 -4 53 -9t12 -14q0 -16 -33 -16q-17 0 -94.5 3t-116.5 3q-38 0 -115.5 -3t-99.5 -3q-18 0 -18 18q0 15 43 21q65 9 88 38t23 93z" />
    <glyph glyph-name="l" unicode="l" horiz-adv-x="569" 
d="M199 164v1061q0 87 -19.5 111t-95.5 24q-23 0 -31 5.5t-8 18.5q0 18 18 21q62 6 133 17.5t114.5 19.5t47.5 8q21 0 21 -23v-1263q0 -77 17.5 -101.5t60.5 -29.5q41 -4 53 -9t12 -14q0 -16 -33 -16q-17 0 -94 3t-116 3q-38 0 -116 -3t-100 -3q-18 0 -18 18q0 15 43 21
q65 9 88 38t23 93z" />
    <glyph glyph-name="m" unicode="m" horiz-adv-x="1820" 
d="M225 164v471q0 95 -19.5 134.5t-68.5 39.5t-56 8q-5 5 -5 14q0 20 26 23q33 2 93.5 18.5t108.5 32t52 15.5q33 0 33 -175q69 93 143 134t187 41q103 0 179 -48.5t101 -130.5q14 51 101 115t200 64q95 0 157.5 -20t99 -64t51 -105t14.5 -151v-416q0 -64 23 -93t88 -38
q43 -6 43 -21q0 -18 -19 -18q-22 0 -99.5 3t-115.5 3q-39 0 -116.5 -3t-94.5 -3q-33 0 -33 16q0 9 12.5 14t53.5 9q43 5 60.5 29.5t17.5 101.5v452q0 106 -43.5 172t-132.5 66q-104 0 -178 -73t-74 -187v-430q0 -63 24 -92.5t90 -38.5q43 -6 43 -21q0 -18 -18 -18
q-20 0 -101.5 3t-127.5 3t-128 -3t-102 -3q-18 0 -18 18q0 15 43 21q66 9 90.5 38.5t24.5 92.5v452q0 105 -44 171.5t-133 66.5q-104 0 -177.5 -73t-73.5 -187v-430q0 -78 17 -102t60 -29q41 -4 53.5 -9t12.5 -14q0 -16 -33 -16q-17 0 -94.5 3t-116.5 3q-38 0 -115.5 -3
t-99.5 -3q-18 0 -18 18q0 15 43 21q65 9 87.5 38t22.5 93z" />
    <glyph glyph-name="n" unicode="n" horiz-adv-x="1251" 
d="M238 164v471q0 95 -19.5 134.5t-68.5 39.5t-57 8q-5 5 -5 14q0 20 27 23q33 2 93.5 18.5t108.5 32t52 15.5q32 0 32 -181h5q48 85 135 133t180 48q77 0 134.5 -14t103 -47t69 -91t23.5 -141v-463q0 -78 17 -102t60 -29q41 -4 53.5 -9t12.5 -14q0 -16 -33 -16
q-17 0 -94.5 3t-116.5 3q-38 0 -115.5 -3t-99.5 -3q-18 0 -18 18q0 15 43 21q65 9 87.5 38t22.5 93v459q0 119 -49.5 175t-150.5 56q-102 0 -177 -79.5t-75 -192.5v-418q0 -77 17.5 -101.5t60.5 -29.5q41 -4 53 -9t12 -14q0 -16 -33 -16q-17 0 -94.5 3t-116.5 3
q-38 0 -115.5 -3t-99.5 -3q-18 0 -18 18q0 15 43 21q65 9 88 38t23 93z" />
    <glyph glyph-name="o" unicode="o" 
d="M76 440q0 204 143.5 342t358.5 138q121 0 231.5 -57.5t182 -167t71.5 -244.5q0 -206 -143.5 -344t-358.5 -138q-90 0 -177 34.5t-155.5 94.5t-110.5 149.5t-42 192.5zM272 444q0 -210 74 -323t223 -113t223 113t74 323t-74 323.5t-223 113.5t-223 -113.5t-74 -323.5z" />
    <glyph glyph-name="p" unicode="p" horiz-adv-x="1251" 
d="M242 -432v1155q0 51 -15 71.5t-63 20.5h-29q-23 0 -30 3.5t-7 12.5q0 15 35 23t95 24.5t103 29t48 12.5q14 0 14 -21v-151h4q102 172 305 172q93 0 177.5 -35t149 -97.5t102.5 -156.5t38 -205q0 -132 -63.5 -237.5t-169.5 -162.5t-234 -57q-177 0 -280 109v-510
q0 -36 20.5 -58.5t57.5 -23.5q65 -3 65 -21t-33 -18q-34 0 -100 3t-100 3t-100.5 -3t-100.5 -3q-33 0 -33 18t66 21q37 1 57.5 23.5t20.5 58.5zM410 547v-240q0 -66 10.5 -112.5t37.5 -86.5t80.5 -60.5t133.5 -20.5q135 0 214 113t79 309q0 201 -75 307t-210 106
q-136 0 -203 -81t-67 -234z" />
    <glyph glyph-name="q" unicode="q" 
d="M795 -432v528q-30 -29 -50 -45t-57.5 -38.5t-85.5 -33t-108 -10.5q-97 0 -179.5 38t-137.5 102t-85.5 147t-30.5 174q0 205 139 347.5t339 142.5q112 0 200 -43q68 -33 86 -33q14 0 70.5 29.5t62.5 29.5q17 0 17 -22v-1313q0 -36 20.5 -58.5t57.5 -23.5q65 -3 65 -21
t-33 -18q-34 0 -100 3t-100 3t-100.5 -3t-100.5 -3q-33 0 -33 18t66 21q37 1 57.5 23.5t20.5 58.5zM530 20q63 0 112 21t77 52.5t46 75t24 82.5t6 81v190q0 43 -1 72t-6 69t-14 67t-26.5 56.5t-42 47t-62 29t-84.5 11.5q-136 0 -214.5 -116t-78.5 -336q0 -58 8.5 -113
t28 -108t49 -92.5t75.5 -64t103 -24.5z" />
    <glyph glyph-name="r" unicode="r" horiz-adv-x="909" 
d="M254 164v401q0 73 -5.5 119.5t-17.5 68.5t-21.5 29.5t-27.5 14.5q-11 4 -43 8t-54 9.5t-22 16.5q0 4 2 7.5t6.5 6t9 4.5t13 4t15 3.5t18.5 3.5t20 4q59 12 113.5 26.5t81 22t31.5 7.5t8.5 -1.5t5.5 -3.5t3 -6.5t1.5 -7t1 -9t0.5 -9.5l19 -176h4q31 72 107 132t186 60
q89 0 127 -31t38 -77q0 -27 -18.5 -50.5t-58.5 -23.5q-27 0 -46 18.5t-28 40t-29 40t-49 18.5q-78 0 -144.5 -74t-66.5 -193v-403q0 -77 17.5 -101.5t60.5 -29.5q41 -4 53.5 -9t12.5 -14q0 -16 -33 -16q-17 0 -94.5 3t-116.5 3q-38 0 -115.5 -3t-99.5 -3q-19 0 -19 18
q0 15 43 21q65 9 88 38t23 93z" />
    <glyph glyph-name="s" unicode="s" horiz-adv-x="796" 
d="M104 672q0 115 76.5 181.5t192.5 66.5q34 0 100 -17q52 -18 62 -18q8 0 42.5 19.5t36.5 19.5q13 0 13 -11q0 -2 -3 -34.5t-3 -57.5q0 -31 4 -76.5t4 -48.5q0 -32 -23 -32q-19 0 -33 34q-18 43 -29 64t-35 52.5t-57 45.5t-77 14q-148 0 -148 -122q0 -40 26.5 -73
t68.5 -57.5t93 -48t102 -52.5t93 -64t68.5 -89.5t26.5 -121.5q0 -49 -17.5 -96.5t-52 -88.5t-93.5 -66.5t-134 -25.5q-52 0 -99 14t-79 28t-46 14q-6 0 -35.5 -21.5t-35.5 -21.5q-11 0 -11 14l-8 217q0 9 -1 26.5t-1 26.5q0 19 19 19q14 0 24 -23q8 -26 12.5 -41.5t17 -45
t24.5 -48t32.5 -42.5t44 -37.5t57 -23.5t72.5 -10q66 0 119 39.5t53 110.5q0 46 -25.5 83t-66.5 63.5t-90 51.5t-98.5 53t-90.5 61t-66.5 83.5t-25.5 112.5z" />
    <glyph glyph-name="t" unicode="t" horiz-adv-x="681" 
d="M358 831v-595q0 -47 4 -78.5t16.5 -64.5t39.5 -49.5t69 -16.5q31 0 54 10.5t30.5 18.5t16.5 22q2 4 7 11.5t6.5 10t5.5 8t6 7l6 4.5t8.5 3.5t9.5 0.5q29 0 29 -33q0 -37 -68.5 -79t-177.5 -42q-117 0 -176.5 51t-59.5 179v632h-94q-20 0 -20 21q0 4 2 8t7.5 8t8.5 6.5
t11 7t10 5.5q60 36 108 85.5t63.5 73.5t38.5 64q7 14 17 14q22 0 22 -18v-217h217q29 0 29 -29t-29 -29h-217z" />
    <glyph glyph-name="u" unicode="u" horiz-adv-x="1251" 
d="M1024 618v-421q0 -63 10 -91t39 -28q13 0 42 3t38 3q13 0 17 -6t4 -19q0 -16 -21 -20q-158 -34 -233 -62q-20 -8 -31 -8q-21 0 -27 39q-4 20 -11 84t-7 86h-4q-61 -112 -140 -160.5t-198 -48.5q-131 0 -211 73.5t-80 219.5v492q0 54 -21 68.5t-81 19.5q-19 1 -29 3
t-18.5 8.5t-8.5 18.5q0 23 43 23q14 0 80 -3t94 -3q22 0 57 3t38 3q12 0 22 -7.5t10 -21.5l-1 -24q-2 -23 -3.5 -81.5t-1.5 -142.5v-342q0 -235 152 -235q69 0 122.5 26t85.5 66t53 97.5t29.5 111.5t10.5 117v295q0 54 -21.5 68.5t-81.5 19.5q-19 1 -29 3t-18 8.5t-8 18.5
q0 23 43 23q15 0 78.5 -3t85.5 -3q28 0 65 3t39 3q12 0 22.5 -7.5t10.5 -21.5l-2 -24q-1 -23 -2.5 -81.5t-1.5 -142.5z" />
    <glyph glyph-name="v" unicode="v" horiz-adv-x="1024" 
d="M494 -31l-344 815q-12 30 -26.5 45t-37.5 21q-3 1 -11.5 2.5t-14.5 3t-13 4.5t-10.5 7t-3.5 10q0 18 26 18q33 0 97.5 -3t97.5 -3q30 0 92.5 3t93.5 3q27 0 27 -18q0 -14 -14 -18.5t-47 -7.5q-9 -1 -13 -1q-47 -6 -47 -47q0 -36 23 -88l204 -514q78 170 203 487
q23 59 23 103q0 52 -74 65q-45 6 -45 25q0 14 20 14q17 0 66 -3t74 -3q21 0 66.5 3t64.5 3q20 0 20 -14q0 -15 -45 -25q-33 -8 -53 -32t-49 -97q-220 -553 -312 -758h-38z" />
    <glyph glyph-name="w" unicode="w" horiz-adv-x="1478" 
d="M436 -31l-243 736q-26 79 -48 112t-59 33q-15 0 -34 5.5t-19 18.5q0 14 10 17.5t33 3.5q26 0 87 -3t103 -3q52 0 119.5 3t75.5 3q33 0 33 -23q0 -11 -11.5 -15t-48.5 -5q-31 -2 -54.5 -20.5t-23.5 -51.5q0 -13 4 -34t9 -38t11 -38t7 -25l135 -432h4l246 682h27l264 -690
h4l158 483q22 57 22 103q0 29 -20 44t-47 19q-52 8 -52 27q0 14 21 14q17 0 65.5 -3t73.5 -3q21 0 66.5 3t64.5 3q21 0 21 -14q0 -15 -35 -23q-42 -10 -65 -34t-48 -97l-254 -758h-43l-268 654l-244 -654h-47z" />
    <glyph glyph-name="x" unicode="x" 
d="M586 537l80 102q72 94 87 117t15 45q0 40 -51 49q-18 3 -27 5t-19.5 5t-15 8t-4.5 11q0 16 29 16q23 0 70.5 -2t80.5 -2q26 0 83.5 2t80.5 2q25 0 25 -18q0 -21 -41 -21q-29 0 -60.5 -21t-54 -45.5t-74.5 -85.5q-8 -9 -12 -14l-67 -80q-6 -8 -30 -36.5t-43 -52.5t-22 -29
l314 -369q21 -25 33.5 -37.5t29.5 -24.5t35 -16q6 -1 21 -3t21 -3.5t14.5 -4t12 -7t3.5 -11.5q0 -22 -31 -22q-21 0 -90 3t-113 3q-57 0 -127 -3t-92 -3q-35 0 -35 16q0 22 50 25q69 8 69 35q0 12 -10 30t-62.5 84t-156.5 185l-158 -199q-31 -35 -31 -74q0 -24 29 -41
q8 -4 32.5 -10t41.5 -13.5t16 -17.5q-4 -20 -24 -20q-25 0 -81.5 3t-97.5 3q-33 0 -81 -3t-72 -3q-10 0 -17 4t-8.5 7.5t-1.5 6.5q0 14 9.5 19.5t31.5 7.5q37 3 73.5 25.5t55 42t43.5 49.5l207 254l-317 387q-35 42 -64 53q-49 14 -49 29q0 10 7 13t28 3q11 0 67.5 -2.5
t112.5 -3.5q37 0 107 3t88 3q34 0 34 -16q0 -3 -2 -6t-5.5 -5t-7.5 -3.5t-10 -3t-10 -2t-11.5 -1.5t-10.5 -2q-32 -5 -44.5 -11t-12.5 -22q0 -47 213 -286h4z" />
    <glyph glyph-name="y" unicode="y" horiz-adv-x="1024" 
d="M375 715l205 -514q72 155 202 487q23 59 23 103q0 52 -72 65q-47 6 -47 25q0 14 21 14q17 0 65.5 -3t73.5 -3q21 0 66.5 3t64.5 3q20 0 20 -14q0 -15 -43 -25q-34 -8 -54 -32t-50 -97q-229 -569 -428 -1016q-76 -174 -116.5 -229t-98.5 -55q-20 0 -33.5 15t-13.5 44
q0 31 32.5 57.5t75 50.5t54.5 41q1 0 41 82t80.5 174.5t41.5 114.5l-329 778q-12 30 -27 45t-39 21q-2 1 -19 4.5t-24.5 8.5t-7.5 14q0 18 27 18q33 0 97 -3t97 -3q31 0 94 3t92 3q27 0 27 -18q0 -4 -1 -7t-3.5 -5.5t-4.5 -4t-6.5 -3t-8 -2.5t-10 -1.5t-10 -1t-11.5 -1.5
t-12 -1q-54 -5 -54 -47q0 -36 23 -88z" />
    <glyph glyph-name="z" unicode="z" horiz-adv-x="909" 
d="M836 895l-541 -856h162q96 0 157 7t93.5 24t46 35t22.5 49q19 71 35 71q25 0 25 -16q0 -29 -5 -78l-12 -137h-706q-37 0 -37 12q0 9 20 41l518 803h-202q-156 0 -191 -35q-14 -13 -29 -47t-28 -59t-25 -25q-16 0 -16 33q0 7 4 65l10 113h699z" />
    <glyph glyph-name="braceleft" unicode="{" horiz-adv-x="681" 
d="M268 725v356q0 89 19 149.5t54.5 90t75 40.5t93.5 11h61v-39q-95 -18 -131.5 -77t-36.5 -171v-329q0 -117 -29 -178t-112 -89v-4q83 -28 112 -88.5t29 -177.5v-330q0 -112 36.5 -170.5t131.5 -76.5v-39h-61q-54 0 -93.5 11t-75 40.5t-54.5 90t-19 149.5v356
q0 103 -32 155t-125 82q93 30 125 82.5t32 155.5z" />
    <glyph glyph-name="bar" unicode="|" horiz-adv-x="569" 
d="M223 -438v2048h123v-2048h-123z" />
    <glyph glyph-name="braceright" unicode="}" horiz-adv-x="681" 
d="M279 756v329q0 112 -36.5 171t-131.5 77v39h61q54 0 93.5 -11t75 -40.5t54.5 -90t19 -149.5v-356q0 -103 32 -155.5t125 -82.5q-93 -30 -125 -82t-32 -155v-356q0 -89 -19 -149.5t-54.5 -90t-75 -40.5t-93.5 -11h-61v39q95 18 131.5 76.5t36.5 170.5v330q0 117 29 177.5
t112 88.5v4q-83 28 -112 89t-29 178z" />
    <glyph glyph-name="asciitilde" unicode="~" horiz-adv-x="1228" 
d="M215 391l-74 88q53 86 111.5 126t142.5 40q105 0 242 -65q140 -66 197 -66q48 0 90 32.5t90 98.5l73 -88q-58 -83 -119.5 -124.5t-136.5 -41.5q-90 0 -237 66q-145 65 -205 65q-101 0 -174 -131z" />
    <glyph glyph-name="uni00A0" unicode="&#xa0;" horiz-adv-x="569" 
 />
    <glyph glyph-name="cent" unicode="&#xa2;" 
d="M428 391l274 692q-33 11 -61 11q-66 0 -117.5 -27t-83 -69t-52 -100t-28.5 -114t-8 -116q0 -183 76 -277zM266 -23l113 287q-107 48 -169.5 158t-62.5 231q0 207 142.5 347.5t349.5 140.5q15 -1 42 -2t42 -2l92 227h76l-94 -240q49 -15 87 -46.5t38 -76.5
q0 -28 -19.5 -47.5t-48.5 -19.5q-42 0 -63.5 32t-26.5 78h-4l-277 -710q94 -58 179 -58q67 0 123 35t122 99l41 -41q-61 -75 -151 -116.5t-187 -41.5q-75 0 -168 27l-100 -261h-76z" />
    <glyph glyph-name="sterling" unicode="&#xa3;" 
d="M125 682v72h246q-19 52 -34 131.5t-15 122.5q0 196 101.5 298.5t270.5 102.5q86 0 154 -19t107.5 -50t60 -66t20.5 -70q0 -37 -22.5 -61.5t-57.5 -24.5q-17 0 -30 3t-22.5 12t-15 14t-11.5 22.5t-7.5 22t-6 27.5t-5.5 26q-6 27 -14.5 46t-25.5 39t-47.5 30t-74.5 10
q-23 0 -48 -5.5t-55 -22t-53.5 -41.5t-39 -68.5t-15.5 -99.5q0 -50 12.5 -115.5t33.5 -146.5t28 -117h340v-72h-321q24 -103 24 -211q0 -168 -59 -291q142 -57 288 -57q90 0 145 29.5t71 70.5q8 25 26 25q17 0 17 -27q0 -103 -75.5 -180.5t-176.5 -77.5q-61 0 -125.5 22
t-108.5 46.5t-119 72.5q-22 -29 -38 -46t-48 -43t-74.5 -39t-93.5 -13q-57 0 -106 37.5t-49 105.5q0 71 54.5 115.5t127.5 44.5q91 0 199 -57q16 43 16 84q0 64 -13.5 127.5t-68.5 261.5h-266zM244 215q-42 0 -79.5 -25.5t-37.5 -80.5q0 -41 31 -68t78 -27q63 0 121.5 35
t74.5 92q-102 74 -188 74z" />
    <glyph glyph-name="currency" unicode="&#xa4;" 
d="M188 1024l-110 111l53 53l111 -111q148 115 327 115q185 0 328 -111l111 111l53 -53l-111 -111q127 -159 127 -338q0 -171 -127 -330l111 -110l-53 -53l-111 110q-154 -119 -328 -119q-179 0 -327 115l-111 -110l-53 53l110 110q-127 159 -127 334t127 334zM995 690
q0 177 -124.5 301.5t-301.5 124.5t-301.5 -124.5t-124.5 -301.5t124.5 -301.5t301.5 -124.5t301.5 124.5t124.5 301.5z" />
    <glyph glyph-name="yen" unicode="&#xa5;" 
d="M481 254v145h-307v74h307v49l-80 189h-227v73h197l-162 377q-21 52 -32 75t-28.5 50t-36 37t-44.5 10q-9 0 -14 1t-10 6t-5 16q0 16 6.5 19t32.5 3q32 0 94 -3t92 -3t92 3t93 3q24 0 31 -3.5t7 -18.5q0 -23 -32 -23q-33 0 -63 -16.5t-30 -54.5q0 -11 1.5 -22t5.5 -24
t7 -21.5t9.5 -25t9.5 -24.5q66 -164 150 -361l76 -176l81 176q94 197 140.5 309.5t46.5 159.5q0 18 -2 27.5t-15.5 22t-40.5 20.5q-36 11 -45.5 16.5t-9.5 16.5q0 22 19 22q16 0 66.5 -3t76.5 -3q22 0 67 3t68 3q27 0 27 -20q0 -21 -41 -27q-54 -10 -113 -135l-149 -328
l-41 -84h209v-73h-244l-76 -156v-82h320v-74h-320v-145q0 -116 23 -164.5t75 -50.5q37 -1 46.5 -5.5t9.5 -17.5t-6.5 -17.5t-22.5 -4.5q-24 0 -96.5 3t-110.5 3q-39 0 -111.5 -3t-95.5 -3q-30 0 -30 22q0 13 10 17.5t45 5.5q53 2 76.5 50t23.5 165z" />
    <glyph glyph-name="brokenbar" unicode="&#xa6;" horiz-adv-x="569" 
d="M223 -182v512h123v-512h-123zM223 842v512h123v-512h-123z" />
    <glyph glyph-name="section" unicode="&#xa7;" 
d="M455 1040l221 -182q198 -164 198 -328q0 -119 -71 -185t-164 -66q-23 0 -31 2l-4 -5q189 -138 189 -299q0 -47 -17.5 -91t-51.5 -82.5t-94 -61.5t-136 -23q-116 0 -197.5 63t-81.5 146q0 49 34 79t79 30q35 0 63.5 -24t28.5 -64q0 -29 -16.5 -52t-33 -37t-16.5 -20
q0 -29 42 -52.5t108 -23.5q81 0 129.5 43t48.5 111q0 50 -38.5 103t-141.5 133l-160 122q-192 151 -192 320q0 128 68 193t169 65q27 0 39 -2v4q-109 83 -152 154.5t-43 152.5q0 77 43 134.5t107 84.5t137 27q116 0 188 -63t72 -136q0 -53 -29 -81.5t-79 -28.5
q-41 0 -69 24.5t-28 63.5q0 25 17.5 48t35 40t17.5 27q0 23 -34 42t-105 19q-70 0 -116 -40.5t-46 -102.5q0 -90 113 -181zM260 674q0 -86 82 -168q182 -182 281 -182q68 0 104.5 43t36.5 108q0 49 -66.5 129.5t-155.5 142.5t-147 62q-54 0 -94.5 -37t-40.5 -98z" />
    <glyph glyph-name="dieresis" unicode="&#xa8;" horiz-adv-x="569" 
d="M385 1253q0 43 29.5 73t72.5 30t73 -30t30 -73t-30 -72.5t-73 -29.5t-72.5 29.5t-29.5 72.5zM-20 1253q0 43 29.5 73t72.5 30t72.5 -30t29.5 -73t-29.5 -72.5t-72.5 -29.5t-72.5 29.5t-29.5 72.5z" />
    <glyph glyph-name="copyright" unicode="&#xa9;" horiz-adv-x="1515" 
d="M35 686q0 196 97 362.5t263.5 263.5t362.5 97t362.5 -97t263.5 -263.5t97 -362.5t-97 -362.5t-263.5 -263.5t-362.5 -97t-362.5 97t-263.5 263.5t-97 362.5zM117 686q0 -130 51 -248.5t137 -204.5t204.5 -137t248.5 -51t248.5 51t204.5 137t137 204.5t51 248.5t-51 248.5
t-137 204.5t-204.5 137t-248.5 51t-248.5 -51t-204.5 -137t-137 -204.5t-51 -248.5zM1087 526v-223q0 -18 -16 -18q-14 0 -14 24q0 23 -23 23q-13 0 -34 -13t-44 -29t-72 -29t-110 -13q-212 0 -328 117.5t-116 296.5q0 90 24.5 166t67 129t99.5 90.5t122.5 55t136.5 17.5
q70 0 121.5 -16t78 -31.5t34.5 -15.5q15 0 20.5 21.5t16.5 21.5q14 0 14 -17q0 -31 5 -97t5 -99q0 -29 -12 -29q-16 0 -23 41q-5 27 -22 57.5t-46.5 63t-79 53.5t-110.5 21q-57 0 -107.5 -23t-95 -71.5t-70.5 -136t-26 -204.5q0 -103 28.5 -181t74.5 -120.5t95.5 -63
t100.5 -20.5q62 0 109.5 20t78.5 56.5t50 74t33 85.5q9 32 12.5 39.5t9.5 7.5q8 0 10 -6.5t2 -24.5z" />
    <glyph glyph-name="guillemotleft" unicode="&#xab;" horiz-adv-x="1024" 
d="M834 709l-183 -244q-10 -15 -10 -25q0 -9 10 -24l183 -244q14 -19 14 -27q0 -16 -14 -16q-8 0 -21 10l-293 269q-26 26 -26 32q0 7 26 33l293 268q15 11 21 11q14 0 14 -17q0 -7 -14 -26zM516 709l-182 -244q-10 -15 -10 -25q0 -9 10 -24l182 -244q14 -19 14 -27
q0 -16 -14 -16q-7 0 -20 10l-293 269q-27 27 -27 32q0 6 27 33l293 268q15 11 20 11q14 0 14 -17q0 -7 -14 -26z" />
    <glyph glyph-name="logicalnot" unicode="&#xac;" horiz-adv-x="1228" 
d="M1010 274v388h-914v122h1037v-510h-123z" />
    <glyph glyph-name="uni00AD" unicode="&#xad;" horiz-adv-x="681" 
d="M88 387v135h506v-135h-506z" />
    <glyph glyph-name="registered" unicode="&#xae;" horiz-adv-x="757" 
d="M379 688q-149 0 -255 106t-106 255q0 153 105.5 256.5t255.5 103.5q149 0 254.5 -105.5t105.5 -254.5t-105.5 -255t-254.5 -106zM66 1049q0 -137 88.5 -225.5t224.5 -88.5t224.5 88.5t88.5 225.5t-88 225t-225 88q-135 0 -224 -90t-89 -223zM246 932v260q0 35 -9 49
t-30 14q-21 2 -21 9q0 6 11 6q9 0 37.5 -1t44.5 -1q17 0 53 1t53 1q63 0 99 -27.5t36 -79.5q-4 -52 -32 -74t-85 -34q22 -24 67 -76t69 -78q21 -25 45 -33q2 -1 5 -2t4 -1.5t2.5 -1.5t2 -2t0.5 -3q0 -4 -10 -4q-13 0 -23 2h-71q-20 24 -58.5 72t-58.5 73q-25 34 -35 39
q-8 4 -20 4q-13 0 -13 -10v-102q0 -35 9 -49.5t30 -14.5q23 -2 23 -8t-13 -6q-9 0 -37 1t-42 1q-16 0 -44.5 -1t-37.5 -1q-11 0 -11 6t21 8q21 0 30 14.5t9 49.5zM309 1061h29q60 0 85.5 21.5t25.5 78.5q0 94 -101 94q-39 0 -39 -12v-182z" />
    <glyph glyph-name="macron" unicode="&#xaf;" horiz-adv-x="569" 
d="M551 1221h-533v84h533v-84z" />
    <glyph glyph-name="degree" unicode="&#xb0;" horiz-adv-x="819" 
d="M666 1153q0 -105 -75.5 -180.5t-180.5 -75.5q-106 0 -181 75t-75 181q-2 104 74 180t182 76q104 0 180 -76t76 -180zM598 1153q0 77 -56 132.5t-134 55.5q-76 0 -131.5 -55.5t-55.5 -132.5q0 -78 55.5 -133t133.5 -55q77 0 132.5 55t55.5 133z" />
    <glyph glyph-name="plusminus" unicode="&#xb1;" horiz-adv-x="1228" 
d="M96 0v123h1037v-123h-1037zM553 287v313h-457v123h457v313h123v-313h457v-123h-457v-313h-123z" />
    <glyph glyph-name="acute" unicode="&#xb4;" horiz-adv-x="569" 
d="M129 1098l301 303q49 49 88 49q30 0 50 -20t20 -50q0 -45 -62 -84l-315 -198h-82z" />
    <glyph glyph-name="mu" unicode="&#xb5;" horiz-adv-x="1251" 
d="M942 981v-694q0 -42 0.5 -66t2.5 -55t7 -47.5t13 -33t20.5 -23.5t30.5 -7q46 0 62 46.5t16 158.5h49q-1 -54 -4.5 -89.5t-13 -75.5t-26 -63.5t-45.5 -39t-69 -15.5q-47 0 -86.5 25.5t-58.5 75.5q-21 55 -27 217q-22 -66 -44.5 -114t-58 -96t-85.5 -73.5t-113 -25.5
q-43 0 -77.5 12t-55 27.5t-37.5 41t-23.5 40.5t-15.5 38q39 -396 39 -444q0 -60 -18.5 -106t-53.5 -46q-61 0 -61 152q0 89 20 334q9 169 9 342v602h131v-596q0 -189 18 -238q36 -90 139 -90q82 0 134.5 55.5t87.5 149.5q61 163 61 402v319h133z" />
    <glyph glyph-name="paragraph" unicode="&#xb6;" horiz-adv-x="1228" 
d="M852 1040v-895q0 -220 22 -276q8 -19 21.5 -32t34.5 -18.5t36.5 -7.5t43 -3.5t37.5 -2.5v-47h-328v1549h-94v-1549h-349v47q5 0 36 0.5t41.5 1t36 5t37.5 11.5t26 20t20 32q19 58 19 270v517q-9 0 -29 -1.5t-29 -1.5q-174 0 -270 89.5t-96 263.5q0 82 27.5 146t73 103.5
t109.5 65t130.5 35.5t142.5 10h496v-47q-24 2 -51.5 0.5t-51 -5.5t-44 -19t-30.5 -39q-18 -43 -18 -222z" />
    <glyph glyph-name="periodcentered" unicode="&#xb7;" horiz-adv-x="569" 
d="M162 584q0 51 36 87t87 36t87 -36t36 -87t-36 -87t-87 -36t-87 36t-36 87z" />
    <glyph glyph-name="guillemotright" unicode="&#xbb;" horiz-adv-x="1024" 
d="M190 172l183 244q10 15 10 24q0 10 -10 25l-183 244q-14 19 -14 26q0 17 14 17q6 0 21 -11l293 -268q26 -26 26 -33q0 -6 -26 -32l-293 -269q-13 -10 -21 -10q-14 0 -14 16q0 8 14 27zM508 172l182 244q10 15 10 24q0 10 -10 25l-182 244q-14 19 -14 26q0 17 14 17
q5 0 20 -11l293 -268q27 -27 27 -33q0 -5 -27 -32l-293 -269q-13 -10 -20 -10q-14 0 -14 16q0 8 14 27z" />
    <glyph glyph-name="onequarter" unicode="&#xbc;" horiz-adv-x="1564" 
d="M1448 225h-145v-86q0 -55 22.5 -69.5t112.5 -20.5v-49h-412v49q71 4 98 11.5t35 22.5t8 56v86h-407v45q313 389 444 527h99v-500h145v-72zM1167 297v354h-4q-31 -38 -147 -166.5t-158 -187.5h309zM551 618h-445v54q105 5 130.5 22t25.5 86v437q0 31 -0.5 40.5t-6.5 22.5
t-20 16t-40 4l-93 3v49q177 18 295 63v-635q0 -36 4 -54t22 -30.5t45 -16.5t83 -7v-54zM1225 1409l-875 -1485l-57 43l872 1479z" />
    <glyph glyph-name="onehalf" unicode="&#xbd;" horiz-adv-x="1564" 
d="M518 618h-444v54q104 3 129.5 21t25.5 87v437q0 52 -9.5 67t-57.5 16l-92 3v49q178 19 292 63v-635q0 -67 25.5 -84.5t130.5 -23.5v-54zM1188 1409l-875 -1485l-57 45l872 1477zM1468 252l45 -19q-57 -178 -71 -233h-592v45q20 14 67.5 47.5t70 50.5t64.5 48.5t64 52
t54.5 50.5t49.5 54.5t35 54t25.5 58.5t7.5 59q0 79 -46 125.5t-128 46.5q-66 0 -119.5 -37.5t-111.5 -111.5l-39 35l71 94q39 54 113.5 90.5t149.5 36.5q107 0 182.5 -62.5t75.5 -175.5q0 -91 -69.5 -174.5t-213.5 -177.5l-141 -98v-5h299q61 0 91.5 28t65.5 118z" />
    <glyph glyph-name="threequarters" unicode="&#xbe;" horiz-adv-x="1564" 
d="M1462 225h-145v-86q0 -55 22.5 -69.5t112.5 -20.5v-49h-412v49q44 3 67.5 6t41 7.5t24 15.5t9 23.5t2.5 37.5v86h-410v45q281 354 445 527h98v-500h145v-72zM1184 297v354h-6q-31 -39 -147.5 -167t-158.5 -187h312zM494 1069l-2 -6q101 -13 154.5 -58t53.5 -116
q0 -68 -39 -125t-99.5 -92t-128 -54.5t-128.5 -19.5q-106 0 -186 64q-39 36 -27 73q14 36 41 49q17 12 33 -4q91 -112 205 -112q89 -1 137.5 48t48.5 124q0 81 -49 119t-129 38q-60 3 -131 -20l-10 49q139 38 201.5 77t62.5 101q0 53 -38 85t-112 32q-62 0 -112 -34
t-103 -107l-33 34l74 101q98 98 228 98h2q108 0 172.5 -51.5t64.5 -128.5q0 -32 -20.5 -63t-46.5 -52q-46 -30 -84 -49zM1270 1409l-875 -1485l-57 43l872 1479z" />
    <glyph glyph-name="multiply" unicode="&#xd7;" horiz-adv-x="1099" 
d="M995 141l-86 -80l-364 404l-365 -404l-82 80l373 406l-369 403l84 82l365 -401l362 401l82 -78l-372 -405z" />
    <glyph glyph-name="divide" unicode="&#xf7;" horiz-adv-x="1228" 
d="M96 457v123h1037v-123h-1037zM614 -12q-47 0 -81.5 34.5t-34.5 81.5t34.5 82t81.5 35t82 -35t35 -82t-35 -81.5t-82 -34.5zM614 815q-47 0 -81.5 35t-34.5 82t34.5 82t81.5 35t82 -35t35 -82t-35 -82t-82 -35z" />
    <glyph glyph-name="dotlessi" unicode="&#x131;" horiz-adv-x="569" 
d="M211 164v559q0 51 -15 71.5t-63 20.5h-37q-39 0 -39 19q0 17 19 20q17 3 90.5 19.5t140 31.5t70.5 15q14 0 14 -21v-735q0 -77 17.5 -101.5t60.5 -29.5q41 -4 53.5 -9t12.5 -14q0 -16 -33 -16q-17 0 -94.5 3t-116.5 3q-38 0 -115.5 -3t-99.5 -3q-19 0 -19 18q0 15 43 21
q65 9 88 38t23 93z" />
    <glyph glyph-name="florin" unicode="&#x192;" 
d="M866 991h-213l-61 -377q-22 -134 -35.5 -205t-44.5 -186t-68 -194q-31 -65 -59.5 -110.5t-69.5 -89.5t-95 -66.5t-120 -22.5q-43 0 -80 8t-68.5 34t-31.5 68q0 39 26 66t64 27q28 0 46.5 -15t27.5 -37t17 -44t22.5 -37t36.5 -15q26 0 49.5 14.5t42 43t34.5 60.5t29 77
t22 81.5t17.5 85.5t13 77.5t10.5 69.5t7 50l96 637h-186l16 56h181l20 106q16 76 24.5 109t31.5 82t59 96q138 172 325 172q55 0 102.5 -28.5t47.5 -80.5q0 -36 -27 -62t-63 -26q-32 0 -56.5 20.5t-36 45t-28.5 45t-37 20.5q-43 0 -73 -34.5t-44 -81.5q-30 -84 -61 -281
l-19 -102h224z" />
    <glyph glyph-name="caron" unicode="&#x2c7;" horiz-adv-x="569" 
d="M223 1098l-256 352h74l244 -213l243 213h74l-256 -352h-123z" />
    <glyph glyph-name="uni02C9" unicode="&#x2c9;" horiz-adv-x="569" 
d="M551 1221h-533v84h533v-84z" />
    <glyph glyph-name="hungarumlaut" unicode="&#x2dd;" horiz-adv-x="569" 
d="M772 1296l-315 -198h-82l301 303q49 49 88 49q30 0 50 -20t20 -50q0 -45 -62 -84zM362 1296l-315 -198h-82l301 303q49 49 88 49q30 0 50 -20t20 -50q0 -45 -62 -84z" />
    <glyph glyph-name="uni03A9" unicode="&#x3a9;" horiz-adv-x="1490" 
d="M1419 289l-51 -289h-481l-15 39q13 23 50.5 89t60.5 108.5t57 115.5t53.5 132t33.5 135t14 147q-1 126 -23.5 226.5t-60 166.5t-89.5 110.5t-108.5 63.5t-118.5 19q-66 0 -123.5 -19.5t-107.5 -64.5t-85.5 -112.5t-56 -169.5t-20.5 -230q0 -42 5 -85.5t11 -79t20.5 -81
t23.5 -74t30.5 -75.5t31.5 -68.5t36 -70t34 -62.5t37 -63.5t33 -57.5l-16 -39h-477l-47 289l49 2q31 -97 62.5 -126.5t94.5 -29.5h216q-52 44 -88 78.5t-89 99t-86 126.5t-57.5 150t-24.5 181q0 144 46.5 265.5t127.5 204t191.5 128t235.5 45.5q261 0 425 -168.5t164 -458.5
q0 -83 -23 -165t-55 -145t-83 -131t-91 -111.5t-96 -98.5h223q67 0 94.5 27.5t59.5 128.5z" />
    <glyph glyph-name="uni03BC" unicode="&#x3bc;" horiz-adv-x="1251" 
d="M942 981v-694q0 -42 0.5 -66t2.5 -55t7 -47.5t13 -33t20.5 -23.5t30.5 -7q46 0 62 46.5t16 158.5h49q-1 -54 -4.5 -89.5t-13 -75.5t-26 -63.5t-45.5 -39t-69 -15.5q-47 0 -86.5 25.5t-58.5 75.5q-21 55 -27 217q-22 -66 -44.5 -114t-58 -96t-85.5 -73.5t-113 -25.5
q-43 0 -77.5 12t-55 27.5t-37.5 41t-23.5 40.5t-15.5 38q39 -396 39 -444q0 -60 -18.5 -106t-53.5 -46q-61 0 -61 152q0 89 20 334q9 169 9 342v602h131v-596q0 -189 18 -238q36 -90 139 -90q82 0 134.5 55.5t87.5 149.5q61 163 61 402v319h133z" />
    <glyph glyph-name="pi" unicode="&#x3c0;" horiz-adv-x="1150" 
d="M1044 961l48 -19q-20 -113 -72 -180q-41 -10 -139 -10q-14 -140 -9 -476q0 -184 89 -184q30 0 51.5 14t50.5 48l27 -41q-37 -67 -93.5 -102.5t-115.5 -35.5q-86 0 -133.5 58t-47.5 203q0 154 23 522q-242 4 -324 4v-39q0 -162 -16 -299.5t-39.5 -220t-43 -129.5
t-34.5 -64q-73 -29 -121 -35l-12 35q54 66 93.5 165t59.5 206t29 201.5t9 181.5q-64 1 -113.5 -12.5t-76.5 -29.5t-73 -50l-28 43q56 69 81 91q103 93 263 93q70 0 254 -4q188 -4 291 -4q47 0 71.5 13.5t50.5 56.5z" />
    <glyph glyph-name="afii10023" unicode="&#x401;" horiz-adv-x="1366" 
d="M307 254v864q0 117 -30 165t-99 50q-47 1 -59.5 5.5t-12.5 17.5t9 17.5t30 4.5q81 0 244 -3t244 -3q82 0 243 3t238 3q33 0 33 -24v-232q0 -39 -23 -39q-25 0 -28 29q-12 127 -78.5 171t-245.5 44q-175 0 -213.5 -5t-38.5 -30v-555q60 0 111.5 9t102.5 30.5t82.5 64
t35.5 103.5q3 42 9.5 55t21.5 13q26 0 26 -25q0 -43 -3 -128t-3 -128t3 -128t3 -128q0 -24 -22 -24q-12 0 -19.5 13t-15.5 56q-19 92 -86 129t-176 37h-70v-377q0 -50 3.5 -83t14 -66t31.5 -52t55 -34.5t84.5 -22t120.5 -6.5q96 0 166 16t112.5 47t65.5 69.5t33 90.5
q6 32 13.5 44t21.5 12q19 0 19 -25q0 -19 -6.5 -98.5t-6.5 -110.5v-70q0 -26 -33 -26q-89 0 -267 3t-267 3t-267.5 -3t-267.5 -3q-21 0 -30 4.5t-9 17.5t12.5 17.5t59.5 5.5q69 2 99 50t30 165zM784 1563q0 43 30 72.5t73 29.5t72.5 -29.5t29.5 -72.5t-29.5 -73t-72.5 -30
t-73 30t-30 73zM379 1563q0 43 29.5 72.5t72.5 29.5t73 -29.5t30 -72.5t-30 -73t-73 -30t-72.5 30t-29.5 73z" />
    <glyph glyph-name="afii10051" unicode="&#x402;" horiz-adv-x="1593" 
d="M707 473v-219q0 -117 30 -165t99 -50q38 -1 48.5 -5.5t10.5 -17.5t-9 -17.5t-30 -4.5q-43 0 -128 3t-128 3t-128 -3t-128 -3q-21 0 -30 4.5t-9 17.5t11 17.5t49 5.5q69 2 99 50t30 165v1040q-3 27 -158 27q-60 0 -101.5 -6.5t-79.5 -24.5t-58.5 -54.5t-24.5 -92.5
q-3 -45 -10 -58.5t-21 -13.5q-16 0 -16 27v250q0 15 7 22.5t27 7.5q90 0 270.5 -3t270.5 -3q92 0 276.5 3t276.5 3q20 0 27.5 -7.5t7.5 -22.5q0 -30 6 -126.5t6 -123.5t-22 -27q-14 0 -21 13.5t-10 58.5q-6 92 -78 135t-180 43q-179 0 -182 -27v-596q86 101 177 147t197 46
q54 0 105.5 -12t105.5 -39t101.5 -80t79.5 -127q53 -125 53 -328q0 -94 -11.5 -187t-36.5 -190.5t-69 -179.5t-103.5 -148t-146.5 -103.5t-192 -37.5q-121 0 -194 45t-73 99q0 30 22 54t58 24q18 0 31.5 -5t25 -20.5t16 -23.5t17.5 -33q40 -93 136 -93q54 0 97.5 26t72.5 68
t50.5 106t33.5 128t19 148t9 151.5t2 151.5q0 74 -0.5 112t-5.5 104t-14 101t-27 81t-44 69t-66.5 40t-92.5 17q-88 0 -171 -42t-124 -118q-19 -36 -27.5 -66.5t-9.5 -49t-1 -60.5z" />
    <glyph glyph-name="afii10052" unicode="&#x403;" horiz-adv-x="1251" 
d="M406 1460l301 303q49 49 88 49q30 0 49.5 -19.5t19.5 -49.5q0 -46 -61 -84l-316 -199h-81zM307 254v864q0 117 -31.5 165t-107.5 50q-59 1 -73.5 5.5t-14.5 17.5t11 17.5t44 4.5q85 0 255 -3t255 -3q86 0 254.5 3t249.5 3q31 0 31 -24q0 -31 6 -148.5t6 -134.5
q0 -16 -6.5 -26.5t-18.5 -10.5q-7 0 -12 2.5t-10 14t-8 32.5q-9 63 -29 104t-55 69.5t-96.5 43.5t-140.5 21t-200 6q-64 0 -80 -10.5t-16 -40.5v-1022q0 -117 31.5 -165t107.5 -50q59 -1 74 -5.5t15 -17.5t-11.5 -17.5t-44.5 -4.5q-34 0 -130.5 3t-147.5 3t-148 -3t-131 -3
q-33 0 -44 4.5t-11 17.5t14.5 17.5t73.5 5.5q76 2 107.5 50t31.5 165z" />
    <glyph glyph-name="afii10053" unicode="&#x404;" horiz-adv-x="1478" 
d="M344 725v-109q131 117 197 153t157 36q46 0 138.5 -16.5t109.5 -16.5q31 0 54.5 23t35 51t25.5 51t29 23q16 0 16 -21q0 -22 -8 -43l-148 -438q-6 -16 -11 -20.5t-15 -4.5q-17 0 -17 23q0 4 10.5 52.5t10.5 74.5q0 36 -36.5 64.5t-89.5 43.5t-101.5 23t-82.5 8
q-84 0 -140 -29t-128 -98q6 -137 51 -244.5t114.5 -172t151.5 -97.5t171 -33q75 0 132 14.5t92 36.5t61 57.5t38 67t23 74.5q20 82 90 82q72 0 72 -76q0 -54 -39.5 -107.5t-107 -96.5t-166 -70t-208.5 -27q-234 0 -400.5 89.5t-250.5 251t-84 380.5q0 209 96 375.5
t259.5 258t361.5 91.5q87 0 152 -14.5t94 -31.5t58 -31.5t52 -14.5q17 0 28 38t23 38q13 0 19 -11t6 -41q0 -44 3 -132t3 -132q0 -55 -22 -55q-20 0 -41 74q-38 129 -133.5 198.5t-225.5 69.5q-101 0 -186 -37.5t-151.5 -113t-104 -200.5t-37.5 -288z" />
    <glyph glyph-name="afii10054" unicode="&#x405;" 
d="M90 55v326q0 35 29 35q25 0 31 -39q5 -32 18.5 -72t43.5 -93.5t70.5 -95.5t105.5 -72t142 -30q155 0 238.5 80.5t83.5 194.5q0 59 -20 106.5t-55 80.5t-81 62t-98.5 50t-107 45.5t-107 48t-98.5 57.5t-81 74t-55 98t-20 129q0 94 38.5 167.5t101 116t133.5 64t145 21.5
q72 0 128 -14.5t82 -31.5t54 -31.5t51 -14.5q14 0 21.5 19t13.5 38t16 19q25 0 25 -35q0 -23 3 -149t3 -146q0 -41 -22 -41q-20 0 -41 74q-35 123 -127 192.5t-201 69.5t-182.5 -63t-73.5 -158q0 -74 41.5 -130t108 -92.5t146.5 -69.5t160 -72t146.5 -88t108 -128.5
t41.5 -183.5q0 -131 -70.5 -225t-187 -139.5t-265.5 -45.5q-72 0 -139 19t-105.5 41.5t-68.5 41.5t-37 19q-11 0 -18.5 -10.5t-11 -23.5t-11 -23.5t-18.5 -10.5q-13 0 -20 11.5t-7 27.5z" />
    <glyph glyph-name="afii10055" unicode="&#x406;" horiz-adv-x="909" 
d="M348 254v864q0 117 -30 165t-99 50q-47 1 -59.5 5.5t-12.5 17.5t9 17.5t30 4.5q31 0 125.5 -3t143.5 -3t143 3t125 3q21 0 30 -4.5t9 -17.5t-12.5 -17.5t-59.5 -5.5q-69 -2 -99 -50t-30 -165v-864q0 -117 30 -165t99 -50q47 -1 59.5 -5.5t12.5 -17.5t-9 -17.5t-30 -4.5
q-31 0 -125 3t-143 3t-143.5 -3t-125.5 -3q-21 0 -30 4.5t-9 17.5t12.5 17.5t59.5 5.5q69 2 99 50t30 165z" />
    <glyph glyph-name="afii10056" unicode="&#x407;" horiz-adv-x="909" 
d="M348 254v864q0 117 -30 165t-99 50q-47 1 -59.5 5.5t-12.5 17.5t9 17.5t30 4.5q31 0 125.5 -3t143.5 -3t143 3t125 3q21 0 30 -4.5t9 -17.5t-12.5 -17.5t-59.5 -5.5q-69 -2 -99 -50t-30 -165v-864q0 -117 30 -165t99 -50q47 -1 59.5 -5.5t12.5 -17.5t-9 -17.5t-30 -4.5
q-31 0 -125 3t-143 3t-143.5 -3t-125.5 -3q-21 0 -30 4.5t-9 17.5t12.5 17.5t59.5 5.5q69 2 99 50t30 165zM555 1563q0 43 29.5 72.5t72.5 29.5t73 -29.5t30 -72.5t-30 -73t-73 -30t-72.5 30t-29.5 73zM150 1563q0 43 29.5 72.5t72.5 29.5t72.5 -29.5t29.5 -72.5t-29.5 -73
t-72.5 -30t-72.5 30t-29.5 73z" />
    <glyph glyph-name="afii10057" unicode="&#x408;" horiz-adv-x="909" 
d="M389 -287v1405q0 117 -30 165t-99 50q-47 1 -59.5 5.5t-12.5 17.5t9 17.5t30 4.5q31 0 125.5 -3t143.5 -3t143 3t125 3q21 0 30 -4.5t9 -17.5t-12.5 -17.5t-59.5 -5.5q-69 -2 -99 -50t-30 -165v-1263q0 -104 -27.5 -181.5t-71.5 -124t-109 -74.5t-130 -38t-145 -10
q-126 0 -207.5 42t-81.5 109q0 40 23.5 62t64.5 22q39 0 63 -27t44 -94q12 -40 35.5 -54.5t74.5 -14.5q42 0 76 5.5t68.5 21t57.5 41.5t37.5 70t14.5 103z" />
    <glyph glyph-name="afii10058" unicode="&#x409;" horiz-adv-x="2048" 
d="M1059 254v1073h-4l-590 -1116q-78 -147 -145.5 -197.5t-153.5 -50.5q-64 0 -103.5 30t-39.5 75q0 35 21.5 59.5t53.5 24.5q28 0 50.5 -16.5t35.5 -37t32 -37t40 -16.5q34 0 71 44t91 147l432 817q2 5 11 21t12.5 22t10.5 20.5t10 21.5t8 19.5t7 21.5t4 19.5t2 20.5
q0 47 -37 79t-118 35q-47 1 -59.5 5.5t-12.5 17.5t9 17.5t30 4.5q10 0 122.5 -3t192.5 -3q71 0 202.5 3t187.5 3q23 0 32 -4.5t9 -17.5t-12.5 -17.5t-59.5 -5.5q-69 -2 -99 -50t-30 -165v-368h92q163 0 286 -30.5t195 -85t107 -124t35 -152.5q0 -89 -40 -160.5t-107 -115
t-148.5 -66t-169.5 -22.5q-55 0 -174.5 3t-182.5 3q-49 0 -143 -3t-125 -3q-21 0 -30 4.5t-9 17.5t12.5 17.5t59.5 5.5q69 2 99 50t30 165zM1272 672v-498q0 -73 46.5 -104t133.5 -31q55 0 105.5 19t93.5 57t68.5 103.5t25.5 150.5q0 79 -20.5 138.5t-53.5 95t-82.5 57.5
t-100.5 30t-114 8q-60 0 -81 -6t-21 -20z" />
    <glyph glyph-name="afii10059" unicode="&#x40a;" horiz-adv-x="2048" 
d="M295 254v864q0 117 -30 165t-99 50q-47 1 -59.5 5.5t-12.5 17.5t9 17.5t30 4.5q31 0 125 -3t143 -3t143.5 3t125.5 3q21 0 30 -4.5t9 -17.5t-12.5 -17.5t-59.5 -5.5q-69 -2 -99 -50t-30 -165v-368h551v368q0 117 -30 165t-99 50q-47 1 -59.5 5.5t-12.5 17.5t9 17.5
t30 4.5q31 0 125 -3t143 -3t143.5 3t125.5 3q21 0 30 -4.5t9 -17.5t-12.5 -17.5t-59.5 -5.5q-69 -2 -99 -50t-30 -165v-368h92q163 0 286 -30.5t195 -85t107 -124t35 -152.5q0 -89 -40 -160.5t-107 -115t-148.5 -66t-169.5 -22.5q-55 0 -174.5 3t-182.5 3q-49 0 -143 -3
t-125 -3q-21 0 -30 4.5t-9 17.5t12.5 17.5t59.5 5.5q69 2 99 50t30 165v444h-551v-444q0 -117 30 -165t99 -50q47 -1 59.5 -5.5t12.5 -17.5t-9 -17.5t-30 -4.5q-31 0 -125.5 3t-143.5 3t-143 -3t-125 -3q-21 0 -30 4.5t-9 17.5t12.5 17.5t59.5 5.5q69 2 99 50t30 165z
M1272 672v-498q0 -73 46.5 -104t133.5 -31q55 0 105.5 19t93.5 57t68.5 103.5t25.5 150.5q0 79 -20.5 138.5t-53.5 95t-82.5 57.5t-100.5 30t-114 8q-60 0 -81 -6t-21 -20z" />
    <glyph glyph-name="afii10060" unicode="&#x40b;" horiz-adv-x="1705" 
d="M510 254v1040q-3 27 -145 27q-117 0 -191 -42.5t-80 -135.5q-3 -45 -10 -58.5t-21 -13.5q-22 0 -22 27q0 12 6 126t6 124q0 15 7.5 22.5t27.5 7.5q82 0 259 -3t269 -3q96 0 290 3t290 3q20 0 27.5 -7.5t7.5 -22.5q0 -10 6 -124t6 -126q0 -27 -22 -27q-14 0 -21 13.5
t-10 58.5q-6 93 -79.5 135.5t-190.5 42.5q-194 0 -197 -27v-600h4q71 96 161 145.5t224 49.5q365 0 365 -338v-297q0 -117 30 -165t99 -50q38 -1 48.5 -5.5t10.5 -17.5t-9 -17.5t-30 -4.5q-43 0 -128 3t-128 3t-128 -3t-128 -3q-21 0 -30 4.5t-9 17.5t11 17.5t49 5.5
q69 2 99 50t30 165v305q0 127 -59.5 187.5t-164.5 60.5q-74 0 -137 -26t-100.5 -63.5t-58.5 -76t-21 -68.5v-319q0 -117 30 -165t99 -50q47 -1 59.5 -5.5t12.5 -17.5t-9 -17.5t-30 -4.5q-31 0 -125.5 3t-143.5 3t-143 -3t-125 -3q-21 0 -30 4.5t-9 17.5t12.5 17.5t59.5 5.5
q69 2 99 50t30 165z" />
    <glyph glyph-name="afii10061" unicode="&#x40c;" horiz-adv-x="1593" 
d="M680 1460l301 303q49 49 88 49q31 0 50.5 -20t19.5 -49q0 -45 -62 -84l-315 -199h-82zM348 254v864q0 117 -30 165t-99 50q-47 1 -59.5 5.5t-12.5 17.5t9 17.5t30 4.5q31 0 125.5 -3t143.5 -3t143 3t125 3q21 0 30 -4.5t9 -17.5t-12.5 -17.5t-59.5 -5.5q-69 -2 -99 -50
t-30 -165v-381h76q100 0 153.5 38.5t92.5 146.5l88 245q23 62 50.5 107.5t54 71t59.5 40t61 19t64 4.5q69 0 116 -38t47 -81q0 -30 -21.5 -50.5t-55.5 -20.5q-27 0 -49.5 17t-36 37t-35.5 37t-49 17q-80 0 -138 -158l-96 -266q-30 -80 -58.5 -121t-84.5 -67v-4
q279 -46 387 -265l162 -319q12 -24 20 -36t22.5 -22t32.5 -10q25 0 44.5 15.5t29 34t20.5 34t21 15.5q21 0 21 -25q0 -19 -13.5 -46.5t-38.5 -56t-68 -48t-93 -19.5q-82 0 -134.5 39.5t-97.5 126.5l-168 326q-46 88 -84.5 133.5t-93.5 68.5t-139 23h-68v-426q0 -117 30 -165
t99 -50q47 -1 59.5 -5.5t12.5 -17.5t-9 -17.5t-30 -4.5q-31 0 -125 3t-143 3t-143.5 -3t-125.5 -3q-21 0 -30 4.5t-9 17.5t12.5 17.5t59.5 5.5q69 2 99 50t30 165z" />
    <glyph glyph-name="afii10062" unicode="&#x40e;" horiz-adv-x="1366" 
d="M745 1460q-148 0 -251 59.5t-103 159.5q0 31 24.5 59.5t67.5 28.5q44 0 66 -25t22 -59q0 -25 -11 -48.5t-11 -28.5q0 -101 196 -101q197 0 197 101q0 5 -11 28.5t-11 48.5q0 34 22 59t66 25q43 0 67.5 -28.5t24.5 -59.5q0 -100 -103.5 -159.5t-251.5 -59.5zM764 655
l203 322q118 184 118 264q0 40 -25.5 64.5t-74.5 27.5q-28 1 -36.5 6t-8.5 17q0 13 9 17.5t30 4.5q29 0 85 -3t85 -3t85 3t85 3q21 0 30 -4.5t9 -17.5t-6.5 -18t-24.5 -5q-72 -3 -131 -98l-696 -1100q-62 -97 -118 -134.5t-126 -37.5q-76 0 -126 34.5t-50 84.5q0 29 23 49.5
t55 20.5q26 0 46.5 -11t33.5 -27t25.5 -31.5t29 -26.5t37.5 -11q29 0 52 19.5t52 64.5l211 338l-389 698q-50 91 -84 128t-78 40q-26 2 -35.5 6.5t-9.5 16.5q0 13 9 17.5t30 4.5q40 0 120 -3t120 -3t119.5 3t119.5 3q23 0 32 -4.5t9 -17.5q0 -12 -8.5 -17t-36.5 -6
q-58 -3 -85 -22.5t-27 -48.5q0 -48 57 -146z" />
    <glyph glyph-name="afii10145" unicode="&#x40f;" horiz-adv-x="1818" 
d="M1499 1118v-864q0 -117 30 -165t99 -50q47 -1 59.5 -5.5t12.5 -17.5t-9 -17.5t-30 -4.5q-13 0 -682 6q2 -50 7.5 -140.5t9 -155t3.5 -75.5q0 -20 -20 -20h-139q-21 0 -21 20q0 11 4 75.5t9.5 154.5t7.5 141q-56 0 -170 -1t-170 -1q-230 -4 -342 -4q-21 0 -30 4.5t-9 17.5
t12 17.5t59 5.5q69 2 99 50t30 165v864q0 117 -30 165t-99 50q-47 1 -59 5.5t-12 17.5t9 17.5t30 4.5q31 0 125 -3t143 -3t143 3t125 3q21 0 30 -4.5t9 -17.5t-12 -17.5t-59 -5.5q-69 -2 -99.5 -50.5t-30.5 -164.5v-962q0 -54 28 -82.5t95 -28.5h508q67 0 95 28.5t28 82.5
v962q0 117 -30 165t-99 50q-47 1 -59.5 5.5t-12.5 17.5t9 17.5t30 4.5q31 0 125.5 -3t143.5 -3t143 3t125 3q21 0 30 -4.5t9 -17.5t-12.5 -17.5t-59.5 -5.5q-69 -2 -99 -50t-30 -165z" />
    <glyph glyph-name="afii10017" unicode="&#x410;" horiz-adv-x="1593" 
d="M965 559l-230 598h-4l-242 -598h476zM344 334l428 1075h74l452 -1167q41 -103 80 -151.5t101 -51.5q29 -2 43 -4.5t18 -5.5t4 -9q0 -18 -7.5 -22t-37.5 -4q-42 0 -125 3t-125 3t-125 -3t-125 -3q-33 0 -43 4t-10 22q0 19 70 19q48 0 71 23.5t23 58.5q0 58 -63 225
l-60 156h-520l-115 -312q-10 -30 -10 -61q0 -45 30.5 -64t86.5 -26q34 -4 43.5 -7.5t9.5 -11.5q0 -18 -7 -22t-34 -4q-31 0 -96 3t-96 3t-96 -3t-97 -3q-22 0 -29.5 5.5t-7.5 20.5t43 19q37 4 64 16t58 42.5t62.5 88.5t67.5 148z" />
    <glyph glyph-name="afii10018" unicode="&#x411;" horiz-adv-x="1478" 
d="M307 254v864q0 117 -31.5 165t-107.5 50q-59 1 -73.5 5.5t-14.5 17.5t11 17.5t44 4.5q87 0 266 -3t275 -3q86 0 254.5 3t249.5 3q30 0 30 -24q0 -31 6.5 -148.5t6.5 -134.5q0 -16 -6.5 -26.5t-18.5 -10.5q-7 0 -12 2.5t-10.5 14t-8.5 32.5q-9 63 -29 104t-54.5 69.5
t-96 43.5t-140.5 21t-200 6q-59 0 -87 -5t-34 -12t-6 -24v-536h144q657 0 657 -400q0 -100 -46.5 -171.5t-131 -110.5t-185.5 -56.5t-227 -17.5q-51 0 -156 3t-161 3q-51 0 -148 -3t-131 -3q-33 0 -44 4.5t-11 17.5t14.5 17.5t73.5 5.5q76 2 107.5 50t31.5 165zM520 674
v-453q0 -87 53 -134.5t158 -47.5q170 0 253 81t83 253q0 97 -27.5 161.5t-86.5 102t-139.5 53t-197.5 15.5q-62 0 -79 -6.5t-17 -24.5z" />
    <glyph glyph-name="afii10019" unicode="&#x412;" horiz-adv-x="1478" 
d="M322 254v864q0 117 -32 165t-108 50q-59 1 -73.5 5.5t-14.5 17.5t11.5 17.5t44.5 4.5q34 0 130.5 -3t147.5 -3q47 0 134 3t128 3q238 0 371 -77.5t133 -237.5q0 -259 -340 -322v-4q481 -41 481 -387q0 -100 -46.5 -171.5t-131 -110.5t-185.5 -56.5t-227 -17.5
q-51 0 -156 3t-161 3q-51 0 -147.5 -3t-130.5 -3q-33 0 -44.5 4.5t-11.5 17.5t14.5 17.5t73.5 5.5q76 2 108 50t32 165zM535 674v-453q0 -87 52.5 -134.5t157.5 -47.5q170 0 253 81t83 253q0 188 -107.5 260t-342.5 72q-62 0 -79 -6.5t-17 -24.5zM535 1290v-504
q0 -20 12 -28t39 -8q195 0 291 66.5t96 223.5q0 293 -314 293q-124 0 -124 -43z" />
    <glyph glyph-name="afii10020" unicode="&#x413;" horiz-adv-x="1251" 
d="M307 254v864q0 117 -31.5 165t-107.5 50q-59 1 -73.5 5.5t-14.5 17.5t11 17.5t44 4.5q85 0 255 -3t255 -3q86 0 254.5 3t249.5 3q31 0 31 -24q0 -31 6 -148.5t6 -134.5q0 -16 -6.5 -26.5t-18.5 -10.5q-7 0 -12 2.5t-10 14t-8 32.5q-9 63 -29 104t-55 69.5t-96.5 43.5
t-140.5 21t-200 6q-64 0 -80 -10.5t-16 -40.5v-1022q0 -117 31.5 -165t107.5 -50q59 -1 74 -5.5t15 -17.5t-11.5 -17.5t-44.5 -4.5q-34 0 -130.5 3t-147.5 3t-148 -3t-131 -3q-33 0 -44 4.5t-11 17.5t14.5 17.5t73.5 5.5q76 2 107.5 50t31.5 165z" />
    <glyph glyph-name="afii10021" unicode="&#x414;" horiz-adv-x="1705" 
d="M258 45l635 1112q39 80 39 113q0 35 -33.5 48t-110.5 15q-47 1 -59 5.5t-12 17.5t9 17.5t32 4.5q65 0 194.5 -3t194.5 -3t195 3t194 3q21 0 30 -4.5t9 -17.5t-12.5 -17.5t-59.5 -5.5q-69 -2 -99 -50t-30 -165v-1073h185q38 0 38 -25q0 -13 -8 -32l-155 -402
q-4 -14 -17 -14q-16 0 -16 18v371q0 33 -45 33q-480 6 -535 6q-12 0 -534 -6q-45 0 -45 -33v-371q0 -18 -17 -18q-13 0 -16 14l-156 402q-8 19 -8 32q0 25 39 25h174zM1161 45v1282h-98l-739 -1282h837z" />
    <glyph glyph-name="afii10022" unicode="&#x415;" horiz-adv-x="1366" 
d="M307 254v864q0 117 -30 165t-99 50q-47 1 -59.5 5.5t-12.5 17.5t9 17.5t30 4.5q81 0 244 -3t244 -3q82 0 243 3t238 3q33 0 33 -24v-232q0 -39 -23 -39q-25 0 -28 29q-12 127 -78.5 171t-245.5 44q-175 0 -213.5 -5t-38.5 -30v-555q60 0 111.5 9t102.5 30.5t82.5 64
t35.5 103.5q3 42 9.5 55t21.5 13q26 0 26 -25q0 -43 -3 -128t-3 -128t3 -128t3 -128q0 -24 -22 -24q-12 0 -19.5 13t-15.5 56q-19 92 -86 129t-176 37h-70v-377q0 -50 3.5 -83t14 -66t31.5 -52t55 -34.5t84.5 -22t120.5 -6.5q96 0 166 16t112.5 47t65.5 69.5t33 90.5
q6 32 13.5 44t21.5 12q19 0 19 -25q0 -19 -6.5 -98.5t-6.5 -110.5v-70q0 -26 -33 -26q-89 0 -267 3t-267 3t-267.5 -3t-267.5 -3q-21 0 -30 4.5t-9 17.5t12.5 17.5t59.5 5.5q69 2 99 50t30 165z" />
    <glyph glyph-name="afii10024" unicode="&#x416;" horiz-adv-x="2048" 
d="M918 254v426h-68q-102 0 -170 -46t-129 -179l-160 -353q-35 -78 -83 -108.5t-120 -30.5q-74 0 -119.5 54t-45.5 85q0 19 14 19q12 0 23 -15.5t26.5 -31t36.5 -15.5q27 0 45.5 19.5t44.5 85.5q41 106 66 166.5t59.5 126.5t65 100.5t75 67.5t97.5 50t124 27v5
q-55 24 -86 71.5t-67 149.5l-84 237q-28 80 -57.5 121t-71.5 41q-31 0 -49 -16.5t-24.5 -35.5t-28 -35.5t-58.5 -16.5q-33 0 -53.5 20.5t-20.5 50.5q0 57 50.5 86t123.5 29q86 0 144 -50.5t96 -160.5l92 -262q30 -89 60.5 -130t74 -55t129.5 -14h48v381q0 116 -30.5 164.5
t-99.5 50.5q-38 1 -48.5 5.5t-10.5 17.5t9 17.5t30 4.5q23 0 114 -3t142 -3t142 3t114 3q21 0 30 -4.5t9 -17.5t-10.5 -17.5t-48.5 -5.5q-69 -2 -99.5 -50.5t-30.5 -164.5v-381h48q86 0 129.5 14t74 55t60.5 130l92 262q38 110 96 160.5t144 50.5q73 0 123.5 -29t50.5 -86
q0 -30 -20.5 -50.5t-53.5 -20.5q-37 0 -58.5 16.5t-28 35.5t-24.5 35.5t-49 16.5q-42 0 -71.5 -41t-57.5 -121l-84 -237q-36 -102 -67 -149.5t-86 -71.5v-5q71 -10 124 -27t97.5 -50t75 -67.5t65 -100.5t59.5 -126.5t66 -166.5q26 -66 44.5 -85.5t45.5 -19.5q21 0 36.5 15.5
t26.5 31t23 15.5q14 0 14 -19q0 -31 -45.5 -85t-119.5 -54q-72 0 -120 30.5t-83 108.5l-160 353q-61 133 -129 179t-170 46h-68v-426q0 -116 30.5 -164.5t99.5 -50.5q38 -1 48.5 -5.5t10.5 -17.5t-9 -17.5t-30 -4.5q-43 0 -128 3t-128 3t-128 -3t-128 -3q-21 0 -30 4.5
t-9 17.5t10.5 17.5t48.5 5.5q69 2 99.5 50.5t30.5 164.5z" />
    <glyph glyph-name="afii10025" unicode="&#x417;" horiz-adv-x="1366" 
d="M1026 387q0 159 -105 240.5t-294 81.5q-85 0 -107 4.5t-22 21.5q0 16 25.5 20.5t99.5 4.5q180 0 267 80t87 211q0 96 -50.5 169t-127.5 108.5t-164 35.5q-158 0 -262.5 -84.5t-145.5 -210.5q-12 -38 -19.5 -49.5t-19.5 -11.5q-18 0 -18 24q0 15 4 153.5t4 155.5
q0 43 25 43q13 0 21 -16t16 -31.5t22 -15.5q22 0 59 13.5t75.5 30.5t107 30.5t147.5 13.5q101 0 195 -20.5t174.5 -60t129 -107.5t48.5 -154q0 -269 -326 -328v-4q198 -22 297 -123.5t99 -240.5q0 -178 -169 -293t-474 -115q-112 0 -204.5 22t-150.5 56t-98.5 76t-57 79.5
t-16.5 69.5q0 41 25 62.5t57 21.5q39 0 54.5 -22.5t35.5 -94.5q63 -225 346 -225q182 0 296 101t114 278z" />
    <glyph glyph-name="afii10026" unicode="&#x418;" horiz-adv-x="1820" 
d="M322 254v864q0 117 -30 165t-99 50q-47 1 -59.5 5.5t-12.5 17.5t9 17.5t30 4.5q31 0 125 -3t143 -3t143 3t125 3q21 0 30 -4.5t9 -17.5t-12 -17.5t-59 -5.5q-69 -2 -99 -50t-30 -165v-796l751 825q0 99 -31.5 141.5t-97.5 44.5q-47 1 -59.5 5.5t-12.5 17.5t9 17.5t30 4.5
q31 0 125.5 -3t143.5 -3t143 3t125 3q21 0 30 -4.5t9 -17.5t-12.5 -17.5t-59.5 -5.5q-69 -2 -99 -50t-30 -165v-864q0 -117 30 -165t99 -50q47 -1 59.5 -5.5t12.5 -17.5t-9 -17.5t-30 -4.5q-31 0 -125 3t-143 3t-143.5 -3t-125.5 -3q-21 0 -30 4.5t-9 17.5t12.5 17.5
t59.5 5.5q69 2 99 50t30 165v813l-751 -827q0 -108 30.5 -153.5t98.5 -47.5q47 -1 59 -5.5t12 -17.5t-9 -17.5t-30 -4.5q-31 0 -125 3t-143 3t-143 -3t-125 -3q-21 0 -30 4.5t-9 17.5t12.5 17.5t59.5 5.5q69 2 99 50t30 165z" />
    <glyph glyph-name="afii10027" unicode="&#x419;" horiz-adv-x="1820" 
d="M322 254v864q0 117 -30 165t-99 50q-47 1 -59.5 5.5t-12.5 17.5t9 17.5t30 4.5q31 0 125 -3t143 -3t143 3t125 3q21 0 30 -4.5t9 -17.5t-12 -17.5t-59 -5.5q-69 -2 -99 -50t-30 -165v-796l751 825q0 99 -31.5 141.5t-97.5 44.5q-47 1 -59.5 5.5t-12.5 17.5t9 17.5t30 4.5
q31 0 125.5 -3t143.5 -3t143 3t125 3q21 0 30 -4.5t9 -17.5t-12.5 -17.5t-59.5 -5.5q-69 -2 -99 -50t-30 -165v-864q0 -117 30 -165t99 -50q47 -1 59.5 -5.5t12.5 -17.5t-9 -17.5t-30 -4.5q-31 0 -125 3t-143 3t-143.5 -3t-125.5 -3q-21 0 -30 4.5t-9 17.5t12.5 17.5
t59.5 5.5q69 2 99 50t30 165v813l-751 -827q0 -108 30.5 -153.5t98.5 -47.5q47 -1 59 -5.5t12 -17.5t-9 -17.5t-30 -4.5q-31 0 -125 3t-143 3t-143 -3t-125 -3q-21 0 -30 4.5t-9 17.5t12.5 17.5t59.5 5.5q69 2 99 50t30 165zM909 1460q-148 0 -251 59.5t-103 159.5
q0 31 24.5 59.5t67.5 28.5q44 0 66 -25t22 -59q0 -25 -11 -48.5t-11 -28.5q0 -101 196 -101q197 0 197 101q0 5 -11.5 28.5t-11.5 48.5q0 34 22 59t66 25q43 0 68 -28.5t25 -59.5q0 -100 -103.5 -159.5t-251.5 -59.5z" />
    <glyph glyph-name="afii10028" unicode="&#x41a;" horiz-adv-x="1593" 
d="M348 254v864q0 117 -30 165t-99 50q-47 1 -59.5 5.5t-12.5 17.5t9 17.5t30 4.5q31 0 125.5 -3t143.5 -3t143 3t125 3q21 0 30 -4.5t9 -17.5t-12.5 -17.5t-59.5 -5.5q-69 -2 -99 -50t-30 -165v-381h76q100 0 153.5 38.5t92.5 146.5l88 245q23 62 50.5 107.5t54 71t59.5 40
t61 19t64 4.5q69 0 116 -38t47 -81q0 -30 -21.5 -50.5t-55.5 -20.5q-27 0 -49.5 17t-36 37t-35.5 37t-49 17q-80 0 -138 -158l-96 -266q-30 -80 -58.5 -121t-84.5 -67v-4q279 -46 387 -265l162 -319q12 -24 20 -36t22.5 -22t32.5 -10q25 0 44.5 15.5t29 34t20.5 34t21 15.5
q21 0 21 -25q0 -19 -13.5 -46.5t-38.5 -56t-68 -48t-93 -19.5q-82 0 -134.5 39.5t-97.5 126.5l-168 326q-46 88 -84.5 133.5t-93.5 68.5t-139 23h-68v-426q0 -117 30 -165t99 -50q47 -1 59.5 -5.5t12.5 -17.5t-9 -17.5t-30 -4.5q-31 0 -125 3t-143 3t-143.5 -3t-125.5 -3
q-21 0 -30 4.5t-9 17.5t12.5 17.5t59.5 5.5q69 2 99 50t30 165z" />
    <glyph glyph-name="afii10029" unicode="&#x41b;" horiz-adv-x="1705" 
d="M1239 113q0 85 -63 243l-322 820l-365 -889q-44 -105 -86 -172t-85.5 -99t-80.5 -42.5t-87 -10.5q-64 0 -104 30t-40 75q0 35 22 59.5t54 24.5q28 0 50.5 -16.5t35.5 -37t32 -37t40 -16.5q37 0 93 78t107 201l279 673q8 19 22.5 54t19.5 47t13.5 34.5t11 33.5t5 26
t2.5 29q0 46 -36.5 77.5t-115.5 34.5q-46 1 -59 6t-13 19q0 20 39 20q30 0 92 -3t93 -3q35 0 92.5 3t64.5 3q27 0 37 -28l459 -1155q26 -65 67.5 -108.5t94.5 -47.5q65 -4 65 -19q0 -18 -7.5 -22t-37.5 -4q-42 0 -125 3t-125 3t-125 -3t-125 -3q-33 0 -43 4t-10 22
q0 19 70 19q47 0 70.5 22t23.5 52z" />
    <glyph glyph-name="afii10030" unicode="&#x41c;" horiz-adv-x="1933" 
d="M307 254v864q0 117 -30 165t-99 50q-47 1 -59.5 5.5t-12.5 17.5t9 17.5t30 4.5q25 0 76 -3t76 -3t76 3t76 3h34q28 0 37 -20l451 -1049l446 1039q12 30 35 30q28 0 84 -3t84 -3t84 3t84 3q21 0 30 -4.5t9 -17.5t-12.5 -17.5t-59.5 -5.5q-69 -2 -99 -50t-30 -165v-864
q0 -117 30 -165t99 -50q47 -1 59.5 -5.5t12.5 -17.5t-9 -17.5t-30 -4.5q-31 0 -125 3t-143 3t-143.5 -3t-125.5 -3q-21 0 -30 4.5t-9 17.5t12.5 17.5t59.5 5.5q69 2 99 50t30 165v944h-4q-20 -69 -27 -84l-469 -1087q-10 -27 -26 -27q-12 0 -23 25l-491 1173h-4v-944
q0 -117 30 -165t99 -50q47 -1 59 -5.5t12 -17.5t-9 -17.5t-30 -4.5q-32 0 -96 3t-96 3t-96.5 -3t-96.5 -3q-21 0 -30 4.5t-9 17.5t12.5 17.5t59.5 5.5q69 2 99 50t30 165z" />
    <glyph glyph-name="afii10031" unicode="&#x41d;" horiz-adv-x="1820" 
d="M1286 254v432h-751v-432q0 -117 30 -165t99 -50q47 -1 59 -5.5t12 -17.5t-9 -17.5t-30 -4.5q-31 0 -125 3t-143 3t-143 -3t-125 -3q-21 0 -30 4.5t-9 17.5t12.5 17.5t59.5 5.5q69 2 99 50t30 165v864q0 117 -30 165t-99 50q-47 1 -59.5 5.5t-12.5 17.5t9 17.5t30 4.5
q31 0 125 -3t143 -3t143 3t125 3q21 0 30 -4.5t9 -17.5t-12 -17.5t-59 -5.5q-69 -2 -99 -50t-30 -165v-381h751v381q0 117 -30 165t-99 50q-47 1 -59.5 5.5t-12.5 17.5t9 17.5t30 4.5q31 0 125.5 -3t143.5 -3t143 3t125 3q21 0 30 -4.5t9 -17.5t-12.5 -17.5t-59.5 -5.5
q-69 -2 -99 -50t-30 -165v-864q0 -117 30 -165t99 -50q47 -1 59.5 -5.5t12.5 -17.5t-9 -17.5t-30 -4.5q-31 0 -125 3t-143 3t-143.5 -3t-125.5 -3q-21 0 -30 4.5t-9 17.5t12.5 17.5t59.5 5.5q69 2 99 50t30 165z" />
    <glyph glyph-name="afii10032" unicode="&#x41e;" horiz-adv-x="1703" 
d="M90 686q0 209 97.5 374.5t271.5 257t393 91.5t393 -91.5t271.5 -257t97.5 -374.5t-97.5 -374.5t-271.5 -257t-393 -91.5t-393 91.5t-271.5 257t-97.5 374.5zM344 686q0 -127 31.5 -245.5t91.5 -216.5t160 -157t225 -59t225 59t160 157t91.5 216.5t31.5 245.5t-31.5 245.5
t-91.5 216.5t-160 157t-225 59t-225 -59t-160 -157t-91.5 -216.5t-31.5 -245.5z" />
    <glyph glyph-name="afii10033" unicode="&#x41f;" horiz-adv-x="1820" 
d="M322 254v864q0 117 -30 165t-99 50q-47 1 -59.5 5.5t-12.5 17.5t9 17.5t30 4.5q127 0 378 -3t373 -3q121 0 372 3t378 3q21 0 30 -4.5t9 -17.5t-12.5 -17.5t-59.5 -5.5q-69 -2 -99 -50t-30 -165v-864q0 -117 30 -165t99 -50q47 -1 59.5 -5.5t12.5 -17.5t-9 -17.5
t-30 -4.5q-31 0 -125 3t-143 3t-143.5 -3t-125.5 -3q-21 0 -30 4.5t-9 17.5t12.5 17.5t59.5 5.5q69 2 99 50t30 165v1018q0 31 -19 43t-65 12h-584q-46 0 -64.5 -12t-18.5 -43v-1018q0 -117 30 -165t99 -50q47 -1 59 -5.5t12 -17.5t-9 -17.5t-30 -4.5q-31 0 -125 3t-143 3
t-143 -3t-125 -3q-21 0 -30 4.5t-9 17.5t12.5 17.5t59.5 5.5q69 2 99 50t30 165z" />
    <glyph glyph-name="afii10034" unicode="&#x420;" horiz-adv-x="1251" 
d="M307 254v864q0 117 -30 165t-99 50q-47 1 -59.5 5.5t-12.5 17.5t9 17.5t30 4.5q31 0 125.5 -3t143.5 -3q46 0 137.5 3t136.5 3q135 0 237 -30.5t159.5 -82t85.5 -113t28 -130.5q0 -189 -139.5 -287t-405.5 -98h-133v-383q0 -117 30 -165t99 -50q47 -1 59.5 -5.5
t12.5 -17.5t-9 -17.5t-30 -4.5q-31 0 -125 3t-143 3t-143.5 -3t-125.5 -3q-21 0 -30 4.5t-9 17.5t12.5 17.5t59.5 5.5q69 2 99 50t30 165zM520 1276v-582q74 -6 121 -6q170 0 247 76.5t77 249.5q0 319 -338 319q-67 0 -87 -11.5t-20 -45.5z" />
    <glyph glyph-name="afii10035" unicode="&#x421;" horiz-adv-x="1478" 
d="M1350 424v-369q0 -32 -25 -32q-27 0 -27 43q0 34 -36 34q-22 0 -57 -21.5t-74 -47t-120 -47t-184 -21.5q-179 0 -321 53.5t-232 147t-137 217t-47 268.5q0 150 40.5 276t111 214t166 150t204 91t226.5 29q91 0 165.5 -16.5t112 -36.5t68.5 -36.5t45 -16.5q16 0 24 11.5
t10 25t8.5 25t18.5 11.5q10 0 16.5 -8t6.5 -20q0 -50 8 -158.5t8 -165.5q0 -49 -20 -49q-13 0 -21.5 14.5t-15.5 54.5q-6 34 -23.5 73.5t-53 84t-82.5 80t-118 59t-153 23.5q-75 0 -143.5 -22t-134.5 -75.5t-114 -133.5t-77 -205.5t-29 -282.5q0 -138 32 -250t83 -182.5
t118.5 -118t133 -67t131.5 -19.5q83 0 152 23t115.5 59t84 89t59.5 104.5t39 113.5q14 52 21 65t16 13q14 0 17.5 -11t3.5 -40z" />
    <glyph glyph-name="afii10036" unicode="&#x422;" horiz-adv-x="1593" 
d="M690 254v1028q0 13 -6.5 19.5t-38 11.5t-93 6.5t-177.5 1.5q-60 0 -101.5 -6.5t-79.5 -24.5t-58.5 -54.5t-24.5 -92.5q-3 -45 -10 -58.5t-21 -13.5q-17 0 -17 27v250q0 15 7.5 22.5t27.5 7.5q117 0 349.5 -3t349.5 -3t349.5 3t348.5 3q20 0 27.5 -7.5t7.5 -22.5v-250
q0 -27 -17 -27q-14 0 -20.5 13t-9.5 59q-4 56 -24.5 92.5t-58.5 54.5t-79.5 24.5t-101.5 6.5q-116 0 -177.5 -1.5t-93.5 -6.5t-38.5 -11.5t-6.5 -19.5v-1028q0 -117 30 -165t99 -50q47 -1 59.5 -5.5t12.5 -17.5t-9 -17.5t-30 -4.5q-31 0 -125 3t-143 3t-143.5 -3t-125.5 -3
q-21 0 -30 4.5t-9 17.5t12.5 17.5t59.5 5.5q69 2 99 50t30 165z" />
    <glyph glyph-name="afii10037" unicode="&#x423;" horiz-adv-x="1366" 
d="M764 655l203 322q118 184 118 264q0 40 -25.5 64.5t-74.5 27.5q-28 1 -36.5 6t-8.5 17q0 13 9 17.5t30 4.5q29 0 85 -3t85 -3t85 3t85 3q21 0 30 -4.5t9 -17.5t-6.5 -18t-24.5 -5q-72 -3 -131 -98l-696 -1100q-62 -97 -118 -134.5t-126 -37.5q-76 0 -126 34.5t-50 84.5
q0 29 23 49.5t55 20.5q26 0 46.5 -11t33.5 -27t25.5 -31.5t29 -26.5t37.5 -11q29 0 52 19.5t52 64.5l211 338l-389 698q-50 91 -84 128t-78 40q-26 2 -35.5 6.5t-9.5 16.5q0 13 9 17.5t30 4.5q40 0 120 -3t120 -3t119.5 3t119.5 3q23 0 32 -4.5t9 -17.5q0 -12 -8.5 -17
t-36.5 -6q-58 -3 -85 -22.5t-27 -48.5q0 -48 57 -146z" />
    <glyph glyph-name="afii10038" unicode="&#x424;" horiz-adv-x="1703" 
d="M745 213v938q-63 -1 -121.5 -13.5t-118.5 -45t-104 -83.5t-72 -135t-28 -192t28 -192t72 -135t104 -83.5t118.5 -45t121.5 -13.5zM68 682q0 133 53 233t147.5 160t212.5 89.5t260 31.5q-9 72 -38.5 103.5t-86.5 33.5q-47 1 -59 5.5t-12 17.5t9 17.5t30 4.5q31 0 125 -3
t143 -3t143 3t125 3q21 0 30 -4.5t9 -17.5t-12.5 -17.5t-59.5 -5.5q-56 -2 -85.5 -33.5t-38.5 -103.5q142 -2 260 -31.5t212.5 -89.5t147.5 -160t53 -233q0 -107 -35 -193.5t-96.5 -145.5t-147.5 -98.5t-184 -57.5t-210 -19q10 -68 39.5 -97.5t84.5 -31.5q47 -1 59.5 -5.5
t12.5 -17.5t-9 -17.5t-30 -4.5q-31 0 -125 3t-143 3t-143 -3t-125 -3q-21 0 -30 4.5t-9 17.5t12 17.5t59 5.5q55 2 85 31.5t40 97.5q-112 1 -210 19t-184 57.5t-147.5 98.5t-96.5 145.5t-35 193.5zM958 1151v-938q63 1 121.5 13.5t119 45t104.5 83.5t72 135t28 192t-28 192
t-72 135t-104.5 83.5t-119 45t-121.5 13.5z" />
    <glyph glyph-name="afii10039" unicode="&#x425;" horiz-adv-x="1593" 
d="M713 643l-482 614q-58 74 -94 76q-37 1 -47 5.5t-10 17.5t9 17.5t30 4.5q42 0 126 -3t126 -3t126 3t126 3q23 0 32 -4.5t9 -17.5t-12.5 -17.5t-59.5 -5.5q-86 -3 -86 -39q0 -46 49 -108l303 -387l191 254q92 123 92 188q0 39 -22 64.5t-52 27.5q-47 1 -59.5 5.5
t-12.5 17.5t9 17.5t30 4.5q32 0 96 -3t95 -3t95 3t95 3q21 0 30 -4.5t9 -17.5t-12 -17.5t-56 -5.5q-50 -2 -126 -100l-369 -475l506 -635q68 -84 100 -84q47 -1 59.5 -5.5t12.5 -17.5t-9 -17.5t-30 -4.5q-45 0 -134 3t-134 3t-134.5 -3t-134.5 -3q-21 0 -30 4.5t-9 17.5
t12.5 17.5t59.5 5.5q94 5 94 61q0 34 -78 133l-292 367l-252 -334q-68 -91 -68 -149q0 -36 27 -56t63 -22q47 -1 59.5 -5.5t12.5 -17.5t-9 -17.5t-30 -4.5q-35 0 -104.5 3t-104.5 3t-104.5 -3t-104.5 -3q-21 0 -30 4.5t-9 17.5t12.5 17.5t59.5 5.5q23 0 70 32.5t106 106.5z
" />
    <glyph glyph-name="afii10040" unicode="&#x426;" horiz-adv-x="1820" 
d="M322 254v864q0 117 -30 165t-99 50q-47 1 -59.5 5.5t-12.5 17.5t9 17.5t30 4.5q31 0 125 -3t143 -3t143 3t125 3q21 0 30 -4.5t9 -17.5t-12 -17.5t-59 -5.5q-69 -2 -99 -50t-30 -165v-962q0 -55 27.5 -83t94.5 -28h506q67 0 95 28.5t28 82.5v962q0 117 -30 165t-99 50
q-47 1 -59.5 5.5t-12.5 17.5t9 17.5t30 4.5q31 0 125.5 -3t143.5 -3t143 3t125 3q21 0 30 -4.5t9 -17.5t-12.5 -17.5t-59.5 -5.5q-69 -2 -99 -50t-30 -165v-864q0 -117 30 -165t99 -50q43 -1 57.5 -5.5t14.5 -13.5q0 -13 -8 -32l-160 -402q-7 -14 -16 -14q-17 0 -17 18v371
q0 33 -45 33q-564 6 -631 6q-55 0 -165 -1t-166 -1q-222 -4 -332 -4q-21 0 -30 4.5t-9 17.5t12.5 17.5t59.5 5.5q69 2 99 50t30 165z" />
    <glyph glyph-name="afii10041" unicode="&#x427;" horiz-adv-x="1593" 
d="M1069 219v453q-87 -49 -172.5 -78t-198.5 -29q-97 0 -167 16.5t-115 46.5t-71.5 78t-37 104t-10.5 132v248q0 77 -31 109t-88 34q-47 1 -59.5 5.5t-12.5 17.5t9 17.5t30 4.5q40 0 121 -3t121 -3t121 3t121 3q20 0 28.5 -4.5t8.5 -17.5t-11.5 -17.5t-54.5 -5.5
q-90 -3 -90 -186v-254q0 -129 75 -195.5t195 -66.5q110 0 289 86v436q0 71 -10 110.5t-27.5 54t-46.5 15.5q-47 1 -59.5 5.5t-12.5 17.5t9 17.5t30 4.5q39 0 118 -3t118 -3t117.5 3t117.5 3q21 0 30 -4.5t9 -17.5t-9 -17.5t-42 -5.5q-69 -2 -99 -50t-30 -165v-864
q0 -117 30 -165t99 -50q33 -1 42 -5.5t9 -17.5t-9 -17.5t-30 -4.5q-39 0 -117.5 3t-117.5 3t-118 -3t-118 -3q-21 0 -30 4.5t-9 17.5t12.5 17.5t59.5 5.5q29 1 46.5 15.5t27.5 54t10 110.5z" />
    <glyph glyph-name="afii10042" unicode="&#x428;" horiz-adv-x="2260" 
d="M1974 1118v-864q0 -117 30 -165t99 -50q47 -1 59.5 -5.5t12.5 -17.5t-9 -17.5t-30 -4.5q-136 0 -463 3t-543 3t-542.5 -3t-462.5 -3q-21 0 -30 4.5t-9 17.5t12.5 17.5t59.5 5.5q69 2 99 50t30 165v864q0 117 -30 165t-99 50q-47 1 -59.5 5.5t-12.5 17.5t9 17.5t30 4.5
q40 0 121 -3t121 -3t120.5 3t120.5 3q21 0 30 -4.5t9 -17.5t-12.5 -17.5t-59.5 -5.5q-43 -2 -59 -38t-16 -142v-985q0 -74 52 -98.5t208 -24.5q157 0 210.5 25t53.5 98v985q0 71 -9 110.5t-25.5 54t-45.5 15.5q-47 1 -59.5 5.5t-12.5 17.5t9 17.5t30 4.5q37 0 109.5 -3
t109.5 -3t110 3t110 3q21 0 30 -4.5t9 -17.5t-12.5 -17.5t-59.5 -5.5q-29 -1 -45.5 -15.5t-25.5 -54t-9 -110.5v-985q0 -73 53.5 -98t210.5 -25q156 0 208 24.5t52 98.5v985q0 106 -16 142t-59 38q-47 1 -59.5 5.5t-12.5 17.5t9 17.5t30 4.5q40 0 120.5 -3t120.5 -3t121 3
t121 3q21 0 30 -4.5t9 -17.5t-12.5 -17.5t-59.5 -5.5q-69 -2 -99 -50t-30 -165z" />
    <glyph glyph-name="afii10043" unicode="&#x429;" horiz-adv-x="2260" 
d="M1974 1118v-864q0 -117 30 -165t99 -50q43 -1 57.5 -5.5t14.5 -13.5q0 -13 -8 -32l-160 -402q-7 -14 -16 -14q-17 0 -17 18v371q0 33 -45 33q-7 0 -282 3t-517 3q-216 0 -542.5 -3t-462.5 -3q-21 0 -30 4.5t-9 17.5t12.5 17.5t59.5 5.5q69 2 99 50t30 165v864
q0 117 -30 165t-99 50q-47 1 -59.5 5.5t-12.5 17.5t9 17.5t30 4.5q40 0 121 -3t121 -3t120.5 3t120.5 3q21 0 30 -4.5t9 -17.5t-12.5 -17.5t-59.5 -5.5q-43 -2 -59 -38t-16 -142v-985q0 -74 52 -98.5t208 -24.5q157 0 210.5 25t53.5 98v985q0 71 -9 110.5t-25.5 54
t-45.5 15.5q-47 1 -59.5 5.5t-12.5 17.5t9 17.5t30 4.5q37 0 109.5 -3t109.5 -3t110 3t110 3q21 0 30 -4.5t9 -17.5t-12.5 -17.5t-59.5 -5.5q-29 -1 -45.5 -15.5t-25.5 -54t-9 -110.5v-985q0 -73 53.5 -98t210.5 -25q156 0 208 24.5t52 98.5v985q0 106 -16 142t-59 38
q-47 1 -59.5 5.5t-12.5 17.5t9 17.5t30 4.5q40 0 120.5 -3t120.5 -3t121 3t121 3q21 0 30 -4.5t9 -17.5t-12.5 -17.5t-59.5 -5.5q-69 -2 -99 -50t-30 -165z" />
    <glyph glyph-name="afii10044" unicode="&#x42a;" horiz-adv-x="1593" 
d="M545 254v1018q0 32 -23.5 43.5t-87.5 11.5q-189 0 -257.5 -48t-88.5 -196q-4 -30 -12 -39.5t-19 -9.5q-24 0 -24 37q0 17 6 134.5t6 148.5q0 24 31 24q84 0 227.5 -3t210.5 -3q70 0 208 3t208 3q33 0 44 -4.5t11 -17.5t-14.5 -17.5t-73.5 -5.5q-76 -2 -107.5 -50
t-31.5 -165v-368h98q657 0 657 -400q0 -80 -31 -142.5t-84 -102t-129 -65t-158.5 -36t-180.5 -10.5q-44 0 -138 3t-141 3q-51 0 -147.5 -3t-130.5 -3q-33 0 -44.5 4.5t-11.5 17.5t15 17.5t74 5.5q76 2 107.5 50t31.5 165zM758 674v-453q0 -86 51 -134t149 -48
q146 0 224 82.5t78 251.5q0 96 -27 161.5t-82 102.5t-127.5 52.5t-173.5 15.5q-59 0 -75.5 -6.5t-16.5 -24.5z" />
    <glyph glyph-name="afii10045" unicode="&#x42b;" horiz-adv-x="1933" 
d="M307 254v864q0 117 -31.5 165t-107.5 50q-59 1 -73.5 5.5t-14.5 17.5t11 17.5t44 4.5q34 0 131 -3t148 -3t147.5 3t130.5 3q33 0 44.5 -4.5t11.5 -17.5t-15 -17.5t-74 -5.5q-76 -2 -107.5 -50t-31.5 -165v-368h109q297 0 438 -92.5t141 -288.5q0 -83 -25 -149t-66 -107.5
t-97.5 -69t-115 -38.5t-122.5 -11q-62 0 -184 3t-184 3q-51 0 -148 -3t-131 -3q-33 0 -44 4.5t-11 17.5t14.5 17.5t73.5 5.5q76 2 107.5 50t31.5 165zM520 678v-477q0 -162 166 -162q76 0 132 26.5t88 74.5t46.5 106.5t14.5 130.5q0 328 -344 328q-60 0 -81.5 -6.5
t-21.5 -20.5zM1397 254v864q0 117 -30 165t-99 50q-47 1 -59.5 5.5t-12.5 17.5t9 17.5t30 4.5q31 0 125 -3t143 -3t143.5 3t125.5 3q21 0 29.5 -4.5t8.5 -17.5t-12 -17.5t-59 -5.5q-69 -2 -99 -50t-30 -165v-864q0 -117 30 -165t99 -50q47 -1 59 -5.5t12 -17.5t-8.5 -17.5
t-29.5 -4.5q-31 0 -125.5 3t-143.5 3t-143 -3t-125 -3q-21 0 -30 4.5t-9 17.5t12.5 17.5t59.5 5.5q69 2 99 50t30 165z" />
    <glyph glyph-name="afii10046" unicode="&#x42c;" horiz-adv-x="1366" 
d="M307 254v864q0 117 -31.5 165t-107.5 50q-59 1 -73.5 5.5t-14.5 17.5t11 17.5t44 4.5q34 0 131 -3t148 -3t147.5 3t130.5 3q33 0 44.5 -4.5t11.5 -17.5t-15 -17.5t-74 -5.5q-76 -2 -107.5 -50t-31.5 -165v-368h109q657 0 657 -400q0 -100 -46.5 -171.5t-131 -110.5
t-185.5 -56.5t-227 -17.5q-47 0 -141 3t-141 3q-51 0 -148 -3t-131 -3q-33 0 -44 4.5t-11 17.5t14.5 17.5t73.5 5.5q76 2 107.5 50t31.5 165zM520 668v-447q0 -87 53 -134.5t158 -47.5q301 0 301 334q0 96 -27 160.5t-83 100t-129 50t-177 14.5q-62 0 -79 -6t-17 -24z" />
    <glyph glyph-name="afii10047" unicode="&#x42d;" horiz-adv-x="1478" 
d="M1135 616v109q0 164 -38.5 288.5t-108.5 200t-162.5 113t-207.5 37.5q-154 0 -254.5 -68t-138.5 -200q-21 -74 -41 -74q-22 0 -22 55q0 44 3 132t3 132q0 30 6 41t19 11q8 0 14 -12t8.5 -26t10 -26t18.5 -12q22 0 52 14.5t62 31.5t105 31.5t172 14.5q162 0 301.5 -54
t239 -148.5t156.5 -230t57 -292.5q0 -332 -192.5 -526.5t-543.5 -194.5q-110 0 -208.5 27t-165.5 70t-106.5 96.5t-39.5 107.5q0 76 72 76q70 0 90 -82q11 -43 23 -74.5t38 -67t61 -57.5t92 -36.5t132 -14.5q70 0 137 20t128.5 63.5t108.5 106.5t77.5 155t35.5 202
q-82 71 -142 98t-148 27q-35 0 -86.5 -7t-110 -22t-99 -43.5t-40.5 -64.5q0 -45 10 -81.5t10 -41.5q0 -27 -16 -27q-10 0 -15.5 4.5t-11.5 20.5l-147 438q-8 21 -8 35q0 29 16 29q14 0 27.5 -23t24.5 -51t36.5 -51t60.5 -23q5 0 47 8t104 15.5t116 7.5q94 0 174.5 -38
t204.5 -149z" />
    <glyph glyph-name="afii10048" unicode="&#x42e;" horiz-adv-x="2048" 
d="M295 254v864q0 117 -30 165t-99 50q-47 1 -59.5 5.5t-12.5 17.5t9 17.5t30 4.5q31 0 125 -3t143 -3t143.5 3t125.5 3q21 0 30 -4.5t9 -17.5t-12.5 -17.5t-59.5 -5.5q-69 -2 -99 -50t-30 -165v-401h184q26 330 207 511t461 181q89 0 176 -28.5t166 -88.5t139.5 -144
t96.5 -203.5t36 -258.5t-36 -258.5t-96.5 -203.5t-139.5 -144t-166 -88.5t-176 -28.5q-197 0 -345.5 90t-229.5 248t-93 365h-184v-412q0 -117 30 -165t99 -50q47 -1 59.5 -5.5t12.5 -17.5t-9 -17.5t-30 -4.5q-31 0 -125.5 3t-143.5 3t-143 -3t-125 -3q-21 0 -30 4.5
t-9 17.5t12.5 17.5t59.5 5.5q69 2 99 50t30 165zM934 686q0 -326 99 -502t300 -176t300.5 176t99.5 502t-99.5 502t-300.5 176t-300 -176t-99 -502z" />
    <glyph glyph-name="afii10049" unicode="&#x42f;" horiz-adv-x="1478" 
d="M1171 1118v-864q0 -117 30 -165t99 -50q47 -1 59.5 -5.5t12.5 -17.5t-9 -17.5t-30 -4.5q-31 0 -125 3t-143 3t-143 -3t-125 -3q-21 0 -30 4.5t-9 17.5t12 17.5t59 5.5q69 2 99 50t30 165v367q0 18 -17 24t-79 6q-101 0 -149 -33.5t-105 -136.5l-178 -323
q-45 -84 -113 -139.5t-131 -55.5q-48 0 -84.5 17.5t-55 43.5t-27.5 51t-9 46q0 24 19 24q9 0 20.5 -21.5t27.5 -43t34 -21.5q39 0 63 47l170 318q106 201 326 238v4q-204 39 -311 127t-107 243q0 161 124.5 251.5t330.5 90.5q59 0 179 -3t179 -3q49 0 143 3t125 3
q21 0 30 -4.5t9 -17.5t-12.5 -17.5t-59.5 -5.5q-69 -2 -99 -50t-30 -165zM958 733v557q0 43 -124 43q-340 0 -340 -315q0 -84 23.5 -144.5t59 -94t93 -53t111 -25t126.5 -5.5q51 0 51 37z" />
    <glyph glyph-name="afii10065" unicode="&#x430;" horiz-adv-x="1024" 
d="M76 160q0 72 39.5 123.5t136 103t285.5 121.5q80 29 97 49t17 70q0 145 -38.5 193t-166.5 48q-105 0 -142 -28.5t-42 -91.5q-6 -84 -76 -84q-35 0 -58.5 17t-23.5 52q0 80 94.5 133.5t254.5 53.5q198 0 280 -67.5t82 -199.5q0 -50 -5 -219t-5 -262q0 -62 20.5 -91.5
t69.5 -29.5q21 0 44.5 19.5t27.5 19.5q16 0 16 -20q0 -31 -49.5 -66t-114.5 -35q-146 0 -184 140q-161 -140 -330 -140q-229 0 -229 191zM639 211l12 295q-228 -88 -311.5 -151.5t-83.5 -161.5q0 -55 37 -102.5t102 -47.5q88 0 217 100q24 19 27 68z" />
    <glyph glyph-name="afii10066" unicode="&#x431;" 
d="M999 1450h33q-35 -225 -221 -225q-31 0 -173.5 19.5t-178.5 19.5q-78 0 -122 -113.5t-44 -353.5q135 123 289 123q85 0 169.5 -34.5t152 -94t109.5 -149t42 -191.5q0 -206 -143.5 -344t-358.5 -138q-143 0 -250.5 81t-163 221t-55.5 319q0 288 127 489q211 330 405 330
q66 0 148 -10q122 -10 147 -10q65 0 88 61zM858 444q0 210 -74 323.5t-223 113.5q-130 0 -239 -109q-24 -26 -32.5 -66t-8.5 -169q0 -53 1.5 -94.5t8 -99t17.5 -101t32 -90t50 -76.5t72.5 -49t98.5 -19q149 0 223 113t74 323z" />
    <glyph glyph-name="afii10067" unicode="&#x432;" 
d="M211 115v659q0 36 -20.5 58.5t-57.5 23.5q-65 3 -65 21t32 18q34 0 100.5 -3t100.5 -3q53 0 161 3t161 3q143 0 217.5 -56.5t74.5 -144.5q0 -82 -59 -138t-176 -73v-8q146 -8 235 -71.5t89 -165.5q0 -109 -88.5 -176.5t-239.5 -67.5q-62 0 -187 3t-188 3q-34 0 -100.5 -3
t-100.5 -3q-32 0 -32 18t65 21q37 1 57.5 23.5t20.5 58.5zM391 432v-190q0 -58 6 -92t25.5 -63.5t59 -41.5t104.5 -12q106 0 159.5 57t53.5 154q0 115 -71 163t-251 48q-51 0 -68.5 -5t-17.5 -18zM391 827v-311q0 -14 17.5 -18t74.5 -4q131 0 183.5 38t52.5 142
q0 86 -51 134t-183 48q-54 0 -74 -5.5t-20 -23.5z" />
    <glyph glyph-name="afii10068" unicode="&#x433;" horiz-adv-x="909" 
d="M227 115v659q0 36 -20 58.5t-57 23.5q-66 3 -66 21t33 18q61 0 180 -3t180 -3t181 3t180 3q26 0 26 -18q0 -13 4 -88.5t4 -90.5q0 -24 -16 -24q-5 0 -10 4.5t-9.5 12.5t-8.5 16t-9 20t-8 18q-27 55 -90.5 80t-192.5 25q-75 0 -97.5 -6.5t-22.5 -24.5v-704q0 -36 20 -58.5
t57 -23.5q66 -3 66 -21t-33 -18q-34 0 -100.5 3t-100.5 3t-100 -3t-100 -3q-33 0 -33 18t66 21q37 1 57 23.5t20 58.5z" />
    <glyph glyph-name="afii10069" unicode="&#x434;" 
d="M168 45l393 655q55 90 55 113q0 43 -75 43q-64 0 -64 23q0 9 9.5 12.5t37.5 3.5q50 0 137 -3t127 -3q42 0 126 3t126 3q33 0 33 -16q0 -20 -65 -23q-37 -1 -57.5 -23.5t-20.5 -58.5v-729h112q40 0 54 -6.5t14 -26.5q0 -30 -55 -178.5t-76 -148.5q-18 0 -18 43v231
q0 20 -7 27.5t-26 7.5q-333 6 -365 6q-69 0 -203 -3t-161 -3q-19 0 -26 -7.5t-7 -27.5v-231q0 -43 -19 -43q-21 0 -76 148.5t-55 178.5q0 20 14 26.5t54 6.5h84zM750 45v805h-29l-481 -805h510z" />
    <glyph glyph-name="afii10070" unicode="&#x435;" horiz-adv-x="1024" 
d="M293 610h434q24 0 32.5 11t8.5 53q0 34 -11 66t-34.5 62t-67.5 48t-102 18q-109 0 -175 -69t-85 -189zM922 559h-639q-11 -57 -11 -98q0 -108 31.5 -192t83 -131.5t110 -71t119.5 -23.5t111 20.5t75 45t47 45t34 20.5q8 0 15 -6t7 -16q0 -19 -22.5 -48.5t-63 -60.5
t-109 -52.5t-147.5 -21.5q-70 0 -137 15.5t-131.5 51t-112.5 88t-77 133t-29 179.5q0 134 69 246.5t178 175t230 62.5q165 0 280 -92t115 -234q0 -35 -26 -35z" />
    <glyph glyph-name="afii10072" unicode="&#x436;" horiz-adv-x="1593" 
d="M713 479v295q0 36 -20.5 58.5t-57.5 23.5q-66 3 -66 21t33 18t97.5 -3t97.5 -3t97 3t97 3t33 -18t-66 -21q-37 -1 -57 -23.5t-20 -58.5v-295q116 0 166 29t81 110l70 183q26 67 65 93t107 26q53 0 83 -25.5t30 -58.5q0 -26 -17.5 -46t-42.5 -20q-30 0 -49 12t-26 26
t-20 26t-32 12q-23 0 -37 -23t-42 -94l-58 -147q-18 -45 -35.5 -67.5t-50.5 -45.5v-4q122 -17 185.5 -64t99.5 -141q45 -117 67 -155t48 -39q23 0 35 15t17.5 30.5t12.5 15.5q14 0 14 -25q0 -45 -35 -89t-83 -44q-77 0 -129 51t-95 168q-29 78 -59 127.5t-66.5 75
t-72.5 34.5t-88 9h-43v-319q0 -36 20 -58.5t57 -23.5q66 -3 66 -21t-33 -18t-97 3t-97 3t-97.5 -3t-97.5 -3t-33 18t66 21q37 1 57.5 23.5t20.5 58.5v319h-43q-52 0 -88.5 -9t-73 -34.5t-66.5 -75t-59 -127.5q-43 -117 -95 -168t-128 -51q-48 0 -83.5 44t-35.5 89
q0 25 14 25q7 0 13 -15t18 -30.5t35 -15.5q26 1 48 39t67 155q36 94 99 141t185 64v4q-33 23 -50.5 45.5t-35.5 67.5l-57 147q-28 70 -42.5 93.5t-37.5 23.5q-19 0 -32 -12t-20 -26t-26 -26t-49 -12q-25 0 -42 20t-17 46q0 33 29.5 58.5t82.5 25.5q68 0 107 -26t65 -93
l70 -183q31 -81 81 -110t167 -29z" />
    <glyph glyph-name="afii10073" unicode="&#x437;" horiz-adv-x="909" 
d="M842 248q0 -131 -116.5 -205t-305.5 -74q-148 0 -250 65.5t-102 131.5q0 70 61 70q33 0 51.5 -17t23.5 -42t17 -55t28.5 -55t59.5 -42t109 -17q95 0 161 60.5t66 173.5q0 126 -62 172.5t-186 46.5q-33 0 -45 4.5t-12 15.5q0 7 6 10.5t26.5 6t59.5 2.5q81 0 133.5 45
t52.5 145q0 93 -53 142t-151 49q-82 0 -129.5 -29t-81.5 -86q-17 -31 -32.5 -71t-25 -57t-22.5 -17q-14 0 -14 28q0 19 4 103t4 102q0 47 24 47q7 0 19 -19.5t24 -19.5q10 0 39 14.5t83 29t126 14.5q96 0 177 -24t135.5 -78t54.5 -128q0 -152 -217 -207v-4q260 -44 260 -231
z" />
    <glyph glyph-name="afii10074" unicode="&#x438;" horiz-adv-x="1251" 
d="M211 115v659q0 36 -20.5 58.5t-57.5 23.5q-65 3 -65 21t32 18q34 0 100.5 -3t100.5 -3t100.5 3t100.5 3q33 0 33 -18t-66 -21q-37 -1 -57.5 -23.5t-20.5 -58.5v-524l469 461v63q0 36 -20.5 58.5t-57.5 23.5q-65 3 -65 21t33 18q34 0 100 -3t100 -3t100.5 3t100.5 3
q33 0 33 -18t-66 -21q-37 -1 -57.5 -23.5t-20.5 -58.5v-659q0 -36 20.5 -58.5t57.5 -23.5q66 -3 66 -21t-33 -18q-34 0 -100.5 3t-100.5 3t-100 -3t-100 -3q-33 0 -33 18t65 21q37 1 57.5 23.5t20.5 58.5v522l-469 -461v-61q0 -36 20.5 -58.5t57.5 -23.5q66 -3 66 -21
t-33 -18q-34 0 -100.5 3t-100.5 3t-100.5 -3t-100.5 -3q-32 0 -32 18t65 21q37 1 57.5 23.5t20.5 58.5z" />
    <glyph glyph-name="afii10075" unicode="&#x439;" horiz-adv-x="1251" 
d="M211 115v659q0 36 -20.5 58.5t-57.5 23.5q-65 3 -65 21t32 18q34 0 100.5 -3t100.5 -3t100.5 3t100.5 3q33 0 33 -18t-66 -21q-37 -1 -57.5 -23.5t-20.5 -58.5v-524l469 461v63q0 36 -20.5 58.5t-57.5 23.5q-65 3 -65 21t33 18q34 0 100 -3t100 -3t100.5 3t100.5 3
q33 0 33 -18t-66 -21q-37 -1 -57.5 -23.5t-20.5 -58.5v-659q0 -36 20.5 -58.5t57.5 -23.5q66 -3 66 -21t-33 -18q-34 0 -100.5 3t-100.5 3t-100 -3t-100 -3q-33 0 -33 18t65 21q37 1 57.5 23.5t20.5 58.5v522l-469 -461v-61q0 -36 20.5 -58.5t57.5 -23.5q66 -3 66 -21
t-33 -18q-34 0 -100.5 3t-100.5 3t-100.5 -3t-100.5 -3q-32 0 -32 18t65 21q37 1 57.5 23.5t20.5 58.5zM625 1098q-148 0 -251.5 59.5t-103.5 159.5q0 31 24.5 59.5t67.5 28.5q44 0 66.5 -25t22.5 -59q0 -25 -11.5 -49t-11.5 -29q0 -100 197 -100q196 0 196 100q0 5 -11 29
t-11 49q0 34 22 59t66 25q43 0 67.5 -28.5t24.5 -59.5q0 -100 -103 -159.5t-251 -59.5z" />
    <glyph glyph-name="afii10076" unicode="&#x43a;" 
d="M211 115v659q0 36 -20.5 58.5t-57.5 23.5q-65 3 -65 21t32 18q34 0 100.5 -3t100.5 -3t100.5 3t100.5 3q33 0 33 -18t-66 -21q-37 -1 -57.5 -23.5t-20.5 -58.5v-295h84q74 0 112 33.5t66 108.5l62 159q55 140 186 140q60 0 91.5 -25.5t31.5 -58.5q0 -26 -17 -46t-42 -20
q-32 0 -49.5 12t-22.5 26t-18 26t-37 12q-23 0 -40 -19t-38 -75l-39 -105q-29 -78 -51.5 -115.5t-55.5 -62.5v-4q131 -25 193 -75t119 -177q42 -94 61 -120.5t39 -26.5q15 0 26.5 9.5t16 21t11 21t12.5 9.5q14 0 14 -25q0 -52 -40 -92.5t-108 -40.5q-57 0 -100.5 40
t-93.5 143q-49 103 -79.5 156.5t-64.5 83.5t-61.5 36t-81.5 6h-86v-319q0 -36 20.5 -58.5t57.5 -23.5q66 -3 66 -21t-33 -18q-34 0 -100.5 3t-100.5 3t-100.5 -3t-100.5 -3q-32 0 -32 18t65 21q37 1 57.5 23.5t20.5 58.5z" />
    <glyph glyph-name="afii10077" unicode="&#x43b;" 
d="M270 162l183 463q51 130 51 176q0 22 -18.5 38.5t-57.5 16.5q-63 0 -63 21q0 11 6.5 14.5t25.5 3.5q38 0 84 -3t62 -3q21 0 56 3t44 3q11 0 16.5 -7.5t16.5 -29.5l315 -756q13 -34 27 -50t39 -19q28 -3 36.5 -7t10.5 -12q0 -20 -29 -20q-11 0 -45 3t-51 3q-19 0 -52 -3
t-44 -3q-15 0 -24.5 8t-18.5 31l-289 698l-229 -594q-66 -168 -203 -168q-107 0 -107 78q0 28 18.5 47t53.5 19q28 0 55 -23.5t47 -23.5q28 0 47.5 25t36.5 71z" />
    <glyph glyph-name="afii10078" unicode="&#x43c;" horiz-adv-x="1366" 
d="M975 115v602h-4l-342 -717h-17l-340 707h-4v-592q0 -36 20.5 -58.5t57.5 -23.5q66 -3 66 -21t-33 -18q-23 0 -69 3t-70 3t-70.5 -3t-69.5 -3q-32 0 -32 18t65 21q37 1 57.5 23.5t20.5 58.5v659q0 36 -20.5 58.5t-57.5 23.5q-65 3 -65 21t32 18q21 0 63.5 -3t63.5 -3
q24 0 67 3t52 3q11 0 17 -7t14 -26l301 -629l299 629q17 33 35 33q9 0 54 -3t69 -3q21 0 65 3t66 3q32 0 32 -18t-65 -21q-37 -1 -57.5 -23.5t-20.5 -58.5v-659q0 -36 20.5 -58.5t57.5 -23.5q65 -3 65 -21t-32 -18q-34 0 -100.5 3t-100.5 3t-100.5 -3t-100.5 -3
q-33 0 -33 18t66 21q37 1 57.5 23.5t20.5 58.5z" />
    <glyph glyph-name="afii10079" unicode="&#x43d;" horiz-adv-x="1251" 
d="M211 115v659q0 36 -20.5 58.5t-57.5 23.5q-65 3 -65 21t32 18q34 0 100.5 -3t100.5 -3t100.5 3t100.5 3q33 0 33 -18t-66 -21q-37 -1 -57.5 -23.5t-20.5 -58.5v-289h469v289q0 36 -20.5 58.5t-57.5 23.5q-65 3 -65 21t33 18q34 0 100 -3t100 -3t100.5 3t100.5 3
q33 0 33 -18t-66 -21q-37 -1 -57.5 -23.5t-20.5 -58.5v-659q0 -36 20.5 -58.5t57.5 -23.5q66 -3 66 -21t-33 -18q-34 0 -100.5 3t-100.5 3t-100 -3t-100 -3q-33 0 -33 18t65 21q37 1 57.5 23.5t20.5 58.5v325h-469v-325q0 -36 20.5 -58.5t57.5 -23.5q66 -3 66 -21t-33 -18
q-34 0 -100.5 3t-100.5 3t-100.5 -3t-100.5 -3q-32 0 -32 18t65 21q37 1 57.5 23.5t20.5 58.5z" />
    <glyph glyph-name="afii10080" unicode="&#x43e;" 
d="M76 440q0 204 143.5 342t358.5 138q121 0 231.5 -57.5t182 -167t71.5 -244.5q0 -206 -143.5 -344t-358.5 -138q-90 0 -177 34.5t-155.5 94.5t-110.5 149.5t-42 192.5zM272 444q0 -210 74 -323t223 -113t223 113t74 323t-74 323.5t-223 113.5t-223 -113.5t-74 -323.5z" />
    <glyph glyph-name="afii10081" unicode="&#x43f;" horiz-adv-x="1251" 
d="M211 115v659q0 36 -20.5 58.5t-57.5 23.5q-65 3 -65 21t34 18q87 0 262.5 -3t262.5 -3t262 3t262 3q33 0 33 -18t-66 -21q-37 -1 -57.5 -23.5t-20.5 -58.5v-659q0 -36 20.5 -58.5t57.5 -23.5q66 -3 66 -21t-33 -18q-34 0 -100.5 3t-100.5 3t-100 -3t-100 -3q-33 0 -33 18
t65 21q37 1 57.5 23.5t20.5 58.5v704q0 10 -6.5 15.5t-32 9.5t-70.5 5t-126 1t-125.5 -1t-69.5 -5t-32 -9.5t-7 -15.5v-704q0 -36 20.5 -58.5t57.5 -23.5q66 -3 66 -21t-33 -18q-34 0 -100.5 3t-100.5 3t-100.5 -3t-100.5 -3q-32 0 -32 18t65 21q37 1 57.5 23.5t20.5 58.5z
" />
    <glyph glyph-name="afii10082" unicode="&#x440;" horiz-adv-x="1251" 
d="M242 -432v1155q0 51 -15 71.5t-63 20.5h-29q-23 0 -30 3.5t-7 12.5q0 15 35 23t95 24.5t103 29t48 12.5q14 0 14 -21v-151h4q102 172 305 172q93 0 177.5 -35t149 -97.5t102.5 -156.5t38 -205q0 -132 -63.5 -237.5t-169.5 -162.5t-234 -57q-177 0 -280 109v-510
q0 -36 20.5 -58.5t57.5 -23.5q65 -3 65 -21t-33 -18q-34 0 -100 3t-100 3t-100.5 -3t-100.5 -3q-33 0 -33 18t66 21q37 1 57.5 23.5t20.5 58.5zM410 547v-240q0 -66 10.5 -112.5t37.5 -86.5t80.5 -60.5t133.5 -20.5q135 0 214 113t79 309q0 201 -75 307t-210 106
q-136 0 -203 -81t-67 -234z" />
    <glyph glyph-name="afii10083" unicode="&#x441;" horiz-adv-x="909" 
d="M57 436q0 112 44.5 205.5t118.5 153t167.5 92.5t194.5 33q128 0 194 -40t66 -87q0 -33 -20 -51.5t-50 -18.5q-42 0 -65 47q-34 67 -63.5 89t-94.5 22q-54 0 -101.5 -22.5t-91 -72.5t-69 -144t-25.5 -222q0 -104 28 -183.5t73.5 -123t96.5 -65t105 -21.5q76 0 134 23
t73 63q12 29 21 38t24 9q35 0 35 -37q0 -17 -18.5 -41t-55 -50.5t-105.5 -44.5t-155 -18q-67 0 -130 14t-124 48.5t-106 86.5t-73 134t-28 184z" />
    <glyph glyph-name="afii10084" unicode="&#x442;" horiz-adv-x="1024" 
d="M422 115v704q0 18 -23 24.5t-102 6.5q-84 0 -132 -21t-59 -73q-8 -34 -14 -52.5t-10.5 -24t-9.5 -5.5q-15 0 -15 33q0 13 6.5 81.5t6.5 77.5q0 18 4.5 23.5t17.5 5.5q69 0 208.5 -3t211.5 -3t211.5 3t208.5 3q13 0 17.5 -5.5t4.5 -23.5q0 -9 6.5 -77.5t6.5 -81.5
q0 -33 -15 -33q-5 0 -9.5 5.5t-10.5 24t-14 52.5q-11 52 -59 73t-132 21q-79 0 -102 -6.5t-23 -24.5v-704q0 -36 20.5 -58.5t57.5 -23.5q65 -3 65 -21t-32 -18q-34 0 -100.5 3t-100.5 3t-100.5 -3t-100.5 -3q-32 0 -32 18t65 21q37 1 57.5 23.5t20.5 58.5z" />
    <glyph glyph-name="afii10085" unicode="&#x443;" horiz-adv-x="1024" 
d="M379 713l199 -498h4l184 444q43 99 43 136q0 49 -57 61q-50 11 -55 16q-3 4 -3 9q0 14 33 14q19 0 58 -3t59 -3t59 3t58 3q22 0 22 -16q0 -19 -29 -23q-37 -4 -51 -35l-573 -1286q-28 -62 -53.5 -85t-57.5 -23q-28 0 -45.5 18t-17.5 47q0 17 7 30t25 24.5t26 16t32 15.5
q41 19 99 122t97 199t39 115q0 11 -20 58l-295 692q-15 33 -22 46.5t-22 27.5t-34 18q-47 9 -47 21q0 18 33 18q34 0 100 -3t100 -3q36 0 99 3t86 3q33 0 33 -18q0 -19 -58 -21q-30 -2 -52 -17.5t-22 -43.5q0 -27 19 -82z" />
    <glyph glyph-name="afii10086" unicode="&#x444;" horiz-adv-x="1363" 
d="M592 -432v401q-106 5 -199 37t-166.5 89.5t-116 147.5t-42.5 201q0 90 28 166t77 131t115.5 94.5t143 60t160.5 24.5v208q0 36 -20.5 58.5t-57.5 23.5q-65 3 -65 21t32 18q34 0 100.5 -3t100.5 -3t100.5 3t100.5 3q32 0 32 -18t-65 -21q-37 -1 -57.5 -23.5t-20.5 -58.5
v-208q84 -4 160.5 -24.5t143 -60t115.5 -94.5t77 -131t28 -166q0 -111 -42.5 -201t-116 -147.5t-166.5 -89.5t-199 -37v-401q0 -36 20.5 -58.5t57.5 -23.5q65 -3 65 -21t-32 -18q-34 0 -100.5 3t-100.5 3t-100.5 -3t-100.5 -3q-32 0 -32 18t65 21q37 1 57.5 23.5t20.5 58.5z
M592 8v873q-156 -7 -242 -124t-86 -313t86 -312.5t242 -123.5zM772 881v-873q156 7 242 123.5t86 312.5t-86 313t-242 124z" />
    <glyph glyph-name="afii10087" unicode="&#x445;" 
d="M469 418l-307 375q-18 22 -28.5 33t-25 20.5t-28.5 9.5q-43 0 -43 21q0 18 33 18q32 0 95 -3t93 -3t92.5 3t93.5 3q35 0 35 -18q0 -21 -65 -21q-45 0 -45 -37q0 -22 61 -94l154 -184l133 159q51 60 51 103q0 53 -66 53q-49 0 -49 21q0 18 33 18q26 0 81 -3t81 -3
q28 0 81 3t75 3q16 0 16 -16q0 -23 -33 -23q-41 0 -66 -14t-59 -54l-248 -284l267 -320q125 -149 170 -151q51 -3 51 -21t-37 -18q-36 0 -106.5 3t-106.5 3t-106.5 -3t-106.5 -3q-33 0 -33 18t66 21q57 3 57 47q0 6 -1.5 12t-6.5 14t-10 15.5t-16 20.5t-19.5 23t-25 30
t-29.5 36l-119 146l-70 -84q-63 -80 -94 -126.5t-31 -74.5q0 -25 13.5 -41.5t39.5 -17.5q66 -3 66 -21t-33 -18q-25 0 -75 3t-76 3t-76 -3t-76 -3q-47 0 -47 16q0 18 70 23q23 2 46.5 18.5t41 36.5t53.5 65l12 15z" />
    <glyph glyph-name="afii10088" unicode="&#x446;" horiz-adv-x="1251" 
d="M860 143v631q0 36 -20.5 58.5t-57.5 23.5q-65 3 -65 21t33 18q34 0 100 -3t100 -3t100.5 3t100.5 3q33 0 33 -18t-66 -21q-37 -1 -57.5 -23.5t-20.5 -58.5v-631q0 -98 76 -98q39 0 53.5 -7t14.5 -26q0 -30 -55 -178.5t-76 -148.5q-19 0 -19 43v231q0 20 -7 27.5t-26 7.5
q-294 6 -444 6q-38 0 -113.5 -1t-113.5 -1q-156 -4 -230 -4q-32 0 -32 18t65 21q37 1 57.5 23.5t20.5 58.5v659q0 36 -20.5 58.5t-57.5 23.5q-65 3 -65 21t32 18q34 0 100.5 -3t100.5 -3t100.5 3t100.5 3q33 0 33 -18t-66 -21q-37 -1 -57.5 -23.5t-20.5 -58.5v-631
q0 -58 51.5 -78t184.5 -20q132 0 182.5 20t50.5 78z" />
    <glyph glyph-name="afii10089" unicode="&#x447;" 
d="M739 115v319q-98 -67 -254 -67q-154 0 -226.5 54t-72.5 179v174q0 36 -20 58.5t-57 23.5q-66 3 -66 21t33 18q34 0 100 -3t100 -3t100.5 3t100.5 3q33 0 33 -18t-66 -21q-37 -1 -57 -23.5t-20 -58.5v-166q0 -107 41 -148.5t137 -41.5q107 0 194 61v295q0 36 -20 58.5
t-57 23.5q-66 3 -66 21t33 18q34 0 100 -3t100 -3t100.5 3t100.5 3q33 0 33 -18t-66 -21q-37 -1 -57 -23.5t-20 -58.5v-659q0 -36 20 -58.5t57 -23.5q66 -3 66 -21t-33 -18q-34 0 -100.5 3t-100.5 3t-100 -3t-100 -3q-33 0 -33 18t66 21q37 1 57 23.5t20 58.5z" />
    <glyph glyph-name="afii10090" unicode="&#x448;" horiz-adv-x="1703" 
d="M1331 143v631q0 36 -20.5 58.5t-57.5 23.5q-65 3 -65 21t33 18q34 0 100 -3t100 -3t100.5 3t100.5 3q33 0 33 -18t-66 -21q-37 -1 -57.5 -23.5t-20.5 -58.5v-659q0 -36 20.5 -58.5t57.5 -23.5q66 -3 66 -21t-33 -18q-128 0 -385 3t-385 3t-385 -3t-385 -3q-33 0 -33 18
t66 21q37 1 57.5 23.5t20.5 58.5v659q0 36 -20.5 58.5t-57.5 23.5q-66 3 -66 21t33 18q34 0 100.5 -3t100.5 -3t100 3t100 3q33 0 33 -18t-65 -21q-37 -1 -57.5 -23.5t-20.5 -58.5v-631q0 -57 45 -77.5t149 -20.5t149.5 20.5t45.5 77.5v631q0 36 -20.5 58.5t-57.5 23.5
q-66 3 -66 21t33 18q34 0 100.5 -3t100.5 -3t100.5 3t100.5 3q32 0 32 -18t-65 -21q-37 -1 -57.5 -23.5t-20.5 -58.5v-631q0 -57 45.5 -77.5t149.5 -20.5t149 20.5t45 77.5z" />
    <glyph glyph-name="afii10091" unicode="&#x449;" horiz-adv-x="1703" 
d="M1331 143v631q0 36 -20.5 58.5t-57.5 23.5q-65 3 -65 21t33 18q34 0 100 -3t100 -3t100.5 3t100.5 3q33 0 33 -18t-66 -21q-37 -1 -57.5 -23.5t-20.5 -58.5v-631q0 -98 76 -98q39 0 53.5 -7t14.5 -26q0 -30 -55 -178.5t-76 -148.5q-19 0 -19 43v231q0 20 -6.5 27.5
t-25.5 7.5q-107 0 -338 3t-349 3q-58 0 -175 -1t-175 -1q-238 -4 -352 -4q-35 0 -35 18t66 21q37 1 57.5 23.5t20.5 58.5v659q0 36 -20.5 58.5t-57.5 23.5q-66 3 -66 21t33 18q34 0 100.5 -3t100.5 -3t100 3t100 3q33 0 33 -18t-65 -21q-37 -1 -57.5 -23.5t-20.5 -58.5v-631
q0 -57 45 -77.5t149 -20.5t149.5 20.5t45.5 77.5v631q0 36 -20.5 58.5t-57.5 23.5q-66 3 -66 21t33 18q34 0 100.5 -3t100.5 -3t100.5 3t100.5 3q32 0 32 -18t-65 -21q-37 -1 -57.5 -23.5t-20.5 -58.5v-631q0 -57 45.5 -77.5t149.5 -20.5t149 20.5t45 77.5z" />
    <glyph glyph-name="afii10092" unicode="&#x44a;" horiz-adv-x="1251" 
d="M438 115v704q0 31 -82 31q-81 0 -130 -12.5t-72.5 -33.5t-42.5 -59q-3 -6 -8 -18t-9 -20t-8.5 -16t-9.5 -12.5t-10 -4.5q-17 0 -17 24q0 15 4 90.5t4 88.5q0 18 27 18q65 0 176 -3t148 -3q53 0 160.5 3t160.5 3q33 0 33 -18t-66 -21q-37 -1 -57.5 -23.5t-20.5 -58.5v-246
q89 7 158 7q208 0 313 -73.5t105 -199.5q0 -129 -98.5 -198.5t-257.5 -69.5q-56 0 -160.5 3t-149.5 3q-34 0 -100 -3t-100 -3q-33 0 -33 18t65 21q37 1 57.5 23.5t20.5 58.5zM618 459v-185q0 -57 3.5 -92.5t14 -65.5t31.5 -45.5t53.5 -23.5t82.5 -8q83 0 138.5 55t55.5 164
q0 121 -71 176t-193 55h-7q-64 0 -86 -4.5t-22 -25.5z" />
    <glyph glyph-name="afii10093" unicode="&#x44b;" horiz-adv-x="1478" 
d="M1087 115v659q0 36 -20 58.5t-57 23.5q-66 3 -66 21t33 18q34 0 100.5 -3t100.5 -3t100 3t100 3q33 0 33 -18t-65 -21q-37 -1 -57.5 -23.5t-20.5 -58.5v-659q0 -36 20.5 -58.5t57.5 -23.5q65 -3 65 -21t-33 -18q-34 0 -100 3t-100 3t-100.5 -3t-100.5 -3q-33 0 -33 18
t66 21q37 1 57 23.5t20 58.5zM199 115v659q0 36 -20.5 58.5t-57.5 23.5q-66 3 -66 21t33 18q34 0 100.5 -3t100.5 -3t100 3t100 3q33 0 33 -18t-65 -21q-37 -1 -57.5 -23.5t-20.5 -58.5v-246q89 7 143 7q200 0 303 -73.5t103 -199.5q0 -128 -97 -198t-247 -70
q-47 0 -147.5 3t-147.5 3q-34 0 -100.5 -3t-100.5 -3q-33 0 -33 18t66 21q37 1 57.5 23.5t20.5 58.5zM379 459v-185q0 -72 5.5 -112t23.5 -70.5t51 -41.5t90 -11q75 0 128.5 55.5t53.5 163.5q0 119 -66.5 175t-170.5 56h-7q-64 0 -86 -4.5t-22 -25.5z" />
    <glyph glyph-name="afii10094" unicode="&#x44c;" horiz-adv-x="1024" 
d="M211 115v659q0 36 -20.5 58.5t-57.5 23.5q-65 3 -65 21t32 18q34 0 100.5 -3t100.5 -3t100.5 3t100.5 3q33 0 33 -18t-66 -21q-37 -1 -57.5 -23.5t-20.5 -58.5v-246q89 7 158 7q208 0 313 -73.5t105 -199.5q0 -129 -99 -198.5t-258 -69.5q-56 0 -160 3t-149 3
q-34 0 -100.5 -3t-100.5 -3q-32 0 -32 18t65 21q37 1 57.5 23.5t20.5 58.5zM391 459v-185q0 -72 5.5 -112t25 -70.5t55.5 -41.5t98 -11q83 0 139 55t56 164q0 121 -71 176t-193 55h-7q-64 0 -86 -4.5t-22 -25.5z" />
    <glyph glyph-name="afii10095" unicode="&#x44d;" horiz-adv-x="1024" 
d="M948 444q0 -214 -138.5 -344.5t-379.5 -130.5q-139 0 -246.5 65.5t-107.5 137.5q0 64 67 64q29 0 46.5 -17t23.5 -42t18.5 -55t30 -55t59.5 -42t105 -17q129 0 209.5 87.5t103.5 256.5q-36 31 -53 43.5t-47 24.5t-64 12q-73 0 -145 -23.5t-72 -50.5q0 -21 4.5 -49
t4.5 -35q0 -20 -19 -20q-24 0 -69.5 136t-45.5 185q0 17 17 17q11 0 20 -12t16 -27t23 -27t39 -12q16 0 65.5 7t80.5 7q70 0 126 -29t128 -100q4 32 4 45q0 199 -87 318t-245 119q-65 2 -116 -24.5t-79.5 -65t-48.5 -77t-32.5 -66t-20.5 -27.5q-17 0 -17 28q0 12 6.5 105.5
t6.5 107.5q0 39 16 39q7 0 23 -19.5t26 -19.5q15 0 44 14.5t80.5 29t121.5 14.5q119 0 218 -39.5t164 -106t100.5 -152t35.5 -178.5z" />
    <glyph glyph-name="afii10096" unicode="&#x44e;" horiz-adv-x="1593" 
d="M211 115v659q0 36 -20.5 58.5t-57.5 23.5q-65 3 -65 21t32 18q34 0 100.5 -3t100.5 -3t100.5 3t100.5 3q33 0 33 -18t-66 -21q-37 -1 -57.5 -23.5t-20.5 -58.5v-295h176q17 195 145 318t320 123q121 0 231.5 -57.5t182.5 -167t72 -244.5q0 -206 -143.5 -344t-358.5 -138
q-177 0 -306.5 128t-142.5 331h-176v-313q0 -36 20.5 -58.5t57.5 -23.5q66 -3 66 -21t-33 -18q-34 0 -100.5 3t-100.5 3t-100.5 -3t-100.5 -3q-32 0 -32 18t65 21q37 1 57.5 23.5t20.5 58.5zM764 444q0 -221 71.5 -328.5t188.5 -107.5q149 0 223 113t74 323t-74 323.5
t-223 113.5q-117 0 -188.5 -107.5t-71.5 -329.5z" />
    <glyph glyph-name="afii10097" unicode="&#x44f;" 
d="M739 115v284q0 13 -9.5 17t-31.5 4q-73 0 -114 -10t-61.5 -28.5t-41.5 -57.5l-96 -177q-51 -93 -110 -135.5t-111 -42.5q-38 0 -66 14.5t-41 37t-18.5 42t-5.5 37.5q0 23 16 23q10 0 15.5 -18t16 -36t34.5 -18q18 0 35 26t53 111q47 114 111 175.5t178 68.5v4
q-149 20 -219 77t-70 153q0 122 86.5 175.5t247.5 53.5q47 0 143 -3t149 -3q34 0 100.5 3t100.5 3q33 0 33 -18t-66 -21q-37 -1 -57 -23.5t-20 -58.5v-659q0 -36 20 -58.5t57 -23.5q66 -3 66 -21t-33 -18q-34 0 -100.5 3t-100.5 3t-100 -3t-100 -3q-33 0 -33 18t66 21
q37 1 57 23.5t20 58.5zM739 477v348q0 19 -22 25t-90 6q-107 0 -167.5 -49t-60.5 -152q0 -108 68 -152t201 -44q41 0 56 3.5t15 14.5z" />
    <glyph glyph-name="afii10071" unicode="&#x451;" horiz-adv-x="1024" 
d="M293 610h434q24 0 32.5 11t8.5 53q0 34 -11 66t-34.5 62t-67.5 48t-102 18q-109 0 -175 -69t-85 -189zM922 559h-639q-11 -57 -11 -98q0 -108 31.5 -192t83 -131.5t110 -71t119.5 -23.5t111 20.5t75 45t47 45t34 20.5q8 0 15 -6t7 -16q0 -19 -22.5 -48.5t-63 -60.5
t-109 -52.5t-147.5 -21.5q-70 0 -137 15.5t-131.5 51t-112.5 88t-77 133t-29 179.5q0 134 69 246.5t178 175t230 62.5q165 0 280 -92t115 -234q0 -35 -26 -35zM653 1253q0 43 30 73t73 30t72.5 -30t29.5 -73t-29.5 -72.5t-72.5 -29.5t-73 29.5t-30 72.5zM248 1253
q0 43 29.5 73t72.5 30t73 -30t30 -73t-30 -72.5t-73 -29.5t-72.5 29.5t-29.5 72.5z" />
    <glyph glyph-name="afii10099" unicode="&#x452;" horiz-adv-x="1251" 
d="M57 1106v65h181v54q0 73 -20 97t-95 24q-39 0 -39 18q0 17 18 20q17 3 90.5 19.5t140 31.5t70.5 15q15 0 15 -20v-259h436v-65h-436v-352h4q56 83 140 124.5t175 41.5q314 0 314 -306v-745q0 -191 -90 -303.5t-279 -112.5q-123 0 -184.5 44t-61.5 93q0 27 20.5 45.5
t47.5 18.5q50 0 86 -82q32 -74 100 -74q94 0 137 78.5t43 271.5v754q0 252 -213 252q-92 0 -165.5 -80.5t-73.5 -191.5v-418q0 -77 17.5 -101.5t60.5 -29.5q41 -4 53 -9t12 -14q0 -16 -33 -16q-17 0 -94.5 3t-116.5 3q-38 0 -115.5 -3t-99.5 -3q-18 0 -18 18q0 15 43 21
q65 9 88 38t23 93v942h-181z" />
    <glyph glyph-name="afii10100" unicode="&#x453;" horiz-adv-x="909" 
d="M299 1098l301 303q49 49 88 49q30 0 50 -20t20 -50q0 -45 -62 -84l-315 -198h-82zM227 115v659q0 36 -20 58.5t-57 23.5q-66 3 -66 21t33 18q61 0 180 -3t180 -3t181 3t180 3q26 0 26 -18q0 -13 4 -88.5t4 -90.5q0 -24 -16 -24q-5 0 -10 4.5t-9.5 12.5t-8.5 16t-9 20
t-8 18q-27 55 -90.5 80t-192.5 25q-75 0 -97.5 -6.5t-22.5 -24.5v-704q0 -36 20 -58.5t57 -23.5q66 -3 66 -21t-33 -18q-34 0 -100.5 3t-100.5 3t-100 -3t-100 -3q-33 0 -33 18t66 21q37 1 57 23.5t20 58.5z" />
    <glyph glyph-name="afii10101" unicode="&#x454;" horiz-adv-x="1024" 
d="M76 444q0 93 35.5 178.5t100.5 152t164 106t218 39.5q70 0 121.5 -14.5t80.5 -29t44 -14.5q10 0 26 19.5t23 19.5q16 0 16 -39q0 -14 6.5 -107.5t6.5 -105.5q0 -28 -17 -28q-8 0 -20.5 27.5t-32.5 66t-48.5 77t-79.5 65t-116 24.5q-158 0 -245 -119t-87 -318q0 -13 4 -45
q72 71 128 100t126 29q31 0 80.5 -7t65.5 -7q23 0 39 12t23 27t16 27t20 12q17 0 17 -17q0 -49 -45.5 -185t-69.5 -136q-19 0 -19 20q0 7 4.5 35t4.5 49q0 27 -72 50.5t-145 23.5q-34 0 -64 -12t-47 -24.5t-53 -43.5q23 -169 103.5 -256.5t209.5 -87.5q63 0 105 17t59.5 42
t30 55t18.5 55t23.5 42t46.5 17q67 0 67 -64q0 -72 -107.5 -137.5t-246.5 -65.5q-241 0 -379.5 130.5t-138.5 344.5z" />
    <glyph glyph-name="afii10102" unicode="&#x455;" horiz-adv-x="796" 
d="M106 672q0 113 74.5 180.5t192.5 67.5q45 0 96 -15.5t74 -15.5q18 0 34.5 15.5t24.5 15.5q19 0 19 -19q0 -9 3 -98.5t3 -112.5q0 -26 -21 -26q-11 0 -20 12.5t-25 56.5q-54 141 -186 141q-68 0 -107 -33.5t-39 -88.5q0 -40 26.5 -73.5t68 -57.5t92.5 -48t102 -53
t92.5 -64t68 -89t26.5 -121q0 -113 -79 -195t-218 -82q-56 0 -104 14t-78 28t-42 14q-19 0 -36 -21.5t-27 -21.5q-19 0 -19 24q0 11 -5 122.5t-5 129.5q0 11 6.5 18t14.5 7q3 0 6 -1t5.5 -4.5t4 -6t3.5 -8.5t3.5 -10t4 -12.5t3.5 -13.5q66 -213 252 -213q79 0 126.5 44.5
t47.5 105.5q0 46 -25.5 83t-66.5 64t-90 52t-98.5 53t-90.5 61t-66.5 83t-25.5 112z" />
    <glyph glyph-name="afii10103" unicode="&#x456;" horiz-adv-x="569" 
d="M211 164v559q0 51 -15 71.5t-63 20.5h-37q-39 0 -39 19q0 17 19 20q17 3 90.5 19.5t140 31.5t70.5 15q14 0 14 -21v-735q0 -77 17.5 -101.5t60.5 -29.5q41 -4 53.5 -9t12.5 -14q0 -16 -33 -16q-17 0 -94.5 3t-116.5 3q-38 0 -115.5 -3t-99.5 -3q-19 0 -19 18q0 15 43 21
q65 9 88 38t23 93zM170 1262q0 46 32.5 78t78.5 32t78 -32t32 -78t-32 -78.5t-78 -32.5t-78.5 32.5t-32.5 78.5z" />
    <glyph glyph-name="afii10104" unicode="&#x457;" horiz-adv-x="569" 
d="M385 1253q0 43 29.5 73t72.5 30t73 -30t30 -73t-30 -72.5t-73 -29.5t-72.5 29.5t-29.5 72.5zM-20 1253q0 43 29.5 73t72.5 30t72.5 -30t29.5 -73t-29.5 -72.5t-72.5 -29.5t-72.5 29.5t-29.5 72.5zM211 164v559q0 51 -15 71.5t-63 20.5h-37q-39 0 -39 19q0 17 19 20
q17 3 90.5 19.5t140 31.5t70.5 15q14 0 14 -21v-735q0 -77 17.5 -101.5t60.5 -29.5q41 -4 53.5 -9t12.5 -14q0 -16 -33 -16q-17 0 -94.5 3t-116.5 3q-38 0 -115.5 -3t-99.5 -3q-19 0 -19 18q0 15 43 21q65 9 88 38t23 93z" />
    <glyph glyph-name="afii10105" unicode="&#x458;" horiz-adv-x="569" 
d="M242 -201v924q0 51 -15 71.5t-63 20.5h-37q-39 0 -39 19q0 17 18 20q17 3 91 19.5t140.5 31.5t70.5 15q14 0 14 -21v-1096q0 -91 -33.5 -164.5t-89.5 -118.5t-124 -69t-140 -24q-130 0 -210.5 41.5t-80.5 95.5q0 63 66 63q52 0 77 -57q43 -98 148 -98q103 0 155 76.5
t52 250.5zM201 1262q0 46 32 78t78 32t78.5 -32t32.5 -78t-32.5 -78.5t-78.5 -32.5t-78 32.5t-32 78.5z" />
    <glyph glyph-name="afii10106" unicode="&#x459;" horiz-adv-x="1366" 
d="M602 115v735h-43l-252 -713q-61 -168 -201 -168q-106 0 -106 78q0 28 18.5 47t53.5 19q28 0 55 -23.5t47 -23.5q25 0 44 22t38 74l197 559q16 40 16 72q0 28 -15 45.5t-61 17.5q-63 0 -63 23q0 16 59 16q42 0 126 -3t126 -3t126 3t126 3q33 0 33 -18t-66 -21
q-37 -1 -57.5 -23.5t-20.5 -58.5v-246q89 7 144 7q185 0 284 -74t99 -199q0 -127 -93.5 -197.5t-228.5 -70.5q-47 0 -147.5 3t-147.5 3q-34 0 -100 -3t-100 -3q-33 0 -33 18t65 21q37 1 57.5 23.5t20.5 58.5zM782 459v-185q0 -138 28 -186.5t120 -48.5q75 0 128.5 55.5
t53.5 163.5q0 119 -67 175t-171 56q-28 0 -39 -0.5t-26.5 -3t-21 -9t-5.5 -17.5z" />
    <glyph glyph-name="afii10107" unicode="&#x45a;" horiz-adv-x="1593" 
d="M211 115v659q0 36 -20.5 58.5t-57.5 23.5q-65 3 -65 21t32 18q34 0 100.5 -3t100.5 -3t100.5 3t100.5 3q33 0 33 -18t-66 -21q-37 -1 -57.5 -23.5t-20.5 -58.5v-252h424v252q0 36 -20.5 58.5t-57.5 23.5q-65 3 -65 21t33 18q34 0 100 -3t100 -3t100.5 3t100.5 3
q33 0 33 -18t-66 -21q-37 -1 -57.5 -23.5t-20.5 -58.5v-246q89 7 144 7q200 0 302.5 -73.5t102.5 -199.5q0 -128 -97 -198t-247 -70q-47 0 -147.5 3t-147.5 3q-34 0 -100 -3t-100 -3q-33 0 -33 18t65 21q37 1 57.5 23.5t20.5 58.5v362h-424v-362q0 -36 20.5 -58.5
t57.5 -23.5q66 -3 66 -21t-33 -18q-34 0 -100.5 3t-100.5 3t-100.5 -3t-100.5 -3q-32 0 -32 18t65 21q37 1 57.5 23.5t20.5 58.5zM995 459v-185q0 -72 5.5 -112t23.5 -70.5t51 -41.5t90 -11q75 0 129 55.5t54 163.5q0 119 -67 175t-171 56h-7q-64 0 -86 -4.5t-22 -25.5z" />
    <glyph glyph-name="afii10108" unicode="&#x45b;" horiz-adv-x="1251" 
d="M57 1106v65h181v54q0 73 -20 97t-95 24q-39 0 -39 18q0 17 18 20q17 3 90.5 19.5t140 31.5t70.5 15q15 0 15 -20v-259h436v-65h-436v-352h4q55 82 140 124t171 42q144 0 231 -65.5t87 -197.5v-493q0 -78 17 -102t60 -29q41 -4 53.5 -9t12.5 -14q0 -16 -33 -16
q-17 0 -94.5 3t-116.5 3q-38 0 -115.5 -3t-99.5 -3q-18 0 -18 18q0 15 43 21q65 9 87.5 38t22.5 93v483q0 95 -51.5 151t-148.5 56q-102 0 -177 -79.5t-75 -192.5v-418q0 -77 17.5 -101.5t60.5 -29.5q41 -4 53 -9t12 -14q0 -16 -33 -16q-17 0 -94.5 3t-116.5 3
q-38 0 -115.5 -3t-99.5 -3q-18 0 -18 18q0 15 43 21q65 9 88 38t23 93v942h-181z" />
    <glyph glyph-name="afii10109" unicode="&#x45c;" 
d="M393 1098l301 303q49 49 88 49q30 0 50 -20t20 -50q0 -46 -61 -84l-316 -198h-82zM211 115v659q0 36 -20.5 58.5t-57.5 23.5q-65 3 -65 21t32 18q34 0 100.5 -3t100.5 -3t100.5 3t100.5 3q33 0 33 -18t-66 -21q-37 -1 -57.5 -23.5t-20.5 -58.5v-295h84q74 0 112 33.5
t66 108.5l62 159q55 140 186 140q60 0 91.5 -25.5t31.5 -58.5q0 -26 -17 -46t-42 -20q-32 0 -49.5 12t-22.5 26t-18 26t-37 12q-23 0 -40 -19t-38 -75l-39 -105q-29 -78 -51.5 -115.5t-55.5 -62.5v-4q131 -25 193 -75t119 -177q42 -94 61 -120.5t39 -26.5q15 0 26.5 9.5
t16 21t11 21t12.5 9.5q14 0 14 -25q0 -52 -40 -92.5t-108 -40.5q-57 0 -100.5 40t-93.5 143q-49 103 -79.5 156.5t-64.5 83.5t-61.5 36t-81.5 6h-86v-319q0 -36 20.5 -58.5t57.5 -23.5q66 -3 66 -21t-33 -18q-34 0 -100.5 3t-100.5 3t-100.5 -3t-100.5 -3q-32 0 -32 18
t65 21q37 1 57.5 23.5t20.5 58.5z" />
    <glyph glyph-name="afii10110" unicode="&#x45e;" horiz-adv-x="1024" 
d="M553 1098q-148 0 -251 59.5t-103 159.5q0 31 24.5 59.5t67.5 28.5q44 0 66 -25t22 -59q0 -25 -11.5 -49t-11.5 -29q0 -100 197 -100t197 100q0 5 -11.5 29t-11.5 49q0 34 22 59t66 25q43 0 67.5 -28.5t24.5 -59.5q0 -100 -103 -159.5t-251 -59.5zM379 713l199 -498h4
l184 444q43 99 43 136q0 49 -57 61q-50 11 -55 16q-3 4 -3 9q0 14 33 14q19 0 58 -3t59 -3t59 3t58 3q22 0 22 -16q0 -19 -29 -23q-37 -4 -51 -35l-573 -1286q-28 -62 -53.5 -85t-57.5 -23q-28 0 -45.5 18t-17.5 47q0 17 7 30t25 24.5t26 16t32 15.5q41 19 99 122t97 199
t39 115q0 11 -20 58l-295 692q-15 33 -22 46.5t-22 27.5t-34 18q-47 9 -47 21q0 18 33 18q34 0 100 -3t100 -3q36 0 99 3t86 3q33 0 33 -18q0 -19 -58 -21q-30 -2 -52 -17.5t-22 -43.5q0 -27 19 -82z" />
    <glyph glyph-name="afii10193" unicode="&#x45f;" horiz-adv-x="1253" 
d="M1040 774v-659q0 -36 20.5 -58.5t57.5 -23.5q66 -3 66 -21t-33 -18q-3 0 -465 6q16 -219 16 -248q0 -20 -20 -20h-111q-20 0 -20 20q0 29 16 248q-75 0 -231 -4q-39 0 -117 -1t-117 -1q-32 0 -32 18t65 21q37 1 57.5 23.5t20.5 58.5v659q0 36 -20.5 58.5t-57.5 23.5
q-65 3 -65 21t32 18q34 0 100.5 -3t100.5 -3t100.5 3t100.5 3q33 0 33 -18t-66 -21q-37 -1 -57.5 -23.5t-20.5 -58.5v-631q0 -60 46 -79t188 -19q141 0 187 19t46 79v631q0 36 -20.5 58.5t-57.5 23.5q-65 3 -65 21t33 18q34 0 100 -3t100 -3t100.5 3t100.5 3q33 0 33 -18
t-66 -21q-37 -1 -57.5 -23.5t-20.5 -58.5z" />
    <glyph glyph-name="afii10146" unicode="&#x462;" horiz-adv-x="1665" 
d="M819 674v-453q0 -87 53 -134.5t158 -47.5q301 0 301 334q0 186 -102.5 259t-313.5 73q-62 0 -79 -6.5t-17 -24.5zM606 254v846q-9 14 -56.5 19t-180.5 5q-69 0 -115.5 -6.5t-87 -24.5t-61.5 -54.5t-25 -92.5q-3 -45 -10 -58.5t-21 -13.5q-16 0 -16 27v250q0 31 33 31
q111 0 289 -3t251 -3q-9 86 -41 120.5t-98 36.5q-59 1 -73.5 5.5t-14.5 17.5t11 17.5t44 4.5q34 0 131 -3t148 -3t147.5 3t130.5 3q33 0 44.5 -4.5t11.5 -17.5t-15 -17.5t-74 -5.5q-72 -1 -102 -41.5t-37 -115.5q107 0 288.5 3t242.5 3q20 0 27 -8t7 -23v-250q0 -27 -16 -27
q-14 0 -21 13.5t-10 58.5q-4 56 -24.5 92.5t-58.5 54.5t-79.5 24.5t-101.5 6.5q-145 0 -195.5 -5.5t-58.5 -20.5v-348h109q657 0 657 -400q0 -100 -46.5 -171.5t-131 -110.5t-185.5 -56.5t-227 -17.5q-47 0 -141 3t-141 3q-51 0 -148 -3t-131 -3q-33 0 -44 4.5t-11 17.5
t14.5 17.5t73.5 5.5q76 2 107.5 50t31.5 165z" />
    <glyph glyph-name="afii10194" unicode="&#x463;" horiz-adv-x="1220" 
d="M408 115v590q0 18 -25 24t-113 6q-111 0 -155 -41q-11 -11 -20.5 -39t-17.5 -49.5t-16 -21.5q-12 0 -12 28q0 20 3 75t3 61q0 16 7 21t22 5h324q0 36 -20.5 58.5t-57.5 23.5q-66 3 -66 21t33 18q34 0 100.5 -3t100.5 -3t100 3t100 3q33 0 33 -18t-65 -21
q-37 -1 -57.5 -23.5t-20.5 -58.5h348q15 0 22 -5t7 -21q0 -6 3 -61t3 -75q0 -28 -13 -28q-8 0 -15.5 21.5t-17 49.5t-20.5 39q-44 41 -155 41h-33q-82 0 -105.5 -6t-23.5 -24v-177q89 7 157 7q208 0 313 -73.5t105 -199.5q0 -129 -98.5 -198.5t-257.5 -69.5q-56 0 -160 3
t-149 3q-34 0 -100.5 -3t-100.5 -3q-33 0 -33 18t66 21q37 1 57.5 23.5t20.5 58.5zM588 459v-185q0 -72 5.5 -112t25 -70.5t55.5 -41.5t98 -11q83 0 139 55t56 164q0 121 -71 176t-194 55h-7q-34 0 -48.5 -0.5t-31 -3t-22 -9t-5.5 -17.5z" />
    <glyph glyph-name="afii10147" unicode="&#x472;" horiz-adv-x="1703" 
d="M90 686q0 209 97.5 374.5t271.5 257t393 91.5t393 -91.5t271.5 -257t97.5 -374.5t-97.5 -374.5t-271.5 -257t-393 -91.5t-393 91.5t-271.5 257t-97.5 374.5zM348 737h1008q-4 96 -25 185.5t-62.5 170.5t-99 141t-139 95t-178.5 35q-119 0 -215.5 -53.5t-156.5 -143.5
t-93.5 -199.5t-38.5 -230.5zM1360 672h-1016q2 -100 22 -195t61.5 -180.5t99.5 -149.5t142 -101.5t183 -37.5t183 37.5t142 101.5t99.5 149.5t61.5 180.5t22 195z" />
    <glyph glyph-name="afii10195" unicode="&#x473;" 
d="M76 440q0 204 143.5 342t358.5 138q121 0 231.5 -57.5t182 -167t71.5 -244.5q0 -206 -143.5 -344t-358.5 -138q-90 0 -177 34.5t-155.5 94.5t-110.5 149.5t-42 192.5zM274 504h590q-9 182 -83.5 279.5t-211.5 97.5t-211.5 -97.5t-83.5 -279.5zM866 459h-594v-15
q0 -210 74 -323t223 -113t223 113t74 323v15z" />
    <glyph glyph-name="afii10148" unicode="&#x474;" horiz-adv-x="1593" 
d="M731 -6l-469 1184q-26 64 -67.5 107.5t-94.5 47.5q-65 4 -65 19q0 18 7.5 22t37.5 4q42 0 125 -3t125 -3t125 3t125 3q33 0 43 -4t10 -22q0 -19 -70 -19q-47 0 -70.5 -21.5t-23.5 -51.5q0 -86 63 -244l322 -817l375 905q70 170 144 237.5t188 67.5q65 0 103 -28t38 -74
q0 -37 -17 -58.5t-45 -21.5q-22 0 -44.5 15.5t-38.5 34.5t-39.5 34.5t-47.5 15.5q-87 0 -176 -213l-465 -1120h-98z" />
    <glyph glyph-name="afii10196" unicode="&#x475;" horiz-adv-x="1024" 
d="M438 0l-303 723q-32 76 -50.5 103t-49.5 30q-43 3 -43 21t33 18q34 0 100 -3t100 -3t100.5 3t100.5 3q33 0 33 -18q0 -21 -66 -21q-35 0 -58.5 -16t-23.5 -45q0 -31 21 -82l192 -471l170 411q61 151 118 205.5t153 54.5q45 0 73.5 -25.5t28.5 -66.5q0 -33 -13.5 -53
t-35.5 -20t-44 23t-42 46t-39 23q-36 0 -69 -50.5t-72 -142.5l-269 -647h-45z" />
    <glyph glyph-name="afii10050" unicode="&#x490;" horiz-adv-x="1251" 
d="M307 254v864q0 117 -31.5 165t-107.5 50q-59 1 -73.5 5.5t-14.5 17.5t11 17.5t44 4.5q40 0 120.5 -1t121.5 -1q40 0 119.5 -2t119.5 -2q121 0 200 6t140.5 21t96.5 43.5t55 69.5t29 104q4 30 11.5 39.5t18.5 9.5q12 0 18.5 -10.5t6.5 -26.5q0 -17 -6 -134t-6 -148
q0 -25 -31 -25q-81 0 -249.5 3t-254.5 3q-58 0 -85.5 -6t-33.5 -15.5t-6 -29.5v-1022q0 -117 31.5 -165t107.5 -50q59 -1 74 -5.5t15 -17.5t-11.5 -17.5t-44.5 -4.5q-34 0 -130.5 3t-147.5 3t-148 -3t-131 -3q-33 0 -44 4.5t-11 17.5t14.5 17.5t73.5 5.5q76 2 107.5 50
t31.5 165z" />
    <glyph glyph-name="afii10098" unicode="&#x491;" horiz-adv-x="909" 
d="M227 115v659q0 36 -20 58.5t-57 23.5q-66 3 -66 21t33 18q1 0 115.5 -5.5t209.5 -4.5q103 1 170 8t106.5 21.5t59 32t33.5 46.5q3 6 8 18t9 20t8.5 16.5t9.5 13t10 4.5q16 0 16 -25q0 -15 -4 -90t-4 -88q0 -18 -26 -18h-361q-39 0 -54 -7t-15 -24v-698q0 -36 20 -58.5
t57 -23.5q66 -3 66 -21t-33 -18q-34 0 -100.5 3t-100.5 3t-100 -3t-100 -3q-33 0 -33 18t66 21q37 1 57 23.5t20 58.5z" />
    <glyph glyph-name="afii10846" unicode="&#x4d9;" horiz-adv-x="1024" 
d="M291 610h436q24 0 32.5 11t8.5 53q0 34 -11 66t-34.5 62t-67.5 48t-102 18q-109 0 -175 -69t-87 -189zM922 559h-641q-9 -40 -9 -98q0 -108 31.5 -192t83 -131.5t110 -71t119.5 -23.5t111 20.5t75 45t47 45t34 20.5q8 0 15 -6t7 -16q0 -19 -22.5 -48.5t-63 -60.5
t-109 -52.5t-147.5 -21.5q-70 0 -137 15.5t-131.5 51t-112.5 88t-77 133t-29 179.5q0 134 69 246.5t178 175t230 62.5q165 0 280 -92t115 -234q0 -35 -26 -35z" />
    <glyph glyph-name="endash" unicode="&#x2013;" horiz-adv-x="1024" 
d="M1024 408h-1024v108h1024v-108z" />
    <glyph glyph-name="emdash" unicode="&#x2014;" horiz-adv-x="2048" 
d="M1782 408h-1516v108h1516v-108z" />
    <glyph glyph-name="quoteleft" unicode="&#x2018;" horiz-adv-x="454" 
d="M322 1409l24 -35q-78 -42 -125 -111.5t-47 -129.5q0 -20 10 -33q32 28 68 28q46 0 74 -29.5t28 -72.5q0 -48 -34 -81.5t-84 -33.5q-62 0 -99 47.5t-37 135.5q0 187 222 315z" />
    <glyph glyph-name="quoteright" unicode="&#x2019;" horiz-adv-x="454" 
d="M133 911l-24 35q78 42 125 112t47 130q0 18 -11 33q-33 -29 -67 -29q-46 0 -74.5 29.5t-28.5 72.5q0 48 34 81.5t85 33.5q62 0 98.5 -47t36.5 -135q0 -189 -221 -316z" />
    <glyph glyph-name="quotesinglbase" unicode="&#x201a;" horiz-adv-x="454" 
d="M133 -276l-24 34q82 45 124.5 119t42.5 119q0 33 -8 37q-18 -29 -67 -29q-46 0 -73.5 29.5t-27.5 72.5q0 48 33.5 81.5t83.5 33.5q63 0 100 -45.5t37 -128.5q0 -104 -63 -191t-158 -132z" />
    <glyph glyph-name="quotedblleft" unicode="&#x201c;" horiz-adv-x="909" 
d="M774 1409l25 -35q-78 -42 -125 -111.5t-47 -129.5q0 -20 10 -33q32 28 68 28q46 0 74 -29.5t28 -72.5q0 -48 -34 -81.5t-85 -33.5q-62 0 -98.5 47t-36.5 136q0 188 221 315zM324 1409l24 -35q-78 -42 -125 -111.5t-47 -129.5q0 -20 10 -33q32 28 68 28q46 0 74 -29.5
t28 -72.5q0 -48 -34 -81.5t-84 -33.5q-62 0 -99 47.5t-37 135.5q0 187 222 315z" />
    <glyph glyph-name="quotedblright" unicode="&#x201d;" horiz-adv-x="909" 
d="M135 911l-24 35q78 42 125 112t47 130q0 18 -11 33q-33 -29 -67 -29q-46 0 -74.5 29.5t-28.5 72.5q0 48 34 81.5t85 33.5q62 0 98.5 -47t36.5 -135q0 -189 -221 -316zM586 911l-25 35q78 42 125 112t47 130q0 20 -10 33q-33 -29 -68 -29q-46 0 -74 29.5t-28 72.5
q0 48 34 81.5t85 33.5q62 0 98.5 -47t36.5 -135q0 -189 -221 -316z" />
    <glyph glyph-name="quotedblbase" unicode="&#x201e;" horiz-adv-x="909" 
d="M135 -281l-24 35q78 42 125 112t47 130q0 18 -11 33q-33 -29 -67 -29q-46 0 -74.5 29.5t-28.5 72.5q0 48 34 81.5t85 33.5q62 0 98.5 -47t36.5 -135q0 -189 -221 -316zM586 -281l-25 35q78 42 125 112t47 130q0 20 -10 33q-33 -29 -68 -29q-46 0 -74 29.5t-28 72.5
q0 48 34 81.5t85 33.5q62 0 98.5 -47t36.5 -135q0 -189 -221 -316z" />
    <glyph glyph-name="dagger" unicode="&#x2020;" horiz-adv-x="1024" 
d="M489 -274v303q0 169 -30 326t-51 198q81 81 81 377q-53 0 -92 -10q-10 -3 -48.5 -19.5t-80.5 -30.5t-71 -14q-80 0 -80 90q0 40 21.5 66t68.5 26q16 0 33.5 -4t31.5 -10t41 -16.5t49 -18.5q59 -20 127 -20q0 51 -1 75t-8.5 68.5t-22.5 89.5q-3 9 -14.5 37.5t-17 46.5
t-5.5 33q0 42 22 70t70 28t70 -28t22 -70q0 -15 -5.5 -33t-17 -46.5t-14.5 -37.5q-15 -45 -22.5 -89.5t-8.5 -68.5t-1 -75q68 0 127 20q22 8 49 18.5t41 16.5t31.5 10t33.5 4q47 0 68.5 -26t21.5 -66q0 -90 -80 -90q-29 0 -71 14t-80.5 30.5t-48.5 19.5q-39 10 -92 10
q0 -296 81 -377q-21 -41 -51 -198t-30 -326v-303h-46z" />
    <glyph glyph-name="daggerdbl" unicode="&#x2021;" horiz-adv-x="1024" 
d="M512 1417q48 0 70 -28t22 -70q0 -15 -5.5 -33t-17 -46.5t-14.5 -37.5q-15 -45 -22.5 -89.5t-8.5 -68.5t-1 -75q68 0 127 20q22 8 49 18.5t41 16.5t31.5 10t33.5 4q47 0 68.5 -26t21.5 -66q0 -90 -80 -90q-29 0 -71 14t-80.5 30.5t-48.5 19.5q-39 10 -92 10
q6 -157 19.5 -215.5t68.5 -143.5q-56 -85 -69 -143t-19 -215q53 0 92 10q10 3 48.5 19.5t80.5 30.5t71 14q80 0 80 -90q0 -40 -21.5 -66.5t-68.5 -26.5q-20 0 -39.5 5.5t-55 20.5t-60.5 24q-59 20 -127 20q0 -51 1 -75t8.5 -68.5t22.5 -89.5q3 -9 14.5 -37.5t17 -46.5
t5.5 -33q0 -42 -22 -70t-70 -28t-70 28t-22 70q0 15 5.5 33t17 46.5t14.5 37.5q15 45 22.5 89.5t8.5 68.5t1 75q-68 0 -127 -20q-25 -9 -60.5 -24t-55 -20.5t-39.5 -5.5q-47 0 -68.5 26.5t-21.5 66.5q0 90 80 90q29 0 71 -14t80.5 -30.5t48.5 -19.5q39 -10 92 -10
q-6 157 -19 215t-69 143q55 85 68.5 143.5t19.5 215.5q-53 0 -92 -10q-10 -3 -48.5 -19.5t-80.5 -30.5t-71 -14q-80 0 -80 90q0 40 21.5 66t68.5 26q16 0 33.5 -4t31.5 -10t41 -16.5t49 -18.5q59 -20 127 -20q0 51 -1 75t-8.5 68.5t-22.5 89.5q-3 9 -14.5 37.5t-17 46.5
t-5.5 33q0 42 22 70t70 28z" />
    <glyph glyph-name="bullet" unicode="&#x2022;" horiz-adv-x="942" 
d="M119 705q0 146 103 249t249 103t249 -103t103 -249t-103 -249.5t-249 -103.5t-249 103.5t-103 249.5z" />
    <glyph glyph-name="ellipsis" unicode="&#x2026;" horiz-adv-x="2048" 
d="M342 -12q-47 0 -82 34.5t-35 81.5t35 82t82 35t82 -35t35 -82t-35 -81.5t-82 -34.5zM1024 -12q-47 0 -82 34.5t-35 81.5t35 82t82 35t82 -35t35 -82t-35 -81.5t-82 -34.5zM1706 -12q-47 0 -82 34.5t-35 81.5t35 82t82 35t82 -35t35 -82t-35 -81.5t-82 -34.5z" />
    <glyph glyph-name="perthousand" unicode="&#x2030;" horiz-adv-x="2048" 
d="M1028 -37q-136 0 -211.5 92t-75.5 234q0 145 76 233t211 88t211 -88t76 -233q0 -142 -75.5 -234t-211.5 -92zM1028 565q-83 0 -115 -69.5t-32 -204.5q0 -142 35 -212.5t112 -70.5t112.5 70.5t35.5 212.5q0 135 -32.5 204.5t-115.5 69.5zM1696 -37q-136 0 -211.5 92
t-75.5 234q0 145 76 233t211 88t210.5 -87.5t75.5 -233.5q0 -143 -75 -234.5t-211 -91.5zM1696 565q-83 0 -115.5 -69.5t-32.5 -204.5q0 -142 35.5 -212.5t112.5 -70.5t112 70.5t35 212.5q0 135 -32 204.5t-115 69.5zM352 762q-136 0 -211 91.5t-75 233.5q0 146 75.5 234
t210.5 88t211 -88t76 -234q0 -142 -75.5 -233.5t-211.5 -91.5zM352 1364q-83 0 -115 -69.5t-32 -204.5q0 -142 35 -212.5t112 -70.5t112.5 70.5t35.5 212.5q0 135 -32.5 204.5t-115.5 69.5zM346 -63h-98l792 1490h99z" />
    <glyph glyph-name="guilsinglleft" unicode="&#x2039;" horiz-adv-x="655" 
d="M492 713l-175 -238q-14 -20 -14 -31q0 -10 14 -30l175 -238q14 -21 14 -29q0 -14 -12 -14q-11 0 -23 10l-299 275q-20 20 -20 26q0 7 20 27l299 274q13 11 23 11q5 0 8.5 -4.5t3.5 -10.5q0 -7 -14 -28z" />
    <glyph glyph-name="guilsinglright" unicode="&#x203a;" horiz-adv-x="655" 
d="M340 475l-174 238q-14 21 -14 28q0 6 3.5 10.5t8.5 4.5q9 0 22 -11l299 -274q21 -21 21 -27q0 -5 -21 -26l-299 -275q-12 -10 -22 -10q-12 0 -12 14q0 8 14 29l174 238q14 20 14 30q0 11 -14 31z" />
    <glyph glyph-name="fraction" unicode="&#x2044;" horiz-adv-x="337" 
d="M629 1409l-873 -1485l-57 45l870 1477z" />
    <glyph glyph-name="Euro" unicode="&#x20ac;" 
d="M41 741l31 74h106q23 276 157 435t341 159q60 0 105.5 -10.5t69.5 -25t39 -29t24 -25t14 -10.5q16 0 23.5 10.5t8.5 23t7 23t18 10.5q10 0 16.5 -8t6.5 -20q0 -50 5 -128t5 -135q0 -49 -21 -49q-28 0 -36 70q-2 18 -12 46.5t-32.5 66t-53 69.5t-80 54t-107.5 22
q-269 0 -303 -549h520l-31 -74h-493q0 -9 -1 -26.5t-1 -26.5q0 -43 2 -59h446l-31 -74h-413q18 -248 98 -396.5t209 -148.5q51 0 91 8.5t69.5 27t50.5 39.5t37.5 54t27.5 63t23 74q14 52 20.5 65t16.5 13q14 0 17 -10.5t3 -40.5v-287q0 -32 -24 -32q-27 0 -27 43
q0 34 -37 34q-9 0 -29.5 -17.5t-59 -39.5t-85.5 -31q-47 -8 -108 -8q-89 0 -170.5 39.5t-147 112.5t-109.5 186.5t-55 251.5h-141l31 74h100q-2 18 -2 61q0 6 1 24t1 27h-131z" />
    <glyph glyph-name="afii61289" unicode="&#x2113;" horiz-adv-x="833" 
d="M758 227l39 -34q-122 -226 -336 -226q-135 0 -205 80q-37 45 -53.5 108.5t-16.5 184.5v166l-123 -92l-24 49l147 117v260q0 252 21 359t86 181q75 97 176 97q87 0 134.5 -77.5t47.5 -191.5q0 -167 -78 -309.5t-223 -288.5v-186q0 -131 22.5 -208.5t62 -107.5t100.5 -30
q123 0 223 149zM350 961v-259q89 106 143 239t54 265q0 93 -24 151t-70 58q-58 0 -80.5 -101t-22.5 -353z" />
    <glyph glyph-name="afii61352" unicode="&#x2116;" horiz-adv-x="2048" 
d="M360 362v850q-17 24 -24.5 34.5t-25.5 30t-32.5 29t-37 18t-47.5 9.5q-38 1 -49 5.5t-11 17.5q0 22 27 22q36 0 93 -3t83 -3q41 0 87.5 3t55.5 3q20 0 35 -22l635 -1004h4v758q0 147 67 223t189 76q76 0 116 -37t40 -76q0 -28 -23.5 -52.5t-58.5 -24.5q-32 0 -56 17
t-35.5 37t-28.5 37t-38 17q-50 0 -80.5 -62.5t-30.5 -142.5v-1159h-45l-743 1165h-4v-766q0 -216 -64 -307.5t-200 -91.5q-69 0 -109.5 31t-40.5 76q0 37 21.5 58.5t56.5 21.5q30 0 56 -16.5t40.5 -36t32 -36t33.5 -16.5q47 0 79.5 76t32.5 241zM1405 -37v123h520v-123h-520
zM1352 674q0 161 84.5 253.5t228.5 92.5t228.5 -92.5t84.5 -253.5q0 -163 -84.5 -254.5t-228.5 -91.5t-228.5 91.5t-84.5 254.5zM1520 674q0 -91 10.5 -152.5t31.5 -93t45 -43.5t58 -12t58 12t45 43.5t31.5 93t10.5 152.5t-10.5 152t-31.5 92.5t-45.5 44t-57.5 12.5
t-57.5 -12.5t-45.5 -44t-31.5 -92.5t-10.5 -152z" />
    <glyph glyph-name="trademark" unicode="&#x2122;" horiz-adv-x="2048" 
d="M602 545h-373v41q87 0 107 12q22 13 22 78v645h-84q-92 0 -124.5 -28t-32.5 -117h-47v196h692v-196h-47q0 88 -33 116.5t-125 28.5h-84v-645q0 -64 23 -78q20 -12 106 -12v-41zM1806 1294v-612q0 -62 16.5 -76.5t82.5 -19.5v-41h-318v41q70 3 87.5 16.5t17.5 77.5v610h-4
l-308 -745h-16l-309 745h-4v-635q0 -19 5 -32.5t12.5 -20.5t22.5 -10.5t27.5 -4.5t34.5 -1v-41h-252v41q60 2 74 8q24 13 24 59v607q0 6 0.5 18.5t0 16t-0.5 11.5t-2.5 9.5t-4 6t-7.5 4.5t-10 2.5t-14.5 2t-18.5 0t-24 0.5v41h223l264 -631l270 631h230v-41q-2 0 -22.5 0.5
t-28.5 -0.5t-22 -4t-20 -11.5t-6 -21.5z" />
    <glyph glyph-name="Omega" unicode="&#x2126;" horiz-adv-x="1490" 
d="M1419 289l-51 -289h-481l-15 39q13 23 50.5 89t60.5 108.5t57 115.5t53.5 132t33.5 135t14 147q-1 126 -23.5 226.5t-60 166.5t-89.5 110.5t-108.5 63.5t-118.5 19q-66 0 -123.5 -19.5t-107.5 -64.5t-85.5 -112.5t-56 -169.5t-20.5 -230q0 -42 5 -85.5t11 -79t20.5 -81
t23.5 -74t30.5 -75.5t31.5 -68.5t36 -70t34 -62.5t37 -63.5t33 -57.5l-16 -39h-477l-47 289l49 2q31 -97 62.5 -126.5t94.5 -29.5h216q-52 44 -88 78.5t-89 99t-86 126.5t-57.5 150t-24.5 181q0 144 46.5 265.5t127.5 204t191.5 128t235.5 45.5q261 0 425 -168.5t164 -458.5
q0 -83 -23 -165t-55 -145t-83 -131t-91 -111.5t-96 -98.5h223q67 0 94.5 27.5t59.5 128.5z" />
    <glyph glyph-name="estimated" unicode="&#x212e;" horiz-adv-x="1740" 
d="M1671 666h-1298q-11 0 -11 -11v-391q0 -25 17 -45q98 -101 224 -158t267 -57q152 0 286 64t230 176h117q-109 -128 -277 -203.5t-358 -75.5q-163 0 -311 57t-255 153t-170.5 229.5t-63.5 279.5q0 196 107 362t291.5 262.5t401.5 96.5q218 0 403 -96.5t292.5 -262.5
t107.5 -362v-18zM1376 717v395q0 27 -18 45q-98 97 -223.5 152t-264.5 55t-265 -56.5t-224 -156.5q-19 -19 -19 -49v-385q0 -4 3.5 -9.5t7.5 -5.5h995q8 0 8 15z" />
    <glyph glyph-name="partialdiff" unicode="&#x2202;" horiz-adv-x="1228" 
d="M934 631l-125 -94q-48 105 -101 148.5t-157 43.5q-123 0 -208 -76.5t-85 -226.5q0 -79 25 -137.5t67 -91t91 -47.5t104 -15q121 0 226.5 87.5t169 245.5t60.5 347q0 120 -26.5 207t-75 135t-106.5 70t-129 22q-91 0 -176.5 -46t-127.5 -113h-73q165 319 424 319
q182 0 282.5 -134t100.5 -407q0 -176 -48.5 -341t-128 -285.5t-188.5 -193.5t-225 -73q-103 0 -185 42.5t-133 132.5t-51 215q0 201 132 331.5t327 130.5q121 0 197 -45.5t143 -150.5z" />
    <glyph glyph-name="Delta" unicode="&#x2206;" horiz-adv-x="1554" 
d="M1141 133l-432 1043l-455 -1043h887zM135 0l617 1409h75l590 -1409h-1282z" />
    <glyph glyph-name="product" unicode="&#x220f;" horiz-adv-x="1394" 
d="M1335 1399v-53q-47 -3 -75 -6t-50.5 -10.5t-32.5 -15t-17 -25t-8 -34.5t-1 -49v-1167q0 -54 4 -79.5t24.5 -44.5t52.5 -25t99 -11v-53h-522v53q45 3 68.5 5t46 9.5t31 15.5t15.5 28t8 41.5t1 60.5v1227q0 43 -13 54t-59 11h-426q-44 0 -55.5 -9.5t-11.5 -47.5v-1235v-44
t2 -33.5t5.5 -27t11.5 -18.5t18 -15.5t27.5 -9t38 -8t50.5 -4.5v-53h-506v53q45 3 70.5 6t48.5 11t32.5 16.5t17 28t9 40.5t1.5 58v1167q0 48 -3.5 69.5t-24.5 38.5t-54.5 22t-104.5 10v53h1282z" />
    <glyph glyph-name="summation" unicode="&#x2211;" horiz-adv-x="1126" 
d="M1077 199l-88 -379h-932v47l457 700l-446 783v49h921q1 -11 10.5 -131.5t14.5 -196.5l-53 -10q-26 141 -68 207q-21 38 -61 51.5t-150 13.5h-395l379 -653l-455 -711h528q50 0 76.5 1.5t56 10.5t44 22t35 43.5t35.5 67t38 99.5z" />
    <glyph glyph-name="minus" unicode="&#x2212;" horiz-adv-x="1099" 
d="M999 508h-901v115h901v-115z" />
    <glyph glyph-name="uni2215" unicode="&#x2215;" horiz-adv-x="337" 
d="M629 1409l-873 -1485l-57 45l870 1477z" />
    <glyph glyph-name="uni2219" unicode="&#x2219;" horiz-adv-x="569" 
d="M162 584q0 51 36 87t87 36t87 -36t36 -87t-36 -87t-87 -36t-87 36t-36 87z" />
    <glyph glyph-name="radical" unicode="&#x221a;" horiz-adv-x="1228" 
d="M426 426l238 -594h4l276 1593h74l-320 -1843h-73l-316 770l-86 -28l-12 26z" />
    <glyph glyph-name="infinity" unicode="&#x221e;" horiz-adv-x="1228" 
d="M332 825q54 0 95 -15t71 -47.5t49.5 -65t42.5 -83.5q29 51 50 81.5t54 64t74.5 49.5t93.5 16q130 0 200.5 -84t70.5 -223q0 -134 -66 -219.5t-190 -85.5q-26 0 -49 5.5t-40 12.5t-35.5 23t-29 26.5t-26 33t-22 33.5t-22 38.5t-20.5 36.5q-27 -48 -49 -80t-54 -64.5
t-72.5 -48.5t-88.5 -16q-128 0 -200.5 86.5t-72.5 220.5q0 140 59 222.5t177 82.5zM348 690q-90 0 -140 -48t-50 -128q0 -76 43 -133t118 -57q38 0 69 13.5t57 43.5t42 53.5t40.5 68t35.5 62.5q-41 68 -90.5 96.5t-124.5 28.5zM901 715q-20 0 -38 -4t-34.5 -15t-29.5 -20
t-27.5 -28t-23.5 -29.5t-22.5 -35t-19 -34.5t-19.5 -37t-17 -33q37 -69 86.5 -100t124.5 -31q90 0 140 45.5t50 132.5q0 83 -44.5 136t-125.5 53z" />
    <glyph glyph-name="integral" unicode="&#x222b;" horiz-adv-x="757" 
d="M326 31l-39 829q-40 844 307 844q44 0 82.5 -25t38.5 -69q0 -40 -25.5 -63t-60.5 -23q-22 0 -38 14.5t-23 32.5t-19 32.5t-27 14.5q-14 0 -26.5 -8.5t-25.5 -32t-21.5 -60t-12 -98.5t-0.5 -141l37 -776q46 -901 -309 -901q-53 0 -87 28.5t-34 67.5q-1 39 29 65.5t71 26.5
q19 0 33.5 -15.5t21.5 -33.5t19 -33.5t27 -15.5q46 0 68.5 93.5t13.5 246.5z" />
    <glyph glyph-name="approxequal" unicode="&#x2248;" horiz-adv-x="1228" 
d="M215 227l-74 88q53 86 111.5 126t142.5 40q105 0 242 -65q140 -66 197 -66q48 0 90 32.5t90 98.5l73 -88q-58 -83 -119.5 -124.5t-136.5 -41.5q-90 0 -237 66q-145 65 -205 65q-101 0 -174 -131zM215 555l-74 88q53 86 111.5 126t142.5 40q102 0 242 -66q137 -65 197 -65
q48 0 90 32.5t90 98.5l73 -88q-58 -83 -119.5 -124.5t-136.5 -41.5q-90 0 -237 66q-145 65 -205 65q-101 0 -174 -131z" />
    <glyph glyph-name="notequal" unicode="&#x2260;" horiz-adv-x="1228" 
d="M598 375h535v-123h-609l-151 -252h-144l152 252h-285v123h359l174 287h-533v122h609l151 252h143l-151 -252h285v-122h-361z" />
    <glyph glyph-name="lessequal" unicode="&#x2264;" horiz-adv-x="1228" 
d="M96 662v122l1037 385v-122l-883 -324l883 -324v-123zM96 0v123h1037v-123h-1037z" />
    <glyph glyph-name="greaterequal" unicode="&#x2265;" horiz-adv-x="1228" 
d="M1133 784v-122l-1037 -386v123l883 324l-883 324v122zM1133 123v-123h-1037v123h1037z" />
    <glyph glyph-name="lozenge" unicode="&#x25ca;" horiz-adv-x="1132" 
d="M1034 674l-401 -815h-133l-402 815l404 819h131zM905 674l-334 696h-6l-338 -694l338 -699h6z" />
    <glyph glyph-name="afii10064" unicode="&#xf6c5;" 
d="M995 1450h35q-3 -45 -18 -81.5t-27 -51.5q-32 -52 -79 -71t-111 -19q-61 0 -184 12t-185 12q-19 0 -36 -1t-54 -10.5t-63 -26t-47 -52t-21 -84.5q0 -32 9.5 -56.5t24 -41t42.5 -28t53 -17.5t68.5 -9.5t77 -4t89.5 -0.5q128 0 240 -57.5t183 -166.5t71 -245
q0 -206 -143.5 -344t-358.5 -138q-90 0 -177 34.5t-155.5 94.5t-110.5 149.5t-42 192.5q0 155 84 273t223 172q-21 2 -34.5 3.5t-40 7.5t-44.5 14.5t-40.5 24.5t-36.5 36.5t-23.5 52t-9.5 70.5q0 29 6 61.5t27 78t55 80.5t97.5 60t145.5 25q28 0 60 -1t71 -2.5t62 -2.5
q142 -9 190 -9q109 0 127 66zM569 8q149 0 223 113t74 323t-74 323.5t-223 113.5t-223 -113.5t-74 -323.5t74 -323t223 -113z" />
    <glyph glyph-name="Acute" unicode="&#xf6c9;" horiz-adv-x="909" 
d="M270 1460l301 303q49 49 88 49q31 0 50.5 -20t19.5 -49q0 -46 -61 -84l-316 -199h-82z" />
    <glyph glyph-name="Caron" unicode="&#xf6ca;" horiz-adv-x="909" 
d="M393 1460l-256 352h74l244 -213l243 213h74l-256 -352h-123z" />
    <glyph glyph-name="Dieresis" unicode="&#xf6cb;" horiz-adv-x="909" 
d="M555 1563q0 43 29.5 72.5t72.5 29.5t73 -29.5t30 -72.5t-30 -73t-73 -30t-72.5 30t-29.5 73zM150 1563q0 43 29.5 72.5t72.5 29.5t72.5 -29.5t29.5 -72.5t-29.5 -73t-72.5 -30t-72.5 30t-29.5 73z" />
    <glyph glyph-name="DieresisAcute" unicode="&#xf6cc;" horiz-adv-x="909" 
d="M678 1563q0 43 29.5 72.5t72.5 29.5t73 -29.5t30 -72.5t-30 -73t-73 -30t-72.5 30t-29.5 73zM27 1563q0 43 29.5 72.5t72.5 29.5t72.5 -29.5t29.5 -72.5t-29.5 -73t-72.5 -30t-72.5 30t-29.5 73zM365 1460h-82l209 289q25 36 45.5 49.5t52.5 13.5t50.5 -18.5t18.5 -46.5
q0 -36 -61 -88z" />
    <glyph glyph-name="DieresisGrave" unicode="&#xf6cd;" horiz-adv-x="909" 
d="M231 1563q0 -43 -29.5 -73t-72.5 -30t-72.5 30t-29.5 73t29.5 72.5t72.5 29.5t72.5 -29.5t29.5 -72.5zM883 1563q0 -43 -30 -73t-73 -30t-72.5 30t-29.5 73t29.5 72.5t72.5 29.5t73 -29.5t30 -72.5zM627 1460h-82l-234 199q-61 52 -61 88q0 28 18.5 46.5t50.5 18.5
t53 -13.5t46 -49.5z" />
    <glyph glyph-name="Grave" unicode="&#xf6ce;" horiz-adv-x="909" 
d="M557 1460l-315 199q-62 39 -62 84q0 29 20 49t50 20q39 0 88 -49l301 -303h-82z" />
    <glyph glyph-name="Hungarumlaut" unicode="&#xf6cf;" horiz-adv-x="909" 
d="M932 1659l-316 -199h-81l301 303q49 49 88 49q30 0 49.5 -19.5t19.5 -49.5q0 -46 -61 -84zM522 1659l-315 -199h-82l301 303q49 49 88 49q30 0 50 -20t20 -49q0 -45 -62 -84z" />
    <glyph glyph-name="Macron" unicode="&#xf6d0;" horiz-adv-x="909" 
d="M721 1522h-533v84h533v-84z" />
    <glyph glyph-name="cyrBreve" unicode="&#xf6d1;" horiz-adv-x="909" 
d="M455 1460q-148 0 -251.5 59.5t-103.5 159.5q0 31 25 59.5t68 28.5q44 0 66 -25t22 -59q0 -25 -11.5 -48.5t-11.5 -28.5q0 -101 197 -101q196 0 196 101q0 5 -11 28.5t-11 48.5q0 34 22 59t66 25q43 0 67.5 -28.5t24.5 -59.5q0 -100 -103 -159.5t-251 -59.5z" />
    <glyph glyph-name="cyrFlex" unicode="&#xf6d2;" horiz-adv-x="909" 
d="M455 1767q148 0 251 -59.5t103 -159.5q0 -31 -24.5 -59.5t-67.5 -28.5q-44 0 -66 25t-22 59q0 25 11 49t11 29q0 100 -196 100q-197 0 -197 -100q0 -5 11.5 -29t11.5 -49q0 -34 -22 -59t-66 -25q-43 0 -68 28.5t-25 59.5q0 100 103.5 159.5t251.5 59.5z" />
    <glyph glyph-name="dblGrave" unicode="&#xf6d3;" horiz-adv-x="909" 
d="M317 1460l-315 199q-61 38 -61 84q0 30 19.5 49.5t49.5 19.5q39 0 88 -49l301 -303h-82zM727 1460l-315 199q-62 39 -62 84q0 29 20 49t50 20q39 0 88 -49l301 -303h-82z" />
    <glyph glyph-name="cyrbreve" unicode="&#xf6d4;" horiz-adv-x="569" 
d="M285 1098q-148 0 -251.5 59.5t-103.5 159.5q0 31 25 59.5t68 28.5q44 0 66 -25t22 -59q0 -25 -11.5 -49t-11.5 -29q0 -100 197 -100q196 0 196 100q0 5 -11 29t-11 49q0 34 22 59t66 25q43 0 67.5 -28.5t24.5 -59.5q0 -100 -103 -159.5t-251 -59.5z" />
    <glyph glyph-name="cyrflex" unicode="&#xf6d5;" horiz-adv-x="569" 
d="M285 1405q148 0 251 -59.5t103 -159.5q0 -31 -24.5 -59.5t-67.5 -28.5q-44 0 -66 25t-22 59q0 25 11 49t11 29q0 100 -196 100q-197 0 -197 -100q0 -5 11.5 -29t11.5 -49q0 -34 -22 -59t-66 -25q-43 0 -68 28.5t-25 59.5q0 100 103.5 159.5t251.5 59.5z" />
    <glyph glyph-name="dblgrave" unicode="&#xf6d6;" horiz-adv-x="569" 
d="M174 1098l-315 198q-62 39 -62 84q0 30 20 50t50 20q39 0 88 -49l301 -303h-82zM584 1098l-316 198q-61 38 -61 84q0 30 19.5 50t49.5 20q40 0 89 -49l301 -303h-82z" />
    <glyph glyph-name="dieresisacute" unicode="&#xf6d7;" horiz-adv-x="569" 
d="M508 1200q0 43 29.5 73t72.5 30t73 -30t30 -73t-30 -72.5t-73 -29.5t-72.5 29.5t-29.5 72.5zM-143 1200q0 43 29.5 73t72.5 30t72.5 -30t29.5 -73t-29.5 -72.5t-72.5 -29.5t-72.5 29.5t-29.5 72.5zM199 1098h-82l209 288q25 36 46 50t52 14q32 0 51 -19t19 -47
q0 -35 -62 -88z" />
    <glyph glyph-name="dieresisgrave" unicode="&#xf6d8;" horiz-adv-x="569" 
d="M90 1200q0 -43 -29.5 -72.5t-72.5 -29.5t-73 29.5t-30 72.5t30 73t73 30t72.5 -30t29.5 -73zM741 1200q0 -43 -29.5 -72.5t-72.5 -29.5t-72.5 29.5t-29.5 72.5t29.5 73t72.5 30t72.5 -30t29.5 -73zM481 1098h-82l-233 198q-62 53 -62 88q0 28 19 47t51 19q31 0 52 -14
t46 -50z" />
    </font>
</defs>
</svg>
