<svg width="22" height="22" viewBox="0 0 22 22" fill="none" xmlns="http://www.w3.org/2000/svg">
<path d="M2.19977 0C1.95742 0 1.75977 0.195938 1.75977 0.44V1.76C1.75977 1.92672 1.85773 2.08312 2.00727 2.15875L4.39977 3.355V5.23875L17.5998 3.58875V3.355L19.9923 2.15875C20.1418 2.08484 20.2398 1.92672 20.2398 1.76V0.44C20.2398 0.195938 20.0421 0 19.7998 0H2.19977ZM17.9848 4.4L3.90477 6.16C3.66242 6.19094 3.48883 6.41266 3.51977 6.655C3.5507 6.89734 3.77242 7.07094 4.01477 7.04L18.0948 5.28C18.3371 5.24906 18.5107 5.02734 18.4798 4.785C18.4488 4.54266 18.2271 4.36906 17.9848 4.4ZM18.026 6.50375C18.0123 6.50719 17.9985 6.51234 17.9848 6.5175L3.90477 8.2775C3.73461 8.2775 3.57992 8.37547 3.50773 8.53016C3.43383 8.68484 3.45789 8.86703 3.56617 8.99766C3.67445 9.13 3.84977 9.18672 4.01477 9.14375L18.0948 7.38375C18.3371 7.36484 18.5193 7.15172 18.5004 6.90938C18.4815 6.66703 18.2684 6.48484 18.026 6.50375ZM17.9848 8.62125L3.90477 10.3813C3.66242 10.4122 3.48883 10.6339 3.51977 10.8763C3.5507 11.1186 3.77242 11.2922 4.01477 11.2612L18.0948 9.50125C18.3371 9.47031 18.5107 9.24859 18.4798 9.00625C18.4488 8.76391 18.2271 8.59031 17.9848 8.62125ZM17.9848 10.7387L3.90477 12.4987C3.66242 12.5297 3.48883 12.7514 3.51977 12.9937C3.5507 13.2361 3.77242 13.4097 4.01477 13.3787L18.0948 11.6187C18.3371 11.5878 18.5107 11.3661 18.4798 11.1237C18.4488 10.8814 18.2271 10.7078 17.9848 10.7387ZM18.0123 12.8425C18.0037 12.8459 17.9934 12.8511 17.9848 12.8562L3.90477 14.6163C3.73461 14.6163 3.57992 14.7142 3.50773 14.8689C3.43383 15.0236 3.45789 15.2058 3.56617 15.3364C3.67445 15.4688 3.84977 15.5255 4.01477 15.4825L18.0948 13.7225C18.3371 13.7002 18.5159 13.4836 18.4935 13.2413C18.4712 12.9989 18.2546 12.8202 18.0123 12.8425ZM17.9848 14.96L3.90477 16.72C3.66242 16.7509 3.48883 16.9727 3.51977 17.215C3.5507 17.4573 3.77242 17.6309 4.01477 17.6L18.0948 15.84C18.3371 15.8091 18.5107 15.5873 18.4798 15.345C18.4488 15.1027 18.2271 14.9291 17.9848 14.96ZM17.5998 16.7612L4.39977 18.4112V18.645L2.00727 19.8412C1.85773 19.9169 1.75977 20.0733 1.75977 20.24V21.56C1.75977 21.8041 1.95742 22 2.19977 22H19.7998C20.0421 22 20.2398 21.8041 20.2398 21.56V20.24C20.2398 20.0733 20.1418 19.9169 19.9923 19.8412L17.5998 18.645V16.7612Z" fill="black"/>
</svg>
