<svg width="24" height="24" viewBox="0 0 24 24" fill="none" xmlns="http://www.w3.org/2000/svg">
<g clip-path="url(#clip0_371_3474)">
<path d="M9.90016 4.32031C9.70891 4.32031 9.53078 4.34844 9.36016 4.39531C9.22703 4.43094 9.09016 4.47031 8.97016 4.53031C8.96453 4.53219 8.96078 4.54156 8.95516 4.54531C8.82578 4.61281 8.70766 4.69719 8.59516 4.78531C8.58953 4.78906 8.58578 4.79656 8.58016 4.80031C8.46953 4.89031 8.37203 4.98031 8.28016 5.08531C8.27641 5.09094 8.26891 5.09469 8.26516 5.10031C8.16766 5.21281 8.08328 5.33844 8.01016 5.46031C7.77953 5.37219 7.54891 5.32156 7.33516 5.31031C6.98078 5.29344 6.66391 5.37031 6.39016 5.52031C5.84453 5.82031 5.46016 6.27594 5.05516 6.61531C4.64078 6.96219 3.40141 7.87344 2.29516 8.67031C1.18891 9.46719 0.210157 10.1703 0.210157 10.1703C0.0395317 10.2528 -0.0654684 10.4272 -0.0598433 10.6166C-0.0542182 10.8059 0.0620316 10.9747 0.236407 11.0459C0.412657 11.1191 0.613282 11.0816 0.750157 10.9503C0.750157 10.9503 1.75516 10.2509 2.86516 9.45031C3.97516 8.64969 5.18828 7.76656 5.68516 7.35031C6.16703 6.94531 6.53828 6.53469 6.85516 6.36031C7.11578 6.21781 7.31828 6.17656 7.69516 6.36031C7.68766 6.42594 7.68016 6.49156 7.68016 6.55531V12.2703L7.02016 12.5703C6.84391 12.6247 6.71453 12.7784 6.68828 12.9603C6.66203 13.1441 6.74453 13.3259 6.89828 13.4291C7.05203 13.5303 7.25078 13.5359 7.41016 13.4403L11.8502 11.4003H11.8652C12.497 11.0628 13.1589 10.7534 13.6652 10.6503C14.1714 10.5472 14.4245 10.5903 14.6402 10.8753C14.8933 11.2091 14.9514 11.5766 14.8352 11.9853C14.7189 12.3941 14.4095 12.8384 13.8752 13.2153C12.7558 14.0066 11.0252 14.5953 11.0252 14.5953L10.9352 14.6253L10.8602 14.6853C9.96953 15.4428 9.45391 16.1628 8.80516 16.6503C8.15641 17.1378 7.35391 17.4603 5.70016 17.4603H5.67016L0.450157 17.7603C0.185782 17.7772 -0.0167184 18.0059 0.000156671 18.2703C0.0170317 18.5347 0.245782 18.7372 0.510157 18.7203L5.70016 18.4203C5.71141 18.4203 5.71891 18.4203 5.73016 18.4203C6.95641 18.4166 7.84703 18.2141 8.55016 17.8953C8.67203 18.2553 8.92328 18.5628 9.31516 18.6903C9.86641 18.8684 10.4102 18.8159 10.8452 18.6303C11.0383 18.5478 11.2145 18.4353 11.3702 18.3153C11.522 18.6641 11.7939 18.9903 12.2102 19.1403C12.647 19.2978 13.082 19.3334 13.4702 19.2303C13.8583 19.1272 14.1752 18.9078 14.4752 18.6303C14.5258 18.5834 14.5595 18.5478 14.5952 18.5103C14.6964 18.5797 14.8127 18.6266 14.9402 18.6603C15.5627 18.8234 16.2902 18.6453 16.8452 18.0903C17.3327 17.6028 17.6252 16.8547 17.7302 15.8403H21.9152C22.0595 15.8403 22.1983 15.8234 22.3352 15.7953C23.0139 15.6547 23.5708 15.1784 23.8352 14.5503C23.8877 14.4247 23.927 14.2972 23.9552 14.1603C23.9833 14.0234 24.0002 13.8847 24.0002 13.7403V6.51031C24.0002 6.43719 23.9927 6.37156 23.9852 6.30031C23.9608 6.08844 23.9083 5.88031 23.8202 5.68531C23.762 5.54844 23.6945 5.43219 23.6102 5.31031C23.6083 5.30656 23.612 5.29906 23.6102 5.29531C23.2802 4.82469 22.772 4.47969 22.2002 4.36531C22.0595 4.33531 21.9264 4.32031 21.7802 4.32031H9.90016ZM8.64016 6.72031H23.0402V8.64031H8.64016V6.72031ZM11.0402 15.8403H11.3702C11.342 16.1778 11.2933 16.6859 11.2352 17.0103C11.2277 17.0497 11.2258 17.0891 11.2202 17.1303C11.1939 17.1472 11.1677 17.1678 11.1452 17.1903C10.9389 17.4359 10.7008 17.6403 10.4552 17.7453C10.2095 17.8503 9.96391 17.8878 9.61516 17.7753C9.52891 17.7472 9.43141 17.6084 9.42016 17.3853C10.0389 16.9128 10.4945 16.3766 11.0402 15.8403ZM12.3452 15.8403H14.1452C14.1114 16.0634 14.0814 16.3184 14.0552 16.5753C14.0233 16.8884 13.9952 17.2634 14.0702 17.6403C14.0439 17.6759 14.0327 17.6834 13.9952 17.7303C13.9164 17.8297 13.7777 17.9741 13.8302 17.9253C13.5958 18.1428 13.3952 18.2666 13.2152 18.3153C13.0352 18.3641 12.8458 18.3509 12.5402 18.2403C12.377 18.1822 12.2927 18.0772 12.2252 17.8803C12.1577 17.6834 12.1389 17.4041 12.1802 17.1753C12.2627 16.7216 12.3208 16.1422 12.3452 15.8403ZM15.1202 15.8403H16.7552C16.6577 16.6484 16.4345 17.1509 16.1702 17.4153C15.8139 17.7716 15.512 17.8166 15.1802 17.7303C15.0695 17.7003 15.0602 17.6741 15.0152 17.4753C14.9702 17.2766 14.9702 16.9653 15.0002 16.6803C15.032 16.3728 15.0789 16.0747 15.1202 15.8403Z" fill="black"/>
</g>
<defs>
<clipPath id="clip0_371_3474">
<rect width="24" height="24" fill="white"/>
</clipPath>
</defs>
</svg>
