<svg width="22" height="22" viewBox="0 0 22 22" fill="none" xmlns="http://www.w3.org/2000/svg">
<g clip-path="url(#clip0_846_22256)">
<path d="M15.0562 0.935547L14.8088 1.29305L10.89 6.9718L7.49375 7.97555C7.04344 8.11133 6.66187 8.40523 6.4075 8.80055L3.58875 13.1593L5.37625 19.223L8.635 18.508C8.7175 18.4909 8.8 18.4616 8.8825 18.4393C9.68 18.1712 10.3778 17.6882 10.9037 17.023L11.3162 16.4318L13.1862 17.738L13.5437 17.9855L13.805 17.6143L21.7525 6.0918L22.0138 5.7343L21.6425 5.4868L15.4275 1.18305L15.0562 0.935547ZM15.29 2.1593L20.79 5.96805L17.6962 10.4505C18.0727 9.17695 17.4711 7.63695 16.1425 6.7243C15.3811 6.2018 14.4959 5.95773 13.64 6.0368C13.1347 6.0832 12.6792 6.23961 12.2925 6.49055L15.29 2.1593ZM17.1187 4.78555C16.8833 4.78383 16.6564 4.89211 16.5138 5.1018C16.2852 5.43523 16.3711 5.90273 16.7062 6.13305C17.0414 6.36336 17.4952 6.27398 17.7237 5.94055C17.9523 5.60711 17.8664 5.15336 17.5312 4.92305C17.4058 4.83711 17.2597 4.78727 17.1187 4.78555ZM11.165 8.1268C11.0361 8.73867 11.1186 9.4107 11.3988 10.038L11.7425 9.73555C12.143 9.40898 12.6552 9.24055 13.1725 9.24055C13.7552 9.24055 14.3052 9.45539 14.7262 9.8593C15.4137 10.5176 15.5977 11.5093 15.2487 12.348C15.828 12.2982 16.3487 12.0954 16.775 11.7705L13.3237 16.7618L11.825 15.7305L14.245 12.3343C14.6816 11.7791 14.63 10.9799 14.1213 10.4918C13.6211 10.0123 12.8425 9.98477 12.3062 10.423L9.8175 12.4993L8.78625 11.8805L11.165 8.1268ZM2.68125 13.2143L0 14.0393L2.21375 21.533L4.90875 20.708L2.68125 13.2143Z" fill="black"/>
</g>
<defs>
<clipPath id="clip0_846_22256">
<rect width="22" height="22" fill="white"/>
</clipPath>
</defs>
</svg>
