<svg width="18" height="18" viewBox="0 0 18 18" fill="none" xmlns="http://www.w3.org/2000/svg">
<path d="M0 2.88086V4.32086H6.48V5.04086H0V5.76086H5.4V6.48086H0V7.20086H4.32V7.92086H0V8.64086H3.24V9.36086H0V13.3209C0 13.9157 0.485156 14.4009 1.08 14.4009H2.55375C2.72531 15.4218 3.61266 16.2009 4.68 16.2009C5.74734 16.2009 6.63469 15.4218 6.80625 14.4009H11.16V3.92711C11.16 3.37023 10.6706 2.88086 10.1138 2.88086H0ZM11.88 5.40086V14.4009H12.2738C12.4453 15.4204 13.3313 16.2009 14.4 16.2009C15.4688 16.2009 16.3533 15.4204 16.5263 14.4009H16.92C17.4755 14.4009 18 13.8763 18 13.3209V9.86711C18 9.16117 17.4909 8.40602 17.4263 8.31461L15.9413 6.32336C15.6642 5.97742 15.0961 5.40086 14.4 5.40086H11.88ZM13.68 6.12086H14.4C14.6841 6.12086 15.0469 6.37117 15.3675 6.77336L16.8413 8.74211C16.9495 8.8982 17.2111 9.33836 17.2688 9.72086H14.04C13.8783 9.72086 13.68 9.52258 13.68 9.36086V6.12086ZM4.68 12.6009C5.48016 12.6009 6.12 13.2407 6.12 14.0409C6.12 14.841 5.48016 15.4809 4.68 15.4809C3.87984 15.4809 3.24 14.841 3.24 14.0409C3.24 13.2407 3.87984 12.6009 4.68 12.6009ZM14.4 12.6009C15.1945 12.6009 15.84 13.2463 15.84 14.0409C15.84 14.8354 15.1945 15.4809 14.4 15.4809C13.6055 15.4809 12.96 14.8354 12.96 14.0409C12.96 13.2463 13.6055 12.6009 14.4 12.6009Z" fill="black"/>
</svg>
