<svg width="22" height="22" viewBox="0 0 22 22" fill="none" xmlns="http://www.w3.org/2000/svg">
<path d="M4.39982 1.75977C2.7017 1.75977 1.31982 3.14164 1.31982 4.83977V5.71977C1.31982 5.96211 1.51748 6.15977 1.75982 6.15977H13.1998C13.4439 6.15977 13.6398 5.96211 13.6398 5.71977V4.39977C13.6398 3.27914 14.2414 2.29945 15.1386 1.75977H4.39982ZM16.7198 2.19977C15.5047 2.19977 14.5198 3.18461 14.5198 4.39977V5.71977C14.5198 6.4468 13.9269 7.03977 13.1998 7.03977H3.95982V19.7998C3.95982 20.0438 4.15748 20.2398 4.39982 20.2398H10.9998V21.161C10.9981 21.3277 11.0909 21.4807 11.2404 21.5563C11.3883 21.632 11.567 21.6182 11.7011 21.5185L13.1998 20.391L14.6986 21.5185C14.8326 21.6182 15.0114 21.632 15.1592 21.5563C15.3087 21.4807 15.4015 21.3277 15.3998 21.161V20.2398H18.4798C18.7239 20.2398 18.9198 20.0438 18.9198 19.7998V4.39977C18.9198 3.18461 17.935 2.19977 16.7198 2.19977ZM7.03982 8.35977H15.8398V9.23977H7.03982V8.35977ZM7.03982 10.9998H15.8398V11.8798H7.03982V10.9998ZM13.1998 13.2823C13.5075 13.2823 13.7309 13.4576 13.8186 13.7223C13.8633 13.767 13.8581 13.7773 13.9011 13.7773C14.0025 13.7154 14.1228 13.681 14.2448 13.681C14.3858 13.681 14.5387 13.724 14.6573 13.8185C14.8773 13.9938 14.91 14.2551 14.8223 14.5198C14.8223 14.5645 14.8773 14.5593 14.8773 14.6023C15.142 14.647 15.3569 14.8755 15.3998 15.1385C15.4445 15.4032 15.3173 15.6662 15.0973 15.7985V15.9223C15.2297 16.0976 15.2709 16.4173 15.1386 16.6373C15.0234 16.8298 14.8034 16.9535 14.5748 16.9535C14.5404 16.9535 14.5112 16.9449 14.4786 16.9398C14.4786 16.9845 14.4253 16.9793 14.3823 17.0223C14.3823 17.287 14.262 17.5121 13.9973 17.5998C13.9097 17.6445 13.865 17.641 13.7773 17.641C13.602 17.641 13.4147 17.5534 13.2823 17.421H13.1173C12.9884 17.5499 12.8114 17.6273 12.6223 17.6273C12.5536 17.6273 12.4728 17.6238 12.4023 17.5998C12.1823 17.5121 12.0173 17.287 12.0173 17.0223C12.0173 16.9776 11.9658 16.9827 11.9211 16.9398C11.8867 16.9449 11.8592 16.9535 11.8248 16.9535C11.5962 16.9535 11.3762 16.8298 11.2611 16.6373C11.1287 16.4173 11.1253 16.1423 11.3023 15.9223V15.7985C11.0823 15.6662 10.9551 15.4032 10.9998 15.1385C11.0445 14.8738 11.2576 14.6452 11.5223 14.6023C11.5223 14.5576 11.5773 14.5627 11.5773 14.5198C11.4897 14.2551 11.5223 13.9955 11.7423 13.8185C11.8609 13.724 12.0139 13.681 12.1548 13.681C12.2769 13.681 12.3972 13.7154 12.4986 13.7773C12.5433 13.7326 12.5381 13.7223 12.5811 13.7223C12.6687 13.4576 12.9351 13.2823 13.1998 13.2823ZM11.8798 18.3148C11.9451 18.3543 12.0139 18.3818 12.0861 18.411C12.1015 18.4179 12.1119 18.4334 12.1273 18.4385C12.2854 18.4918 12.4556 18.5073 12.6223 18.5073C12.8183 18.5073 13.0039 18.4695 13.1861 18.3973C13.3717 18.4763 13.5814 18.521 13.7773 18.521C13.9303 18.521 14.1004 18.5124 14.3273 18.411C14.3926 18.387 14.4597 18.3612 14.5198 18.3285V20.2948L13.4611 19.4973C13.3064 19.3821 13.0933 19.3821 12.9386 19.4973L11.8798 20.2948V18.3148Z" fill="black"/>
</svg>
