<svg width="23" height="22" viewBox="0 0 23 22" fill="none" xmlns="http://www.w3.org/2000/svg">
<path d="M19.475 0.878906C18.9267 0.878906 18.3802 1.09375 17.9625 1.51141L17.605 1.86891L20.63 4.89391C20.6283 4.89562 20.9875 4.53641 20.9875 4.53641C21.8245 3.69937 21.8228 2.34672 20.9875 1.51141C20.5681 1.09375 20.0233 0.878906 19.475 0.878906ZM16.9312 2.65266C16.8316 2.66641 16.7387 2.71625 16.67 2.79016L2.3975 17.0764C2.34078 17.128 2.29781 17.195 2.27375 17.2689L1.39375 20.5689C1.35422 20.7202 1.39891 20.88 1.50891 20.99C1.61891 21.1 1.77875 21.1447 1.93 21.1052L5.23 20.2252C5.30391 20.2011 5.37094 20.1581 5.4225 20.1014L19.7087 5.82891C19.8841 5.65875 19.8858 5.37859 19.7156 5.20328C19.5455 5.02797 19.2653 5.02625 19.09 5.19641L4.88625 19.4002L3.09875 17.6127L17.3025 3.40891C17.4348 3.28172 17.4744 3.08406 17.4005 2.91562C17.3266 2.74719 17.1564 2.64234 16.9725 2.65266C16.9587 2.65266 16.945 2.65266 16.9312 2.65266Z" fill="#141318"/>
</svg>
