<svg width="30" height="30" viewBox="0 0 30 30" fill="none" xmlns="http://www.w3.org/2000/svg">
<path d="M3.59465 2.99432C3.56877 2.9946 3.54294 2.99656 3.51731 3.00018H3.00051V3.51815C2.99343 3.57104 2.99343 3.62463 3.00051 3.67752V10.2002C2.99939 10.2797 3.01408 10.3586 3.04373 10.4324C3.07337 10.5062 3.11739 10.5733 3.17322 10.63C3.22904 10.6866 3.29557 10.7315 3.36892 10.7622C3.44228 10.7929 3.521 10.8087 3.60051 10.8087C3.68003 10.8087 3.75875 10.7929 3.8321 10.7622C3.90546 10.7315 3.97198 10.6866 4.02781 10.63C4.08364 10.5733 4.12765 10.5062 4.1573 10.4324C4.18695 10.3586 4.20164 10.2797 4.20051 10.2002V5.04862L12.1763 13.0244C12.239 13.0896 12.3156 13.1399 12.4004 13.1713C12.4852 13.2028 12.5761 13.2146 12.6661 13.206C12.6858 13.2043 12.7053 13.2015 12.7247 13.1978C12.8325 13.1767 12.9325 13.1264 13.0137 13.0524C13.0948 12.9783 13.1541 12.8834 13.1851 12.778C13.216 12.6726 13.2174 12.5607 13.1892 12.4545C13.1609 12.3484 13.104 12.252 13.0247 12.176L5.04895 4.20018H10.2005C10.28 4.2013 10.359 4.18662 10.4327 4.15697C10.5065 4.12732 10.5737 4.0833 10.6303 4.02748C10.6869 3.97165 10.7319 3.90513 10.7626 3.83177C10.7933 3.75842 10.8091 3.67969 10.8091 3.60018C10.8091 3.52066 10.7933 3.44194 10.7626 3.36859C10.7319 3.29523 10.6869 3.22871 10.6303 3.17288C10.5737 3.11706 10.5065 3.07304 10.4327 3.04339C10.359 3.01374 10.28 2.99906 10.2005 3.00018H3.67083C3.64558 2.99661 3.62014 2.99465 3.59465 2.99432ZM26.3888 2.99432C26.3664 2.99503 26.3441 2.99698 26.322 3.00018H19.8005C19.721 2.99906 19.6421 3.01374 19.5683 3.04339C19.4945 3.07304 19.4274 3.11706 19.3707 3.17288C19.3141 3.22871 19.2691 3.29523 19.2385 3.36859C19.2078 3.44194 19.192 3.52066 19.192 3.60018C19.192 3.67969 19.2078 3.75842 19.2385 3.83177C19.2691 3.90513 19.3141 3.97165 19.3707 4.02748C19.4274 4.0833 19.4945 4.12732 19.5683 4.15697C19.6421 4.18662 19.721 4.2013 19.8005 4.20018H24.9521L16.9763 12.176C16.9187 12.2312 16.8727 12.2975 16.8411 12.3707C16.8094 12.444 16.7927 12.5229 16.7918 12.6027C16.791 12.6825 16.8062 12.7617 16.8363 12.8356C16.8665 12.9095 16.9111 12.9767 16.9676 13.0331C17.024 13.0896 17.0912 13.1342 17.1651 13.1644C17.239 13.1945 17.3182 13.2097 17.398 13.2088C17.4778 13.208 17.5567 13.1913 17.6299 13.1596C17.7032 13.128 17.7694 13.082 17.8247 13.0244L25.8005 5.04862V10.2002C25.7994 10.2797 25.8141 10.3586 25.8437 10.4324C25.8734 10.5062 25.9174 10.5733 25.9732 10.63C26.029 10.6866 26.0956 10.7315 26.1689 10.7622C26.2423 10.7929 26.321 10.8087 26.4005 10.8087C26.48 10.8087 26.5588 10.7929 26.6321 10.7622C26.7055 10.7315 26.772 10.6866 26.8278 10.63C26.8836 10.5733 26.9277 10.5062 26.9573 10.4324C26.9869 10.3586 27.0016 10.2797 27.0005 10.2002V3.67635C27.0081 3.62154 27.0081 3.56593 27.0005 3.51112V3.00018H26.4884C26.4554 2.99546 26.4221 2.9935 26.3888 2.99432ZM12.5888 16.7943C12.4329 16.799 12.285 16.8641 12.1763 16.976L4.20051 24.9517V19.8002C4.20161 19.7199 4.18659 19.6402 4.15634 19.5659C4.12609 19.4915 4.08123 19.424 4.02441 19.3672C3.96759 19.3105 3.89996 19.2658 3.82554 19.2357C3.75112 19.2056 3.67141 19.1907 3.59114 19.192C3.43221 19.1945 3.28077 19.2599 3.17003 19.3739C3.0593 19.4879 2.99834 19.6412 3.00051 19.8002V26.3088C2.98941 26.3747 2.98941 26.442 3.00051 26.508V27.0002H3.49504C3.56022 27.011 3.62674 27.011 3.69192 27.0002H10.2005C10.28 27.0013 10.359 26.9866 10.4327 26.957C10.5065 26.9273 10.5737 26.8833 10.6303 26.8275C10.6869 26.7716 10.7319 26.7051 10.7626 26.6318C10.7933 26.5584 10.8091 26.4797 10.8091 26.4002C10.8091 26.3207 10.7933 26.2419 10.7626 26.1686C10.7319 26.0952 10.6869 26.0287 10.6303 25.9729C10.5737 25.9171 10.5065 25.873 10.4327 25.8434C10.359 25.8137 10.28 25.7991 10.2005 25.8002H5.04895L13.0247 17.8244C13.1114 17.7401 13.1707 17.6316 13.1946 17.5131C13.2186 17.3946 13.2062 17.2716 13.1591 17.1602C13.112 17.0489 13.0323 16.9544 12.9305 16.8891C12.8288 16.8238 12.7097 16.7908 12.5888 16.7943ZM17.3947 16.7943C17.2789 16.7943 17.1656 16.8278 17.0684 16.8908C16.9712 16.9537 16.8944 17.0435 16.847 17.1491C16.7997 17.2548 16.784 17.3719 16.8017 17.4863C16.8195 17.6007 16.8699 17.7075 16.947 17.7939C16.9564 17.8044 16.9662 17.8146 16.9763 17.8244L24.9521 25.8002H19.8005C19.721 25.7991 19.6421 25.8137 19.5683 25.8434C19.4945 25.873 19.4274 25.9171 19.3707 25.9729C19.3141 26.0287 19.2691 26.0952 19.2385 26.1686C19.2078 26.2419 19.192 26.3207 19.192 26.4002C19.192 26.4797 19.2078 26.5584 19.2385 26.6318C19.2691 26.7051 19.3141 26.7716 19.3707 26.8275C19.4274 26.8833 19.4945 26.9273 19.5683 26.957C19.6421 26.9866 19.721 27.0013 19.8005 27.0002H26.3091C26.375 27.0113 26.4424 27.0113 26.5083 27.0002H27.0005V26.5056C27.0114 26.4405 27.0114 26.374 27.0005 26.3088V19.8002C27.0016 19.7199 26.9866 19.6402 26.9563 19.5659C26.9261 19.4915 26.8812 19.424 26.8244 19.3672C26.7676 19.3105 26.7 19.2658 26.6255 19.2357C26.5511 19.2056 26.4714 19.1907 26.3911 19.192C26.2322 19.1945 26.0808 19.2599 25.97 19.3739C25.8593 19.4879 25.7983 19.6412 25.8005 19.8002V24.9517L17.8247 16.976C17.7688 16.9185 17.702 16.8728 17.6281 16.8416C17.5542 16.8104 17.4748 16.7943 17.3947 16.7943Z" fill="#141318"/>
</svg>
