<svg width="22" height="23" viewBox="0 0 22 23" fill="none" xmlns="http://www.w3.org/2000/svg">
<path d="M18.04 2.25977H3.96001C2.74561 2.25977 1.76001 3.24537 1.76001 4.45977V18.5398C1.76001 19.7542 2.74561 20.7398 3.96001 20.7398H18.04C19.2544 20.7398 20.24 19.7542 20.24 18.5398V4.45977C20.24 3.24537 19.2544 2.25977 18.04 2.25977ZM16.28 8.85977H15.4C14.4584 8.85977 14.08 9.07977 14.08 9.73977V11.0598H16.28L15.84 13.2598H14.08V19.8598H11.88V13.2598H10.12V11.0598H11.88V9.73977C11.88 7.97977 12.76 6.65977 14.52 6.65977C15.796 6.65977 16.28 7.09977 16.28 7.09977V8.85977Z" fill="#EDEBEB"/>
</svg>
