<svg width="23" height="23" viewBox="0 0 23 23" fill="none" xmlns="http://www.w3.org/2000/svg">
<path d="M18.54 2.25977H4.46001C3.24561 2.25977 2.26001 3.24537 2.26001 4.45977V18.5398C2.26001 19.7542 3.24561 20.7398 4.46001 20.7398H18.54C19.7544 20.7398 20.74 19.7542 20.74 18.5398V4.45977C20.74 3.24537 19.7544 2.25977 18.54 2.25977ZM16.78 8.85977H15.9C14.9584 8.85977 14.58 9.07977 14.58 9.73977V11.0598H16.78L16.34 13.2598H14.58V19.8598H12.38V13.2598H10.62V11.0598H12.38V9.73977C12.38 7.97977 13.26 6.65977 15.02 6.65977C16.296 6.65977 16.78 7.09977 16.78 7.09977V8.85977Z" fill="#141318"/>
</svg>
