<svg width="22" height="22" viewBox="0 0 22 22" fill="none" xmlns="http://www.w3.org/2000/svg">
<path d="M6.59988 3.08008C3.44598 3.08008 0.879883 5.64617 0.879883 8.80008C0.879883 15.2952 8.22582 18.5007 10.7249 20.5838L10.9999 20.8176L11.2749 20.5838C13.7739 18.5007 21.1199 15.2952 21.1199 8.80008C21.1199 5.64617 18.5538 3.08008 15.3999 3.08008C13.6158 3.08008 12.0483 3.92742 10.9999 5.21133C9.95145 3.92742 8.38395 3.08008 6.59988 3.08008ZM6.59988 3.96008C8.2877 3.96008 9.76238 4.82633 10.6286 6.13258L10.9999 6.68258L11.3711 6.13258C12.2374 4.82633 13.7121 3.96008 15.3999 3.96008C18.0777 3.96008 20.2399 6.12227 20.2399 8.80008C20.2399 14.4754 13.9011 17.4127 10.9999 19.7038C8.09863 17.4127 1.75988 14.4754 1.75988 8.80008C1.75988 6.12227 3.92207 3.96008 6.59988 3.96008Z" fill="black"/>
</svg>
