<svg width="24" height="24" viewBox="0 0 24 24" fill="none" xmlns="http://www.w3.org/2000/svg">
<path d="M2.83516 2.38524C2.81453 2.38899 2.79391 2.39462 2.77516 2.40024C2.59516 2.43212 2.45078 2.56337 2.40016 2.73774C2.34953 2.91399 2.40203 3.10149 2.53516 3.22524L20.7752 21.4652C20.9664 21.6565 21.2739 21.6565 21.4652 21.4652C21.6564 21.274 21.6564 20.9665 21.4652 20.7752L17.4002 16.7102C20.5558 15.0077 22.7833 12.4746 22.9202 12.3152C23.0739 12.1352 23.0739 11.8652 22.9202 11.6852C22.712 11.4434 17.7639 5.76024 12.0002 5.76024C10.412 5.76024 8.89703 6.19524 7.51516 6.82524L3.22516 2.53524C3.12578 2.42837 2.98141 2.37399 2.83516 2.38524ZM12.0002 6.72024C12.1877 6.72024 12.3695 6.73712 12.5552 6.75024C15.2045 7.03149 17.2802 9.27774 17.2802 12.0002C17.2802 13.2809 16.8264 14.4602 16.0652 15.3752L13.6502 12.9602C13.817 12.6771 13.9202 12.3527 13.9202 12.0002C13.9202 10.939 13.0614 10.0802 12.0002 10.0802C11.6477 10.0802 11.3233 10.1834 11.0402 10.3502L8.62516 7.93524C9.54016 7.17399 10.7195 6.72024 12.0002 6.72024ZM5.76016 7.75524C3.04703 9.42024 1.20578 11.539 1.08016 11.6852C0.926406 11.8652 0.926406 12.1352 1.08016 12.3152C1.28828 12.5571 6.23641 18.2402 12.0002 18.2402C12.1933 18.2402 12.3808 18.2271 12.5702 18.2102C13.607 18.1427 14.6195 17.9159 15.5702 17.5652L14.5952 16.5902C13.8264 17.0271 12.947 17.2802 12.0002 17.2802C11.8127 17.2802 11.6308 17.2634 11.4452 17.2502C8.79578 16.969 6.72016 14.7227 6.72016 12.0002C6.72016 11.0534 6.97328 10.174 7.41016 9.40524L5.76016 7.75524ZM10.0952 12.0752C10.1345 13.0727 10.9258 13.8659 11.9252 13.9052L10.0952 12.0752Z" fill="black"/>
</svg>
