<svg width="22" height="23" viewBox="0 0 22 23" fill="none" xmlns="http://www.w3.org/2000/svg">
<path d="M7.03995 1.82031C3.88515 1.82031 1.31995 4.38551 1.31995 7.54031V15.4603C1.31995 18.6151 3.88515 21.1803 7.03995 21.1803H14.9599C18.1147 21.1803 20.6799 18.6151 20.6799 15.4603V7.54031C20.6799 4.38551 18.1147 1.82031 14.9599 1.82031H7.03995ZM16.2799 5.34031C16.7639 5.34031 17.1599 5.73631 17.1599 6.22031C17.1599 6.70431 16.7639 7.10031 16.2799 7.10031C15.7959 7.10031 15.3999 6.70431 15.3999 6.22031C15.3999 5.73631 15.7959 5.34031 16.2799 5.34031ZM10.9999 6.66031C13.6707 6.66031 15.8399 8.82951 15.8399 11.5003C15.8399 14.1711 13.6707 16.3403 10.9999 16.3403C8.32915 16.3403 6.15995 14.1711 6.15995 11.5003C6.15995 8.82951 8.32915 6.66031 10.9999 6.66031ZM10.9999 7.54031C8.81755 7.54031 7.03995 9.31791 7.03995 11.5003C7.03995 13.6827 8.81755 15.4603 10.9999 15.4603C13.1823 15.4603 14.9599 13.6827 14.9599 11.5003C14.9599 9.31791 13.1823 7.54031 10.9999 7.54031Z" fill="#EDEBEB"/>
</svg>
