<svg width="23" height="23" viewBox="0 0 23 23" fill="none" xmlns="http://www.w3.org/2000/svg">
<path d="M7.54001 1.82031C4.38521 1.82031 1.82001 4.38551 1.82001 7.54031V15.4603C1.82001 18.6151 4.38521 21.1803 7.54001 21.1803H15.46C18.6148 21.1803 21.18 18.6151 21.18 15.4603V7.54031C21.18 4.38551 18.6148 1.82031 15.46 1.82031H7.54001ZM16.78 5.34031C17.264 5.34031 17.66 5.73631 17.66 6.22031C17.66 6.70431 17.264 7.10031 16.78 7.10031C16.296 7.10031 15.9 6.70431 15.9 6.22031C15.9 5.73631 16.296 5.34031 16.78 5.34031ZM11.5 6.66031C14.1708 6.66031 16.34 8.82951 16.34 11.5003C16.34 14.1711 14.1708 16.3403 11.5 16.3403C8.82921 16.3403 6.66001 14.1711 6.66001 11.5003C6.66001 8.82951 8.82921 6.66031 11.5 6.66031ZM11.5 7.54031C9.31761 7.54031 7.54001 9.31791 7.54001 11.5003C7.54001 13.6827 9.31761 15.4603 11.5 15.4603C13.6824 15.4603 15.46 13.6827 15.46 11.5003C15.46 9.31791 13.6824 7.54031 11.5 7.54031Z" fill="#141318"/>
</svg>
