<svg width="22" height="22" viewBox="0 0 22 22" fill="none" xmlns="http://www.w3.org/2000/svg">
<g clip-path="url(#clip0_2660_1857)">
<path d="M11 0.917969C4.93053 0.917969 9.56522e-08 5.64306 0 11.4596C0 17.0075 4.48671 21.5592 10.1677 21.9682C10.1789 21.9691 10.1901 21.97 10.2013 21.9709C10.4655 21.9891 10.731 22.0013 11 22.0013C11.269 22.0013 11.5345 21.9891 11.7987 21.9709C11.8099 21.97 11.8211 21.9691 11.8323 21.9682C17.5133 21.5592 22 17.0075 22 11.4596C22 5.64306 17.0695 0.917969 11 0.917969ZM11 1.83464C16.5525 1.83464 21.0435 6.13847 21.0435 11.4596C21.0435 14.0867 19.9458 16.4629 18.1692 18.1986C17.4092 17.6682 16.47 17.3518 15.6285 17.0688C14.6318 16.7343 13.6889 16.4171 13.4277 15.8657C13.3866 15.395 13.3903 15.0274 13.3941 14.6053L13.395 14.4263C13.8197 14.039 14.3538 13.2216 14.5365 12.4667C14.8522 12.3054 15.2381 11.9186 15.3539 10.9924C15.4117 10.5326 15.2752 10.1766 15.0839 9.93783C15.3422 9.08762 15.856 6.93527 14.9559 5.54606C14.5752 4.95894 14.0008 4.58851 13.2456 4.4423C12.8214 3.93905 12.0208 3.66439 10.9505 3.66439C9.32393 3.69326 8.1315 4.17071 7.40837 5.08325C6.55563 6.16034 6.39451 7.78769 6.92824 9.92261C6.73072 10.1614 6.58825 10.5226 6.64708 10.9915C6.7633 11.9177 7.14783 12.3045 7.46349 12.4658C7.64618 13.2216 8.17979 14.039 8.60496 14.4263L8.60589 14.6008C8.60972 15.0248 8.6134 15.3932 8.57227 15.8657C8.31018 16.4185 7.36272 16.7391 6.36124 17.0778C5.52482 17.3609 4.59113 17.6777 3.83263 18.2013C2.05471 16.4654 0.956522 14.0878 0.956522 11.4596C0.956522 6.13847 5.44748 1.83464 11 1.83464Z" fill="#A0061F"/>
</g>
<defs>
<clipPath id="clip0_2660_1857">
<rect width="22" height="22" fill="white"/>
</clipPath>
</defs>
</svg>
