<svg width="22" height="22" viewBox="0 0 22 22" fill="none" xmlns="http://www.w3.org/2000/svg">
	<g clip-path="url(#clip0_2246_30)">
		<path d="M11 0.916992C4.93053 0.916992 9.56522e-08 5.64209 0 11.4587C0 17.0065 4.48671 21.5582 10.1677 21.9672C10.1789 21.9681 10.1901 21.9691 10.2013 21.9699C10.4655 21.9881 10.731 22.0003 11 22.0003C11.269 22.0003 11.5345 21.9881 11.7987 21.9699C11.8099 21.9691 11.8211 21.9681 11.8323 21.9672C17.5133 21.5582 22 17.0065 22 11.4587C22 5.64209 17.0695 0.916992 11 0.916992ZM11 1.83366C16.5525 1.83366 21.0435 6.13749 21.0435 11.4587C21.0435 14.0857 19.9458 16.4619 18.1692 18.1976C17.4092 17.6672 16.47 17.3508 15.6285 17.0679C14.6318 16.7333 13.6889 16.4161 13.4277 15.8647C13.3866 15.394 13.3903 15.0265 13.3941 14.6043L13.395 14.4253C13.8197 14.038 14.3538 13.2206 14.5365 12.4657C14.8522 12.3044 15.2381 11.9177 15.3539 10.9914C15.4117 10.5317 15.2752 10.1756 15.0839 9.93685C15.3422 9.08664 15.856 6.93429 14.9559 5.54508C14.5752 4.95796 14.0008 4.58753 13.2456 4.44132C12.8214 3.93807 12.0208 3.66341 10.9505 3.66341C9.32393 3.69229 8.1315 4.16973 7.40837 5.08228C6.55563 6.15936 6.39451 7.78671 6.92824 9.92163C6.73072 10.1604 6.58825 10.5216 6.64708 10.9905C6.7633 11.9168 7.14783 12.3035 7.46349 12.4648C7.64618 13.2206 8.17979 14.038 8.60496 14.4253L8.60589 14.5999C8.60972 15.0238 8.6134 15.3922 8.57227 15.8647C8.31018 16.4175 7.36272 16.7381 6.36124 17.0768C5.52482 17.3599 4.59113 17.6768 3.83263 18.2003C2.05471 16.4644 0.956522 14.0868 0.956522 11.4587C0.956522 6.13749 5.44748 1.83366 11 1.83366Z" fill="#EDEBEB" />
	</g>
	<defs>
		<clipPath id="clip0_2246_30">
			<rect width="22" height="22" fill="white" />
		</clipPath>
	</defs>
</svg>
