<svg width="33" height="32" viewBox="0 0 33 32" fill="none" xmlns="http://www.w3.org/2000/svg">
<g clip-path="url(#clip0_981_32394)">
<path d="M16.75 1.33203C7.92168 1.33203 0.75 8.20489 0.75 16.6654C0.75 24.735 7.27613 31.3556 15.5394 31.9505C15.5557 31.9518 15.572 31.9532 15.5883 31.9544C15.9725 31.981 16.3588 31.9987 16.75 31.9987C17.1412 31.9987 17.5275 31.981 17.9117 31.9544C17.928 31.9532 17.9443 31.9518 17.9606 31.9505C26.2239 31.3556 32.75 24.735 32.75 16.6654C32.75 8.20489 25.5783 1.33203 16.75 1.33203ZM16.75 2.66536C24.8264 2.66536 31.3587 8.92548 31.3587 16.6654C31.3587 20.4865 29.762 23.9429 27.178 26.4674C26.0725 25.696 24.7063 25.2357 23.4823 24.8242C22.0326 24.3376 20.6611 23.8762 20.2812 23.0742C20.2214 22.3896 20.2268 21.8549 20.2323 21.2409L20.2337 20.9805C20.8514 20.4171 21.6283 19.2282 21.894 18.1302C22.3532 17.8955 22.9145 17.333 23.0829 15.9857C23.1671 15.317 22.9685 14.7992 22.6902 14.4518C23.0659 13.2152 23.8133 10.0845 22.5041 8.0638C21.9503 7.2098 21.1147 6.671 20.0163 6.45833C19.3993 5.72633 18.2349 5.32682 16.678 5.32682C14.3121 5.36882 12.5776 6.06329 11.5258 7.39062C10.2855 8.95729 10.0511 11.3244 10.8274 14.4297C10.5401 14.777 10.3329 15.3024 10.4185 15.9844C10.5875 17.3317 11.1468 17.8942 11.606 18.1289C11.8717 19.2282 12.6479 20.4171 13.2663 20.9805L13.2677 21.2344C13.2732 21.851 13.2786 22.3869 13.2188 23.0742C12.8375 23.8782 11.4594 24.3446 10.0027 24.8372C8.78609 25.2489 7.428 25.7099 6.32473 26.4714C3.73867 23.9465 2.1413 20.4882 2.1413 16.6654C2.1413 8.92548 8.6736 2.66536 16.75 2.66536Z" fill="#141318"/>
</g>
<defs>
<clipPath id="clip0_981_32394">
<rect width="32" height="32" fill="white" transform="translate(0.75)"/>
</clipPath>
</defs>
</svg>
