<svg width="22" height="22" viewBox="0 0 22 22" xmlns="http://www.w3.org/2000/svg">
	<g clip-path="url(#clip0_622_74073)">
		<path d="M10.9999 0.883789C5.41597 0.883789 0.879883 5.41988 0.879883 11.0038C0.879883 16.5877 5.41597 21.1238 10.9999 21.1238C16.5838 21.1238 21.1199 16.5877 21.1199 11.0038C21.1199 5.41988 16.5838 0.883789 10.9999 0.883789ZM10.9999 1.76379C16.1082 1.76379 20.2399 5.89547 20.2399 11.0038C20.2399 13.5262 19.2296 15.8077 17.5947 17.474C16.7896 16.883 15.8082 16.5864 14.9771 16.2907C14.509 16.1241 14.0881 15.959 13.7808 15.775C13.4865 15.5988 13.3231 15.4177 13.2368 15.2096C13.1964 14.705 13.2046 14.2987 13.2076 13.8191C13.2609 13.766 13.3293 13.7287 13.3838 13.6644C13.5123 13.5128 13.6431 13.3285 13.7679 13.1213C13.982 12.7659 14.1378 12.3313 14.2251 11.8907C14.3584 11.8227 14.5008 11.808 14.6093 11.6698C14.8094 11.4146 14.9446 11.0556 15.0046 10.5552C15.0578 10.1134 14.9154 9.80956 14.7321 9.57637C14.9293 8.93185 15.1734 7.90686 15.0905 6.84613C15.0449 6.26256 14.898 5.67515 14.5448 5.18668C14.2076 4.72033 13.66 4.38511 12.9593 4.26371C12.5142 3.75838 11.8072 3.52035 10.9621 3.52035H10.9578H10.9543C9.06113 3.55511 7.83961 4.33868 7.3166 5.53387C6.81927 6.67038 6.92619 8.08525 7.28309 9.55832C7.09123 9.79153 6.94095 10.1012 6.9952 10.5552C7.05541 11.0554 7.19047 11.4146 7.39051 11.6698C7.49885 11.808 7.64128 11.8227 7.77465 11.8907C7.86193 12.331 8.01776 12.765 8.23184 13.1204C8.35669 13.3277 8.48737 13.5118 8.61598 13.6636C8.67047 13.7279 8.73878 13.766 8.79215 13.8191C8.79501 14.2985 8.80314 14.7045 8.76293 15.2096C8.67681 15.4169 8.51361 15.5981 8.2198 15.775C7.91302 15.9598 7.49265 16.1257 7.02527 16.2932C6.195 16.5908 5.21415 16.8895 4.40676 17.4757C2.77084 15.8093 1.75988 13.5271 1.75988 11.0038C1.75988 5.89547 5.89156 1.76379 10.9999 1.76379ZM10.9655 4.40121C11.7769 4.40205 12.2874 4.64229 12.4273 4.88762L12.5347 5.07582L12.7487 5.10504C13.3014 5.18184 13.6103 5.39633 13.8315 5.7023C14.0528 6.00828 14.1756 6.43531 14.2131 6.91488C14.2881 7.87404 14.0135 9.00667 13.8393 9.53082L13.7284 9.8634L14.0283 10.0456C13.9978 10.027 14.1693 10.1285 14.1306 10.4504C14.0837 10.8419 13.9836 11.0413 13.9166 11.1267C13.8496 11.2121 13.8209 11.2012 13.8281 11.2006L13.4654 11.2307L13.4268 11.5925C13.3936 11.9033 13.2187 12.3273 13.0143 12.6667C12.912 12.8364 12.8032 12.9875 12.7118 13.0955C12.6203 13.2035 12.5228 13.2704 12.5596 13.2511L12.3242 13.3739V13.6404C12.3242 14.2231 12.3004 14.6996 12.362 15.378L12.3671 15.4364L12.3878 15.4914C12.5609 15.9574 12.9224 16.2862 13.3288 16.5296C13.7352 16.773 14.2015 16.9489 14.6823 17.12C15.4747 17.4019 16.3008 17.6794 16.9304 18.0893C15.3261 19.4331 13.2595 20.2438 10.9999 20.2438C8.74111 20.2438 6.67516 19.4339 5.07105 18.0911C5.70429 17.6835 6.53157 17.4052 7.32262 17.1217C7.80311 16.9495 8.26817 16.7728 8.67355 16.5287C9.07894 16.2846 9.43908 15.9559 9.61199 15.4914L9.63262 15.4364L9.63777 15.378C9.69882 14.7001 9.67559 14.2235 9.67559 13.6404V13.3739L9.44012 13.2502C9.47697 13.2695 9.37952 13.2026 9.28801 13.0946C9.19649 12.9867 9.08775 12.8364 8.98551 12.6667C8.78103 12.3272 8.60618 11.9029 8.57301 11.5925L8.53434 11.2307L8.17168 11.2006C8.17848 11.2012 8.15009 11.2121 8.08316 11.1267C8.01623 11.0413 7.91633 10.842 7.86918 10.4504C7.83072 10.1285 8.00417 10.0257 7.97145 10.0456L8.25074 9.87629L8.1691 9.55918C7.7905 8.10203 7.73325 6.77618 8.1227 5.88621C8.51176 4.99712 9.29111 4.43304 10.9655 4.40121Z" />
	</g>
	<defs>
		<clipPath id="clip0_622_74073">
			<rect width="22" height="22" fill="white" />
		</clipPath>
	</defs>
</svg>