<svg width="40" height="40" viewBox="0 0 40 40" fill="none" xmlns="http://www.w3.org/2000/svg">
<rect x="0.5" y="0.5" width="39" height="39" rx="19.5" stroke="#A0061F"/>
<rect x="4" y="4" width="32" height="32" rx="16" fill="#010101"/>
<g clip-path="url(#clip0_942_47729)">
<path d="M25.9145 15.7971C26.2498 15.8897 26.5481 16.0338 26.8095 16.2273C27.0709 16.4218 27.2821 16.6685 27.4431 16.9675C27.6042 17.2675 27.6847 17.6234 27.6847 18.0371H28.3116L28.4812 15.1257H28.0237L27.7491 15.9108C27.2083 15.5898 26.7082 15.3586 26.246 15.2146C25.7857 15.0715 25.2942 15 24.7714 15C24.7704 15 24.7685 15 24.7676 15V15.6613C24.8083 15.6604 24.8481 15.6586 24.8898 15.6586C25.2383 15.6586 25.5802 15.7054 25.9155 15.798L25.9145 15.7971Z" fill="white"/>
<path d="M26.2874 20.7971V21.2777C26.7495 21.2777 27.082 21.364 27.2875 21.5373C27.4921 21.7107 27.5944 22.0418 27.5944 22.5307C27.5944 22.7674 27.5356 22.993 27.4182 23.2077C27.3008 23.4232 27.1265 23.6131 26.8954 23.7773C26.6643 23.9415 26.383 24.0726 26.0525 24.1699C25.721 24.2671 25.3933 24.3423 24.9775 24.3478C24.8459 24.3497 24.6697 24.3579 24.5456 24.3478C23.0113 24.3405 21.7138 23.3462 21.3378 21.7052C21.1143 20.7283 20.9798 19.7312 20.7127 18.7663C20.5574 18.2031 20.3064 17.6949 19.9834 17.2473C19.7855 16.9657 19.5601 16.7061 19.3062 16.4685C18.8185 16.0127 18.2426 15.654 17.5806 15.3926C16.9186 15.1312 16.2035 15 15.4373 15C14.6711 15 13.9561 15.1312 13.294 15.3926C12.632 15.654 12.0571 16.0127 11.5684 16.4685C11.0806 16.9244 10.6971 17.4601 10.4186 18.0765C10.1392 18.692 10 19.3588 10 20.0761C10 20.0807 10 20.0844 10 20.0881H11.6991C11.701 19.423 11.7881 18.8222 11.9605 18.2847C12.1348 17.7408 12.3829 17.2766 12.7059 16.8923C13.0279 16.508 13.42 16.2135 13.8822 16.0062C14.3444 15.7999 14.8624 15.6962 15.4373 15.6962C16.0122 15.6962 16.5303 15.7999 16.9925 16.0062C17.4547 16.2135 17.8468 16.508 18.1688 16.8923C18.4908 17.2766 18.7389 17.7408 18.9141 18.2847C19.0221 18.6214 19.096 18.9837 19.1377 19.3698V19.3827C19.1405 19.4038 19.1424 19.4249 19.1443 19.446C19.1642 19.6615 19.1755 19.8835 19.1755 20.1137C19.1755 20.7549 19.0884 21.3355 18.9141 21.8538C18.7399 22.373 18.4898 22.8142 18.1621 23.1765C17.8354 23.5397 17.4433 23.8176 16.9858 24.0121C16.5284 24.2066 16.0122 24.3029 15.4373 24.3029C15.4354 24.3029 15.4345 24.3029 15.4326 24.3029V24.9991C15.4326 24.9991 15.4354 24.9991 15.4373 24.9991C16.195 24.9991 16.9053 24.8707 17.5674 24.6129C18.2294 24.3552 18.8043 24.0057 19.293 23.5627C19.6567 23.2324 19.9635 22.8582 20.2136 22.4408C20.2884 22.5252 20.3613 22.6133 20.368 22.6252C21.2156 24.0992 22.9109 24.9312 24.5456 24.9541C24.556 24.9541 24.5655 24.9541 24.575 24.9541C25.0457 24.9541 25.4785 24.9477 25.8754 24.8468C26.2722 24.7459 26.6226 24.6111 26.9276 24.4414C27.171 24.3066 27.3832 24.1992 27.5612 24.1185C27.7393 24.0387 27.9031 23.9754 28.0518 23.9286C28.1996 23.8828 28.3416 23.8525 28.4761 23.8397C28.6115 23.8268 28.7612 23.8204 28.9269 23.8204V22.4023C28.9269 22.1831 28.9421 22.0015 28.9724 21.8584C29.0027 21.7153 29.0595 21.5988 29.1419 21.5107C29.2243 21.4218 29.3361 21.3612 29.4753 21.3273C29.6145 21.2933 29.7888 21.2768 29.9981 21.2768V20.7962H26.2864L26.2874 20.7971Z" fill="white"/>
</g>
<defs>
<clipPath id="clip0_942_47729">
<rect width="20" height="10" fill="white" transform="translate(10 15)"/>
</clipPath>
</defs>
</svg>
