<svg width="24" height="24" viewBox="0 0 24 24" fill="none" xmlns="http://www.w3.org/2000/svg">
<path d="M11.9998 0.480469C7.76607 0.480469 4.31982 3.92672 4.31982 8.16047C4.31982 14.9348 11.3417 23.0142 11.6398 23.3555C11.7317 23.4605 11.8611 23.5205 11.9998 23.5205C12.1479 23.5111 12.2679 23.4605 12.3598 23.3555C12.6579 23.0086 19.6798 14.7905 19.6798 8.16047C19.6798 3.92672 16.2336 0.480469 11.9998 0.480469ZM11.9998 5.76047C13.5898 5.76047 14.8798 7.05047 14.8798 8.64047C14.8798 10.2305 13.5898 11.5205 11.9998 11.5205C10.4098 11.5205 9.11982 10.2305 9.11982 8.64047C9.11982 7.05047 10.4098 5.76047 11.9998 5.76047Z" fill="black"/>
</svg>
