<svg width="42" height="42" viewBox="0 0 42 42" fill="none" xmlns="http://www.w3.org/2000/svg">
<path d="M12.5999 2.51953C11.2105 2.51953 10.0799 3.65017 10.0799 5.03953V7.40203C9.77666 8.18323 8.3999 11.8368 8.3999 13.8595C8.3999 15.7104 9.01306 17.1019 10.0799 17.8528V36.9595C10.0799 38.3489 11.2105 39.4795 12.5999 39.4795H22.6799L22.8702 36.9595H18.4799C18.0154 36.9595 17.6399 36.584 17.6399 36.1195C17.6399 35.655 18.0154 35.2795 18.4799 35.2795H22.9982L23.1885 32.7595H11.7599V18.4582C11.8966 18.4714 12.0364 18.4795 12.1799 18.4795C13.2658 18.4795 14.2964 18.0905 15.1199 17.3984C15.9161 18.0653 16.9381 18.4795 18.0599 18.4795C19.2139 18.4795 20.1947 17.9648 20.9999 17.2638C21.8051 17.9648 22.7859 18.4795 23.9399 18.4795C25.0617 18.4795 26.0837 18.0653 26.8799 17.3984C27.7029 18.0901 28.7337 18.4795 29.8199 18.4795C29.9634 18.4795 30.1032 18.4714 30.2399 18.4582V21.8658C30.7489 21.5382 31.3151 21.2957 31.9199 21.1521V17.8528C32.9867 17.1019 33.5999 15.7104 33.5999 13.8595C33.5999 11.8251 32.2073 8.14071 31.915 7.38891C31.915 7.37967 31.9199 7.3719 31.9199 7.36266V5.03953C31.9199 3.65017 30.7893 2.51953 29.3999 2.51953H12.5999ZM11.4974 8.39953H14.2799V15.8693C13.7221 16.4545 12.9771 16.7995 12.1799 16.7995C10.4445 16.7995 10.0799 15.201 10.0799 13.8595C10.0799 12.4819 10.9707 9.80989 11.4974 8.39953ZM15.9599 8.39953H20.1599V15.8332C19.6218 16.4088 18.9039 16.7995 18.0599 16.7995C17.224 16.7995 16.4967 16.4353 15.9599 15.8693V8.39953ZM21.8399 8.39953H26.0399V15.8332C25.5018 16.4088 24.7839 16.7995 23.9399 16.7995C23.0959 16.7995 22.378 16.4088 21.8399 15.8332V8.39953ZM27.7199 8.39953H30.5024C31.0291 9.80989 31.9199 12.4819 31.9199 13.8595C31.9199 15.201 31.5553 16.7995 29.8199 16.7995C29.0218 16.7995 28.2765 16.4548 27.7199 15.8693V8.39953ZM33.1799 22.6795C31.1022 22.6795 29.3999 24.3818 29.3999 26.4595V27.7195H25.2622L24.3599 39.4795C24.3599 40.8689 25.4905 41.9995 26.8799 41.9995H39.4799C40.8693 41.9995 41.9999 40.8696 41.9983 39.4155L41.0992 27.7195H36.9599V26.4595C36.9599 24.3818 35.2576 22.6795 33.1799 22.6795ZM33.1799 24.3595C34.3497 24.3595 35.2799 25.2898 35.2799 26.4595V27.7195H31.0799V26.4595C31.0799 25.2898 32.0101 24.3595 33.1799 24.3595Z" fill="black"/>
</svg>
