<svg width="22" height="22" viewBox="0 0 22 22" fill="none" xmlns="http://www.w3.org/2000/svg">
<g clip-path="url(#clip0_846_22246)">
<path d="M6.5999 1.32031C5.87214 1.32031 5.2799 1.91255 5.2799 2.64031V3.87695C5.12106 4.28571 4.3999 6.20079 4.3999 7.26031C4.3999 8.22981 4.72108 8.95871 5.2799 9.35203V19.3603C5.2799 20.0881 5.87214 20.6803 6.5999 20.6803H10.9999V19.3603H9.6799C9.43658 19.3603 9.2399 19.1636 9.2399 18.9203C9.2399 18.677 9.43658 18.4803 9.6799 18.4803H10.9999V17.1603H6.1599V9.66914C6.2315 9.67608 6.30473 9.68031 6.3799 9.68031C6.94885 9.68031 7.48849 9.47682 7.9199 9.11398C8.33694 9.46333 8.87228 9.68031 9.4599 9.68031C10.0644 9.68031 10.5781 9.41068 10.9999 9.04352C11.4217 9.41068 11.9354 9.68031 12.5399 9.68031C13.1275 9.68031 13.6629 9.46333 14.0799 9.11398C14.511 9.47664 15.0509 9.68031 15.6199 9.68031C15.6951 9.68031 15.7683 9.67608 15.8399 9.66914V13.6403H16.7199V9.35203C17.2787 8.95871 17.5999 8.22981 17.5999 7.26031C17.5999 6.19507 16.8704 4.26432 16.7173 3.87008C16.7173 3.86524 16.7199 3.86117 16.7199 3.85633V2.64031C16.7199 1.91255 16.1277 1.32031 15.3999 1.32031H6.5999ZM6.0224 4.40031H7.4799V8.31305C7.18775 8.61959 6.79746 8.80031 6.3799 8.80031C5.47086 8.80031 5.2799 7.96299 5.2799 7.26031C5.2799 6.53915 5.74652 5.13907 6.0224 4.40031ZM8.3599 4.40031H10.5599V8.29414C10.278 8.59563 9.90198 8.80031 9.4599 8.80031C9.02204 8.80031 8.64107 8.6095 8.3599 8.31305V4.40031ZM11.4399 4.40031H13.6399V8.29414C13.358 8.59563 12.982 8.80031 12.5399 8.80031C12.0978 8.80031 11.7218 8.59563 11.4399 8.29414V4.40031ZM14.5199 4.40031H15.9774C16.2533 5.13907 16.7199 6.53915 16.7199 7.26031C16.7199 7.96299 16.5289 8.80031 15.6199 8.80031C15.2018 8.80031 14.8114 8.61976 14.5199 8.31305V4.40031ZM13.1999 14.5203C12.4721 14.5203 11.8799 15.1126 11.8799 15.8403V16.2803H21.9999V15.8403C21.9999 15.1126 21.4077 14.5203 20.6799 14.5203H13.1999ZM11.8799 17.6003V20.6803C11.8799 21.4081 12.4721 22.0003 13.1999 22.0003H20.6799C21.4077 22.0003 21.9999 21.4081 21.9999 20.6803V17.6003H11.8799Z" fill="black"/>
</g>
<defs>
<clipPath id="clip0_846_22246">
<rect width="22" height="22" fill="white"/>
</clipPath>
</defs>
</svg>
