<svg width="24" height="24" viewBox="0 0 24 24" fill="none" xmlns="http://www.w3.org/2000/svg">
<path d="M7.91996 1.44043C6.99371 1.44043 6.23996 2.19418 6.23996 3.12043V12.9604H5.99996C5.60246 12.9604 5.27996 13.2829 5.27996 13.6804C5.27996 14.0779 5.60246 14.4004 5.99996 14.4004H18C18.3975 14.4004 18.72 14.0779 18.72 13.6804C18.72 13.2829 18.3975 12.9604 18 12.9604H17.76V3.12043C17.76 2.19418 17.0062 1.44043 16.08 1.44043H7.91996ZM8.63996 2.40043H10.08V13.4404H8.63996V2.40043ZM2.39996 5.28043C1.60684 5.28043 0.959961 5.9273 0.959961 6.72043V17.7604C0.959961 18.5536 1.60684 19.2004 2.39996 19.2004H21.6C22.3931 19.2004 23.04 18.5536 23.04 17.7604V6.72043C23.04 5.9273 22.3931 5.28043 21.6 5.28043H18.24V6.24043H21.6C21.8643 6.24043 22.08 6.45606 22.08 6.72043V16.8004H1.91996V6.72043C1.91996 6.45606 2.13559 6.24043 2.39996 6.24043H5.75996V5.28043H2.39996ZM8.95496 20.1604L8.71496 21.6004H7.67996C7.66496 21.6004 7.64996 21.6004 7.63496 21.6004C7.37059 21.6136 7.16434 21.8386 7.17746 22.1029C7.19059 22.3673 7.41559 22.5736 7.67996 22.5604H16.32C16.4925 22.5623 16.6537 22.4723 16.7418 22.3223C16.8281 22.1723 16.8281 21.9886 16.7418 21.8386C16.6537 21.6886 16.4925 21.5986 16.32 21.6004H15.285L15.045 20.1604H8.95496Z" fill="black"/>
</svg>
