<svg width="22" height="22" viewBox="0 0 22 22" fill="none" xmlns="http://www.w3.org/2000/svg">
<path d="M7.25988 1.32031C6.41082 1.32031 5.71988 2.01125 5.71988 2.86031V11.8803H5.49988C5.13551 11.8803 4.83988 12.1759 4.83988 12.5403C4.83988 12.9047 5.13551 13.2003 5.49988 13.2003H16.4999C16.8643 13.2003 17.1599 12.9047 17.1599 12.5403C17.1599 12.1759 16.8643 11.8803 16.4999 11.8803H16.2799V2.86031C16.2799 2.01125 15.5889 1.32031 14.7399 1.32031H7.25988ZM7.91988 2.20031H9.23988V12.3203H7.91988V2.20031ZM2.19988 4.84031C1.47285 4.84031 0.879883 5.43328 0.879883 6.16031V16.2803C0.879883 17.0073 1.47285 17.6003 2.19988 17.6003H19.7999C20.5269 17.6003 21.1199 17.0073 21.1199 16.2803V6.16031C21.1199 5.43328 20.5269 4.84031 19.7999 4.84031H16.7199V5.72031H19.7999C20.0422 5.72031 20.2399 5.91797 20.2399 6.16031V15.4003H1.75988V6.16031C1.75988 5.91797 1.95754 5.72031 2.19988 5.72031H5.27988V4.84031H2.19988ZM8.20863 18.4803L7.98863 19.8003H7.03988C7.02613 19.8003 7.01238 19.8003 6.99863 19.8003C6.75629 19.8123 6.56723 20.0186 6.57926 20.2609C6.59129 20.5033 6.79754 20.6923 7.03988 20.6803H14.9599C15.118 20.682 15.2658 20.5995 15.3466 20.462C15.4257 20.3245 15.4257 20.1561 15.3466 20.0186C15.2658 19.8811 15.118 19.7986 14.9599 19.8003H14.0111L13.7911 18.4803H8.20863Z" fill="black"/>
</svg>
