<svg width="24" height="24" viewBox="0 0 24 24" fill="none" xmlns="http://www.w3.org/2000/svg">
<path d="M18.7349 22.5603C18.7274 22.5603 18.7199 22.5603 18.7124 22.5603C15.1049 22.4422 10.8787 18.9453 7.96682 16.0316C5.05119 13.1178 1.55432 8.8897 1.44182 5.29908C1.40057 4.03908 4.49244 1.79845 4.52432 1.77595C5.32682 1.2172 6.21744 1.41595 6.58307 1.9222C6.83057 2.26533 9.17432 5.81658 9.42932 6.2197C9.69369 6.63783 9.65431 7.26033 9.32432 7.8847C9.14244 8.23158 8.53869 9.29283 8.25557 9.78783C8.56119 10.2228 9.36932 11.2897 11.0381 12.9585C12.7087 14.6272 13.7737 15.4372 14.2106 15.7428C14.7056 15.4597 15.7668 14.856 16.1137 14.6741C16.7287 14.3478 17.3474 14.3066 17.7693 14.5653C18.2006 14.8297 21.7424 17.1847 22.0687 17.4116C22.3424 17.6047 22.5187 17.9347 22.5543 18.3191C22.5881 18.7072 22.4681 19.1178 22.2187 19.476C22.1981 19.506 19.9837 22.5603 18.7349 22.5603Z" fill="black"/>
</svg>
