<svg width="22" height="22" viewBox="0 0 22 22" fill="none" xmlns="http://www.w3.org/2000/svg">
<g clip-path="url(#clip0_891_47335)">
<path d="M15.1353 3.96117C14.7723 3.96715 14.4243 4.09255 14.1504 4.31695C13.816 4.59415 13.6228 4.99465 13.6228 5.41265C13.6228 5.72065 13.7278 5.95791 13.829 6.16031H11V10.1994C11.1496 10.1554 11.3252 10.1203 11.5276 10.1203C12.06 10.1203 12.5617 10.3578 12.8785 10.7494C13.1645 11.1146 13.2617 11.5594 13.1561 12.0126C13.0241 12.6022 12.5007 13.0643 11.8275 13.1831C11.5547 13.2403 11.2728 13.2263 11 13.1427V16.2803H13.8333V16.2846C13.7277 16.4782 13.6228 16.72 13.6228 17.028C13.6228 17.446 13.816 17.8465 14.1504 18.1237C14.432 18.3569 14.7931 18.4803 15.1671 18.4803C15.2771 18.4803 15.3914 18.4671 15.5014 18.4451C16.0954 18.3307 16.5572 17.882 16.6804 17.3012C16.7684 16.9536 16.7071 16.5971 16.4871 16.2803H17.0835L17.1531 16.3809L17.1565 16.3851C17.6427 17.0524 18.3247 17.608 19.1451 17.8074L19.146 17.8083L21.4388 18.4631C21.4949 18.4811 21.5541 18.4876 21.6128 18.4823C21.6715 18.477 21.7285 18.4599 21.7805 18.4322C21.8324 18.4044 21.8783 18.3664 21.9153 18.3206C21.9524 18.2748 21.9798 18.2219 21.9961 18.1653C22.0123 18.1086 22.017 18.0493 22.0099 17.9908C22.0027 17.9323 21.9839 17.8758 21.9545 17.8247C21.9252 17.7736 21.8858 17.729 21.8389 17.6934C21.7919 17.6578 21.7383 17.632 21.6811 17.6175L19.3625 16.9549L19.3539 16.9523C18.7982 16.8175 18.2605 16.4038 17.8707 15.8704L15.5332 12.4879L15.5306 12.4844C15.3381 12.2173 15.3629 11.8613 15.5761 11.6526L15.5821 11.6457L15.589 11.6388C15.7788 11.4362 16.0575 11.4206 16.2593 11.6001L16.2636 11.6036L18.6682 13.6403L19.8 12.8858V10.385C19.9381 10.4496 20.0452 10.5279 20.1532 10.6892L20.1575 10.6961L21.2033 12.1381C21.2372 12.185 21.2799 12.2247 21.3291 12.255C21.3783 12.2853 21.433 12.3057 21.4901 12.3149C21.5471 12.324 21.6055 12.3219 21.6617 12.3085C21.7179 12.2952 21.771 12.2709 21.8178 12.237C21.8647 12.2032 21.9044 12.1604 21.9347 12.1112C21.965 12.062 21.9853 12.0073 21.9945 11.9502C22.0037 11.8932 22.0015 11.8348 21.9881 11.7786C21.9748 11.7224 21.9505 11.6693 21.9166 11.6225L20.8845 10.1994C20.6913 9.91062 20.4243 9.66905 20.0878 9.53421L20.0638 9.52476L19.8 9.45343V6.82031C19.8 6.45511 19.5052 6.16031 19.14 6.16031H16.5C16.7068 5.83911 16.7683 5.48687 16.6847 5.14367C16.5571 4.55847 16.0954 4.10994 15.5014 3.99554C15.3793 3.97024 15.2563 3.95917 15.1353 3.96117ZM6.33527 3.96288C5.96979 3.96969 5.62432 4.09354 5.35042 4.32124C5.01602 4.59844 4.82277 4.99465 4.82277 5.41265C4.82277 5.72505 4.92782 5.96231 5.02902 6.16031H2.85995C2.49475 6.16031 2.19995 6.45951 2.19995 6.82031V9.45257L1.93613 9.5239L1.9112 9.53421C1.57559 9.66926 1.30878 9.91041 1.11542 10.1994L0.0833127 11.6225C0.0494458 11.6693 0.0251362 11.7224 0.0117721 11.7786C-0.00159208 11.8348 -0.00374895 11.8931 0.00542462 11.9502C0.0145982 12.0073 0.0349225 12.062 0.0652369 12.1112C0.0955513 12.1604 0.135262 12.2031 0.182101 12.237C0.228941 12.2709 0.281991 12.2952 0.338223 12.3085C0.394455 12.3219 0.452767 12.324 0.509829 12.3148C0.566891 12.3057 0.621586 12.2853 0.670789 12.255C0.719993 12.2247 0.762741 12.185 0.796594 12.1381L1.84245 10.6952L1.84675 10.6884C1.9544 10.5275 2.0615 10.45 2.19995 10.385V12.8858L3.33175 13.6403L5.73714 11.6036L5.74058 11.6001C5.94222 11.4207 6.22191 11.4364 6.41175 11.6388L6.41777 11.6457L6.42464 11.6526C6.63802 11.8615 6.66215 12.2166 6.46933 12.4844L6.46675 12.4879L4.12925 15.8704C3.73942 16.4038 3.20173 16.8175 2.64597 16.9523L2.63738 16.9549L0.318781 17.6175C0.261653 17.632 0.208014 17.6578 0.161047 17.6934C0.114081 17.729 0.0747434 17.7736 0.0453698 17.8247C0.0159962 17.8758 -0.0028153 17.9323 -0.00994842 17.9908C-0.0170815 18.0493 -0.0123909 18.1086 0.00384504 18.1653C0.020081 18.2219 0.0475315 18.2748 0.0845678 18.3206C0.121604 18.3664 0.167471 18.4044 0.219448 18.4322C0.271424 18.4599 0.328451 18.477 0.387145 18.4823C0.445838 18.4876 0.505002 18.4811 0.561125 18.4631L2.85394 17.8083L2.8548 17.8074C3.67522 17.608 4.3572 17.0524 4.84339 16.3851L4.84683 16.3809L4.913 16.2846H5.03331C4.92771 16.4782 4.82277 16.7156 4.82277 17.028C4.82277 17.4504 5.01602 17.8465 5.35042 18.1237C5.63202 18.3569 5.99306 18.4803 6.36706 18.4803C6.47706 18.4803 6.59136 18.4671 6.70136 18.4451C7.28656 18.3351 7.76152 17.8731 7.88472 17.3055C7.96832 16.9579 7.90686 16.6015 7.69566 16.2803H10.12V12.7294C10.12 12.6898 10.1239 12.6461 10.1371 12.6065C10.1899 12.4173 10.3312 12.2679 10.5204 12.1931C10.7184 12.1139 10.9339 12.1312 11.1143 12.2412C11.2815 12.3292 11.4708 12.3599 11.66 12.3203C11.99 12.2631 12.2456 12.0561 12.3028 11.8141C12.3556 11.5765 12.2712 11.4006 12.1876 11.2994C12.038 11.1102 11.7916 11.0003 11.5276 11.0003C11.3648 11.0003 11.2328 11.0444 11.0876 11.106C10.9116 11.2028 10.7009 11.216 10.5161 11.1412C10.3269 11.062 10.1856 10.8992 10.1328 10.7012C10.124 10.666 10.12 10.6308 10.12 10.5912V6.16031H7.69995C7.90675 5.83911 7.96832 5.48676 7.88472 5.14796C7.76152 4.57156 7.28646 4.10994 6.70566 3.99554C6.58136 3.97134 6.45709 3.96062 6.33527 3.96288Z" fill="black"/>
</g>
<defs>
<clipPath id="clip0_891_47335">
<rect width="22" height="22" fill="white"/>
</clipPath>
</defs>
</svg>
