<svg width="24" height="24" viewBox="0 0 24 24" fill="none" xmlns="http://www.w3.org/2000/svg">
<path d="M18.2571 6.71396C18.0621 6.71021 17.8839 6.82646 17.8052 7.00458C17.7283 7.18458 17.7677 7.39271 17.9046 7.53146L21.7333 11.5196H0.971445C0.798945 11.5177 0.637695 11.6077 0.551445 11.7577C0.46332 11.9077 0.46332 12.0915 0.551445 12.2415C0.637695 12.3915 0.798945 12.4815 0.971445 12.4796H21.7333L17.9046 16.4677C17.7208 16.659 17.7283 16.9627 17.9196 17.1465C18.1108 17.3302 18.4146 17.3246 18.5983 17.1315L23.5258 11.9996L18.5983 6.86771C18.5102 6.77208 18.3864 6.71771 18.2571 6.71396Z" fill="black"/>
</svg>
