<svg width="22" height="22" viewBox="0 0 22 22" fill="none" xmlns="http://www.w3.org/2000/svg">
<g clip-path="url(#clip0_891_47341)">
<path d="M0.495 0.000726921C0.369531 -0.0130231 0.245781 0.0265082 0.15125 0.110727C0.0567186 0.194946 0 0.315258 0 0.440727V5.58323C0 5.80666 0.163281 5.99573 0.385 6.02323L8.70375 7.04073L11.0962 6.83448L20.4188 6.05073C21.1183 5.93213 21.9777 4.86651 22 3.71323C21.7491 3.25776 21.328 2.82635 20.68 2.53073V4.44198C20.68 4.68432 20.4841 4.88198 20.24 4.88198C19.9959 4.88198 19.8 4.68432 19.8 4.44198V2.24198C19.7966 2.24198 19.7897 2.24198 19.7862 2.24198L18.48 2.09073V4.18073C18.48 4.42307 18.2841 4.62073 18.04 4.62073C17.7959 4.62073 17.6 4.42307 17.6 4.18073V1.98073L16.28 1.82948V5.19823C16.28 5.44057 16.0841 5.63823 15.84 5.63823C15.5959 5.63823 15.4 5.44057 15.4 5.19823V1.73323L14.08 1.58198V3.60323C14.08 3.84557 13.8841 4.04323 13.64 4.04323C13.3959 4.04323 13.2 3.84557 13.2 3.60323V1.47198L11.88 1.32073V3.34198C11.88 3.58432 11.6841 3.78198 11.44 3.78198C11.1977 3.78198 11 3.58432 11 3.34198V1.22448L9.68 1.05948V4.35948C9.68 4.60182 9.48234 4.79948 9.24 4.79948C8.99766 4.79948 8.8 4.60182 8.8 4.35948V0.963227L7.48 0.811977V2.77823C7.48 3.02057 7.28234 3.21823 7.04 3.21823C6.79766 3.21823 6.6 3.02057 6.6 2.77823V0.701977L5.28 0.550727V2.46198C5.28 2.70432 5.08234 2.90198 4.84 2.90198C4.59766 2.90198 4.4 2.70432 4.4 2.46198V0.454477L3.08 0.303227V3.52073C3.08 3.76307 2.88234 3.96073 2.64 3.96073C2.39766 3.96073 2.2 3.76307 2.2 3.52073V0.193227L1.925 0.165727C1.86656 0.153696 1.80984 0.14854 1.76 0.151977L0.495 0.000726921ZM22 5.21198C22 5.27901 21.9948 6.3962 20.68 6.80698V8.80073C20.68 9.04307 20.4841 9.24073 20.24 9.24073C19.9959 9.24073 19.8 9.04307 19.8 8.80073V6.95823L18.48 7.06823V9.02073C18.48 9.26307 18.2841 9.46073 18.04 9.46073C17.7959 9.46073 17.6 9.26307 17.6 9.02073V7.15073L16.28 7.26073V10.5607C16.28 10.8031 16.0841 11.0007 15.84 11.0007C15.5959 11.0007 15.4 10.8031 15.4 10.5607V7.34323L14.08 7.45323V9.46073C14.08 9.70307 13.8841 9.90073 13.64 9.90073C13.3959 9.90073 13.2 9.70307 13.2 9.46073V7.52198L11.88 7.64573V9.68073C11.88 9.92307 11.6841 10.1207 11.44 10.1207C11.1977 10.1207 11 9.92307 11 9.68073V7.71448L9.68 7.82448V11.2207C9.68 11.4648 9.48234 11.6607 9.24 11.6607C8.99766 11.6607 8.8 11.4648 8.8 11.2207V7.90698L7.48 8.01698V10.1207C7.48 10.3631 7.28234 10.5607 7.04 10.5607C6.79766 10.5607 6.6 10.3631 6.6 10.1207V8.08573L5.28 8.20948V10.3407C5.28 10.5831 5.08234 10.7807 4.84 10.7807C4.59766 10.7807 4.4 10.5831 4.4 10.3407V8.27823L3.08 8.38823V11.8807C3.08 12.1248 2.88234 12.3207 2.64 12.3207C2.39766 12.3207 2.2 12.1248 2.2 11.8807V8.48448C1.50906 8.65463 0.42625 9.07745 0 10.2445C0 11.317 0.788906 12.5253 1.8975 12.637L12.1687 13.7782L19.4425 13.1595C19.4545 13.1578 19.4717 13.1474 19.4837 13.1457C19.9547 13.1045 20.3603 12.979 20.6938 12.7882C21.0031 12.6146 21.2472 12.3895 21.4363 12.142C21.8212 11.6556 22 11.0781 22 10.5882V5.21198ZM0 11.867V17.1607C0 18.1731 0.649688 19.3899 2.5025 19.7595L21.505 22.0007C21.5222 22.0024 21.5428 22.0007 21.56 22.0007C21.6666 22.0007 21.768 21.9629 21.8487 21.8907C21.9433 21.8082 22 21.6862 22 21.5607V16.1432C22 15.9181 21.8384 15.7428 21.615 15.717L20.68 15.607V17.642C20.68 17.886 20.4841 18.082 20.24 18.082C19.9959 18.082 19.8 17.886 19.8 17.642V15.5107L18.48 15.3595V17.3807C18.48 17.6248 18.2841 17.8207 18.04 17.8207C17.7959 17.8207 17.6 17.6248 17.6 17.3807V15.2632L16.28 15.1257V18.3982C16.28 18.6423 16.0841 18.8382 15.84 18.8382C15.5959 18.8382 15.4 18.6423 15.4 18.3982V15.0295L14.08 14.8782V16.8032C14.08 17.0473 13.8841 17.2432 13.64 17.2432C13.3959 17.2432 13.2 17.0473 13.2 16.8032V14.782L11.88 14.6307V16.542C11.88 16.786 11.6841 16.982 11.44 16.982C11.1977 16.982 11 16.786 11 16.542V14.5345L9.68 14.397V17.5595C9.68 17.8035 9.48234 17.9995 9.24 17.9995C8.99766 17.9995 8.8 17.8035 8.8 17.5595V14.287L7.48 14.1495V15.9782C7.48 16.2223 7.28234 16.4182 7.04 16.4182C6.79766 16.4182 6.6 16.2223 6.6 15.9782V14.0532L5.28 13.902V15.662C5.28 15.906 5.08234 16.102 4.84 16.102C4.59766 16.102 4.4 15.906 4.4 15.662V13.8057L3.08 13.6545V16.7207C3.08 16.9648 2.88234 17.1607 2.64 17.1607C2.39766 17.1607 2.2 16.9648 2.2 16.7207V13.5582L1.76 13.517C0.0223437 13.1698 0 11.9409 0 11.867Z" fill="black"/>
</g>
<defs>
<clipPath id="clip0_891_47341">
<rect width="22" height="22" fill="white"/>
</clipPath>
</defs>
</svg>
