<svg width="22" height="22" viewBox="0 0 22 22" fill="none" xmlns="http://www.w3.org/2000/svg">
<path d="M10.9998 0.44043C8.68813 0.44043 6.82349 2.32478 6.82349 4.66084V5.50492H3.52163L3.48248 5.87421L1.81197 20.6456L1.75977 21.1204H20.2398L20.1876 20.6456L18.5171 5.87421L18.4779 5.50492H15.176V4.66084C15.176 2.32478 13.3114 0.44043 10.9998 0.44043ZM10.9998 1.28451C12.8644 1.28451 14.3408 2.77649 14.3408 4.66084V5.50492H7.65875V4.66084C7.65875 2.77649 9.13513 1.28451 10.9998 1.28451ZM4.27858 6.349H6.82349V7.31178C6.5739 7.45851 6.40587 7.72558 6.40587 8.03716C6.40587 8.50372 6.77945 8.88125 7.24112 8.88125C7.7028 8.88125 8.07638 8.50372 8.07638 8.03716C8.07638 7.72558 7.90835 7.45851 7.65875 7.31178V6.349H14.3408V7.31178C14.0912 7.45851 13.9232 7.72558 13.9232 8.03716C13.9232 8.50372 14.2967 8.88125 14.7584 8.88125C15.2201 8.88125 15.5937 8.50372 15.5937 8.03716C15.5937 7.72558 15.4256 7.45851 15.176 7.31178V6.349H17.721L19.3001 20.2763H2.69943L4.27858 6.349Z" fill="black"/>
</svg>
