<svg width="24" height="24" viewBox="0 0 24 24" fill="none" xmlns="http://www.w3.org/2000/svg">
<path d="M3.35994 1.91992C2.56602 1.91992 1.91994 2.566 1.91994 3.35992V5.22273C1.8393 5.55585 1.43994 7.2628 1.43994 8.39992C1.43994 9.13192 1.61466 9.73008 1.91994 10.1765V22.0799H11.9193C11.9712 22.0885 12.024 22.0885 12.0759 22.0799H22.0799V10.1765C22.3852 9.7296 22.5599 9.13144 22.5599 8.39992C22.5599 7.2628 22.1606 5.55585 22.0799 5.22273V3.35992C22.0799 2.566 21.4339 1.91992 20.6399 1.91992H3.35994ZM3.83994 3.35992C4.1049 3.35992 4.31994 3.57496 4.31994 3.83992C4.31994 4.10488 4.1049 4.31992 3.83994 4.31992C3.57498 4.31992 3.35994 4.10488 3.35994 3.83992C3.35994 3.57496 3.57498 3.35992 3.83994 3.35992ZM5.27994 3.35992C5.5449 3.35992 5.75994 3.57496 5.75994 3.83992C5.75994 4.10488 5.5449 4.31992 5.27994 4.31992C5.01498 4.31992 4.79994 4.10488 4.79994 3.83992C4.79994 3.57496 5.01498 3.35992 5.27994 3.35992ZM6.71994 3.35992C6.9849 3.35992 7.19994 3.57496 7.19994 3.83992C7.19994 4.10488 6.9849 4.31992 6.71994 4.31992C6.45498 4.31992 6.23994 4.10488 6.23994 3.83992C6.23994 3.57496 6.45498 3.35992 6.71994 3.35992ZM2.7815 5.75992H4.79994V9.54836C4.48123 9.88277 4.05546 10.0799 3.59994 10.0799C2.60826 10.0799 2.39994 9.16648 2.39994 8.39992C2.39994 7.58104 2.6471 6.36232 2.7815 5.75992ZM5.75994 5.75992H8.15994V9.54836C7.84123 9.88277 7.41546 10.0799 6.95994 10.0799C6.50443 10.0799 6.07866 9.88277 5.75994 9.54836V5.75992ZM9.11994 5.75992H11.5199V9.54836C11.2012 9.88277 10.7755 10.0799 10.3199 10.0799C9.86443 10.0799 9.43866 9.88277 9.11994 9.54836V5.75992ZM12.4799 5.75992H14.8799V9.54836C14.5619 9.88295 14.136 10.0799 13.6799 10.0799C13.2244 10.0799 12.7987 9.88277 12.4799 9.54836V5.75992ZM15.8399 5.75992H18.2399V9.54836C17.9219 9.88295 17.496 10.0799 17.0399 10.0799C16.5839 10.0799 16.158 9.88295 15.8399 9.54836V5.75992ZM19.1999 5.75992H21.2184C21.3528 6.36232 21.5999 7.58104 21.5999 8.39992C21.5999 8.81944 21.5315 9.27803 21.3121 9.61211C21.2473 9.66155 21.192 9.72189 21.1593 9.79773C20.9803 9.96813 20.7388 10.0799 20.3999 10.0799C19.9439 10.0799 19.518 9.88295 19.1999 9.54836V5.75992ZM5.75994 12.4799H11.5199V21.1199H5.75994V12.4799ZM12.4799 12.4799H18.7199V21.1199H12.4799V12.4799ZM10.0799 16.3199C9.95264 16.3199 9.83055 16.3705 9.74053 16.4605C9.65051 16.5505 9.59994 16.6726 9.59994 16.7999C9.59994 16.9272 9.65051 17.0493 9.74053 17.1393C9.83055 17.2294 9.95264 17.2799 10.0799 17.2799C10.2072 17.2799 10.3293 17.2294 10.4194 17.1393C10.5094 17.0493 10.5599 16.9272 10.5599 16.7999C10.5599 16.6726 10.5094 16.5505 10.4194 16.4605C10.3293 16.3705 10.2072 16.3199 10.0799 16.3199ZM13.9199 16.3199C13.7926 16.3199 13.6705 16.3705 13.5805 16.4605C13.4905 16.5505 13.4399 16.6726 13.4399 16.7999C13.4399 16.9272 13.4905 17.0493 13.5805 17.1393C13.6705 17.2294 13.7926 17.2799 13.9199 17.2799C14.0472 17.2799 14.1693 17.2294 14.2594 17.1393C14.3494 17.0493 14.3999 16.9272 14.3999 16.7999C14.3999 16.6726 14.3494 16.5505 14.2594 16.4605C14.1693 16.3705 14.0472 16.3199 13.9199 16.3199Z" fill="black"/>
</svg>
