<svg width="22" height="22" viewBox="0 0 22 22" fill="none" xmlns="http://www.w3.org/2000/svg">
<path d="M11 0.916992C8.94333 0.916992 7.27119 2.67871 7.27119 4.84556V5.63128H4.32309L2.75 20.167H19.25L17.6769 5.63128H15.4746V7.98842C15.4746 8.63909 14.9735 9.16699 14.3559 9.16699C14.2729 9.16699 14.1884 9.16085 14.1112 9.14244C13.6116 9.02427 13.2373 8.55162 13.2373 7.98842C13.2373 7.4774 13.5505 7.04618 13.9831 6.88351V7.98842C13.9831 8.2048 14.1491 8.38128 14.3559 8.38128C14.5628 8.38128 14.7288 8.2048 14.7288 7.98842V4.84556C14.7288 2.67871 13.0567 0.916992 11 0.916992ZM11 1.70271C12.6445 1.70271 13.9831 3.113 13.9831 4.84556V5.63128H8.76271V7.98842C8.76271 8.63909 8.26165 9.16699 7.64407 9.16699C7.56104 9.16699 7.47656 9.16085 7.39936 9.14244C6.8983 9.02427 6.52542 8.55162 6.52542 7.98842C6.52542 7.4774 6.83859 7.04618 7.27119 6.88351V7.98842C7.27119 8.2048 7.43869 8.38128 7.64407 8.38128C7.84944 8.38128 8.01695 8.2048 8.01695 7.98842V4.84556C8.01695 3.113 9.35554 1.70271 11 1.70271Z" fill="#EDEBEB"/>
</svg>
