<svg width="33" height="32" viewBox="0 0 33 32" fill="none" xmlns="http://www.w3.org/2000/svg">
<path d="M16.5 1.33203C13.1761 1.33203 10.4737 3.89453 10.4737 7.04632V8.18917H5.70906L3.16669 29.332H29.8334L27.291 8.18917H23.7317V11.6177C23.7317 12.5642 22.9219 13.332 21.9237 13.332C21.7896 13.332 21.653 13.3231 21.5283 13.2963C20.7208 13.1244 20.1158 12.4369 20.1158 11.6177C20.1158 10.8744 20.622 10.2472 21.3211 10.0106V11.6177C21.3211 11.9325 21.5895 12.1892 21.9237 12.1892C22.258 12.1892 22.5264 11.9325 22.5264 11.6177V7.04632C22.5264 3.89453 19.8239 1.33203 16.5 1.33203ZM16.5 2.47489C19.1577 2.47489 21.3211 4.52623 21.3211 7.04632V8.18917H12.8842V11.6177C12.8842 12.5642 12.0744 13.332 11.0763 13.332C10.9421 13.332 10.8056 13.3231 10.6808 13.2963C9.87102 13.1244 9.26838 12.4369 9.26838 11.6177C9.26838 10.8744 9.7745 10.2472 10.4737 10.0106V11.6177C10.4737 11.9325 10.7444 12.1892 11.0763 12.1892C11.4082 12.1892 11.6789 11.9325 11.6789 11.6177V7.04632C11.6789 4.52623 13.8423 2.47489 16.5 2.47489Z" fill="black"/>
</svg>
