<svg width="24" height="24" viewBox="0 0 24 24" fill="none" xmlns="http://www.w3.org/2000/svg">
<path d="M12 5.75977C5.60168 5.75977 0.595355 11.6876 0.595355 11.6876C0.512557 11.7843 0.471573 11.9099 0.481419 12.0369C0.491265 12.1638 0.551133 12.2817 0.647854 12.3645C0.744576 12.4473 0.870226 12.4882 0.997165 12.4784C1.1241 12.4685 1.24193 12.4087 1.32473 12.312C1.32473 12.312 6.2064 6.71977 12 6.71977C17.7937 6.71977 22.6754 12.312 22.6754 12.312C22.7582 12.4087 22.876 12.4685 23.0029 12.4784C23.1299 12.4882 23.2555 12.4473 23.3522 12.3645C23.449 12.2817 23.5088 12.1638 23.5187 12.0369C23.5285 11.9099 23.4875 11.7843 23.4047 11.6876C23.4047 11.6876 18.3984 5.75977 12 5.75977ZM12 8.15977C10.656 8.15977 9.60004 9.21577 9.60004 10.5598C9.60004 11.9038 10.656 12.9598 12 12.9598C13.344 12.9598 14.4 11.9038 14.4 10.5598C14.4 9.21577 13.344 8.15977 12 8.15977ZM7.05567 8.73539C3.98367 10.3194 1.92023 12.7676 1.87223 12.7676C1.72823 12.9116 1.53642 13.0561 1.34442 13.1041C3.02442 14.7361 7.10404 18.2398 12 18.2398C16.896 18.2398 20.9757 14.7361 22.6557 13.1041C22.4637 13.0561 22.2719 12.9596 22.1279 12.7676C22.0799 12.7196 20.0164 10.3194 16.9444 8.73539C17.1364 9.31139 17.28 9.88795 17.28 10.512C17.28 13.44 14.928 15.792 12 15.792C9.07204 15.792 6.72004 13.44 6.72004 10.512C6.72004 9.88795 6.81567 9.26339 7.05567 8.73539Z" fill="black"/>
</svg>
