<svg width="22" height="22" viewBox="0 0 22 22" fill="none" xmlns="http://www.w3.org/2000/svg">
<path d="M10.9999 3.08008C10.0288 3.08008 9.23988 3.86898 9.23988 4.84008C9.23988 5.81117 10.0288 6.60008 10.9999 6.60008C11.971 6.60008 12.7599 5.81117 12.7599 4.84008C12.7599 3.86898 11.971 3.08008 10.9999 3.08008ZM1.31988 4.40008C1.07754 4.40008 0.879883 4.59773 0.879883 4.84008C0.879883 5.08242 1.07754 5.28008 1.31988 5.28008H8.39941C8.37535 5.13742 8.35988 4.98961 8.35988 4.84008C8.35988 4.69055 8.37535 4.54273 8.39941 4.40008H1.31988ZM13.6004 4.40008C13.6244 4.54273 13.6399 4.69055 13.6399 4.84008C13.6399 4.98961 13.6244 5.13742 13.6004 5.28008H20.6799C20.9239 5.28008 21.1199 5.08242 21.1199 4.84008C21.1199 4.59773 20.9239 4.40008 20.6799 4.40008H13.6004ZM17.1599 9.24008C16.1888 9.24008 15.3999 10.029 15.3999 11.0001C15.3999 11.9712 16.1888 12.7601 17.1599 12.7601C18.131 12.7601 18.9199 11.9712 18.9199 11.0001C18.9199 10.029 18.131 9.24008 17.1599 9.24008ZM1.31988 10.5601C1.07754 10.5601 0.879883 10.7577 0.879883 11.0001C0.879883 11.2424 1.07754 11.4401 1.31988 11.4401H14.5594C14.5354 11.2974 14.5199 11.1496 14.5199 11.0001C14.5199 10.8505 14.5354 10.7027 14.5594 10.5601H1.31988ZM19.7604 10.5601C19.7844 10.7027 19.7999 10.8505 19.7999 11.0001C19.7999 11.1496 19.7844 11.2974 19.7604 11.4401H20.6799C20.9239 11.4401 21.1199 11.2424 21.1199 11.0001C21.1199 10.7577 20.9239 10.5601 20.6799 10.5601H19.7604ZM6.15988 15.4001C5.18879 15.4001 4.39988 16.189 4.39988 17.1601C4.39988 18.1312 5.18879 18.9201 6.15988 18.9201C7.13098 18.9201 7.91988 18.1312 7.91988 17.1601C7.91988 16.189 7.13098 15.4001 6.15988 15.4001ZM1.31988 16.7201C1.07754 16.7201 0.879883 16.916 0.879883 17.1601C0.879883 17.4041 1.07754 17.6001 1.31988 17.6001H3.55941C3.53535 17.4574 3.51988 17.3113 3.51988 17.1601C3.51988 17.0088 3.53535 16.8627 3.55941 16.7201H1.31988ZM8.76035 16.7201C8.78441 16.8627 8.79988 17.0088 8.79988 17.1601C8.79988 17.3113 8.78441 17.4574 8.76035 17.6001H20.6799C20.9239 17.6001 21.1199 17.4041 21.1199 17.1601C21.1199 16.916 20.9239 16.7201 20.6799 16.7201H8.76035Z" fill="black"/>
</svg>
