<svg width="22" height="23" viewBox="0 0 22 23" fill="none" xmlns="http://www.w3.org/2000/svg">
<path d="M20.3003 3.38257C19.9703 3.10273 19.452 3.06269 18.9161 3.27785H18.9152C18.3516 3.50401 2.96038 10.1058 2.33382 10.3755C2.21986 10.4151 1.22458 10.7865 1.3271 11.6137C1.41862 12.3595 2.21854 12.6683 2.31622 12.704L6.22914 14.0438C6.48874 14.9079 7.44574 18.0962 7.65738 18.7773C7.78938 19.2019 8.00454 19.7598 8.38162 19.8747C8.7125 20.0023 9.04162 19.8857 9.25458 19.7185L11.6469 17.4995L15.5087 20.5113L15.6007 20.5663C15.8629 20.6825 16.1142 20.7406 16.354 20.7406C16.5392 20.7406 16.717 20.7058 16.8868 20.6363C17.4654 20.3987 17.6969 19.8474 17.7211 19.7849L20.6057 4.79101C20.7817 3.99021 20.5371 3.58277 20.3003 3.38257ZM9.68006 14.5797L8.36006 18.0997L7.04006 13.6997L17.1601 6.21969L9.68006 14.5797Z" fill="#EDEBEB"/>
</svg>
