<svg width="23" height="23" viewBox="0 0 23 23" fill="none" xmlns="http://www.w3.org/2000/svg">
<path d="M20.8003 3.38257C20.4703 3.10273 19.952 3.06269 19.416 3.27785H19.4152C18.8515 3.50401 3.46032 10.1058 2.83376 10.3755C2.7198 10.4151 1.72452 10.7865 1.82704 11.6137C1.91856 12.3595 2.71848 12.6683 2.81616 12.704L6.72908 14.0438C6.98868 14.9079 7.94568 18.0962 8.15732 18.7773C8.28932 19.2019 8.50448 19.7598 8.88156 19.8747C9.21244 20.0023 9.54156 19.8857 9.75452 19.7185L12.1468 17.4995L16.0087 20.5113L16.1006 20.5663C16.3629 20.6825 16.6141 20.7406 16.8539 20.7406C17.0392 20.7406 17.2169 20.7058 17.3868 20.6363C17.9654 20.3987 18.1968 19.8474 18.221 19.7849L21.1056 4.79101C21.2816 3.99021 21.037 3.58277 20.8003 3.38257ZM10.18 14.5797L8.86 18.0997L7.54 13.6997L17.66 6.21969L10.18 14.5797Z" fill="#141318"/>
</svg>
