<svg width="22" height="22" viewBox="0 0 22 22" fill="none" xmlns="http://www.w3.org/2000/svg">
<path d="M9.24 0.879883C8.516 0.879883 7.92 1.47588 7.92 2.19988V3.07988H3.52C3.46169 3.07906 3.4038 3.08983 3.3497 3.11157C3.29559 3.13331 3.24635 3.16559 3.20482 3.20653C3.1633 3.24747 3.13033 3.29626 3.10782 3.35005C3.08532 3.40384 3.07373 3.46157 3.07373 3.51988C3.07373 3.57819 3.08532 3.63592 3.10782 3.68972C3.13033 3.74351 3.1633 3.79229 3.20482 3.83323C3.24635 3.87417 3.29559 3.90645 3.3497 3.92819C3.4038 3.94994 3.46169 3.96071 3.52 3.95988H3.96V19.7999C3.96 20.5276 4.55224 21.1199 5.28 21.1199H16.72C17.4478 21.1199 18.04 20.5276 18.04 19.7999V3.95988H18.48C18.5383 3.96071 18.5962 3.94994 18.6503 3.92819C18.7044 3.90645 18.7536 3.87417 18.7952 3.83323C18.8367 3.79229 18.8697 3.74351 18.8922 3.68972C18.9147 3.63592 18.9263 3.57819 18.9263 3.51988C18.9263 3.46157 18.9147 3.40384 18.8922 3.35005C18.8697 3.29626 18.8367 3.24747 18.7952 3.20653C18.7536 3.16559 18.7044 3.13331 18.6503 3.11157C18.5962 3.08983 18.5383 3.07906 18.48 3.07988H14.08V2.19988C14.08 1.47588 13.484 0.879883 12.76 0.879883H9.24ZM9.24 1.75988H12.76C13.004 1.75988 13.2 1.95588 13.2 2.19988V3.07988H8.8V2.19988C8.8 1.95588 8.996 1.75988 9.24 1.75988ZM8.36 6.15988C8.60288 6.15988 8.8 6.357 8.8 6.59988V17.5999C8.8 17.8432 8.60288 18.0399 8.36 18.0399C8.11712 18.0399 7.92 17.8432 7.92 17.5999V6.59988C7.92 6.357 8.11712 6.15988 8.36 6.15988ZM11 6.15988C11.2429 6.15988 11.44 6.357 11.44 6.59988V17.5999C11.44 17.8432 11.2429 18.0399 11 18.0399C10.7571 18.0399 10.56 17.8432 10.56 17.5999V6.59988C10.56 6.357 10.7571 6.15988 11 6.15988ZM13.64 6.15988C13.8833 6.15988 14.08 6.357 14.08 6.59988V17.5999C14.08 17.8432 13.8833 18.0399 13.64 18.0399C13.3967 18.0399 13.2 17.8432 13.2 17.5999V6.59988C13.2 6.357 13.3967 6.15988 13.64 6.15988Z" fill="black"/>
</svg>
