<svg width="23" height="23" viewBox="0 0 23 23" fill="none" xmlns="http://www.w3.org/2000/svg">
<path d="M18.54 2.25977H4.46001C3.24561 2.25977 2.26001 3.24537 2.26001 4.45977V18.5398C2.26001 19.7542 3.24561 20.7398 4.46001 20.7398H18.54C19.7544 20.7398 20.74 19.7542 20.74 18.5398V4.45977C20.74 3.24537 19.7544 2.25977 18.54 2.25977ZM17.0968 15.0198L15.4556 15.0154C15.4556 15.0154 15.4204 15.0198 15.3632 15.0198C15.2312 15.0198 14.9584 14.9846 14.6372 14.7646C14.0608 14.3642 13.5108 13.3698 13.0752 13.3698C13.0444 13.3698 13.018 13.3742 12.9916 13.383C12.6132 13.5018 12.4988 13.8802 12.4988 14.3422C12.4988 14.505 12.3844 14.5798 12.0764 14.5798H11.2272C10.2768 14.5798 9.35721 14.5578 8.32321 13.427C6.80081 11.7594 5.37521 8.79377 5.37521 8.79377C5.37521 8.79377 5.29601 8.62217 5.37961 8.52097C5.45881 8.42857 5.64361 8.41977 5.71401 8.41977C5.73161 8.41977 5.74041 8.41977 5.74041 8.41977H7.50041C7.50041 8.41977 7.66321 8.45057 7.78201 8.53857C7.88321 8.61337 7.93601 8.74977 7.93601 8.74977C7.93601 8.74977 8.23521 9.33057 8.60921 9.98617C9.23841 11.0686 9.57721 11.4294 9.81921 11.4294C9.85881 11.4294 9.89841 11.4206 9.93801 11.3986C10.2988 11.2006 10.1932 9.59897 10.1932 9.59897C10.1932 9.59897 10.1976 9.01817 10.0084 8.76297C9.86321 8.56057 9.58601 8.50337 9.46281 8.48577C9.36601 8.47257 9.52441 8.24377 9.73561 8.13817C10.0084 8.00617 10.4616 7.97977 11.0072 7.97977H11.2712C11.786 7.98857 11.7992 8.04137 12.0016 8.08977C12.6088 8.23497 12.402 8.80257 12.402 10.1622C12.402 10.5978 12.3228 11.2094 12.6352 11.4162C12.6572 11.4294 12.688 11.4382 12.7276 11.4382C12.93 11.4382 13.3656 11.1786 14.0608 10.0038C14.448 9.33497 14.7472 8.67057 14.7472 8.67057C14.7472 8.67057 14.8132 8.55177 14.9144 8.49017C15.0112 8.43297 15.0112 8.43297 15.1388 8.43297H15.152C15.2928 8.43297 16.692 8.41977 17 8.41977H17.0352C17.33 8.41977 17.5984 8.42417 17.6468 8.60457C17.7172 8.87737 17.4312 9.36577 16.6788 10.3778C15.438 12.0366 15.2972 11.9134 16.3268 12.8726C17.3124 13.7878 17.5148 14.2322 17.55 14.2894C17.9592 14.967 17.0968 15.0198 17.0968 15.0198Z" fill="#141318"/>
</svg>
