<svg width="22" height="23" viewBox="0 0 22 23" fill="none" xmlns="http://www.w3.org/2000/svg">
<path d="M18.04 2.25977H3.96001C2.74561 2.25977 1.76001 3.24537 1.76001 4.45977V18.5398C1.76001 19.7542 2.74561 20.7398 3.96001 20.7398H18.04C19.2544 20.7398 20.24 19.7542 20.24 18.5398V4.45977C20.24 3.24537 19.2544 2.25977 18.04 2.25977ZM16.5968 15.0198L14.9556 15.0154C14.9556 15.0154 14.9204 15.0198 14.8632 15.0198C14.7312 15.0198 14.4584 14.9846 14.1372 14.7646C13.5608 14.3642 13.0108 13.3698 12.5752 13.3698C12.5444 13.3698 12.518 13.3742 12.4916 13.383C12.1132 13.5018 11.9988 13.8802 11.9988 14.3422C11.9988 14.505 11.8844 14.5798 11.5764 14.5798H10.7272C9.77681 14.5798 8.85721 14.5578 7.82321 13.427C6.30081 11.7594 4.87521 8.79377 4.87521 8.79377C4.87521 8.79377 4.79601 8.62217 4.87961 8.52097C4.95881 8.42857 5.14361 8.41977 5.21401 8.41977C5.23161 8.41977 5.24041 8.41977 5.24041 8.41977H7.00041C7.00041 8.41977 7.16321 8.45057 7.28201 8.53857C7.38321 8.61337 7.43601 8.74977 7.43601 8.74977C7.43601 8.74977 7.73521 9.33057 8.10921 9.98617C8.73841 11.0686 9.07721 11.4294 9.31921 11.4294C9.35881 11.4294 9.39841 11.4206 9.43801 11.3986C9.79881 11.2006 9.69321 9.59897 9.69321 9.59897C9.69321 9.59897 9.69761 9.01817 9.50841 8.76297C9.36321 8.56057 9.08601 8.50337 8.96281 8.48577C8.86601 8.47257 9.02441 8.24377 9.23561 8.13817C9.50841 8.00617 9.96161 7.97977 10.5072 7.97977H10.7712C11.286 7.98857 11.2992 8.04137 11.5016 8.08977C12.1088 8.23497 11.902 8.80257 11.902 10.1622C11.902 10.5978 11.8228 11.2094 12.1352 11.4162C12.1572 11.4294 12.188 11.4382 12.2276 11.4382C12.43 11.4382 12.8656 11.1786 13.5608 10.0038C13.948 9.33497 14.2472 8.67057 14.2472 8.67057C14.2472 8.67057 14.3132 8.55177 14.4144 8.49017C14.5112 8.43297 14.5112 8.43297 14.6388 8.43297H14.652C14.7928 8.43297 16.192 8.41977 16.5 8.41977H16.5352C16.83 8.41977 17.0984 8.42417 17.1468 8.60457C17.2172 8.87737 16.9312 9.36577 16.1788 10.3778C14.938 12.0366 14.7972 11.9134 15.8268 12.8726C16.8124 13.7878 17.0148 14.2322 17.05 14.2894C17.4592 14.967 16.5968 15.0198 16.5968 15.0198Z" fill="#EDEBEB"/>
</svg>
