<svg width="18" height="18" viewBox="0 0 18 18" fill="none" xmlns="http://www.w3.org/2000/svg">
<g clip-path="url(#clip0_846_17447)">
<path d="M9.00002 0.720703C4.4345 0.720703 0.720024 4.43518 0.720024 9.0007C0.720024 10.4263 1.0883 11.8281 1.7867 13.0651L0.733344 16.8235C0.698784 16.947 0.732264 17.0795 0.821544 17.1713C0.890304 17.2422 0.983904 17.2807 1.08002 17.2807C1.10882 17.2807 1.13798 17.2771 1.16642 17.2703L5.08898 16.2986C6.2867 16.9416 7.63562 17.2807 9.00002 17.2807C13.5655 17.2807 17.28 13.5662 17.28 9.0007C17.28 4.43518 13.5655 0.720703 9.00002 0.720703ZM13.1652 11.9225C12.9881 12.4128 12.1385 12.8603 11.7303 12.9204C11.3638 12.974 10.9001 12.9971 10.3911 12.8372C10.0825 12.74 9.68654 12.6111 9.1793 12.3948C7.04702 11.4854 5.65454 9.36538 5.54798 9.22534C5.44178 9.0853 4.68002 8.08738 4.68002 7.05454C4.68002 6.0217 5.22902 5.51374 5.42414 5.3035C5.61926 5.09326 5.8493 5.0407 5.99114 5.0407C6.13298 5.0407 6.27446 5.0425 6.39866 5.04826C6.52934 5.05474 6.70466 4.99894 6.8771 5.40862C7.05422 5.8291 7.47938 6.86194 7.53194 6.96742C7.58522 7.07254 7.6205 7.1953 7.54994 7.33534C7.47938 7.47538 7.4441 7.56286 7.33754 7.68562C7.23098 7.80838 7.11434 7.95922 7.01858 8.05354C6.91202 8.1583 6.8015 8.2717 6.92534 8.48194C7.04918 8.69218 7.47578 9.37942 8.10794 9.93598C8.91974 10.6509 9.60482 10.8727 9.81722 10.9778C10.0296 11.0829 10.1538 11.0653 10.2777 10.9253C10.4015 10.7849 10.809 10.3122 10.9505 10.1023C11.092 9.89242 11.2338 9.92698 11.4289 9.99718C11.6241 10.067 12.6691 10.5746 12.8815 10.6797C13.0939 10.7849 13.2358 10.8374 13.2891 10.9249C13.3423 11.012 13.3423 11.4325 13.1652 11.9225Z" fill="#141318"/>
</g>
<defs>
<clipPath id="clip0_846_17447">
<rect width="18" height="18" fill="white"/>
</clipPath>
</defs>
</svg>
