<svg width="40" height="40" viewBox="0 0 40 40" fill="none" xmlns="http://www.w3.org/2000/svg">
<path d="M16.8002 2.40039C9.29707 2.40039 3.2002 8.49727 3.2002 16.0004C3.2002 23.5035 9.29707 29.6004 16.8002 29.6004C19.7689 29.6004 22.5127 28.6441 24.7502 27.0254L35.2752 37.5254L37.5252 35.2754L27.1252 24.8504C29.1689 22.4691 30.4002 19.3785 30.4002 16.0004C30.4002 8.49727 24.3033 2.40039 16.8002 2.40039ZM16.8002 4.00039C23.4377 4.00039 28.8002 9.36289 28.8002 16.0004C28.8002 22.6379 23.4377 28.0004 16.8002 28.0004C10.1627 28.0004 4.8002 22.6379 4.8002 16.0004C4.8002 9.36289 10.1627 4.00039 16.8002 4.00039ZM16.0002 9.60039V15.2004H10.4002V16.8004H16.0002V22.4004H17.6002V16.8004H23.2002V15.2004H17.6002V9.60039H16.0002Z" fill="black"/>
</svg>
